<?xml version="1.0" encoding="UTF-8"?>
<svg xmlns="http://www.w3.org/2000/svg" viewBox="0 0 220 220">
  <defs>
    <style>
      .uuid-59b5e7e2-c977-49f7-ac07-e65e0aff2daf, .uuid-551581dc-bffe-480a-8352-37aa1de57fc1 {
        stroke-width: 0px;
      }

      .uuid-551581dc-bffe-480a-8352-37aa1de57fc1 {
        fill: #fff;
      }
    </style>
  </defs>
  <g id="uuid-a8942e9f-7fc1-4139-ac6e-51cc3c0d0b12" data-name="BACKGROUND">
    <rect class="uuid-59b5e7e2-c977-49f7-ac07-e65e0aff2daf" width="220" height="220"/>
  </g>
  <g id="uuid-90b35217-71b3-4957-b8a7-155106d803d3" data-name="OBJECT">
    <g>
      <path class="uuid-551581dc-bffe-480a-8352-37aa1de57fc1" d="m116.34,90.2c-1.21-1.12-2.48-2.16-3.82-3.14-10.86,8.16-17.34,21.03-17.34,34.62s6.49,26.46,17.34,34.62c1.33-.97,2.61-2.02,3.82-3.13-10.26-7.24-16.39-18.9-16.39-31.49s6.13-24.25,16.4-31.48Z"/>
      <path class="uuid-551581dc-bffe-480a-8352-37aa1de57fc1" d="m137.65,121.68c0-27.72-22.55-50.27-50.27-50.27s-50.27,22.55-50.27,50.27,22.55,50.27,50.27,50.27,50.27-22.55,50.27-50.27Zm-19.3,31.91c-.09.14-.21.22-.35.29-7.99,7.6-18.75,12.29-30.62,12.29-24.53,0-44.49-19.96-44.49-44.49s19.96-44.49,44.49-44.49c9.6,0,18.47,3.09,25.75,8.28.02.02.04.01.06.04,0,0,0,0,0,0,1.78,1.28,3.47,2.67,5.05,4.19.03.03.08.03.1.07,0,.01,0,.02,0,.03,8.32,8.09,13.52,19.38,13.52,31.88s-5.19,23.78-13.52,31.88c0,0,0,.03,0,.03Z"/>
      <polygon class="uuid-551581dc-bffe-480a-8352-37aa1de57fc1" points="78.4 48.63 76.55 51.75 81.09 51.75 78.4 48.63"/>
      <path class="uuid-551581dc-bffe-480a-8352-37aa1de57fc1" d="m138.48,78.38h0c-6.12,0-12,1.3-17.53,3.76,1.33,1.12,2.58,2.31,3.78,3.56,4.39-1.68,9.01-2.55,13.76-2.55,21.25,0,38.54,17.29,38.54,38.54s-17.29,38.54-38.54,38.54c-4.75,0-9.37-.87-13.76-2.55-1.2,1.25-2.46,2.44-3.78,3.56,5.53,2.46,11.42,3.76,17.54,3.76,23.88,0,43.31-19.43,43.31-43.31s-19.43-43.31-43.31-43.31Z"/>
      <polygon class="uuid-551581dc-bffe-480a-8352-37aa1de57fc1" points="141.74 62.12 139.47 59.82 137.21 62.12 141.74 62.12"/>
      <polygon class="uuid-551581dc-bffe-480a-8352-37aa1de57fc1" points="142.61 63.76 136.34 63.76 139.47 74.46 142.61 63.76"/>
      <polygon class="uuid-551581dc-bffe-480a-8352-37aa1de57fc1" points="148.51 62.12 147.28 60.05 145.5 62.12 148.51 62.12"/>
      <polygon class="uuid-551581dc-bffe-480a-8352-37aa1de57fc1" points="144.33 63.76 141.61 73.05 148.34 63.76 144.33 63.76"/>
      <polygon class="uuid-551581dc-bffe-480a-8352-37aa1de57fc1" points="145.62 59.47 141.44 59.47 143.67 61.72 145.62 59.47"/>
      <polygon class="uuid-551581dc-bffe-480a-8352-37aa1de57fc1" points="130.61 63.76 137.34 73.05 134.62 63.76 130.61 63.76"/>
      <polygon class="uuid-551581dc-bffe-480a-8352-37aa1de57fc1" points="86.2 48.05 80.07 48.05 82.93 51.36 86.2 48.05"/>
      <polygon class="uuid-551581dc-bffe-480a-8352-37aa1de57fc1" points="96.26 48.05 90.13 48.05 93.4 51.36 96.26 48.05"/>
      <polygon class="uuid-551581dc-bffe-480a-8352-37aa1de57fc1" points="137.5 59.47 133.33 59.47 135.28 61.72 137.5 59.47"/>
      <polygon class="uuid-551581dc-bffe-480a-8352-37aa1de57fc1" points="99.78 51.75 97.93 48.63 95.24 51.75 99.78 51.75"/>
      <polygon class="uuid-551581dc-bffe-480a-8352-37aa1de57fc1" points="76.73 53.4 86.04 66.24 82.27 53.4 76.73 53.4"/>
      <polygon class="uuid-551581dc-bffe-480a-8352-37aa1de57fc1" points="131.66 60.05 130.44 62.12 133.44 62.12 131.66 60.05"/>
      <polygon class="uuid-551581dc-bffe-480a-8352-37aa1de57fc1" points="91.47 51.75 88.17 48.4 84.86 51.75 91.47 51.75"/>
      <polygon class="uuid-551581dc-bffe-480a-8352-37aa1de57fc1" points="94.06 53.4 90.3 66.24 99.61 53.4 94.06 53.4"/>
      <polygon class="uuid-551581dc-bffe-480a-8352-37aa1de57fc1" points="92.34 53.4 83.99 53.4 88.17 67.65 92.34 53.4"/>
    </g>
  </g>
</svg>