<svg version="1.2" xmlns="http://www.w3.org/2000/svg" viewBox="0 0 466 423" width="466" height="423"><style>.a{fill:#a2495d}</style><path fill-rule="evenodd" class="a" d="m231.3 422.9c-59 0-117.9 0.1-176.9 0-37.8 0-53.6-15.4-53.7-52.8-0.3-53.4 0.2-106.7-0.5-160-0.2-15 3.6-21.7 19.8-20.6 18.3 1.3 36.9 0.4 55.3 0.4 7.6 0 12.8 2 8.1 10.8-15.2 28.3-14.8 59.1-14.7 90 0 14.3-1.5 28.7-1.2 43 0.1 7.1-5.4 18 8.1 19.3 14.1 1.2 11.6-9.8 11.8-18.1 0.5-28.7-0.9-57.4 1.8-86.1 6.4-69.7 66-128.7 135.3-136.2 64.3-7 114.3 15.5 152.1 66.7 5.9 8 12.2 11 21.9 10.7 17.9-0.6 35.9 0.2 53.8-0.3 8.8-0.2 13.7 2.1 13.6 11.7-0.8 61.1-0.7 122.1-2.4 183.1-0.6 22.6-20.3 38-46 38.1-62.1 0.3-124.1 0.1-186.2 0.1q0 0.1 0 0.2zm-90.7-151.5c0 58 47.7 106.3 105.4 106.5 60.6 0.2 108.4-46.9 108.2-106.6-0.1-58.9-47.8-107-106.4-107.2-59.9-0.2-107.1 47-107.2 107.3zm19.2-171.9c7.7-31.3 16.6-62.2 36.9-88.3 4-5 9.2-8.5 15.6-8.8 20-0.8 39.9-1.5 59.9-1.8 12.4-0.1 21.4 6.5 27.6 16.7 15 24.8 24.1 52 31 79.9 3 12.4-0.9 15.4-12.6 10.4q-73.9-32-147.3 0.7c-10.4 4.6-11.4-0.3-11.1-8.8zm-111.1 76.1c-10.8 0-21.5-0.6-32.2 0.1-12.3 0.7-15.9-5-16.1-16.5-0.5-28 14.4-46.8 42.4-47.8 30.1-1.1 60.3 0.7 90.5 1.3 3 0.1 6.4 0.2 7.4 4 1 3.3-0.9 5.9-3.2 8-15.6 14.8-31.4 29.4-43.8 47.1-2.9 4.1-8.2 3.7-12.8 3.7-10.7 0-21.5 0-32.2 0q0 0 0 0.1zm352.1-65.3c12.8 0.1 25.7-0.5 38.1 3.1 25.1 7.4 30.5 34.6 24.3 56.9-1 3.4-4.1 4.3-7.2 4.7-2.6 0.3-5.3-0.2-7.7 0.4-47.7 12.6-68.4-23.8-93.5-51.9-5.2-5.8-3.8-10.4 4.8-10.9 13.7-0.8 27.5-1.5 41.2-2.3zm-301.1-13.8c-8.2 0-16.4 0.3-24.5-0.1-6.7-0.3-15.7 1.8-16.1-9.2-0.4-10.4-0.1-22 12.9-24.5 19.1-3.7 38.8-3.3 57.9-0.5 12.6 2 9.1 15.3 9.6 24.4 0.5 9.3-6.7 10-13.8 9.9-8.7-0.1-17.3 0-26 0zm284 0c-6.1 0-12.3-0.5-18.3 0.1-13.5 1.3-17.6-4.8-17.7-17.8-0.1-13.3 4.6-18.6 17.8-17.8 10.6 0.6 21.4-0.3 32.1 0.2 14.9 0.6 23.2 12.6 20.1 27.3-1.2 5.7-4.5 7.7-9.6 7.8-8.1 0.1-16.3 0-24.4 0q0 0.1 0 0.2zm-137.2 258.3c-43.2 0-83-39.7-83.1-82.8-0.1-46.7 36.6-84.8 81.7-84.8 49.5-0.1 88 38.6 87.7 88-0.3 41.9-41.1 79.6-86.3 79.6zm58.6-79.8c0-6.8-0.3-15.4-7.7-16.7-9.4-1.6-7 8.5-8 13.4-2.4 12.5-10.3 19.4-20.7 24.9-4.7 2.5-8.6 6-5.8 12.3 3.1 6.7 8.5 6.3 14.4 4.7 15-4.3 27.9-22.1 27.8-38.6z"/></svg>