<svg version="1.2" xmlns="http://www.w3.org/2000/svg" viewBox="0 0 116 116" width="116" height="116"><style>.a{fill:#a2495d}</style><path fill-rule="evenodd" class="a" d="m60.9 56h-5.8c-6.3-9.6-10.6-20.1-13-31.1 1.3-1 4.6-2.9 9.9-2.9 3.6 0 7.4 1.4 11.3 2.9 3.2 1.2 6.5 2.4 9.9 2.9-2.5 9.9-6.6 19.5-12.3 28.2zm1.1-18h4v-4h-4zm-10-10h-4v4h4zm8 18h-4v4h4zm-52 26v32h-8v-32zm70 8c0 1.1-0.9 2-2 2h-10c-1.1 0-2-0.9-2-2 0-1.1 0.9-2 2-2h10c1.1 0 2 0.9 2 2zm-36.7-59.3q-1.3-7.7-1.3-15.5v-5.2h36v5.2c0 6.3-0.7 12.6-1.9 18.7-3-0.4-6.1-1.6-9.4-2.8-4.1-1.5-8.3-3.1-12.7-3.1-4.9 0-8.5 1.4-10.7 2.7zm14.7 43.3v-4h4v4zm22 32c0 1.1-0.9 2-2 2h-10c-1.1 0-2-0.9-2-2 0-1.1 0.9-2 2-2h10c1.1 0 2 0.9 2 2zm-26 10h-9.2l-6-6h-24.8v-24h24.8l8-8h26.2c1.7 0 3 1.3 3 3 0 1.7-1.3 3-3 3h-17.8l-8.6 8.6 2.8 2.8 4.6-4.6zm26-18c0 1.1-0.9 2-2 2h-10c-1.1 0-2-0.9-2-2 0-1.1 0.9-2 2-2h10c1.1 0 2 0.9 2 2zm0 16c0 1.1-0.9 2-2 2h-10c-1.1 0-2-0.9-2-2 0-1.1 0.9-2 2-2h10c1.1 0 2 0.9 2 2zm-18 8h6v4h-16v-4h6v-34h4.4c-0.3 0.6-0.4 1.3-0.4 2 0 1.5 0.6 2.9 1.6 4-1 1.1-1.6 2.5-1.6 4 0 1.5 0.6 2.9 1.6 4-1 1.1-1.6 2.5-1.6 4 0 1.5 0.6 2.9 1.6 4-1 1.1-1.6 2.5-1.6 4zm33.5-96.3l3.7-3.7h-5.2v-4h5.2l-3.7-3.7 2.8-2.8 3.7 3.7v-5.2h4v5.2l3.7-3.7 2.8 2.8-3.7 3.7h5.2v4h-5.2l3.7 3.7-2.8 2.8-3.7-3.7v5.2h-4v-5.2l-3.7 3.7zm6.9-1.7h3.3l2.3-2.3v-3.3l-2.3-2.4h-3.3l-2.4 2.4v3.3zm-95.2 30h-5.2v-4h5.2l-3.7-3.7 2.8-2.8 3.7 3.7v-5.2h4v5.2l3.7-3.7 2.8 2.8-3.7 3.7h5.2v4h-5.2l3.7 3.7-2.8 2.8-3.7-3.7v5.2h-4v-5.2l-3.7 3.7-2.8-2.8zm3.2 2h3.3l2.3-2.4v-3.3l-2.3-2.3h-3.3l-2.4 2.3v3.3zm107.6 38h-5.2l3.7 3.7-2.8 2.8-3.7-3.7v5.2h-4v-5.2l-3.7 3.7-2.8-2.8 3.7-3.7h-5.2v-4h5.2l-3.7-3.7 2.8-2.8 3.7 3.7v-5.2h4v5.2l3.7-3.7 2.8 2.8-3.7 3.7h5.2zm-8.3-6h-3.4l-2.3 2.3v3.4l2.3 2.3h3.4l2.3-2.3v-3.4z"/></svg>