<svg version="1.2" xmlns="http://www.w3.org/2000/svg" viewBox="0 0 600 643" width="600" height="643"><style>.a{fill:#a2495d}</style><path class="a" d="m236.7 21.4c-5.9 17.5-12.5 34.4-19.6 51.2-12.8 30.3-27.9 59.3-46.9 86.3-14.5 20.6-31.1 39.3-51.6 54.2-20.8 14.9-43.8 23-69.6 22.5-2.3-0.1-2.3-1.1-2.1-2.8 1.8-14.4 4.5-28.7 8.8-42.6 5-16.2 11.3-31.8 19.4-46.6 13.6-24.6 30.6-46.4 51.6-65.2 21.6-19.4 46-34.5 72.9-45.7q17.6-7.2 36.1-11.4c0.2 0 0.5 0.1 1 0.1zm308.8 214.1c-19.8-0.5-38.1-6.2-55.1-16.4-16.9-10.1-31-23.6-43.8-38.5-20.5-23.9-36.4-50.9-50.3-79q-15.9-32.2-27.8-66c-1.4-4.2-2.9-8.4-4.4-12.5-0.2-0.5-0.5-1.1 0-1.6 0.4-0.4 0.9 0 1.3 0.1 36.9 8.8 69.8 25.6 99.3 49.4 25.5 20.7 45.9 45.7 61.3 74.7 14.2 26.7 22.9 55.1 26.5 85.2 0.6 4.7 0.6 4.7-4.2 4.6q-1.4 0-2.8 0zm-43 0.1c-3 0-5.6 0-8.2 0-10.2-0.2-20.4 0.5-30.6-0.5-23.9-2.2-45.2-11.2-64.5-25.2-19.3-14.1-34.4-31.9-47.6-51.5-14.4-21.7-25.8-45-35.3-69.3-2.3-5.8-4.6-11.6-6.4-17.5-0.5-1.4-0.3-2.3 0.7-3.3 8.6-9 17-18.1 24.1-28.4 4.3-6.4 8.4-12.9 8.4-21 0-0.9 0.4-1.2 1.3-1.1q3.9 0.7 7.8 1.2c1.6 0.2 1.6 1.5 2 2.6 2.6 7.2 5.1 14.6 7.7 21.8q7.6 21.1 16.8 41.7c10.1 22.7 21.4 44.7 34.8 65.6 13.5 20.9 28.5 40.6 47.2 57.3 12.3 11.1 25.5 20.7 41 26.9 0.2 0.1 0.3 0.3 0.8 0.7zm-404.7-0.4c0.2-0.2 0.4-0.5 0.6-0.6 15.2-6 28-15.4 40.1-26.2 16.8-15 30.8-32.3 43.4-50.9 9.5-14.1 18-28.8 25.8-43.9 8-15.4 15.1-31.2 21.6-47.3 6-15 11.6-30.1 17-45.3 0.4-1.3 1.1-2.1 2.7-2.2 2.1-0.1 4.2-0.6 6.3-0.8 0.8-0.1 1.6-0.2 1.6 1 0.5 9.5 5.6 17 10.8 24.4 6 8.6 13.2 16.3 20.5 23.9 1.7 1.8 2.1 3.1 1.2 5.7q-4.9 13.8-10.5 27.3c-5.4 12.9-11.5 25.5-18.3 37.7-11.5 20.7-25.1 39.8-42.1 56.4-13.8 13.6-29.5 24.6-47.4 32.1-14 5.8-28.6 9.1-43.8 9.1-9.4 0-18.8-0.4-28.3 0.2-0.4 0-0.9 0.1-1.2-0.6zm-11.6 407.6c-27.6 0-55.3 0-83 0-1.7 0-2.4-0.2-2.3-2.1 0.2-4.9 0-9.8 0.2-14.7 0-3.3 2-5.3 5.3-5.4 4.8-0.1 9.5-0.1 14.3-0.1 1.5 0 2.4 0.2 1.8-2.3-0.9-3.9-0.7-8-0.1-12 0.3-2.6 3.5-4.7 6.6-4.8 6.7 0 13.4 0.1 20.2 0.1q47.3-0.1 94.7-0.1c5.2 0 7.8 2.4 7.8 7.6q0 5-0.3 9.9c-0.1 1.4 0.1 1.7 1.4 1.6 4.4 0 8.7 0 13.1 0 3.9 0 6.1 2 6.1 5.9 0 4.6-0.1 9.3 0.1 14 0.1 2-0.6 2.4-2.6 2.4-27.7 0-55.5 0-83.3 0zm427.3 0c-27.5 0-55.1 0-82.6 0.1-2.3 0-3-0.7-2.9-2.9 0.2-4.6 0-9.2 0.1-13.8 0.1-3.8 2.2-5.7 6-5.7 4.5 0 9 0 13.5-0.1 1.3 0 1.8 0 1.4-1.7-1-4.1-0.8-8.3-0.3-12.5 0.5-3 3.7-4.8 7.3-4.8 18.8 0 37.7 0.1 56.5 0.1q28.7 0 57.4-0.1c6.1 0 8.5 2.4 8.4 8.5 0 3.1 0.2 6.2-0.5 9.2-0.3 1.4 0.5 1.4 1.5 1.4 4.3 0 8.7 0 13 0 4.6-0.1 6.7 2 6.7 6.6 0 4.3-0.1 8.7 0.1 13 0.1 2.1-0.4 2.7-2.6 2.7-27.6 0-55.3 0-83 0zm-467.8-206.1q0-70.7 0-141.5c0-4.1 0.1-8.2 0.1-12.3-0.1-1.3 0.2-2 1.8-2q6 0.2 12.1 0.1c1.4 0 1.8 0.5 1.8 1.9q-0.1 135.8 0 271.5c0 11.8-0.1 23.6 0 35.4 0.1 2.3-0.7 3-2.9 2.9-3.5-0.2-7.1-0.2-10.7-0.1-1.7 0.1-2.2-0.3-2.2-2.2q0-52.1 0-104.1 0-24.8 0-49.6zm426 0c0-51.1 0-102.2-0.1-153.3 0-1.9 0.4-2.5 2.4-2.4q5.5 0.1 11.1 0c1.6 0 2.2 0.4 2.2 2.1-0.1 42.5-0.1 85-0.1 127.5 0 59.7 0 119.5 0.1 179.2 0 2.2-0.5 2.9-2.7 2.8-3.7-0.1-7.5-0.1-11.2 0-1.3 0-1.9-0.3-1.9-1.9 0.1-51.3 0.1-102.7 0.1-154q0 0 0.1 0zm67 0.2q0-76.8 0-153.6c0-1.9 0.5-2.4 2.4-2.3 3.5 0.1 7.1 0.2 10.6 0 2.3-0.1 2.5 1 2.5 2.7q0 13.1 0 26.1 0 68.7 0 137.4 0 71.5 0.1 143.1c0 1.7-0.4 2.4-2.2 2.3q-5.7-0.1-11.4 0c-1.7 0.1-2-0.6-2-2.2q0-76.8 0-153.5zm-425.6-0.1c0-51 0-102-0.1-153 0-2.6 0.7-3 3-2.8q5.1 0.1 10.2 0c1.8 0 2.2 0.6 2.2 2.4 0 18.5 0 37.1 0 55.7q0 106.9 0 213.8c0 12.5 0 24.9 0.1 37.3 0 1.7-0.3 2.4-2.2 2.4-3.8-0.1-7.7 0-11.6 0-1 0-1.8 0-1.8-1.5q0.1-45.1 0.2-90.2 0-32 0-64.1zm404.2 0.2q0-76.3 0-152.6c0-3.5-0.8-3.4 3.5-3.4 2.3 0 4.7 0.2 7.1 0 2-0.2 2.4 0.7 2.3 2.4-0.1 4.7 0 9.4 0 14q0 146.6 0.1 293.1c0 1.7-0.5 2.3-2.1 2.2q-4.6-0.2-9.3-0.1c-1.4 0-1.7-0.5-1.7-1.8q0.1-76.9 0.1-153.8zm-447.3 0q0-75.6 0-151.2c0-4.7 0-4.7 4.7-4.7 2 0 4 0.1 6-0.1 2-0.1 2.3 0.7 2.3 2.5 0 13.8 0 27.7 0 41.5q0 124 0 248c0 5.8 0 11.5 0.1 17.3 0 1.8-0.6 2.4-2.3 2.3-2.8-0.1-5.7-0.1-8.5 0-1.9 0.1-2.2-0.6-2.2-2.3 0-30.6 0-61.2 0-91.9q0-30.7 0-61.4-0.1 0-0.1 0zm425.8-0.1q0-75.7 0-151.4c0-1 0.1-2.1 0-3.1 0-1 0.4-1.4 1.4-1.4 3.3 0.1 6.5 0.1 9.8 0 1.2 0 1.7 0.5 1.6 1.7 0 2.1 0.1 4.1 0.1 6.2q0 145.3 0 290.7c0 3.6-0.1 7.3 0 10.9 0.1 1.6-0.5 2.1-2 2.1q-4.5-0.1-9 0c-1.5 0-1.9-0.4-1.9-1.9 0.1-4.1 0.1-8.2 0.1-12.4q0-70.7 0-141.4-0.1 0-0.1 0zm-404.1-0.2c0-51 0-102.1 0-153.1-0.1-2.1 0.4-2.8 2.6-2.6 2.6 0.2 5.4 0.2 8 0 1.9-0.1 2.3 0.6 2.3 2.3q-0.1 20.4-0.1 40.8 0 93.5 0 187 0 39.9 0.1 79.8c0 1.3-0.4 1.7-1.6 1.7q-5-0.1-10 0c-1.1 0-1.4-0.5-1.4-1.6q0.1-56.7 0.1-113.5 0-20.4 0-40.8zm-4.6-192.1c15.4 0 30.8 0 46.3-0.1 6.1 0 10.7 2.4 13.3 8.1 4.3 9.5-2.4 19.8-12.8 19.8q-34.7 0-69.3 0-12 0-24 0c-9.6 0-15.7-6.6-14.8-16.1 0.6-6.6 6.5-11.7 13.9-11.8 12.8-0.1 25.7 0 38.6 0q4.4 0 8.8 0 0 0 0 0.1zm425.7-0.1c15.5 0 31 0.1 46.5 0 8.6-0.1 13.6 5.6 14.6 10.9 1.6 9.2-4.8 17-14.1 17-21.1 0-42.1 0-63.1 0-10.3 0-20.6 0.1-30.9 0-6.2-0.1-10.7-3.2-12.9-9-2-5.3-1.1-10.3 2.8-14.5 2.8-3.1 6.3-4.4 10.6-4.4 15.5 0.1 31 0 46.5 0zm-178.1-226.1c0.1 5.6-2.9 10.5-6 15.2-7.8 11.5-17.1 21.7-27 31.4-1.4 1.3-2.2 1.5-3.6 0.1-10.5-10.6-20.7-21.5-28.5-34.2-2.5-4.2-4.5-8.5-4.4-13.6 0-7 4.1-13.2 10.3-15.5 6.9-2.4 14.8-0.3 19.2 5.2 0.8 1 1.6 2.1 2.3 3.3 2.2 3.5 3.4 3.5 5.7 0 1-1.6 2.1-3.2 3.4-4.6 4.9-4.8 12.5-6.3 18.7-3.6 6.3 2.7 10 8.7 9.9 16.3z"/></svg>