<svg version="1.2" xmlns="http://www.w3.org/2000/svg" viewBox="0 0 1129 997" width="1129" height="997"><style>.a{fill:#a2495d}</style><path class="a" d="m725.5 217.7c48.3 0 84 4.6 118.8 14.8 68.8 19.9 128 55.8 177.3 107.7 28.6 29.9 51.6 63.6 69.5 101q29.5 61.6 35.9 129.5c3.3 34.3 1.8 68.4-4.1 102.4-5.4 31.3-14.3 61.6-27.3 90.6-22.3 50.1-53.7 93.8-94.3 130.8q-47.7 43.4-106.7 69.3c-38.6 17-79 27.2-121 30.9-39.3 3.4-78.2 1-116.6-7.9-23.6-5.5-46.6-13.1-68.7-23-1.4-0.6-3.8-0.1-3.9-2 0-1.5 2.2-1.6 3.4-2.3 21.3-12.4 42.2-25.6 60.4-42.4 3.7-3.4 6.5-4.4 11.5-3 28.8 8.1 58.3 11.7 88.3 11 30.1-0.7 59.4-6 88.1-15.2 30.5-9.9 58.8-24 85-42.4q55.5-39 90.6-97.2c12.5-20.7 22.7-42.4 30.1-65.4 18.7-57.5 20.9-115.8 5.9-174.6-17.7-69-54.6-125.8-109.9-170.5-39.4-31.7-83.9-53-133.4-63.3-49.8-10.3-99.4-9.2-148.6 3.6-38.2 10-73.1 27.1-105 50.2-36.2 26.2-65.3 58.7-87.7 97.2-12.5 21.4-22.1 44-29.2 67.8-13.7 45.9-16.3 92.6-9 139.8 5 32.6 15.5 63.5 30.5 92.9q33.3 65.2 91.7 109.3c0.6 0.4 1 0.9 1.6 1.2 2.7 1.1 2.1 2.2 0.1 3.4-8.4 4.8-16.7 9.9-25.2 14.5-13.2 7-27 12.8-40.9 18.1-2 0.7-3.2 0.7-4.8-0.8-33.5-30.4-60.9-65.5-82.3-105.3-24-44.5-39-91.8-44.2-142.1-4.2-41.5-2.1-82.6 6.8-123.3 12.1-55.3 35.1-105.6 69.3-150.7 33.3-43.9 73.9-79.4 122-106.2 27.6-15.4 56.7-27.1 87.2-35.2 33-8.8 66.6-13.3 88.8-13.2zm-330 778.5c-52.6 0.2-97-7.7-140-23.7-69.3-25.8-126.5-68.3-172.2-126.4-20.9-26.7-38-55.6-51.3-86.8-25.4-59.1-35.2-120.8-29.8-184.9 2.7-33.3 9.8-65.6 21.1-96.9q21.4-59.6 60.6-109.5 41.8-53.1 98.8-89.3c34.6-22 71.7-38.4 111.5-48.6 15.9-4 32-6.8 48.3-8.6 1.9-0.3 3.1 0.3 4.2 1.6 12 14 26.8 25 40.3 37.4 0.9 0.7 1.4 1.5 2.6 0.4 8.1-7.4 16.4-14.7 24.4-22.2 4.5-4.2 8.8-8.6 13-13.2 2.5-2.8 5.2-3.7 9-3.5 26.2 1.9 52.1 6.1 77.4 13.4 11.2 3.3 22.1 7.3 33.2 10.9 0.6 0.2 1.4 0.4 1.2 1.2-0.1 0.5-0.8 1.1-1.3 1.3-9.1 4.2-17.4 9.8-25.7 15.2-15.7 10.1-30.9 20.8-44.5 33.7-1.7 1.7-3.4 1.5-5.4 1-21.1-5-42.5-7.8-64.2-8.7-34.2-1.4-67.9 1.6-101 11-63.4 17.9-116.2 52.3-158.8 102.4-21.5 25.2-38.5 53.3-50.9 83.9-20.9 51.4-28 104.6-21.1 159.6 6.3 50.6 24.1 96.9 52.8 139 30.9 45.4 70.9 80.5 119.8 105.5 23.1 11.8 47.3 20.4 72.6 26.1 38.1 8.6 76.4 10.1 115 4.3q51.3-7.8 97.5-31.5c36.6-18.8 68.4-43.8 95.6-74.5 20.4-23 37-48.6 50-76.4 23-49.1 32.7-100.7 28.8-154.8-4.4-61.3-24.5-117.2-60.1-167.4-17.6-24.7-38.2-46.7-62.4-65.1-3.1-2.3-0.9-3.1 0.7-4.1 12.9-8.7 26.7-15.5 41.1-21.3 8.5-3.5 17.2-6.3 25.9-9 1.8-0.6 2.9-0.3 4.2 0.9 24.2 23.5 45.3 49.6 63.1 78.3 12 19.4 22.3 39.6 30.8 60.8 11.4 28.3 19.6 57.5 24.2 87.7 4.7 31.4 5.8 63 3 94.6-2.2 24.7-6.8 49-13.6 73-13.3 46.9-34.9 89.5-64.2 128.4-20.9 27.7-45.2 52.1-72.6 73.4-27.7 21.6-58.1 38.9-90.7 52.2-47.2 19.3-95.7 29.2-140.9 29.2zm-6.8-760.7c-3.7-10.6-8.4-20.3-12.6-30.3-14.5-33.6-29-67.1-43.5-100.6-4.5-10.4-8.9-20.7-13.5-31-1.2-2.8-0.8-3.7 2.3-3.7q67.6 0.2 135.1 0.1c2.9 0 2.6 1.2 1.8 3.1q-10 23.1-20 46.2c-15.7 36.7-31.5 73.4-47.3 110-0.8 1.9-0.6 4.2-2.3 6.2zm-7.5 2.1c-9.3-8.1-18-16.9-26.3-26.2-36.7-41.2-73.6-82.3-110.5-123.4-4.5-5.1-9.1-10.2-13.6-15.3-0.5-0.5-1.2-1.4-1.1-1.9 0.3-1.2 1.5-0.8 2.3-0.8 24.6 0 49.1 0.1 73.6 0 2.7 0 3.7 1.3 4.6 3.4 8.4 19.6 17 39.1 25.5 58.7q15.9 36.7 31.8 73.5 6.9 16 13.7 32zm15.5-0.1c4.2-10.1 8.1-20.1 12.4-29.9 10.5-24.2 20.9-48.5 31.4-72.7 8.8-20.4 17.8-40.7 26.5-61.1 1.3-2.8 3.1-3.9 6.1-3.9 24 0 48 0 72-0.1 1 0 2.3-0.5 2.8 0.7 0.5 1.2-0.8 1.8-1.5 2.5-27.8 31-55.8 62-83.6 93-16.3 18-32.3 36.2-48.6 54.1-5.6 6.1-11.7 11.6-17.5 17.4zm-74-175.1c8.7-8.1 17.1-15.9 25.4-23.6 12.8-11.7 25.6-23.4 38.2-35.2 2.3-2.3 3.5-1.9 5.6 0 17.3 16.4 34.8 32.7 52.1 49.1 3.3 3.1 7.3 5.5 10.3 9.7-44 0-87.5 0-131.6 0zm53.4-61.2c-0.1 1.7-1.8 2.4-2.8 3.4-19.3 17.8-38.7 35.5-57.9 53.4-2.2 2-3 1.2-4-0.8q-8.7-17.2-17.4-34.4c-3.4-6.5-6.6-13.1-10-19.6-1-1.8-1-2.6 1.3-2.6 1.9 0 3.9 0 5.9 0q41.3 0 82.7 0.1c0.7 0 1.5-0.4 2.2 0.5zm25.4-0.6q12 0 23.7 0c21.6 0 43.3 0 64.9 0 4.7 0 4.8 0.4 2.6 4.6q-13.6 25.9-27 51.9c-1 1.9-1.4 3.4-3.8 1.2-19.6-18.5-39.4-36.9-59.1-55.3-0.6-0.5-1.4-0.9-1.3-2.4zm70.8 61.7c7-13.6 13.8-26.9 20.6-40.1q3.2-6.3 6.3-12.7c0.9-2 1.8-2.2 3.4-0.5 15.7 16.7 31.4 33.4 47.2 50.1 0.6 0.7 1.6 1.4 1.3 2.3-0.7 1.6-2.3 1.2-3.5 1.2q-20.1-0.2-40.2-0.3c-11.5 0-23 0-35.1 0zm-167.7-0.1c-25.1 0-49.8 0-74.4-0.1-1.1 0-2.6 0.7-3.2-0.7-0.4-1.3 0.9-2.1 1.7-2.9q22.1-23.5 44.2-47c4-4.2 4-4.2 6.6 0.9q12.2 23.9 24.4 47.9c0.3 0.6 0.4 1.2 0.7 1.9zm-46.4 106.5q-8 2.5-15.9 5.1c-3.6 1.1-7.2 2.3-10.8 3.4-2 0.6-2.9 2.1-3.4 4-2 7.7-5.3 15-6.8 22.9-0.1 0.8-0.3 1.7-1.3 1.7-1.2 0.1-1.2-1-1.5-1.9-2.4-7.6-5-15.2-7.3-22.8-0.7-2.4-2-3.6-4.4-4.3-8.7-2.5-17.3-5.3-26.5-8.1 3.3-2.4 6.8-2.7 10-3.9 5.3-1.9 10.7-3.6 16.1-5 2.8-0.8 4.3-2.3 5.1-4.9q3.6-11.2 7.1-22.4c0.3-1 0.2-2.5 1.5-2.5 1.3 0 1.1 1.5 1.4 2.4 2.4 8 4.9 16 7.4 24 0.6 2 2.5 2.5 4.3 3.1q11.6 3.7 23.1 7.5c0.7 0.2 1.6 0.2 1.9 1.7zm-153.8 49.9c8-2.6 15.9-5.3 23.9-7.8 1.9-0.6 3-1.5 3.7-3.5 1.9-6.4 4.1-12.7 6.2-19 0.6-1.7 0.6-3.6 2.2-5.8 1.2 3.9 2.3 7.3 3.4 10.7 1.2 4 2.6 7.9 3.8 11.9 1 3.7 3.3 5.5 7 6.5 7.1 1.9 14.1 4.4 21.1 7.5-5.4 1.7-10.8 3.3-16.2 5.1-12.6 4.4-9.7 0.5-13.9 14-1.7 5.3-3.5 10.6-5.6 17-2.4-7.6-4.8-13.9-6.5-20.5-1.2-4.9-3.4-8-8.6-9.2-5.9-1.3-11.6-3.4-17.3-5.1-1.1-0.4-2.4-0.4-3.2-1.8zm82.4-99c-3.7 2.3-7.1 2.8-10.3 3.7-4.8 1.3-8.6 3-9.3 8.9-0.5 3.6-1.9 7.1-3.9 10.7-1.5-4.5-3.1-9-4.3-13.6-0.7-2.6-2.2-3.8-4.8-4.5-4.5-1.1-8.9-2.6-13.4-4.7 4.1-1.4 8.2-3.1 12.4-4 4.5-0.9 5.9-4 6.8-7.8 0.9-3.6 1.9-7.2 3-11.7 2.4 3.4 2.8 6.6 3.2 9.4 1 6.8 4.6 10.2 11.2 11.2 2.9 0.4 5.7 1.5 9.4 2.4zm-125.4 152.5c3.9-1.3 7.9-2.7 11.9-3.9 3.2-0.9 5.3-2.8 6-6.3 0.6-2.9 1.5-5.8 2.2-8.7 0.3-1.3 0.3-2.6 1.9-3.7 1.4 4.8 2.9 9.4 4.1 14.1 0.6 2.5 2.1 3.7 4.4 4.4 4.5 1.3 8.9 2.7 13.4 4.4-5 1.4-9.8 3.2-14.7 4.9-2.1 0.8-2.7 1.8-3.2 3.8-1 4.6-2.3 9-3.6 14.2-2.6-3.6-3-7.4-3.8-10.9-1.1-4.7-3.2-7.6-8.3-8.4-3.5-0.6-7-2-10.5-3.1q0.1-0.4 0.2-0.8z"/></svg>