<?xml version="1.0" encoding="UTF-8" standalone="no"?>
<!-- Created with Inkscape (http://www.inkscape.org/) -->

<svg
   width="210mm"
   height="297mm"
   viewBox="0 0 210 297"
   version="1.1"
   id="svg1"
   xml:space="preserve"
   inkscape:version="1.3.2 (091e20e, 2023-11-25, custom)"
   sodipodi:docname="timeLineFrame1.svg"
   xmlns:inkscape="http://www.inkscape.org/namespaces/inkscape"
   xmlns:sodipodi="http://sodipodi.sourceforge.net/DTD/sodipodi-0.dtd"
   xmlns="http://www.w3.org/2000/svg"
   xmlns:svg="http://www.w3.org/2000/svg"><sodipodi:namedview
     id="namedview1"
     pagecolor="#ffffff"
     bordercolor="#000000"
     borderopacity="0.25"
     inkscape:showpageshadow="2"
     inkscape:pageopacity="0.0"
     inkscape:pagecheckerboard="0"
     inkscape:deskcolor="#d1d1d1"
     inkscape:document-units="mm"
     inkscape:zoom="2.768771"
     inkscape:cx="382.11899"
     inkscape:cy="548.43827"
     inkscape:window-width="1920"
     inkscape:window-height="991"
     inkscape:window-x="-9"
     inkscape:window-y="-9"
     inkscape:window-maximized="1"
     inkscape:current-layer="layer1" /><defs
     id="defs1" /><g
     inkscape:label="Layer 1"
     inkscape:groupmode="layer"
     id="layer1"
     transform="matrix(1,0,0,1.3611711,0,-58.841918)"><g
       filter="url(#f0)"
       id="g11"
       transform="matrix(0,-0.26458333,0.26458333,0,103.81758,162.99917)"
       inkscape:label="g11"><path
         d="m 101.6,4.8 c 0,0 1.9,1.3 1.6,2.7 0,0 0.9,-0.8 0.2,-1.7 -0.6,-0.7 0.5,0.9 1.7,-1 -1.2,-1.9 -2.2,-0.2 -1.7,-1 0.6,-1 -0.2,-1.7 -0.2,-1.7 0.1,1.7 -1.6,2.7 -1.6,2.7 z"
         id="path1" /><path
         d="m 103.2,5.6 c 0,0 1.4,2.7 3.7,0.6 1.8,-1.7 2.4,-1.5 2.4,-1.5 0,0 -0.9,0.1 -2.4,-1.4 -2.2,-2.1 -3.6,0.8 -3.6,0.8 0,0 -0.1,1.5 -0.1,1.5 z"
         id="path2" /><path
         d="m 98.9,9.3 q -0.3,0 -0.6,-0.1 C 97.6,8.9 97.2,8.1 97.5,7.4 Q 97.6,7 98,6.8 q 0.4,-0.1 0.8,0 0.3,0.1 0.4,0.4 0.1,0.3 0,0.6 c 0,0.1 -0.1,0.1 -0.2,0.1 -0.1,0 -0.2,-0.2 -0.1,-0.3 q 0,-0.1 -0.1,-0.2 0,-0.2 -0.2,-0.2 -0.2,-0.1 -0.5,0 -0.2,0.1 -0.3,0.4 c -0.2,0.5 0.1,1 0.6,1.2 0.8,0.3 1.6,-0.1 1.9,-0.9 0.2,-0.6 0.2,-1.2 -0.1,-1.7 C 100,5.7 99.5,5.3 99,5.1 98.9,5 98.8,4.9 98.8,4.8 98.9,4.7 99,4.7 99.1,4.7 c 0.6,0.2 1.2,0.7 1.5,1.3 0.3,0.7 0.3,1.4 0.1,2 -0.3,0.8 -1,1.3 -1.8,1.3 z"
         id="path3" /><path
         d="M 99.2,5.1 C 99.1,5.1 99,5 99,5 98.9,4.9 99,4.8 99.1,4.7 100.2,4.3 100.8,3.1 100.4,1.9 100.2,1.1 99.3,0.7 98.6,1 98,1.2 97.8,1.7 98,2.3 q 0.1,0.2 0.3,0.3 0.2,0.1 0.5,0 0.1,0 0.2,-0.2 0,-0.1 0,-0.2 c 0,-0.1 0,-0.3 0.1,-0.3 0.1,0 0.2,0 0.3,0.1 Q 99.5,2.3 99.3,2.6 99.2,2.9 98.9,3 98.5,3.1 98.1,3 97.7,2.8 97.6,2.4 c -0.3,-0.7 0.1,-1.5 0.8,-1.8 1,-0.3 2.1,0.2 2.4,1.2 0.5,1.3 -0.2,2.8 -1.6,3.3 z"
         id="path4" /><path
         d="m 102.4,4.9 c 0,0.7 -0.5,1.2 -1.2,1.2 -0.7,0 -1.2,-0.5 -1.2,-1.2 0,-0.7 0.5,-1.2 1.2,-1.2 0.7,0 1.2,0.5 1.2,1.2 z"
         id="path5" /><path
         d="M 8,5 C 8,5 6.1,3.7 6.4,2.3 6.4,2.3 5.5,3.1 6.2,4 6.8,4.7 5.7,3.1 4.5,5 5.7,6.8 6.7,5.2 6.2,6 5.6,7 6.4,7.7 6.4,7.7 6.3,6 8,5 8,5 Z"
         id="path6" /><path
         d="M 6.4,4.2 C 6.4,4.2 5,1.5 2.7,3.6 0.9,5.2 0.3,5.1 0.3,5.1 0.3,5.1 1.1,5 2.7,6.5 4.9,8.6 6.3,5.7 6.3,5.7 Z"
         id="path7" /><path
         d="m 10.5,5.1 q 0,0 0,0 C 9.8,4.8 9.3,4.4 9,3.7 8.7,3.1 8.6,2.4 8.9,1.8 c 0.3,-1 1.4,-1.5 2.4,-1.2 0.7,0.3 1,1 0.8,1.8 Q 12,2.8 11.6,2.9 11.2,3.1 10.8,3 10.5,2.9 10.4,2.6 10.2,2.3 10.3,2 c 0.1,-0.1 0.2,-0.2 0.3,-0.1 0.1,0 0.1,0.1 0.1,0.2 q -0.1,0.2 0,0.3 0.1,0.2 0.2,0.2 C 11.3,2.7 11.6,2.5 11.7,2.2 11.9,1.7 11.6,1.2 11.1,1 10.4,0.7 9.5,1.1 9.2,1.9 9,2.4 9.1,3 9.3,3.6 c 0.3,0.5 0.7,0.9 1.3,1.1 0.1,0 0.2,0.2 0.1,0.3 q 0,0.1 -0.2,0.1 z"
         id="path8" /><path
         d="M 10.5,9.3 C 9.7,9.3 9,8.8 8.7,8 8.3,6.7 9,5.2 10.3,4.7 c 0.1,0 0.2,0 0.3,0.1 0,0.1 0,0.2 -0.1,0.3 C 9.3,5.5 8.7,6.7 9.1,7.9 9.4,8.7 10.2,9.1 11,8.8 11.5,8.6 11.8,8.1 11.6,7.6 11.5,7.2 11.1,7.1 10.8,7.2 q -0.1,0 -0.2,0.2 -0.1,0.1 0,0.3 c 0,0.1 -0.1,0.2 -0.2,0.2 -0.1,0 -0.2,0 -0.2,-0.1 q -0.1,-0.3 0,-0.6 0.2,-0.3 0.5,-0.4 c 0.5,-0.2 1.1,0.1 1.3,0.6 0.2,0.7 -0.2,1.5 -0.9,1.8 q -0.3,0.1 -0.6,0.1 z"
         id="path9" /><path
         d="M 7.3,4.9 C 7.3,4.2 7.9,3.7 8.5,3.7 9.2,3.7 9.8,4.2 9.8,4.9 9.8,5.6 9.2,6.1 8.5,6.1 7.9,6.1 7.3,5.6 7.3,4.9 Z"
         id="path10" /><path
         d="M 7.8,4.8 19.6,4.6 H 31.3 L 54.8,4.5 78.3,4.6 h 11.8 l 11.7,0.2 c 0.1,0 0.2,0 0.2,0.1 C 102,5 101.9,5 101.8,5 L 90.1,5.1 78.3,5.2 54.8,5.3 31.3,5.2 19.6,5.1 7.8,5 C 7.8,5 7.7,5 7.7,4.9 7.7,4.8 7.8,4.8 7.8,4.8 Z"
         id="path11" /></g></g><style
     id="style1" /></svg>
