<svg version="1.2" xmlns="http://www.w3.org/2000/svg" viewBox="0 0 285 403" width="285" height="403"><style>.a{fill:#b47377}</style><path fill-rule="evenodd" class="a" d="m23.1 382.8l-0.4-0.4c-3.6 3.4-6 7.6-6.6 12.6-0.2 1.5-0.1 4.6 1.8 5.2 0.9 0.2 1.8-0.3 1.9-1.3q0-0.4-0.1-0.7 0 0.3-0.3 0.6c-1.1 1.1-2.8-0.6-1.7-1.6 0.6-0.6 1.4-0.5 2.1 0.2 0.3 0.4 0.5 0.9 0.5 1.5-0.1 1.5-1.3 2.1-2.5 1.7-2.3-0.6-2.9-3.5-2.7-5.8 0.4-3.9 2.3-7.4 4.6-10.2-2.8 2.4-6.3 4.3-10.1 4.6-2.4 0.2-5.2-0.4-5.9-2.7-0.3-1.1 0.3-2.4 1.8-2.5 0.5 0 1.1 0.2 1.4 0.5 0.8 0.7 0.9 1.5 0.3 2.1-1.1 1.1-2.8-0.6-1.7-1.6q0.3-0.3 0.7-0.4-0.3-0.1-0.7-0.1c-1.1 0.1-1.6 1.1-1.3 1.9 0.5 2 3.7 2 5.2 1.8 4.9-0.6 9.2-2.9 12.5-6.5l-0.4-0.5-1.7-1.7q-0.1 0-0.1 0c-0.6 1.2-1.4 2.3-2.4 3.1-2 1.6-4.3 1.2-6-0.3-0.7 0.4-2.2 1.4-2.9 1.6-3.9-4-4.1-10.2-1.7-15.2-2.3-1.7-3.8-4.1-4.3-6.9-1-5.5 3.2-9.9 8.4-10.1-3.6-3.9-7.3-8.8-6.1-13.7 0.5-2.2 1.9-4 3.9-4.7 2.5-1 6.2-0.2 6.6 2.9 0.5 3.6-3.1 5.5-5.7 3.3q0.6-0.6 1.2-1.1c0.3 0.2 0.6 0.4 0.9 0.6 2 0.9 3.4-0.9 3.1-2.7-0.4-2.8-3.6-3-5.6-2-1.6 0.8-2.8 2.3-3.1 4.2-1.1 4.8 2.4 9.4 5.7 13.2 3.8 0.2 7.3 2.6 9.8 5.6 2.2 2.6 3.9 5.9 4.8 9.3 0.4 1.6 0.7 3.4 0.6 5.1q0.5-0.1 0.9-0.2 0.6-0.2 1.2-0.3c2-0.6 4-1.2 5.7-2l0.6-0.2-0.2 0.6c-0.7 1.7-1.4 3.7-1.9 5.7q-0.2 0.6-0.3 1.2-0.1 0.5-0.2 0.9c1.7 0 3.4 0.2 5.1 0.6 3.3 0.9 6.6 2.6 9.3 4.9 2.9 2.5 5.3 5.9 5.6 9.7 3.7 3.3 8.3 6.8 13.2 5.8 2-0.4 3.7-1.8 4.4-3.6 0.7-2 0.3-4.8-2.2-5.2-2-0.3-3.8 1.3-2.6 3.5 0.2 0.2 0.3 0.4 0.5 0.6q-0.6 0.6-1.1 1.2c-2.3-2.7-0.3-6.2 3.2-5.8 2.9 0.4 3.8 3.5 3.2 5.9-0.6 2.4-2.5 4.1-5 4.7-4.9 1.2-9.7-2.6-13.6-6.2-0.2 5.3-4.7 9.5-10.1 8.5-2.8-0.6-5.2-2.1-7-4.3-5 2.3-11.2 2.1-15.1-1.7 0.1-0.8 1.1-2.3 1.6-3-1.5-1.7-1.9-3.9-0.4-5.9 0.9-1.1 1.9-1.9 3.1-2.5q0 0 0.1 0zm-12.5-12.4c2.8 1.3 6 1.9 9.2 2-0.1-2.3-0.7-4.5-1.4-6.2-3.6-0.3-6.5 1.4-8.2 4.1q0.2 0 0.4 0.1zm15.8 1.3c0.2-5.7-3.5-10.4-9.9-9.7q1.4 1.5 2.4 3.1c2 0.3 4.6 1.4 5.4 4.1-1-1.4-2.6-2.2-4.6-2.7 0.8 1.6 1.2 3.7 1.3 5.9 1.9-0.1 3.7-0.3 5.4-0.7zm-23.3-10c0.3 2.6 1.7 4.8 3.8 6.5 1.7-3.2 4.5-5.8 8-6.9-2-2-4.4-3.4-7.4-3.7 1.5-3.5 5.4-3 7.7-1.7-1.1-1-2.4-2.2-3.7-3.5-4.9 0-9.1 4.2-8.4 9.3zm18-4.1c-2.3-2.7-5.4-4.8-8.7-5.1 2 2.1 4.1 4 5.7 5.5 0.4 0.3 0.1 0.6-0.3 0.2-0.3-0.2-1.2-1-2.3-1.7-2.2-1.3-5.1-1-6.1 1 2.4 0.7 4.5 2 6.3 3.7 4.7-0.9 8.2 1.3 9.9 4.7-0.9-3-2.5-5.9-4.5-8.3zm-11.7 12.8q-1.1-0.5-2.2-1.3c-2.1 4.5-2.1 10 0.8 13.6 0.6-0.1 1.9-1 2.4-1.3-1.1-1.5-2-3.5-2.1-5.6-0.1-1.9 0.3-3.8 1.1-5.4zm10.5 2.5c-3.4 0-6.7-0.7-9.7-2q-0.1-0.1-0.2-0.2c-0.9 1.6-1.3 3.3-1.2 5.1 0.1 2.1 0.9 4 2 5.4 1.6-1 5-3.5 4.3-5.9-0.2-0.9-1.2-0.7-1.4 0q-0.1 0.5 0 0.9c0.1 0.4-0.3 0.5-0.4 0.1q0-0.4 0-0.8c0.2-1.5 1.8-1.4 2.1-0.4 0.2 0.8 0.1 1.8-0.2 2.6-0.5 1.8-2 3.3-3.5 4.3 1.5 1.3 3.5 1.6 5.2 0.1 0.9-0.9 1.6-2 2.1-3.2 0.7-1.8 1-3.9 0.9-6zm0.4 5.1l2.4 2.4 0.2 0.1c1.8-2.2 3.3-5.1 3.5-8.2-1.7 0.4-3.5 0.6-5.4 0.6 0.1 1.8-0.2 3.5-0.7 5.1zm-4.2 10.2c-2.6 4.2-5.3 8.7-5.3 13.8-2.4-3.9 1.9-10.2 4.6-13.1-2.9 2.7-9.2 7-13.1 4.6 5.1 0 9.6-2.7 13.8-5.3q0 0 0 0zm-3.1 3.1c-0.6 1.1-2.7 3.8-5.3 6.4-2.6 2.6-4.1 3.6-4.4 3.3-0.3-0.3 0.7-1.8 3.3-4.4 2.6-2.6 5.3-4.7 6.4-5.3 0-0.1 0.1 0 0 0zm22.7 5.5c3.2-1.7 5.7-4.5 6.5-8.2q-1.4-1.1-3-2.1c-0.1 3.7-2.1 6.6-4.9 8.2q0.6 1.1 1.4 2.1zm-1.7-2.7c2.7-1.7 4.4-4.6 4.1-8.2-1.7-0.7-3.9-1.3-6.2-1.4 0.1 3.2 0.7 6.4 2 9.2q0.1 0.2 0.1 0.4zm-2-10.8c2.1 0.1 4.2 0.5 5.8 1.3-0.5-2-1.3-3.6-2.7-4.6 2.7 0.8 3.8 3.4 4.1 5.4q1.6 1 3.1 2.4c0.7-6.4-4-10.1-9.7-9.9-0.4 1.7-0.6 3.5-0.6 5.4zm19.9 9.5c-1.3-1.3-2.5-2.6-3.5-3.7 1.3 2.3 1.8 6.2-1.7 7.7-0.3-2.9-1.7-5.4-3.7-7.4-1.1 3.5-3.7 6.3-6.9 8 1.7 2.1 3.9 3.5 6.5 3.8 5.1 0.7 9.3-3.5 9.3-8.4zm-13.5-14.1c3.4 1.7 5.6 5.2 4.8 9.9 1.6 1.8 2.9 4 3.6 6.3 2-1 2.3-3.9 1-6.1-0.7-1.1-1.5-2-1.7-2.3-0.4-0.4-0.1-0.6 0.2-0.3 1.5 1.6 3.4 3.7 5.6 5.7-0.4-3.3-2.5-6.4-5.2-8.7-2.4-2-5.3-3.6-8.3-4.5zm-9.9 17.3c-2.1-0.1-4.1-0.9-5.6-2.1-0.3 0.5-1.2 1.8-1.3 2.4 3.6 2.9 9.1 2.9 13.6 0.8q-0.8-1.1-1.3-2.2c-1.6 0.8-3.5 1.2-5.4 1.1zm-3.1-10.7c-1.2 0.5-2.3 1.2-3.2 2.1-1.5 1.7-1.2 3.7 0.1 5.3 1-1.6 2.5-3 4.3-3.6 0.9-0.3 1.8-0.4 2.6-0.2 1 0.3 1.1 1.9-0.4 2.1q-0.4 0-0.8 0c-0.4-0.1-0.3-0.5 0.1-0.4q0.5 0.1 0.9 0c0.8-0.2 0.9-1.2 0.1-1.4-2.4-0.7-5 2.7-6 4.3 1.4 1.1 3.3 1.9 5.4 2 1.8 0.1 3.6-0.3 5.1-1.2q-0.1-0.1-0.2-0.2c-1.3-3-2-6.3-2-9.7-2.1 0-4.2 0.2-6 0.9zm-1.6-3.9l0.1 0.2 2.4 2.4c1.6-0.5 3.3-0.7 5.1-0.7 0-1.9 0.2-3.7 0.6-5.4-3.1 0.2-6 1.7-8.2 3.5zm10.6-11.5c-1.6 0.7-3.4 1.3-5.3 1.8q-0.6 0.1-1.2 0.3-0.5 0.1-1 0.2 0 0.4-0.1 0.7c-0.3 3-1.6 5.9-3.5 8.1 2.3-1.9 5.1-3.2 8.1-3.5q0.3-0.1 0.7-0.1 0.1-0.5 0.2-1 0.2-0.6 0.4-1.2c0.4-1.8 1-3.7 1.7-5.3zm226 14.7q0.1 0 0.1 0c1.2 0.6 2.3 1.4 3.1 2.4 1.6 2.1 1.2 4.3-0.4 6 0.5 0.7 1.5 2.2 1.6 3-3.9 3.8-10.1 4-15.1 1.6-1.8 2.3-4.2 3.8-7 4.3-5.4 1-9.9-3.2-10.1-8.4-3.9 3.6-8.7 7.4-13.6 6.2-2.4-0.7-4.4-2.4-5-4.7-0.6-2.4 0.3-5.6 3.2-5.9 3.5-0.4 5.5 3.1 3.2 5.7q-0.5-0.5-1-1.1c0.1-0.2 0.3-0.4 0.4-0.7 1.2-2.1-0.6-3.7-2.5-3.4-2.5 0.4-3 3.2-2.3 5.2 0.7 1.8 2.4 3.1 4.4 3.6 4.9 1 9.5-2.5 13.2-5.8 0.3-3.8 2.7-7.2 5.6-9.7 2.7-2.3 6-4 9.3-4.9 1.7-0.4 3.4-0.6 5.1-0.6q-0.1-0.4-0.2-0.9-0.1-0.6-0.3-1.2c-0.5-2-1.2-4-1.9-5.7l-0.2-0.6 0.6 0.2c1.7 0.7 3.7 1.4 5.7 1.9q0.6 0.2 1.2 0.4 0.4 0.1 0.9 0.2c-0.1-1.7 0.2-3.5 0.6-5.1 0.9-3.4 2.6-6.7 4.8-9.3 2.6-3 6-5.4 9.8-5.6 3.3-3.8 6.8-8.4 5.8-13.3-0.4-1.8-1.6-3.4-3.2-4.1-1.9-1-5.2-0.8-5.6 2-0.3 1.8 1.1 3.5 3.1 2.7 0.3-0.2 0.6-0.4 1-0.6q0.5 0.5 1.1 1c-2.6 2.3-6.2 0.4-5.7-3.2 0.4-3.1 4.1-3.9 6.6-2.9 2 0.7 3.4 2.5 3.9 4.7 1.3 4.9-2.5 9.7-6.1 13.6 5.2 0.2 9.4 4.7 8.4 10.2-0.5 2.8-2 5.2-4.3 6.9 2.4 5 2.2 11.2-1.7 15.1-0.7-0.1-2.2-1.1-2.9-1.5-1.7 1.5-4 1.9-6 0.3-1-0.8-1.8-1.9-2.4-3.1q0 0 0-0.1l-1.8 1.8-0.4 0.4c3.3 3.7 7.6 6 12.5 6.6 1.5 0.2 4.7 0.1 5.2-1.8 0.3-0.9-0.2-1.8-1.3-1.9q-0.4 0-0.7 0.1 0.4 0.1 0.7 0.3c1.1 1.1-0.6 2.8-1.7 1.7-0.6-0.6-0.5-1.4 0.3-2.1 0.3-0.3 0.9-0.5 1.5-0.5 1.4 0.1 2.1 1.3 1.7 2.5-0.7 2.3-3.5 2.9-5.9 2.7-3.8-0.4-7.3-2.2-10.1-4.6 2.3 2.8 4.2 6.3 4.6 10.1 0.2 2.4-0.4 5.3-2.7 5.9-1.2 0.4-2.4-0.3-2.5-1.7 0-0.6 0.2-1.1 0.5-1.5 0.7-0.8 1.5-0.8 2.1-0.2 1.1 1-0.6 2.7-1.7 1.6q-0.3-0.3-0.3-0.7-0.1 0.4-0.1 0.7c0.1 1.1 1 1.6 1.9 1.3 1.9-0.5 2-3.7 1.8-5.2-0.6-4.9-3-9.2-6.6-12.5l-0.4 0.4zm14.6-14.3c-1.6-2.7-4.5-4.4-8.1-4.1-0.7 1.7-1.3 3.9-1.5 6.2 3.2-0.1 6.5-0.7 9.3-2q0.2 0 0.3-0.1zm-10.7 2.1c0-2.2 0.5-4.2 1.3-5.9-2 0.5-3.6 1.3-4.6 2.7 0.7-2.6 3.4-3.8 5.4-4.1q0.9-1.6 2.3-3.1c-6.3-0.7-10 4-9.8 9.7 1.7 0.4 3.5 0.6 5.4 0.7zm9.5-20c-1.3 1.3-2.6 2.5-3.8 3.5 2.3-1.3 6.3-1.8 7.8 1.7-3 0.4-5.5 1.8-7.5 3.8 3.6 1 6.4 3.6 8 6.8 2.2-1.6 3.5-3.9 3.9-6.5 0.6-5.1-3.5-9.3-8.4-9.3zm-14.1 13.6c1.7-3.5 5.2-5.7 9.9-4.8 1.8-1.7 3.9-3 6.3-3.7-1.1-2-4-2.2-6.1-1-1.1 0.7-2 1.5-2.3 1.8-0.4 0.3-0.7 0.1-0.3-0.3 1.5-1.5 3.6-3.4 5.6-5.5-3.3 0.3-6.3 2.4-8.6 5.1-2 2.4-3.6 5.3-4.5 8.4zm17.3 9.8c-0.2 2.2-1 4.2-2.2 5.6 0.6 0.3 1.9 1.2 2.5 1.4 2.9-3.7 2.9-9.2 0.7-13.6q-1 0.7-2.1 1.3c0.8 1.6 1.2 3.4 1.1 5.3zm-10.7 3.1c0.4 1.2 1.1 2.3 2.1 3.2 1.7 1.5 3.6 1.3 5.2-0.1-1.5-1-3-2.5-3.6-4.3-0.3-0.8-0.4-1.8-0.1-2.5 0.3-1.1 1.8-1.2 2 0.3q0.1 0.4 0 0.8c0 0.5-0.4 0.4-0.3-0.1q0-0.4 0-0.9c-0.2-0.7-1.2-0.8-1.4 0-0.8 2.4 2.6 5 4.3 5.9 1.1-1.3 1.9-3.3 2-5.4 0.1-1.8-0.4-3.5-1.2-5q-0.1 0-0.3 0.1c-2.9 1.3-6.3 2-9.6 2-0.1 2.1 0.2 4.2 0.9 6zm-2.1-6c-1.8 0-3.6-0.2-5.3-0.6 0.2 3.1 1.7 6 3.5 8.3l0.1-0.2 2.4-2.4c-0.5-1.6-0.7-3.3-0.7-5.1zm5 15.3c4.2 2.6 8.7 5.3 13.7 5.4-3.8 2.3-10.1-2-13-4.7 2.7 2.9 7 9.2 4.6 13.1 0-5.1-2.8-9.6-5.3-13.7q0-0.1 0-0.1zm3.1 3.1c1.1 0.6 3.8 2.7 6.4 5.3 2.6 2.6 3.6 4.2 3.3 4.4-0.3 0.3-1.8-0.7-4.4-3.2-2.6-2.7-4.7-5.4-5.4-6.5 0 0 0 0 0.1 0zm-21.4 3.4c-2.8-1.6-4.7-4.5-4.9-8.2q-1.5 1-2.9 2.1c0.7 3.7 3.3 6.5 6.5 8.2q0.8-1 1.3-2.1zm0.5-1c1.3-2.8 1.9-6 1.9-9.2-2.2 0.2-4.4 0.7-6.1 1.5-0.4 3.5 1.4 6.4 4 8.1q0.1-0.2 0.2-0.4zm1.3-15.8c-5.8-0.2-10.5 3.5-9.7 9.9q1.4-1.4 3-2.4c0.4-2 1.5-4.6 4.1-5.3-1.3 1-2.2 2.5-2.7 4.5 1.7-0.8 3.8-1.2 5.9-1.3 0-1.8-0.2-3.7-0.6-5.4zm-10.1 23.3c2.7-0.3 4.9-1.7 6.6-3.8-3.2-1.7-5.9-4.5-6.9-8-2 2-3.4 4.5-3.7 7.4-3.5-1.5-3-5.4-1.7-7.7-1 1.2-2.2 2.5-3.5 3.7 0 5 4.1 9.1 9.2 8.4zm-4.1-18c-2.6 2.3-4.7 5.4-5.1 8.7 2.2-2 4.1-4.1 5.5-5.6 0.4-0.4 0.7-0.2 0.3 0.3-0.2 0.2-1 1.1-1.7 2.2-1.3 2.2-1.1 5.1 0.9 6.1 0.8-2.3 2.1-4.5 3.7-6.2-0.8-4.7 1.3-8.3 4.8-10-3 0.9-6 2.5-8.4 4.5zm12.9 11.8q-0.6 1.1-1.3 2.1c4.4 2.1 9.9 2.1 13.6-0.8-0.1-0.5-1.1-1.9-1.3-2.4-1.5 1.2-3.5 2-5.7 2.1-1.9 0.1-3.7-0.2-5.3-1zm2.5-10.5c-0.1 3.3-0.7 6.6-2.1 9.6q0 0.1-0.1 0.3c1.5 0.8 3.3 1.2 5.1 1.1 2.1-0.1 4-0.9 5.3-2-0.9-1.6-3.5-5-5.9-4.3-0.8 0.3-0.7 1.2 0.1 1.4q0.4 0.1 0.9 0c0.4 0 0.5 0.3 0.1 0.4q-0.5 0-0.9 0c-1.4-0.2-1.4-1.7-0.3-2.1 0.8-0.2 1.7-0.1 2.6 0.2 1.7 0.6 3.3 2 4.3 3.6 1.3-1.6 1.6-3.6 0-5.3-0.8-0.9-2-1.6-3.1-2.1-1.8-0.7-3.9-0.9-6-0.8zm-0.6-6.6c0.3 1.7 0.5 3.6 0.6 5.4 1.7 0 3.5 0.2 5 0.7l2.4-2.4 0.2-0.2c-2.3-1.8-5.1-3.3-8.2-3.5zm-0.7-2.7q0.2 0.6 0.3 1.2 0.2 0.5 0.3 1 0.3 0.1 0.7 0.1c2.9 0.3 5.8 1.6 8 3.5-1.9-2.2-3.1-5.1-3.5-8.1q0-0.3 0-0.7-0.5-0.1-1-0.2-0.7-0.2-1.3-0.3c-1.8-0.5-3.6-1.1-5.3-1.8 0.7 1.6 1.3 3.5 1.8 5.3zm9.6-355.3l0.4 0.4c3.6-3.3 5.9-7.6 6.6-12.5 0.2-1.5 0.1-4.7-1.8-5.2-0.9-0.3-1.9 0.2-1.9 1.3q-0.1 0.3 0.1 0.7 0-0.4 0.3-0.7c1.1-1.1 2.7 0.6 1.7 1.7-0.6 0.6-1.5 0.5-2.1-0.3-0.4-0.4-0.6-0.9-0.5-1.5 0.1-1.4 1.3-2.1 2.5-1.7 2.2 0.7 2.9 3.5 2.6 5.9-0.3 3.8-2.2 7.3-4.5 10.1 2.8-2.3 6.3-4.2 10.1-4.6 2.4-0.2 5.2 0.4 5.9 2.7 0.3 1.2-0.3 2.4-1.8 2.5-0.5 0-1.1-0.2-1.4-0.5-0.8-0.7-0.9-1.5-0.3-2.1 1.1-1.1 2.7 0.6 1.7 1.7q-0.3 0.2-0.7 0.3 0.3 0.1 0.7 0.1c1.1-0.1 1.6-1 1.3-1.9-0.6-1.9-3.7-2-5.2-1.8-4.9 0.6-9.2 2.9-12.6 6.6l0.5 0.4 1.7 1.8q0.1-0.1 0.1-0.1c0.5-1.2 1.4-2.3 2.4-3.1 2-1.6 4.3-1.2 6 0.4 0.7-0.5 2.2-1.5 2.9-1.6 3.9 3.9 4.1 10.1 1.7 15.1 2.3 1.8 3.8 4.1 4.3 7 1 5.4-3.2 9.9-8.4 10.1 3.6 3.9 7.3 8.7 6.1 13.6-0.5 2.2-1.9 4-3.9 4.8-2.5 0.9-6.2 0.2-6.6-3-0.5-3.5 3.1-5.5 5.7-3.2q-0.6 0.5-1.2 1c-0.3-0.2-0.6-0.4-1-0.6-1.9-0.8-3.3 0.9-3 2.7 0.4 2.8 3.6 3 5.6 2.1 1.6-0.8 2.8-2.4 3.1-4.2 1-4.9-2.4-9.5-5.7-13.2-3.8-0.3-7.3-2.7-9.8-5.6-2.2-2.7-3.9-6-4.8-9.3-0.4-1.7-0.7-3.4-0.6-5.2q-0.5 0.1-0.9 0.3-0.6 0.1-1.2 0.3c-2 0.5-4 1.2-5.8 1.9l-0.5 0.2 0.1-0.6c0.8-1.7 1.5-3.7 2-5.7q0.2-0.6 0.3-1.2 0.1-0.4 0.2-0.9c-1.7 0.1-3.4-0.2-5.1-0.6-3.3-0.9-6.6-2.6-9.3-4.8-2.9-2.6-5.4-6-5.6-9.8-3.7-3.3-8.3-6.8-13.2-5.8-2 0.5-3.7 1.8-4.4 3.7-0.7 1.9-0.3 4.7 2.2 5.1 2 0.3 3.8-1.3 2.6-3.4-0.2-0.3-0.3-0.4-0.5-0.7q0.6-0.5 1.1-1.1c2.3 2.6 0.3 6.2-3.2 5.7-2.9-0.3-3.8-3.5-3.2-5.9 0.6-2.3 2.5-4 5-4.6 4.9-1.3 9.7 2.5 13.6 6.1 0.2-5.2 4.7-9.4 10.1-8.4 2.8 0.5 5.2 2 7 4.3 5-2.4 11.2-2.2 15.1 1.7-0.1 0.7-1.1 2.2-1.6 2.9 1.5 1.7 1.9 4 0.4 6-0.9 1-2 1.8-3.1 2.4q-0.1 0-0.1 0zm12.5 12.4c-2.8-1.3-6-1.9-9.2-1.9 0.1 2.2 0.7 4.4 1.4 6.1 3.6 0.4 6.5-1.4 8.2-4q-0.2-0.1-0.4-0.2zm-15.8-1.3c-0.2 5.8 3.5 10.5 9.8 9.7q-1.3-1.4-2.3-3c-2-0.4-4.7-1.5-5.4-4.2 1 1.4 2.6 2.2 4.6 2.7-0.8-1.6-1.2-3.7-1.3-5.8-1.9 0-3.7 0.2-5.4 0.6zm23.3 10c-0.4-2.6-1.7-4.8-3.8-6.5-1.7 3.2-4.5 5.9-8 6.9 2 2 4.4 3.4 7.4 3.7-1.5 3.5-5.5 3-7.8 1.7 1.2 1 2.5 2.2 3.8 3.5 4.9 0 9-4.1 8.4-9.3zm-18 4.2c2.3 2.6 5.4 4.7 8.7 5.1-2-2.2-4.1-4.1-5.7-5.5-0.4-0.4-0.1-0.7 0.3-0.3 0.3 0.2 1.2 1 2.3 1.7 2.2 1.3 5.1 1.1 6.1-0.9-2.4-0.8-4.5-2.1-6.3-3.7-4.7 0.8-8.2-1.4-9.9-4.8 0.9 3 2.5 6 4.5 8.4zm11.7-12.9q1.1 0.5 2.2 1.3c2.1-4.4 2.1-10-0.8-13.6-0.6 0.1-1.9 1-2.5 1.3 1.2 1.5 2.1 3.5 2.2 5.7 0.1 1.9-0.3 3.7-1.1 5.3zm-10.5-2.5c3.3 0.1 6.7 0.7 9.7 2.1q0.1 0 0.2 0.1c0.9-1.5 1.3-3.3 1.2-5.1-0.1-2.1-0.9-4-2-5.3-1.6 0.9-5 3.5-4.3 5.9 0.2 0.8 1.2 0.7 1.4-0.1q0.1-0.4 0-0.9c-0.1-0.4 0.3-0.5 0.3-0.1q0.1 0.5 0.1 0.9c-0.3 1.4-1.8 1.4-2.1 0.3-0.3-0.8-0.1-1.7 0.1-2.6 0.6-1.8 2.1-3.3 3.6-4.3-1.5-1.3-3.5-1.6-5.2 0-0.9 0.8-1.6 1.9-2.1 3.1-0.7 1.8-1 3.9-0.9 6zm-0.4-5l-2.4-2.4-0.2-0.2c-1.8 2.3-3.3 5.1-3.5 8.2 1.7-0.3 3.5-0.6 5.4-0.6-0.1-1.7 0.2-3.5 0.7-5zm4.2-10.3c2.5-4.2 5.3-8.7 5.3-13.7 2.4 3.8-1.9 10.1-4.6 13 2.9-2.7 9.2-7 13.1-4.6-5.1 0-9.6 2.8-13.8 5.3 0 0 0 0 0 0zm3.1-3.1c0.6-1.1 2.7-3.8 5.3-6.4 2.6-2.6 4.1-3.6 4.4-3.3 0.3 0.3-0.7 1.8-3.3 4.4-2.6 2.6-5.3 4.7-6.4 5.3-0.1 0.1-0.1 0.1 0 0zm-22.7-5.5c-3.2 1.7-5.7 4.5-6.5 8.2q1.4 1.2 2.9 2.1c0.2-3.7 2.2-6.6 4.9-8.1q-0.5-1.1-1.3-2.2zm1.6 2.8c-2.6 1.6-4.3 4.5-4 8.1 1.7 0.7 3.9 1.3 6.1 1.4 0-3.1-0.6-6.4-1.9-9.2q-0.1-0.2-0.2-0.3zm2.1 10.7c-2.1 0-4.2-0.5-5.8-1.3 0.5 2 1.3 3.6 2.7 4.6-2.7-0.7-3.8-3.4-4.1-5.4q-1.6-1-3.1-2.3c-0.7 6.3 4 10 9.7 9.8 0.4-1.7 0.6-3.5 0.6-5.4zm-19.9-9.5c1.3 1.3 2.5 2.6 3.5 3.8-1.3-2.3-1.8-6.3 1.7-7.8 0.3 3 1.7 5.5 3.7 7.4 1.1-3.5 3.7-6.3 6.9-8-1.7-2.1-3.9-3.4-6.5-3.8-5.1-0.6-9.3 3.5-9.3 8.4zm13.5 14.1c-3.4-1.7-5.6-5.2-4.8-9.9-1.6-1.8-2.9-3.9-3.6-6.3-2.1 1.1-2.3 4-1 6.1 0.7 1.1 1.5 2 1.7 2.3 0.4 0.4 0.1 0.7-0.3 0.3-1.4-1.5-3.3-3.7-5.5-5.7 0.4 3.3 2.5 6.4 5.2 8.7 2.4 2 5.3 3.6 8.3 4.5zm9.8-17.3c2.2 0.1 4.2 1 5.7 2.2 0.3-0.6 1.2-1.9 1.3-2.5-3.6-2.9-9.1-2.9-13.6-0.7q0.8 1 1.3 2.1c1.6-0.8 3.5-1.2 5.3-1.1zm3.2 10.7c1.2-0.4 2.3-1.1 3.1-2.1 1.6-1.7 1.3-3.6 0-5.2-1 1.5-2.5 3-4.3 3.6-0.9 0.3-1.8 0.4-2.6 0.1-1-0.3-1.1-1.8 0.3-2q0.4-0.1 0.9 0c0.4 0 0.3 0.4-0.1 0.3q-0.5 0-0.9 0c-0.8 0.2-0.9 1.2-0.1 1.4 2.4 0.8 5-2.7 6-4.3-1.4-1.1-3.3-1.9-5.4-2-1.8-0.1-3.6 0.4-5.1 1.2q0.1 0.1 0.2 0.3c1.3 2.9 1.9 6.3 2 9.6 2.1 0.1 4.2-0.2 6-0.9zm1.6 3.9l-0.1-0.1-2.5-2.5c-1.5 0.5-3.3 0.8-5 0.8 0 1.8-0.2 3.6-0.6 5.3 3.1-0.2 6-1.7 8.2-3.5zm-10.6 11.6c1.6-0.7 3.4-1.3 5.2-1.8q0.6-0.2 1.3-0.3 0.5-0.2 1-0.3 0-0.3 0.1-0.7c0.3-2.9 1.5-5.8 3.5-8-2.3 1.9-5.2 3.1-8.1 3.4q-0.4 0.1-0.7 0.1-0.1 0.5-0.3 1-0.1 0.7-0.3 1.3c-0.5 1.8-1.1 3.6-1.7 5.3zm-226-14.7q-0.1-0.1-0.1-0.1c-1.2-0.6-2.3-1.4-3.1-2.4-1.6-2-1.2-4.3 0.3-6-0.4-0.7-1.4-2.2-1.5-2.9 3.9-3.9 10.1-4.1 15.1-1.7 1.8-2.3 4.1-3.8 7-4.3 5.4-1 9.9 3.2 10.1 8.4 3.9-3.6 8.7-7.3 13.6-6.1 2.4 0.6 4.4 2.3 5 4.6 0.6 2.4-0.3 5.6-3.2 5.9-3.5 0.5-5.5-3.1-3.2-5.7q0.5 0.6 1 1.2c-0.1 0.2-0.3 0.4-0.4 0.6-1.3 2.1 0.6 3.7 2.5 3.4 2.5-0.3 3-3.2 2.3-5.1-0.7-1.8-2.4-3.2-4.4-3.6-4.9-1-9.5 2.4-13.3 5.7-0.2 3.8-2.6 7.3-5.5 9.8-2.7 2.2-6 3.9-9.4 4.8-1.6 0.4-3.3 0.7-5.1 0.6q0.1 0.5 0.2 0.9 0.2 0.6 0.4 1.2c0.5 2 1.2 4 1.9 5.7l0.2 0.6-0.6-0.2c-1.7-0.7-3.7-1.4-5.7-1.9q-0.6-0.2-1.2-0.3-0.4-0.1-0.9-0.2c0 1.7-0.2 3.4-0.6 5.1-0.9 3.3-2.6 6.6-4.9 9.3-2.5 2.9-5.9 5.3-9.7 5.6-3.3 3.7-6.8 8.3-5.8 13.2 0.4 1.8 1.6 3.4 3.2 4.2 1.9 0.9 5.2 0.7 5.6-2 0.3-1.9-1.1-3.6-3.1-2.8-0.3 0.2-0.6 0.4-1 0.7q-0.6-0.6-1.1-1.1c2.6-2.3 6.2-0.3 5.7 3.2-0.4 3.2-4.1 3.9-6.6 3-2-0.8-3.4-2.6-4-4.8-1.2-4.9 2.6-9.7 6.2-13.6-5.2-0.2-9.4-4.7-8.4-10.1 0.5-2.8 2-5.2 4.3-7-2.4-5-2.2-11.2 1.6-15.1 0.8 0.1 2.3 1.1 3 1.6 1.7-1.5 4-1.9 6-0.4 1 0.9 1.8 1.9 2.4 3.1q0 0.1 0 0.1l1.8-1.8 0.4-0.4c-3.3-3.6-7.6-6-12.5-6.6-1.5-0.2-4.7-0.1-5.2 1.8-0.3 0.9 0.2 1.8 1.3 1.9q0.3 0 0.7-0.1-0.4 0-0.7-0.3c-1.1-1.1 0.6-2.7 1.7-1.7 0.6 0.6 0.5 1.5-0.3 2.1-0.4 0.3-0.9 0.6-1.5 0.5-1.4-0.1-2.1-1.3-1.7-2.5 0.6-2.3 3.5-2.9 5.9-2.7 3.8 0.4 7.3 2.3 10.1 4.6-2.3-2.8-4.2-6.3-4.6-10.1-0.2-2.4 0.4-5.2 2.7-5.9 1.2-0.3 2.4 0.3 2.5 1.8 0 0.5-0.2 1.1-0.5 1.4-0.7 0.8-1.5 0.9-2.1 0.3-1.1-1.1 0.6-2.8 1.7-1.7q0.2 0.3 0.3 0.7 0.1-0.3 0.1-0.7c-0.1-1.1-1-1.6-1.9-1.3-1.9 0.5-2 3.7-1.8 5.2 0.6 4.9 2.9 9.2 6.6 12.5l0.4-0.4zm-14.6 14.3c1.6 2.7 4.5 4.4 8.1 4.1 0.7-1.7 1.3-3.9 1.4-6.1-3.2 0-6.4 0.6-9.2 1.9q-0.2 0.1-0.3 0.1zm10.7-2c0 2.1-0.5 4.2-1.3 5.8 2-0.5 3.6-1.3 4.6-2.7-0.7 2.7-3.4 3.8-5.4 4.1q-1 1.6-2.3 3.1c6.3 0.7 10-4 9.8-9.7-1.7-0.4-3.5-0.6-5.4-0.6zm-9.5 19.9c1.3-1.3 2.6-2.5 3.8-3.5-2.3 1.3-6.3 1.8-7.8-1.7 3-0.3 5.4-1.7 7.4-3.7-3.5-1.1-6.3-3.7-8-6.9-2.1 1.7-3.4 3.9-3.8 6.5-0.6 5.1 3.5 9.3 8.4 9.3zm14.1-13.5c-1.7 3.4-5.2 5.6-9.9 4.8-1.8 1.6-3.9 2.9-6.3 3.6 1.1 2.1 4 2.3 6.1 1 1.1-0.7 2-1.5 2.3-1.7 0.4-0.4 0.7-0.1 0.3 0.3-1.6 1.4-3.7 3.3-5.7 5.5 3.3-0.4 6.4-2.5 8.7-5.2 2-2.4 3.6-5.3 4.5-8.3zm-17.3-9.9c0.1-2.1 1-4.1 2.2-5.6-0.6-0.3-1.9-1.2-2.5-1.3-2.9 3.6-2.9 9.1-0.8 13.6q1.1-0.8 2.2-1.3c-0.8-1.6-1.2-3.5-1.1-5.4zm10.7-3.1c-0.4-1.2-1.2-2.3-2.1-3.1-1.7-1.6-3.6-1.3-5.2 0 1.5 1 3 2.5 3.6 4.3 0.3 0.9 0.4 1.8 0.1 2.6-0.3 1-1.8 1.1-2.1-0.3q0-0.4 0.1-0.9c0-0.4 0.4-0.3 0.3 0.1q-0.1 0.5 0 0.9c0.2 0.8 1.2 0.9 1.4 0.1 0.8-2.4-2.7-5-4.3-6-1.1 1.4-1.9 3.3-2 5.4-0.1 1.8 0.4 3.6 1.2 5.1q0.1-0.1 0.3-0.2c2.9-1.3 6.3-1.9 9.6-2 0.1-2.1-0.2-4.2-0.9-6zm2.1 6c1.8 0 3.6 0.2 5.3 0.6-0.2-3.1-1.7-6-3.5-8.2l-0.1 0.1-2.5 2.5c0.5 1.5 0.8 3.3 0.8 5zm-5-15.3c-4.2-2.5-8.7-5.3-13.7-5.3 3.8-2.4 10.1 1.9 13 4.6-2.7-2.9-7-9.2-4.6-13.1 0 5.1 2.8 9.6 5.3 13.8q0 0 0 0zm-3.1-3.1c-1.1-0.6-3.8-2.7-6.4-5.3-2.6-2.6-3.6-4.1-3.3-4.4 0.3-0.3 1.8 0.7 4.4 3.3 2.6 2.6 4.7 5.3 5.3 6.4 0.1 0 0.1 0.1 0 0zm21.4-3.4c2.7 1.6 4.7 4.5 4.9 8.2q1.5-0.9 2.9-2.1c-0.8-3.7-3.3-6.5-6.5-8.2q-0.8 1-1.3 2.1zm-0.5 1c-1.3 2.8-1.9 6-1.9 9.2 2.2-0.1 4.4-0.7 6.1-1.4 0.3-3.6-1.4-6.5-4-8.2q-0.1 0.2-0.2 0.4zm-1.3 15.8c5.7 0.2 10.5-3.5 9.7-9.9q-1.4 1.4-3.1 2.4c-0.3 2-1.4 4.7-4.1 5.4 1.4-1 2.2-2.6 2.7-4.6-1.6 0.8-3.7 1.2-5.8 1.3 0 1.9 0.2 3.7 0.6 5.4zm10-23.3c-2.6 0.4-4.8 1.7-6.5 3.8 3.2 1.7 5.9 4.5 6.9 8 2-2 3.4-4.4 3.7-7.4 3.5 1.5 3 5.4 1.7 7.8 1-1.2 2.2-2.5 3.5-3.8 0-4.9-4.1-9.1-9.3-8.4zm4.1 18c2.7-2.3 4.8-5.4 5.2-8.7-2.2 2-4.1 4.1-5.5 5.7-0.4 0.4-0.7 0.1-0.3-0.3 0.2-0.3 1-1.2 1.7-2.3 1.3-2.2 1.1-5.1-1-6.1-0.7 2.4-2 4.5-3.6 6.3 0.8 4.7-1.4 8.2-4.8 9.9 3-0.9 5.9-2.5 8.3-4.5zm-12.8-11.7q0.5-1.1 1.3-2.2c-4.4-2.1-10-2.1-13.6 0.8 0.1 0.6 1 1.9 1.3 2.4 1.5-1.1 3.5-2 5.7-2.1 1.8-0.1 3.7 0.3 5.3 1.1zm-2.5 10.5c0.1-3.4 0.7-6.7 2-9.7q0.1-0.1 0.2-0.2c-1.5-0.9-3.3-1.3-5.1-1.2-2.1 0.1-4 0.9-5.4 2 1 1.6 3.6 5 6 4.3 0.8-0.2 0.7-1.2-0.1-1.4q-0.4-0.1-0.9 0c-0.4 0.1-0.5-0.3-0.1-0.3q0.5-0.1 0.9-0.1c1.4 0.3 1.3 1.8 0.3 2.1-0.8 0.3-1.7 0.1-2.6-0.1-1.8-0.6-3.3-2.1-4.3-3.6-1.3 1.5-1.6 3.5 0 5.2 0.8 0.9 1.9 1.6 3.1 2.1 1.8 0.7 3.9 1 6 0.9zm0.6 6.5c-0.3-1.7-0.6-3.5-0.6-5.4-1.7 0.1-3.5-0.2-5-0.7l-2.4 2.4-0.2 0.2c2.3 1.8 5.1 3.3 8.2 3.5zm0.7 2.8q-0.2-0.7-0.3-1.3-0.2-0.5-0.3-1-0.3 0-0.7-0.1c-2.9-0.3-5.8-1.6-8-3.5 1.9 2.3 3.1 5.2 3.4 8.1q0.1 0.3 0.1 0.7 0.5 0.1 1 0.2 0.7 0.2 1.3 0.4c1.8 0.4 3.6 1.1 5.2 1.7-0.6-1.6-1.2-3.4-1.7-5.2zm171.1 367.6c-11.9 9-24.4 8.7-36.9 4.9-3.6-1.1-14.5-5.5-24.1 2.3l-0.1 0.1-0.2-0.1c-9.6-7.8-20.5-3.4-24.1-2.3-12.5 3.8-25 4.1-36.9-4.9v-0.1c-0.3-0.2 0-0.7 0.3-0.5 10.6 7.6 24.5 6.9 36.2 4.1 8.8-2.1 16.6-2.7 24.7 2.8 8-5.5 15.8-4.9 24.6-2.8 11.7 2.8 25.6 3.5 36.2-4.1 0.3-0.2 0.7 0.3 0.3 0.5zm-6.1 1.2c-9.9 3.8-21.3 3.6-31.2 0.7-0.4-0.1-0.3-0.4 0.1-0.3 9.2 2.5 22.7 2 31-0.7 0.3-0.1 0.4 0.1 0.1 0.3zm6.1-388.7c0.4 0.2 0 0.7-0.3 0.5-10.6-7.6-24.4-6.9-36.2-4.1-8.8 2.1-16.6 2.8-24.6-2.8-8 5.6-15.8 4.9-24.6 2.8-11.8-2.8-25.7-3.5-36.3 4.1-0.3 0.2-0.6-0.3-0.3-0.5 12-9.1 24.5-8.8 37-5 3.5 1.1 14.5 5.5 24.1-2.3l0.1-0.1 0.1 0.1c9.6 7.8 20.5 3.4 24.1 2.3 12.5-3.8 25-4.1 36.9 5zm-6.1-1.2c0.3 0.2 0.2 0.5-0.1 0.3-8.3-2.7-21.8-3.2-31-0.7-0.4 0.1-0.5-0.2-0.1-0.3 9.9-2.9 21.3-3.1 31.2 0.7zm-110 0c9.8-3.8 21.2-3.6 31.1-0.7 0.4 0.1 0.3 0.4 0 0.3-9.2-2.5-22.7-2-31 0.7-0.4 0.1-0.5-0.1-0.1-0.3zm-0.1 389.9c-0.3-0.2-0.2-0.4 0.2-0.3 8.3 2.7 21.8 3.2 31 0.7 0.3-0.1 0.4 0.2 0 0.3-9.9 2.9-21.3 3.1-31.1-0.7zm-84.6-195.3c1.8-0.4 3.7-1.1 5.5-2.5q0 1.4 0 2.9 0 1.4 0 2.8c-1.7-1.4-3.6-2.2-5.5-2.6l-1.2 1.5-1.5-1.7 1.5-1.7zm7.9 120.7c-9-15.2-8.8-31.2-4.9-47.1 1.1-4.6 5.5-18.5-2.3-30.8 4.6-10.8 7.5-27.2 1.9-37-0.9 0-1.7-0.2-2.2-0.7-1.3-1.4 0.2-3 1.5-1.8 0.6 0.7 1.1 1.6 1.4 2.4 5.3 10.6 3.4 27.7-1.1 38.2 5.2 10.4 4.2 19.3 2.2 30.2-2.8 15-3.6 32.7 4.1 46.2 0.2 0.4-0.3 0.9-0.6 0.4zm-1.3-88.2c0.1-0.5 0.4-0.4 0.3 0-0.2 4.3-1.2 8.2-2.4 11.7-0.2 0.7-0.9 0.4-0.7-0.2 1.3-3.7 2.3-7.5 2.8-11.5zm0.2 80.4c-3.8-12.6-3.6-27.2-0.8-39.8 0.1-0.5 0.5-0.3 0.4 0.1-2.5 11.7-2 28.9 0.7 39.5 0.1 0.5-0.2 0.6-0.3 0.2zm1.1-233.1c0.3-0.4 0.8 0 0.6 0.4-7.7 13.5-6.9 31.2-4.1 46.2 2 10.9 3 19.8-2.2 30.3 4.5 10.5 6.4 27.5 1.2 38.1-0.4 0.9-0.9 1.8-1.5 2.4-1.3 1.3-2.8-0.4-1.4-1.8 0.4-0.4 1.2-0.7 2.1-0.7 5.6-9.8 2.8-26.2-1.9-37 7.8-12.3 3.4-26.2 2.3-30.7-3.9-16-4.1-32 4.9-47.2zm-4.1 76.8c-0.2-0.6 0.5-0.9 0.7-0.3 1.2 3.6 2.2 7.5 2.4 11.7 0.1 0.5-0.2 0.5-0.3 0.1-0.5-4-1.5-7.9-2.8-11.5zm3-68.9c0.1-0.5 0.4-0.3 0.3 0.1-2.7 10.6-3.2 27.8-0.7 39.6 0.1 0.4-0.3 0.5-0.4 0.1-2.8-12.7-3-27.3 0.8-39.8zm273.6 110.9l1.4 1.7-1.4 1.7-1.3-1.4c-1.9 0.4-3.8 1.1-5.5 2.5q0-1.4 0-2.8 0-1.4 0-2.8c1.9 1.3 3.7 2.1 5.6 2.5zm-9.2 122.2c-0.3 0.4-0.8 0-0.6-0.4 7.7-13.5 6.9-31.2 4.1-46.3-2-10.8-3-19.8 2.2-30.2-4.5-10.5-6.4-27.5-1.1-38.2 0.3-0.8 0.8-1.7 1.4-2.3 1.3-1.3 2.8 0.4 1.5 1.8-0.5 0.4-1.3 0.6-2.2 0.6-5.6 9.9-2.7 26.3 1.9 37.1-7.8 12.2-3.4 26.2-2.3 30.7 3.9 16 4.1 32-4.9 47.2zm4.2-76.8c0.2 0.6-0.6 0.9-0.8 0.3-1.2-3.6-2.2-7.5-2.4-11.8 0-0.4 0.3-0.5 0.3 0 0.5 4 1.5 7.9 2.9 11.5zm-3.1 68.9c-0.1 0.5-0.4 0.3-0.3-0.1 2.8-10.6 3.2-27.8 0.7-39.6-0.1-0.4 0.3-0.5 0.4-0.1 2.9 12.7 3 27.2-0.8 39.8zm-1.1-233.1c9 15.2 8.8 31.2 4.9 47.2-1.1 4.5-5.4 18.4 2.3 30.7-4.6 10.8-7.5 27.2-1.9 37 0.9 0 1.7 0.3 2.2 0.7 1.4 1.4-0.2 3.1-1.5 1.8-0.6-0.6-1-1.5-1.4-2.4-5.3-10.6-3.4-27.6 1.1-38.1-5.2-10.5-4.2-19.4-2.2-30.3 2.9-15 3.6-32.7-4-46.2-0.3-0.4 0.2-0.8 0.5-0.4zm1.3 88.3c0 0.4-0.3 0.4-0.3-0.1 0.2-4.2 1.2-8.2 2.4-11.7 0.2-0.6 1-0.3 0.8 0.3-1.4 3.6-2.4 7.5-2.9 11.5zm-0.2-80.4c3.8 12.5 3.7 27.1 0.8 39.8-0.1 0.4-0.5 0.3-0.4-0.2 2.5-11.7 2.1-28.9-0.7-39.5-0.1-0.4 0.2-0.6 0.3-0.2zm-267.9-54.6c1.7 3.2 4.5 5.7 8.2 6.5q1.2-1.4 2.1-3c-3.7-0.1-6.6-2.1-8.2-4.9q-1.1 0.6-2.1 1.4zm268.2-1.4c-1.6 2.8-4.5 4.8-8.2 4.9q0.9 1.6 2.1 3c3.7-0.8 6.5-3.3 8.2-6.5q-1-0.8-2.1-1.4zm2.1 335.9c-1.7-3.2-4.5-5.7-8.2-6.4q-1.2 1.3-2.1 2.9c3.7 0.1 6.6 2.1 8.2 4.9q1.1-0.6 2.1-1.4zm-268.2 1.4c1.6-2.8 4.5-4.8 8.2-4.9q-0.9-1.6-2.1-2.9c-3.7 0.7-6.5 3.2-8.2 6.4q1 0.8 2.1 1.4z"/></svg>