<svg version="1.2" xmlns="http://www.w3.org/2000/svg" viewBox="0 0 109 10" width="109" height="10"><style></style><filter id="f0"><feFlood flood-color="#b47377" flood-opacity="1" /><feBlend mode="normal" in2="SourceGraphic"/><feComposite in2="SourceAlpha" operator="in" /></filter><g filter="url(#f0)"><path  d="m101.6 4.8c0 0 1.9 1.3 1.6 2.7 0 0 0.9-0.8 0.2-1.7-0.6-0.7 0.5 0.9 1.7-1-1.2-1.9-2.2-0.2-1.7-1 0.6-1-0.2-1.7-0.2-1.7 0.1 1.7-1.6 2.7-1.6 2.7z"/><path  d="m103.2 5.6c0 0 1.4 2.7 3.7 0.6 1.8-1.7 2.4-1.5 2.4-1.5 0 0-0.9 0.1-2.4-1.4-2.2-2.1-3.6 0.8-3.6 0.8 0 0-0.1 1.5-0.1 1.5z"/><path  d="m98.9 9.3q-0.3 0-0.6-0.1c-0.7-0.3-1.1-1.1-0.8-1.8q0.1-0.4 0.5-0.6 0.4-0.1 0.8 0 0.3 0.1 0.4 0.4 0.1 0.3 0 0.6c0 0.1-0.1 0.1-0.2 0.1-0.1 0-0.2-0.2-0.1-0.3q0-0.1-0.1-0.2 0-0.2-0.2-0.2-0.2-0.1-0.5 0-0.2 0.1-0.3 0.4c-0.2 0.5 0.1 1 0.6 1.2 0.8 0.3 1.6-0.1 1.9-0.9 0.2-0.6 0.2-1.2-0.1-1.7-0.2-0.5-0.7-0.9-1.2-1.1-0.1-0.1-0.2-0.2-0.2-0.3 0.1-0.1 0.2-0.1 0.3-0.1 0.6 0.2 1.2 0.7 1.5 1.3 0.3 0.7 0.3 1.4 0.1 2-0.3 0.8-1 1.3-1.8 1.3z"/><path  d="m99.2 5.1c-0.1 0-0.2-0.1-0.2-0.1-0.1-0.1 0-0.2 0.1-0.3 1.1-0.4 1.7-1.6 1.3-2.8-0.2-0.8-1.1-1.2-1.8-0.9-0.6 0.2-0.8 0.7-0.6 1.3q0.1 0.2 0.3 0.3 0.2 0.1 0.5 0 0.1 0 0.2-0.2 0-0.1 0-0.2c0-0.1 0-0.3 0.1-0.3 0.1 0 0.2 0 0.3 0.1q0.1 0.3-0.1 0.6-0.1 0.3-0.4 0.4-0.4 0.1-0.8 0-0.4-0.2-0.5-0.6c-0.3-0.7 0.1-1.5 0.8-1.8 1-0.3 2.1 0.2 2.4 1.2 0.5 1.3-0.2 2.8-1.6 3.3q0 0 0 0z"/><path  d="m102.4 4.9c0 0.7-0.5 1.2-1.2 1.2-0.7 0-1.2-0.5-1.2-1.2 0-0.7 0.5-1.2 1.2-1.2 0.7 0 1.2 0.5 1.2 1.2z"/><path  d="m8 5c0 0-1.9-1.3-1.6-2.7 0 0-0.9 0.8-0.2 1.7 0.6 0.7-0.5-0.9-1.7 1 1.2 1.8 2.2 0.2 1.7 1-0.6 1 0.2 1.7 0.2 1.7-0.1-1.7 1.6-2.7 1.6-2.7z"/><path  d="m6.4 4.2c0 0-1.4-2.7-3.7-0.6-1.8 1.6-2.4 1.5-2.4 1.5 0 0 0.8-0.1 2.4 1.4 2.2 2.1 3.6-0.8 3.6-0.8 0 0 0.1-1.5 0.1-1.5z"/><path  d="m10.5 5.1q0 0 0 0c-0.7-0.3-1.2-0.7-1.5-1.4-0.3-0.6-0.4-1.3-0.1-1.9 0.3-1 1.4-1.5 2.4-1.2 0.7 0.3 1 1 0.8 1.8q-0.1 0.4-0.5 0.5-0.4 0.2-0.8 0.1-0.3-0.1-0.4-0.4-0.2-0.3-0.1-0.6c0.1-0.1 0.2-0.2 0.3-0.1 0.1 0 0.1 0.1 0.1 0.2q-0.1 0.2 0 0.3 0.1 0.2 0.2 0.2c0.4 0.1 0.7-0.1 0.8-0.4 0.2-0.5-0.1-1-0.6-1.2-0.7-0.3-1.6 0.1-1.9 0.9-0.2 0.5-0.1 1.1 0.1 1.7 0.3 0.5 0.7 0.9 1.3 1.1 0.1 0 0.2 0.2 0.1 0.3q0 0.1-0.2 0.1z"/><path  d="m10.5 9.3c-0.8 0-1.5-0.5-1.8-1.3-0.4-1.3 0.3-2.8 1.6-3.3 0.1 0 0.2 0 0.3 0.1 0 0.1 0 0.2-0.1 0.3-1.2 0.4-1.8 1.6-1.4 2.8 0.3 0.8 1.1 1.2 1.9 0.9 0.5-0.2 0.8-0.7 0.6-1.2-0.1-0.4-0.5-0.5-0.8-0.4q-0.1 0-0.2 0.2-0.1 0.1 0 0.3c0 0.1-0.1 0.2-0.2 0.2-0.1 0-0.2 0-0.2-0.1q-0.1-0.3 0-0.6 0.2-0.3 0.5-0.4c0.5-0.2 1.1 0.1 1.3 0.6 0.2 0.7-0.2 1.5-0.9 1.8q-0.3 0.1-0.6 0.1z"/><path  d="m7.3 4.9c0-0.7 0.6-1.2 1.2-1.2 0.7 0 1.3 0.5 1.3 1.2 0 0.7-0.6 1.2-1.3 1.2-0.6 0-1.2-0.5-1.2-1.2z"/><path  d="m7.8 4.8l11.8-0.2h11.7l23.5-0.1 23.5 0.1h11.8l11.7 0.2c0.1 0 0.2 0 0.2 0.1 0 0.1-0.1 0.1-0.2 0.1l-11.7 0.1-11.8 0.1-23.5 0.1-23.5-0.1-11.7-0.1-11.8-0.1c0 0-0.1 0-0.1-0.1 0-0.1 0.1-0.1 0.1-0.1z"/></g></svg>