<svg version="1.2" xmlns="http://www.w3.org/2000/svg" viewBox="0 0 446 516" width="446" height="516"><style>.a{fill:#a2495d}</style><path class="a" d="m134.6 109c0 22.5-0.8 45.1 0.3 67.6 0.8 15.6-3.8 28.8-17.6 34.6-34.1 14.3-32.7 43.1-31.4 71.8 3 64.5 8.4 128.8 8.7 193.4 0 5.5-0.6 11.3-2.2 16.6-4.5 14.9-15.6 23-29.4 22.1-13.3-0.8-25.1-10.6-26.5-25.5-1.7-18.3-1.9-36.9-0.7-55.3 3.2-52.6 7.7-105.1 11-157.7 0.7-12.1-1.5-24.5-2.4-36.7-0.7-10.7-8.4-16.3-16.5-20.7-20.8-11.4-28.4-27.9-27.4-51.9 1.8-43.5 0.7-87.1 0.9-130.7 0-7.7-0.2-15.4 4-22.4 2.4-4.1 5.5-7.5 11-6.7 5.2 0.8 8.3 4.2 9.1 9.1 0.9 5.6 1.1 11.2 1.1 16.8 0.2 40 0 80 0.3 120 0 5.1-2.5 13.9 5 14 9.1 0.1 5.8-9.2 5.8-14.6 0.3-37.4 0.1-74.9 0.1-112.3 0-3.6-0.3-7.2 0.2-10.7 1.1-8.7-1.5-21.2 11.4-21.6 13.6-0.4 10.9 11.9 11.6 20.8 3.4 39.9 1.4 79.9 2 119.9 0 4.6 0.1 9.2 0.6 13.8 0.2 2.6 1.7 5 4.7 5.3 3.8 0.3 5.4-2.4 5.7-5.7 0.4-4.1 0.4-8.2 0.4-12.3 0.1-39 0-77.9 0.1-116.9 0-5.1 0.2-10.3 1.1-15.3 0.9-5.3 3.6-9.7 9.9-9.9 7.2-0.3 10.1 4.5 11.1 10.4 0.9 5 1 10.2 1 15.3 0.1 40 0 80 0.3 120 0 5.5-2.9 14.3 6.3 14.6 9.4 0.2 6.8-8.7 6.8-14.2 0.2-40.5 0.1-81 0.1-121.5 0-4.1-0.1-8.2 0.2-12.3 0.3-5.8 1.1-12 8.6-12.3 6.6-0.2 9.9 4.8 11.5 10.6 3.9 13 2.3 26.4 2.5 39.7 0.2 16.9 0 33.8 0 50.8q0.4 0 0.7 0zm113 214.9c0-44.6-0.2-89.2 0.2-133.9 0-10.4-1.9-17.8-11.7-24.3-21.8-14.5-25.4-37.3-23.2-61.4 2-22.3 6.7-43.8 22.9-60.6 16.6-17.3 36.1-16.5 51.9 1.4 31 35.2 28.1 91.6-6.7 122.6-7 6.2-5.8 13.7-5.8 21.2 0 87.7 0.2 175.4 0.3 263.1 0.1 8.7 0.1 17.4-2.1 26-5.6 21.6-23.1 36.4-43.9 36.5-20.7 0.2-40.2-15.9-44.6-37.6-1.6-7.4-2.1-15.2-2.1-22.9-0.1-68.7-0.1-137.4-0.1-206.1 0-4.1 0-8.3 0.7-12.3 1.1-6.4 5.6-9.8 11.9-9.9 6.2-0.1 11.2 3 12.4 9.3 1.1 5.5 0.9 11.2 1 16.8 0.6 68.2 1.1 136.3 1.7 204.5 0.1 6.6-0.3 13.5 3 19.6 3.7 6.9 8.2 14 17.4 12.5 8.1-1.4 13.6-7.3 15.4-15.3 1.3-5.5 1.3-11.2 1.3-16.9 0.1-44.1 0-88.2 0-132.3q0.1 0 0.1 0zm194.9-165.9c0 58.5-0.3 108.3 0.3 158 0.1 13.1-4 18.4-17.7 18-39.3-1.4-36 5.5-35.6-35 0.1-14.1-5.2-24.9-15.3-33.6-10.6-9.2-14.1-20.2-13.6-34 1.3-44-3.5-88.3 6.3-131.8 6-26.6 13.4-52.7 31.6-74.2 8.4-10 18.8-17.2 30.7-22.5 10.7-4.8 15.5-1.4 14.8 10.2-3 51.2-0.4 102.5-1.5 144.9zm-59.5 272.8c1.7-23.5 3.7-47 4.9-70.5 0.5-10 5-12.8 14.5-13.1 38.7-1.3 38.1-1.5 40.6 36.6 2.1 32.2 2.6 64.5 2.5 96.8 0 22.3-12.1 35.2-31.8 34.9-19.8-0.2-31.3-13.2-31.6-35.5-0.1-8.2 0.2-16.4 0.2-24.6q0-12.3 0-24.6 0.4 0 0.7 0zm-180.5-347c0 10.8-0.2 21.6 0 32.3 0.5 23.5-8.2 36.5-30.1 45.5-5.8 2.4-8.8 1.7-8.9-5.1-0.8-35.9-0.7-71.8 10.9-106.5 2.9-8.4 8.1-15.4 13.9-21.9 2.4-2.7 5.2-5.8 9.1-4.3 3.8 1.5 4 5.7 4 9.3 0.1 16.9 0.1 33.8 0.1 50.7q0.5 0 1 0z"/></svg>