<svg version="1.2" xmlns="http://www.w3.org/2000/svg" viewBox="0 0 193 151" width="193" height="151"><style>.a{fill:#3d3825}</style><filter id="f0"><feFlood flood-color="#a2495d" flood-opacity="1" /><feBlend mode="normal" in2="SourceGraphic"/><feComposite in2="SourceAlpha" operator="in" /></filter><g filter="url(#f0)"><path class="a" d="m121.6 87.9c1.6-3.6-0.4-5.2-2.8 1.8-2.4 7-15.7 9-20.2 15.2-4.5 6.3-8.9 16.7-1.6 24.2-1.5-13.3 3.5-15.1 10.9-16.9 7.5-1.8 12.1-8.5 10.4-16.6-3.9 8.6-10.7 13.8-12.4 11.8-3.3-3.7 9.9-6.1 15.7-19.5z"/><path class="a" d="m123.7 90.9c0.1-3.4-1.3-3.1-1.4 0.5 0 3.6-1 10.2 3.9 13.8 4.8 3.6 5.8 5.5 4 6.2-1.8 0.7-9-5.4-8.8-13.3-1.2 9.4 4 14.4 9.1 16.1 5 1.6 11.2 5.1 12.5 12.3 2-7.7-3.8-17.5-10.2-21.1-6.5-3.5-9.4-7.9-9.1-14.5z"/><path class="a" d="m125.3 90.3c3 7.1 8.4 6.5 9.1 4 0.6-2.5-1.9 1.6-4-2-1.3-2.1 3.7-6.2 6.5-0.3 2.7 5.8-10.1 10.7-11.6-1.7z"/><path class="a" d="m121.3 107c1.8 10.3 8.4 21.9 12.3 20 3.8-2-6.5-2.4-12.3-20z"/><path class="a" d="m136.2 45.6c-7.9 8.7-11.1 6.2-15.2 6.6-4.1 0.4-2.8 5.5-10.5 4.3 7.7 4.5 20.3 2.9 25.7-10.9z"/><path class="a" d="m127 59.5c-7.6 5.3-15 6.3-19.4 4.9-4.4-1.5-5.6 2-1.1 3 4.5 1.1 12.7 2.8 20.5-7.9z"/><path class="a" d="m136.6 41.2c-8.4 4.2-7-2.6-10.9-4.8 4.1 1.3 6.3-3 10.8 2.3 0.5-7-5.8-9.4-9.7-7.3-3.9 2.2-6.3 1.5-9-0.2 2.8 2.9 3.2 10.3 5.8 12.1 2.6 1.8 7.4 4.3 13-2.1z"/><path class="a" d="m144 42.6c-3.7 9.5 2.7 18.7 6.2 18.6-4-6.1 1-7.3-1.6-11-2.5-3.7-3.1-2.1-4.6-7.6z"/><path class="a" d="m139.5 34c6.2-9.4 8.4-15.7 3.2-22.2 1.7 8.4-3.4 6.7-4.4 11.5-1.1 4.7 2 4.1 1.2 10.7z"/><path class="a" d="m145.3 28.9c6.2-9.8 2-13.3 5.3-17.8 3.4-4.5 8.1-4.2 5.4-11.2 5.8 9.4 3.9 21-10.7 29z"/><path class="a" d="m157.2 20.9c6.8-4.1 3.2-7.5 7.1-11.2 3.9-3.8 8.6-0.9 11.2-7.1-0.3 8-7.1 16.3-18.3 18.3z"/><path class="a" d="m162.6 22.2c13.1-4.7 26.6-5.1 30.2 19-6.1-10.1-11.8-2.5-20.4-7.2-8.7-4.7-7.5-12.1-21.7-5.3-14.2 6.8-13.8 31.9-26.1 46.2-12.3 14.3-30.3 17.1-43.5 13.6-13.3-3.5-27.3-9.2-41.7-4-14.4 5.1-15 13.7-10.8 16.8 4.2 3.1 12.3-0.6 9.6-6.3-2-4.4-5.7-0.6-4.1 1.4 1.6 1.9-1.1 3.7-2.5 1-1.5-2.7 0.4-5.5 3.7-6.5 3.2-1.1 8.5 4.2 6.3 9.3-2.3 5.2-11.2 7.4-15.5 2.8-4.3-4.6-7.3-17.5 19-21.3-18.3 1.2-28.6 9.3-32.4 18.2-3.8 9 5.3 22.1 11.8 14.8 2.2-2.8-1.3-5.7-4.1-4.5-2.8 1.1-2.8-3.8 2.7-2.5 5.4 1.3 6 8.3 0.7 10.2-5.3 1.8-11.3-0.4-13.8-9.9-2.4-9.5 9.4-31.1 46.7-26.9 14.3 2.4 31.2 12.3 48.3 5.2 17-7.1 25-18.9 30.4-35.5 5.4-16.7 12.8-27.5 26.5-26.9 13.6 0.6 14.7 7.2 17.8 3.9 3-3.3-11.2-7.1-17.1-5.6z"/><path class="a" d="m119.4 74.9c-22.8 14-37 12.7-51.1 4.6-14.9-8.5-9.6-18.1-17.4-26.5-7.7-8.3-18-8.3-21-21.7-3.3 15.8 7.7 37.9 28.1 46.5-19.2-13.8-19.2-22.5-15.9-24.1 3.3-1.6 9.1 9 12.9 16.2 6.3 12.1 38.4 29.9 64.4 5z"/><path class="a" d="m128.2 72.2c-16.9 25.2-38.4 26.1-51.7 25.8-13.4-0.2-29.7 11.3-30.6 22 9.1-15.6 16.6-11.8 22.3-9.9 5.7 1.9 10.4-2.8 12.5-5.5 2.2-2.7 5.3-6 7.9-4.4 1.3 0.6-9.5 5-2.9 10.6-0.6-7.2 5.8-9.6 12.1-10.4 6.2-0.8 23.9-11.8 30.4-28.2z"/><path class="a" d="m136 60.5c-11.5 39.9 25.7 31.7 33.5 51.2-1.9-26.4-40.9-13.6-33.5-51.2z"/><path class="a" d="m126.5 61.8c-27 21-39.6 7.1-44.1 0.1-4.5-7 3.4-11.8 9.9-10.1 6.5 1.6 13.1-3.9 15.4-6-12.8 5.1-14.7-3.1-22.9 2.1-8.2 5.3-6.2 13.6 1.4 20 7.6 6.4 19.2 12.2 40.3-6.1z"/><path class="a" d="m118.2 69.3c-21.8 11.1-31.2 8.4-43.3-1.6-12.1-10-15.1-28.1-4.6-35.6 6.7-4.9 1.8-6.7-2.6-2.5-4.4 4.1-13.3 19.9 5.9 38.7 8.1 6 20.1 16.8 44.6 1z"/><path class="a" d="m90.1 76.6c-21.1-6.1-30.3-19.2-31.6-31.6-1.3-12.4 8.7-25.4 24.5-25.4 15.9-0.1 12.9 15.4 5.2 15.2-7.7-0.3-4.7-4.8-8-3.5-3.3 1.2-2 4.7 2.7 6.8 4.8 2.1 15.9-1.3 14.9-10.8-0.9-9.6-16.2-13.1-27.6-6-11.3 7.1-17.8 18.5-10.3 34 6 12.5 16.2 18.6 30.2 21.3z"/><path class="a" d="m56.8 33.1c6.1-15.5 18.7-17.9 23.6-18.1 5-0.1 4.4-3.9-1.7-3.9-6.1 0.1-20.6 8.8-21.9 22z"/><path class="a" d="m69.4 84.6c-17.9-3.4-24.1 0.1-22.2 8 1.9 7.9 15.2 7.2 14-0.7-0.7-4.4-7.4-3.4-6.9 0.6 0.6 3.9-4.7 2.6-5.5-1-0.8-3.5 2.5-9.3 20.6-6.9z"/><path class="a" d="m44.7 79.6c-15.4-3.5-27.7 0.5-31.4 2.9-3.8 2.5-1.1 4.1 2.6 1.6 3.8-2.4 12.3-6.7 28.8-4.5z"/><path class="a" d="m44 78c-25-14.5-40.4-4-37.1-0.9 3.3 3 6.3 1.4 11.6-0.6 5.2-2 14.9-2.7 25.5 1.5z"/><path class="a" d="m45 72.1c-25-18.2-41.4-22.1-44-16.7-2.6 5.5 11-4.3 44 16.7z"/><path class="a" d="m38.7 66.1c-7.7-10.9-23.2-23-27.3-20.2-4.1 2.8 7.1 3.7 13.8 8.2 3.9 2.7 7.2 4.7 13.5 12z"/><path class="a" d="m84.6 96.7c-42.6 1-49.1 25.1-48.7 38.1 0.3 13.1 18.9 22.7 26.4 9.3 7.9-14.1-16-19.3-17.6-5.9 1.1 3.6 3.1 3.8 1.9 0.5-1.4-4 5.4-8.5 10.6-4.5 5.2 4 2.7 10.1-2.7 12.8-6.1 3.1-17.1-3.4-17.3-13.5-0.2-9 4.1-34.3 47.4-36.8z"/><path class="a" d="m138.1 73.9c1 11.5 12 16.8 19.6 12.2 7.6-4.7 5.5-14-3-16.2-8.4-2.3-13.9 9.2-8.1 12.7 3.4 1.9 4.9-0.3 2.1-2.5-2.9-2.3-1.4-6.7 3-7.8 4.5-1.1 10.4 3.9 8.2 8.8-2.2 5-15.3 10.2-21.8-7.2z"/><path class="a" d="m142.8 42.1c-10.6 24.4 0.6 34.9 10.9 37.9 10.3 3.1 27.1-3.6 21.4-18.5-7-14-25.6-2.4-17.4 5.6 4.2 3.4 5.9-1.3 2.7-2.1-3.2-0.9-4-6 2.5-7.8 7-2 14.1 10.5 7.5 17-6.5 6.6-16.6 7.3-25.7-1.6-9.5-9.2-3.1-25.1-1.9-30.5z"/></g></svg>