<svg version="1.2" xmlns="http://www.w3.org/2000/svg" viewBox="0 0 288 409" width="288" height="409"><style>.a{fill:#a2495d}</style><path fill-rule="evenodd" class="a" d="m16.5 406.1q-0.4 0.5-0.9 1-0.6 0.5-1.2 0.8c-1 0.5-2.1 0.5-3.1 0.1q-0.2-0.1-0.5-0.3-0.2-0.1-0.4-0.3 0-0.1 0-0.1-0.2-0.2-0.4-0.5c-0.2-0.4-0.4-1-0.3-1.6 0-0.6 0.3-1.1 0.7-1.6 0.1 0 0 0 0.1 0q0.2-0.2 0.5-0.4h0.1c0.5-0.4 1.2-0.5 1.8-0.3q0.8 0.2 1.3 0.8 0.3-0.5 0.4-1 0.1-0.6-0.2-1-0.2-0.5-0.7-0.8c-0.6-0.3-1.3-0.3-1.9-0.2-1 0.2-2 0.7-2.9 1.2q-1.1 0.6-2 1.4 0.2 0.5 0.2 1v0.1c0 0.6-0.3 1.3-0.8 1.8-0.4 0.4-1 0.7-1.7 0.7v0.1h-0.3v-0.1c-0.6 0-1.2-0.3-1.7-0.7-0.4-0.5-0.7-1.1-0.7-1.7v-0.3c0-0.6 0.3-1.2 0.7-1.7 0.5-0.5 1.2-0.7 1.8-0.7h0.1q0.5 0 1 0.2 0.8-1 1.4-2.1c0.5-0.8 1-1.8 1.2-2.9 0.1-0.6 0.1-1.3-0.2-1.9q-0.3-0.4-0.7-0.7-0.5-0.3-1.1-0.2-0.5 0.1-0.9 0.4 0.6 0.5 0.7 1.3c0.2 0.6 0.1 1.3-0.2 1.9h-0.1q-0.1 0.3-0.4 0.6c-0.4 0.4-1 0.7-1.6 0.8-0.6 0-1.1-0.1-1.6-0.4q-0.3-0.2-0.5-0.4-0.2-0.2-0.4-0.4-0.1-0.3-0.3-0.5c-0.4-1-0.4-2.1 0.1-3.1q0.4-0.6 0.8-1.1 0.5-0.5 1-0.9c1.1-0.8 2.5-1.2 3.9-1.3-2.3-1.6-4-3.7-5.1-6.2q-0.6-1.5-0.9-3.1-0.3-1.6-0.4-3.3c0-2 0.3-3.9 0.9-5.8 0.4-1.1 0.9-2.1 1.6-3 0.5-0.8 1.1-1.6 1.7-2.4 1-1.7 2.1-4.1 0.7-5.9q-0.2-0.2-0.4-0.4c-0.4-0.2-0.8-0.4-1.3-0.4-0.4-0.1-0.8 0.1-1.2 0.4q-0.1 0.1-0.3 0.3-0.2 0.2-0.3 0.5c-0.1 0.4-0.2 0.8-0.1 1.2 0.1 0.4 0.2 0.7 0.5 0.9q0.2 0.1 0.4 0.2c0.3 0.1 0.8 0.1 1.1-0.2q0.1-0.1 0.2-0.3 0.1-0.2 0-0.3c0-0.4-0.3-0.5-0.5-0.6-0.3-0.1-0.5-0.4-0.4-0.7 0.1-0.3 0.4-0.4 0.7-0.4 0.7 0.3 1.2 0.8 1.3 1.5q0.1 0.5-0.1 0.9-0.1 0.4-0.4 0.7c-0.7 0.6-1.5 0.7-2.3 0.4q-0.4-0.1-0.6-0.3c-0.5-0.4-0.8-1-1-1.6-0.1-0.6 0-1.2 0.2-1.8q0.2-0.4 0.5-0.8 0.2-0.3 0.5-0.5c0.5-0.4 1.2-0.6 1.9-0.6 0.6 0 1.3 0.3 1.8 0.7q0.3 0.2 0.6 0.5c1.3 1.6 1.1 3.7 0.3 5.5q0.1-0.1 0.3-0.2 1.3-0.8 2.7-1.2 1.5-0.5 3-0.5h0.1q0.1-0.1 0.3-0.1c-0.3-1.6-0.4-3.3-0.2-4.9 0.1-1.3 0.4-2.4 0.8-3.6-2.5-0.1-5.1 0.2-7.5 1l-0.2 0.1v-10.2q-0.1 0-0.1 0-1.5-0.2-2.7-0.9c-0.8-0.5-1.4-1.3-1.8-2.2-0.5-1.2-0.6-2.6-0.2-3.9q0.8-2.6 3-3.9 0.3-0.1 0.5-0.2-0.2-0.1-0.4-0.2c-1.7-0.7-2.6-2.3-2.6-4.1 0-2.3 1.3-3.7 2.7-5.3 1.3-1.3 2.5-2.6 2.3-4.6-0.1-0.9-0.6-1.6-1.4-1.9q-0.5-0.1-1-0.1-0.4 0.1-0.8 0.3c-0.7 0.4-0.9 1.2-0.8 1.9q0 0.3 0.2 0.6 0.2 0.4 0.6 0.5 0.3 0.2 0.7 0.1 0.2 0 0.4-0.1c0.3-0.2 0.4-0.5 0.4-0.9q0-0.1-0.1-0.2 0-0.1-0.1-0.2c-0.2-0.1-0.5 0.1-0.6 0.1-0.3 0.2-0.6 0.1-0.7-0.1-0.2-0.3-0.1-0.6 0.2-0.8 0.5-0.3 1.1-0.4 1.7-0.1q0.3 0.3 0.5 0.6 0.1 0.3 0.1 0.7c0.1 0.7-0.2 1.5-0.9 1.8q-0.3 0.2-0.7 0.3c-0.5 0.1-0.9 0-1.4-0.2q-0.7-0.3-1.1-0.9-0.2-0.5-0.3-1c-0.2-1.2 0.3-2.3 1.3-3q0.6-0.3 1.3-0.4 0.7-0.1 1.4 0.1c1.3 0.4 2 1.5 2.2 2.8 0.2 2.4-1.1 3.8-2.6 5.4-1.2 1.4-2.4 2.7-2.4 4.6 0 1.4 0.6 2.6 1.9 3.1q0.6 0.3 1.3 0.3c0-0.1 0-5.9 0-6 0-0.3 0.2-0.5 0.5-0.5q0.2 0 0.3 0 0.4 0.1 0.9 0.2 0.4 0.2 0.7 0.4c1.1 0.6 1.8 1.8 1.8 3 0 1.4-0.6 2.5-1.7 3.2 1.6 0.2 3 1 4.1 2.2 1.5 1.6 2.5 3.9 3 6q0.1 0.4 0.2 0.7c0.5 3 0.4 6.2-0.2 9.2q1-1.2 2.4-1.9c1.4-0.8 2.9-1.2 4.5-1.3 1.5-0.1 3.1 0.2 4.5 0.9 1.6 0.7 2.9 1.9 3.8 3.5l0.1 0.1q0.4 0.8 0.7 1.6 0.2 0.9 0.4 1.7c0.2 2.3-0.3 4.8-1.9 6.6q1.5 2.3 2.3 4.8 0.4 1.5 0.6 3c1.7-0.7 3.3-1.5 4.8-2.5q1.5-0.9 2.9-2.1l0.1-0.1c-0.5 0-1-0.2-1.3-0.6-0.4-0.4-0.7-1-0.7-1.6 0-0.6 0.3-1.2 0.7-1.6 0.9-0.9 2.3-0.9 3.1 0q0.2 0.2 0.3 0.4c0.1-0.5 0.3-1 0.7-1.3 0.4-0.4 1-0.7 1.6-0.7 0.6 0 1.1 0.3 1.5 0.7 0.5 0.4 0.7 1 0.7 1.6 0 0.6-0.2 1.1-0.7 1.6-0.3 0.3-0.8 0.5-1.2 0.6q0.2 0.1 0.3 0.3c0.9 0.9 0.9 2.3 0 3.2-0.9 0.8-2.3 0.8-3.2 0-0.3-0.4-0.6-0.9-0.6-1.4l-0.1 0.1q-0.6 0.7-1.1 1.4-0.5 0.8-1 1.5-1.5 2.2-2.4 4.8 1.5 0.2 2.9 0.7 2.6 0.8 4.8 2.2c1.8-1.5 4.3-2.1 6.6-1.8q0.9 0.1 1.7 0.4 0.9 0.2 1.7 0.7h0.1c1.5 0.9 2.7 2.2 3.5 3.8 0.6 1.4 0.9 3 0.8 4.5-0.1 1.6-0.5 3.2-1.3 4.5q-0.7 1.4-1.8 2.4c2.9-0.6 6.1-0.7 9.1-0.1q0.4 0 0.7 0.1c2.1 0.5 4.4 1.5 6 3 1.2 1.1 2 2.5 2.2 4.1 0.7-1.1 1.9-1.6 3.2-1.6 1.3 0 2.4 0.6 3.1 1.7q0.2 0.4 0.3 0.8 0.1 0.4 0.2 0.8 0 0.2 0 0.3c0 0.3-0.2 0.6-0.5 0.6q-0.1 0-0.2 0h-5.7q0 0.6 0.2 1.2c0.6 1.3 1.8 2 3.1 2 2 0 3.3-1.3 4.6-2.5 1.6-1.5 3-2.8 5.4-2.6 1.3 0.2 2.4 0.9 2.8 2.3q0.2 0.6 0.2 1.3-0.1 0.7-0.5 1.3c-0.6 1.1-1.8 1.5-3 1.3q-0.5-0.1-0.9-0.3-0.7-0.4-1-1.1c-0.2-0.4-0.2-0.9-0.2-1.3q0.1-0.4 0.3-0.8c0.4-0.6 1.1-1 1.9-0.9q0.3 0 0.6 0.2 0.4 0.1 0.6 0.4c0.4 0.6 0.2 1.2-0.1 1.8-0.1 0.2-0.5 0.3-0.7 0.2-0.3-0.2-0.4-0.5-0.2-0.8 0.1-0.1 0.2-0.4 0.1-0.6q-0.1 0-0.1-0.1-0.2 0-0.3 0c-0.3-0.1-0.7 0.1-0.9 0.4q-0.1 0.1-0.1 0.3-0.1 0.4 0.1 0.8 0.2 0.3 0.5 0.5 0.3 0.2 0.6 0.2c0.8 0.2 1.5-0.1 1.9-0.8q0.2-0.4 0.3-0.8 0-0.5-0.1-0.9c-0.3-0.9-1-1.4-1.9-1.5-2-0.2-3.3 1.1-4.6 2.3-1.5 1.5-3 2.7-5.3 2.7-1.8 0-3.4-0.8-4.1-2.6q-0.1-0.2-0.1-0.4-0.1 0.3-0.3 0.5c-0.8 1.5-2.2 2.6-3.9 3-1.3 0.4-2.7 0.4-3.9-0.2-0.9-0.4-1.6-1-2.2-1.8-0.5-0.8-0.8-1.7-0.8-2.7h-10.2v-0.2c0.8-2.5 1.1-5 1-7.6-1.2 0.4-2.3 0.7-3.6 0.8-1.6 0.2-3.3 0.2-4.9-0.2q0 0.2 0 0.4-0.1 1.6-0.6 3.1-0.4 1.4-1.1 2.6-0.1 0.2-0.2 0.4c1.7-0.8 3.8-1.1 5.4 0.2q0.3 0.3 0.6 0.6c0.4 0.5 0.6 1.2 0.6 1.9 0.1 0.7-0.2 1.3-0.6 1.9q-0.2 0.3-0.5 0.5-0.4 0.2-0.8 0.4c-0.5 0.2-1.2 0.3-1.8 0.2q-0.9-0.2-1.5-0.9-0.2-0.3-0.4-0.6c-0.3-0.8-0.2-1.7 0.4-2.3q0.3-0.3 0.7-0.5 0.5-0.1 0.9-0.1c0.8 0.1 1.3 0.6 1.5 1.4 0.1 0.3-0.1 0.6-0.4 0.6-0.3 0.1-0.6 0-0.6-0.3-0.1-0.3-0.3-0.6-0.6-0.6q-0.2 0-0.4 0-0.2 0.1-0.3 0.2c-0.3 0.3-0.3 0.8-0.2 1.2q0.1 0.2 0.2 0.3c0.3 0.3 0.6 0.5 0.9 0.5 0.4 0.1 0.8 0 1.2-0.1q0.3-0.1 0.5-0.3 0.2-0.1 0.4-0.3c0.2-0.3 0.4-0.8 0.4-1.2-0.1-0.4-0.2-0.9-0.5-1.2q-0.2-0.3-0.4-0.4c-1.7-1.5-4.2-0.4-5.8 0.7-0.9 0.5-1.6 1.1-2.4 1.7-1 0.6-2 1.1-3.1 1.5-1.8 0.6-3.8 0.9-5.8 0.9q-1.7 0-3.3-0.4-1.6-0.3-3-0.9c-2.5-1.1-4.7-2.8-6.3-5 0 1.3-0.5 2.7-1.2 3.8zm0.7-31.2c0.5 2.2-0.6 4.4-2.6 5 1.3-0.1 2.4-0.8 3.1-2.1 0.5-0.9 0.7-2.1 0.4-3.1-0.7-2.9-3.6-3.7-6-2.9 2.2-0.4 4.6 0.6 5.1 3.1zm62.4 27.4q-0.1-0.2-0.1-0.3-0.1-0.3-0.3-0.6c-0.4-0.7-1.2-1.2-2.1-1.2-1.2 0-2.2 0.7-2.6 1.8q-0.1 0.1-0.1 0.3zm-45.4-11.6c-1.4-0.4-3 0.1-4.1 1.1-0.7 0.7-1.1 1.5-1.1 2.5 0.5-2.1 2.7-3.2 5-2.7 2.5 0.6 3.4 2.9 3.1 5.2 0.7-2.5 0-5.3-2.9-6.1zm-7.4-11.9c-4.6 2-8.4 5.5-9.8 10.3q-0.5 1.5-0.6 3 0 0.2 0 0.4 0.2 0 0.4 0 1.5-0.2 2.9-0.6c4.8-1.5 8.4-5.3 10.4-9.8q1-2.3 1.4-4.7-2.5 0.4-4.7 1.4zm19.8 12.3q-0.6-0.2-1.1-0.4-0.4-0.3-0.9-0.6c-2-1.6-3-4.1-2.5-6.6q0.2-0.8 0.5-1.5 0.4-0.8 0.9-1.5 0.2-0.3 0.4-0.5-2.1-1.3-4.4-2-1.4-0.5-3-0.7c-0.9 2.6-1.3 5.4-0.9 8.2 1.6 0.3 3.2 0.9 4.6 1.9 2.7 1.8 4.2 4.5 4.4 7.7 2.8 0.6 5.9 0.5 8.5-0.7q-0.3-2-0.9-3.8c-1.7 1-3.7 1.2-5.6 0.5zm-8.1 3.8c0 3.6-2.6 6.5-6.1 7q-0.4 0.1-0.9 0.2c-1 0-2-0.1-3-0.4-1.5-0.4-2.9-1.2-3.8-2.5-0.9-1.2-1.4-2.7-1.5-4.1q0-1.3 0.3-2.6 0.2-0.7 0.5-1.4-1.8 1.2-4 1.8-1.5 0.5-3.1 0.6-0.3 0.1-0.6 0.1 0 0.8 0.1 1.7c0.5 4.9 3.4 9 8 11q1.4 0.6 2.9 0.9 1.5 0.3 3.1 0.3c4.5 0.1 9.2-1.7 11.6-5.7q0.7-1.2 1.1-2.5 0.4-1.3 0.4-2.8 0.1-0.3 0.1-0.5-1.7-0.5-3.3-1.4-1.1-0.7-2.1-1.5 0.3 0.9 0.3 1.8zm-0.3-1.8q0 0 0-0.1 0 0 0 0.1 0 0 0 0zm-7.6-6.4c-3 0.8-5.2 3-6.1 6.1q-0.3 1.1-0.2 2.2c0 1.3 0.5 2.5 1.2 3.5 0.9 1.1 2 1.8 3.3 2.2q0.8 0.2 1.6 0.3c2.3 0 4.2-1 5.2-3 1.5-3.1-1.2-6.5-4.4-4.7-1.7 0.9-1.8 2.9-0.7 4.4l0.3 0.3-0.4-0.1q-0.5-0.1-1-0.4c-1.9-1.3-2-4.5-0.5-6.2 1.8-2 4.8-2.6 7.1-1.2q-1-1.7-1.4-3.7c-1.3-0.1-2.7 0-4 0.3zm-13.1-6.7c-1.6 1.5-4.9 1.4-6.2-0.5q-0.3-0.5-0.4-1l-0.1-0.4 0.4 0.2c1.4 1.1 3.5 1.1 4.4-0.6 1.7-3.3-1.6-5.9-4.7-4.5-2.1 1-3 3-3 5.2q0 0.9 0.3 1.7c0.3 1.3 1.1 2.4 2.1 3.2 1.1 0.8 2.3 1.2 3.6 1.3q1.1 0 2.2-0.3c3-0.8 5.2-3 6.1-6.1 0.3-1.3 0.4-2.6 0.3-4q-2-0.4-3.8-1.3c1.5 2.3 0.9 5.2-1.2 7.1zm-1.1 5.4q-1.3 0.3-2.6 0.3c-1.5-0.1-2.9-0.6-4.1-1.5-1.3-1-2.1-2.3-2.6-3.8-0.2-1-0.3-2-0.3-3.1q0-0.4 0.1-0.9c0.6-3.5 3.5-6.1 7.1-6q0.9 0 1.8 0.3 0 0 0-0.1-0.9-0.9-1.5-2.1-0.9-1.5-1.4-3.2-0.3 0-0.5 0h-0.1q-1.4 0.1-2.8 0.5-1.2 0.4-2.4 1.1c-4 2.4-5.8 7-5.8 11.6q0.1 1.6 0.4 3.1 0.3 1.5 0.9 2.8c1.9 4.6 6 7.6 11 8.1q0.8 0.1 1.7 0 0-0.2 0-0.5 0.2-1.6 0.6-3.2 0.7-2.1 1.9-4-0.7 0.4-1.4 0.6zm-1.9-29.6c-1.2 2.6-1.4 5.7-0.7 8.5 3.2 0.2 5.9 1.7 7.7 4.4 1 1.3 1.6 3 1.9 4.6 2.7 0.4 5.5-0.1 8.1-1q-0.2-1.5-0.6-3-0.7-2.3-2-4.3-0.2 0.2-0.5 0.3v0.1q-0.7 0.5-1.5 0.8-0.7 0.4-1.5 0.5c-2.5 0.5-5-0.4-6.6-2.4v-0.1q-0.3-0.4-0.6-0.9-0.3-0.5-0.4-1c-0.7-1.9-0.5-3.9 0.5-5.7q-1.9-0.6-3.8-0.8zm4.4-0.1c0.7-0.8 1.6-1.3 2.6-1.6q1.3-0.3 2.7 0c0.9 0.2 1.8 0.7 2.4 1.4 0.8 0.9 1.1 2 1.1 3.1 0 0.8-0.1 1.6-0.6 2.3q0.3 0.4 0.6 0.7 0.7 0.8 1.3 1.7c1.2-1.6 1.7-3.6 1.4-5.5q-0.1-0.8-0.3-1.6-0.3-0.7-0.6-1.4h-0.1c-0.7-1.4-1.9-2.5-3.3-3.2-1.2-0.5-2.6-0.8-4-0.7-1.4 0.1-2.8 0.5-4 1.1-1.2 0.7-2.3 1.6-3 2.8q2 0.3 3.8 0.9zm7.4 4.5q0.4-0.8 0.4-1.6 0-1.4-0.9-2.4c-0.5-0.5-1.1-0.9-1.8-1.1-0.8-0.2-1.5-0.1-2.2 0q-1 0.3-1.8 1 0.4 0.2 0.7 0.3 0.7 0.3 1.3 0.7 0.6-0.4 1.2-0.4c0.8-0.1 1.5 0.3 2.1 0.8 0.2 0.2 0.2 0.6 0 0.8-0.2 0.2-0.5 0.2-0.7 0-0.4-0.3-0.8-0.6-1.3-0.6q-0.1 0-0.1 0 1.7 1.1 3.1 2.5zm6.4 16q1.6-0.2 3.1 0c0.7-1.9 1.6-3.6 2.6-5.3q0.5-0.8 1.1-1.5-0.8 0.5-1.6 1c-1.6 1.1-3.4 2-5.2 2.7q0.1 1.5 0 3.1zm17.5 4.9c1.2 0 2.3 0.4 3.2 1.2 0.7 0.6 1.2 1.4 1.4 2.3 0.2 0.9 0.2 1.9 0 2.8-0.3 1-0.9 1.9-1.6 2.5q0.6 1.9 0.9 3.9c1.1-0.8 2.1-1.8 2.7-3 0.7-1.2 1.1-2.6 1.2-4 0-1.4-0.2-2.8-0.8-4-0.6-1.5-1.7-2.6-3.1-3.4q-0.7-0.4-1.5-0.6-0.7-0.3-1.5-0.4c-1.9-0.2-3.9 0.2-5.5 1.4q0.9 0.7 1.7 1.4 0.3 0.2 0.6 0.5c0.7-0.4 1.5-0.6 2.3-0.6zm3.5 6c0.2-0.7 0.2-1.5 0-2.2-0.1-0.7-0.5-1.3-1-1.8-0.7-0.6-1.6-0.9-2.5-0.9q-0.8 0-1.5 0.3 1.4 1.5 2.4 3.2 0-0.1 0-0.1c0.1-0.5-0.2-1-0.5-1.3-0.2-0.2-0.2-0.6 0-0.8 0.2-0.2 0.5-0.2 0.7 0.1 0.6 0.5 0.9 1.2 0.9 2q0 0.7-0.4 1.3 0.4 0.6 0.7 1.3 0.1 0.3 0.3 0.7 0.6-0.8 0.9-1.8zm17.3 10.4c-1.5-1.4-3.5-2.3-5.5-2.8q-0.3 0-0.6-0.1c-2.9-0.5-6.1-0.4-8.9 0.2q-0.9 0.2-1.8 0.5c0.2 2.3-0.1 4.7-0.7 7h9c0.2-0.8 0.6-1.6 1.1-2.2 0.6-0.8 1.5-1.3 2.5-1.5q0.9-0.2 1.9 0 0.9 0.2 1.6 0.8c0.7 0.6 1.1 1.3 1.3 2.1v0.1q0 0.3 0.1 0.6 0 0 0 0.1h1.9c0.2-1.9-0.5-3.5-1.9-4.8zm-1.1 4.7q0-0.2-0.1-0.4v-0.1c-0.1-0.5-0.4-1.1-0.9-1.5q-0.5-0.4-1.2-0.5-0.7-0.2-1.4 0c-0.7 0.1-1.4 0.5-1.9 1.1q-0.5 0.7-0.8 1.5h1.7q0-0.1 0-0.2c0.3-0.5 0.7-0.9 1.2-1.1q0.2-0.1 0.4-0.2c0.3 0 0.6 0.2 0.7 0.5 0 0.3-0.2 0.5-0.5 0.6q-0.1 0-0.2 0.1-0.2 0.1-0.4 0.3h3.4q0 0 0-0.1zm-5.9 3.3c0.5 0.6 1.1 1.1 1.8 1.4 1 0.5 2.1 0.5 3.2 0.2 1.4-0.4 2.5-1.2 3.2-2.5q0.2-0.3 0.3-0.7 0.1-0.3 0.2-0.5h-1.9c-0.2 0.8-0.7 1.5-1.4 1.9q-0.2 0.1-0.3 0.2c-0.7 0.2-1.4 0.3-2.1 0.1-0.7-0.2-1.3-0.6-1.6-1.3q-0.1-0.1-0.2-0.2-0.1-0.2-0.1-0.5 0-0.1 0-0.2h-1.7q0 1.2 0.6 2.1zm2.2-2q0 0.1 0 0.1 0 0.1 0.1 0.2c0.2 0.4 0.6 0.7 1 0.8 0.5 0.1 0.9 0.1 1.3-0.1q0.1-0.1 0.2-0.1c0.4-0.2 0.7-0.6 0.9-1h-3.6q0 0 0.1 0.1zm-21.8-22.5l0.1 0.1h-0.1q-0.5 0.6-0.8 1.3-0.3 0.6-0.4 1.3c-0.4 2.1 0.4 4.2 2.1 5.5q0.3 0.3 0.8 0.5 0.4 0.2 0.8 0.4c1.7 0.6 3.5 0.4 5-0.5q-0.2-0.5-0.4-1-0.2-0.5-0.5-1-0.2 0.2-0.4 0.3c-0.7 0.3-1.6 0.4-2.4 0-0.9-0.3-1.7-1-2-2-0.1-0.5-0.2-1.1 0-1.7q0.2-0.9 0.8-1.6 0 0 0-0.1 0 0 0.1-0.1-0.3-0.2-0.5-0.4-0.9-0.8-1.8-1.4-0.2 0.2-0.4 0.4zm3.4 2.3q-0.4 0.5-0.6 1.1-0.1 0.6 0.1 1.2c0.2 0.7 0.7 1.1 1.3 1.3 0.5 0.2 1.1 0.2 1.6 0q0.1-0.1 0.3-0.2-1.1-1.9-2.7-3.5 0 0.1 0 0.1zm-12.4-6.1q-1.4-0.1-2.8 0-0.4 2.8-1.5 5.4-0.9 1.8-2 3.5 0.6-0.2 1.3-0.4c1.3-0.4 2.7-0.5 4.1-0.4-0.4-2.7 0.1-5.5 0.9-8.1zm4.2 11c-1.1-0.7-2.5-1.3-3.8-1.6q0.5 2.1 1.6 3.8v0.1q0.7 1 1.5 1.8 0.9 0.8 2 1.4 1.2 0.7 2.6 1.1c-0.3-2.7-1.6-5-3.9-6.6zm-16-13.8c0.1 1.4 0 2.8-0.4 4.1q-0.2 0.7-0.4 1.3 1.6-1.2 3.5-2 2.6-1.2 5.3-1.5 0.2-1.4 0.1-2.9c-2.6 0.9-5.4 1.3-8.1 1zm-3.4-17q-0.4-0.2-0.9-0.4c-0.9 1.5-1.1 3.3-0.5 4.9q0.1 0.5 0.4 0.9 0.2 0.4 0.4 0.8h0.2l-0.1 0.1c1.3 1.6 3.4 2.4 5.4 2q0.7-0.2 1.4-0.5 0.6-0.3 1.2-0.7 0.1 0 0.1 0 0.3-0.2 0.5-0.4-0.7-1-1.4-1.8-0.2-0.3-0.5-0.5 0 0-0.1 0.1-0.7 0.6-1.6 0.8c-0.6 0.1-1.2 0.1-1.8-0.1-0.9-0.3-1.6-1-2-1.9-0.3-0.8-0.2-1.7 0.1-2.5q0.1-0.2 0.2-0.3-0.5-0.3-1-0.5zm1.8 1.3c-0.2 0.5-0.3 1.1-0.1 1.6 0.3 0.6 0.7 1.1 1.4 1.3q0.6 0.2 1.2 0 0.6-0.1 1.1-0.5 0.1-0.1 0.1-0.1-1.6-1.5-3.5-2.6-0.1 0.1-0.2 0.3zm-1.4 10.6c-1.5-2.3-3.8-3.7-6.6-3.9q0.5 1.3 1.2 2.6 0.6 1 1.4 1.9 0.8 0.9 1.8 1.5 1.8 1.2 3.9 1.7c-0.3-1.4-0.9-2.7-1.7-3.8zm-15.6-33h-0.1q-0.3 0.2-0.6 0.4c-1.3 0.7-2.1 1.8-2.5 3.2-0.3 1.1-0.3 2.2 0.1 3.2 0.4 0.7 0.8 1.3 1.5 1.7 0.6 0.4 1.3 0.7 2 0.7q0.1 0 0.1 0v-1.7q-0.1 0-0.3 0-0.2-0.1-0.4-0.1-0.1-0.1-0.3-0.2c-0.6-0.4-1.1-0.9-1.3-1.7-0.1-0.6-0.1-1.4 0.2-2q0.1-0.1 0.1-0.3c0.5-0.7 1.2-1.2 2-1.5v-1.9q-0.3 0.1-0.5 0.2zm-0.5 3.7q-0.1 0.1-0.1 0.2c-0.2 0.4-0.2 0.9-0.1 1.4 0.1 0.4 0.4 0.8 0.8 1q0 0 0.1 0.1 0.1 0 0.2 0 0.1 0 0.1 0v-3.5c-0.4 0.1-0.8 0.4-1 0.8zm9.1 14.6q0.3-0.8 0.5-1.7c0.6-2.9 0.7-6 0.2-8.9q-0.1-0.3-0.2-0.6c-0.4-2-1.3-4.1-2.7-5.5-1.3-1.4-2.9-2.1-4.8-1.9v1.9q0 0 0.1 0 0.3 0 0.6 0.1c0.9 0.2 1.6 0.6 2.2 1.3q0.6 0.7 0.8 1.6 0.2 0.9 0 1.9c-0.2 1-0.8 1.8-1.5 2.5-0.7 0.5-1.4 0.9-2.2 1.1v8.9c2.3-0.6 4.6-0.8 7-0.7zm-5.2 46.4c1-0.6 2.1-1.1 3.2-1.3 0.9-0.2 1.8-0.1 2.6 0.3 0.5 0.3 1 0.7 1.2 1.2 0.3 0.5 0.4 1 0.3 1.6-0.1 0.8-0.5 1.6-1.1 2.1-0.2 0.2-0.5 0.2-0.7 0q-0.1 0-0.1-0.1c-0.3-0.4-0.6-0.8-1.1-0.9-0.4-0.1-0.7 0-1.1 0.2q-0.2 0.1-0.3 0.3c-0.1 0-0.1 0-0.1 0q-0.4 0.4-0.4 0.9c-0.1 0.4 0 0.7 0.2 1q0.1 0.2 0.2 0.3 0.1 0 0.1 0 0.1 0.1 0.2 0.2 0.2 0.1 0.3 0.2c0.7 0.3 1.5 0.3 2.2-0.1q0.5-0.2 0.9-0.6 0.4-0.4 0.7-0.8c1.2-1.6 1.4-3.9 0.8-5.7q0-0.1 0-0.2-0.9-2-1.1-4.2-0.1-0.9-0.1-1.8-0.8 0-1.7-0.1-2.2-0.2-4.3-1 0 0-0.1 0c-1.8-0.7-4.1-0.4-5.7 0.7q-0.5 0.4-0.8 0.8-0.4 0.4-0.7 0.9c-0.3 0.7-0.4 1.5-0.1 2.1q0.1 0.2 0.2 0.4 0.1 0.1 0.3 0.2 0.1 0.2 0.3 0.3c0.3 0.1 0.6 0.2 1 0.2q0.5-0.1 0.9-0.5 0.1-0.1 0.3-0.3v-0.1c0.2-0.3 0.2-0.7 0.1-1-0.1-0.5-0.4-0.8-0.8-1.1q-0.1 0-0.2-0.1c-0.2-0.2-0.2-0.5 0-0.8 0.6-0.5 1.3-1 2.2-1.1q0.8-0.1 1.6 0.3 0.7 0.4 1.2 1.2c0.4 0.8 0.5 1.8 0.3 2.6-0.2 1.2-0.7 2.3-1.3 3.3q-0.5 0.8-1 1.5 0.7-0.6 1.5-1zm-0.3-56.5c0.6-0.5 1-1.2 1.1-1.9q0.2-0.8 0-1.5-0.1-0.6-0.6-1.2-0.6-0.6-1.5-0.9-0.2 0-0.5 0v3.4q0.2-0.2 0.3-0.4 0.1-0.1 0.1-0.2c0-0.3 0.3-0.5 0.6-0.5 0.3 0.1 0.5 0.3 0.4 0.6q0 0.3-0.1 0.5c-0.2 0.5-0.6 0.9-1.2 1.1q0 0.1-0.1 0.1v1.7q0.8-0.3 1.5-0.8zm5.9 53.8c-0.5 0.5-1.1 0.7-1.7 0.7-0.7 0-1.3-0.2-1.7-0.7-0.5-0.4-0.7-1-0.7-1.7 0-0.7 0.2-1.3 0.7-1.7 1-1 2.4-1 3.4 0 1 1 1 2.4 0 3.4zm-0.8-0.8c0.2-0.3 0.4-0.6 0.4-0.9 0-0.4-0.2-0.7-0.4-0.9q-0.4-0.4-0.9-0.4c-0.3 0-0.7 0.1-0.9 0.4q-0.3 0.3-0.4 0.8v0.2q0.1 0.4 0.4 0.8c0.5 0.5 1.3 0.5 1.8 0zm-8.7 8.3c0.4 0 0.8-0.2 1-0.4 0.3-0.3 0.5-0.7 0.5-1 0-0.4-0.2-0.8-0.5-1.1-0.2-0.2-0.6-0.4-0.9-0.4h-0.1c-0.4 0-0.7 0.2-1 0.4q-0.4 0.4-0.4 1v0.1c0 0.4 0.1 0.7 0.4 1 0.3 0.2 0.6 0.4 1 0.4zm41.1-42.6c-0.5-0.5-1.3-0.5-1.8 0-0.3 0.3-0.4 0.6-0.4 1 0 0.3 0.1 0.6 0.4 0.9 0.5 0.5 1.3 0.5 1.8 0 0.5-0.5 0.5-1.3 0-1.9zm-4.1 2.8c0.3-0.2 0.4-0.6 0.4-0.9 0-0.4-0.1-0.7-0.4-0.9-0.4-0.5-1.4-0.5-1.8 0-0.5 0.5-0.5 1.3 0 1.8 0.5 0.5 1.3 0.5 1.8 0zm3.5 1.8q-0.1-0.2-0.3-0.5c-0.2-0.2-0.6-0.3-0.9-0.3-0.4 0-0.7 0.1-1 0.3-0.5 0.6-0.5 1.4 0.1 1.9 0.5 0.5 1.3 0.5 1.8 0q0.2-0.2 0.3-0.5c0.1-0.3 0.1-0.7 0-0.9zm-27.2-361c1.5-2.3 3.7-4 6.2-5.1q1.5-0.6 3-0.9 1.7-0.4 3.3-0.4h0.1c1.9 0 3.9 0.3 5.7 0.9 1.2 0.4 2.1 0.9 3.1 1.5 0.8 0.6 1.6 1.2 2.4 1.7 1.6 1.1 4.1 2.2 5.9 0.7q0.2-0.1 0.3-0.4c0.3-0.3 0.5-0.7 0.5-1.2 0-0.4-0.1-0.8-0.4-1.2q-0.1-0.2-0.3-0.3-0.3-0.2-0.5-0.3c-0.4-0.1-0.8-0.2-1.2-0.1-0.4 0-0.7 0.2-0.9 0.5q-0.1 0.2-0.2 0.3c-0.2 0.4-0.2 0.9 0.1 1.2q0.2 0.1 0.3 0.2 0.2 0.1 0.4 0c0.3 0 0.5-0.3 0.6-0.6 0.1-0.2 0.4-0.4 0.7-0.3 0.2 0.1 0.4 0.4 0.3 0.6-0.2 0.8-0.7 1.3-1.5 1.4q-0.4 0.1-0.8-0.1-0.4-0.1-0.7-0.5c-0.7-0.6-0.7-1.5-0.4-2.2q0.1-0.4 0.3-0.6c0.4-0.6 1-0.9 1.6-1 0.6-0.1 1.2 0 1.8 0.2q0.4 0.2 0.7 0.4 0.3 0.3 0.5 0.5c0.5 0.6 0.7 1.3 0.7 1.9 0 0.7-0.3 1.4-0.7 1.9q-0.2 0.3-0.5 0.6c-1.7 1.3-3.7 1-5.5 0.3q0.1 0.1 0.2 0.3 0.8 1.3 1.2 2.7 0.4 1.5 0.5 3 0 0.2 0 0.4c1.6-0.3 3.3-0.4 5-0.2 1.3 0.1 2.3 0.4 3.6 0.8 0.1-2.5-0.3-5.1-1-7.5l-0.1-0.2h10.2q0-0.1 0-0.1 0-1.5 0.9-2.7c0.5-0.8 1.3-1.4 2.1-1.8 1.3-0.5 2.7-0.6 4-0.2 1.6 0.4 3 1.5 3.9 3q0.1 0.2 0.2 0.5 0.1-0.2 0.2-0.4c0.7-1.7 2.2-2.6 4.1-2.6 2.3 0 3.7 1.3 5.3 2.7 1.3 1.3 2.6 2.5 4.5 2.3 0.9-0.1 1.7-0.6 2-1.5q0.1-0.4 0-0.9 0-0.4-0.3-0.8c-0.4-0.7-1.1-1-1.9-0.8q-0.3 0-0.5 0.2-0.4 0.2-0.6 0.6-0.1 0.3-0.1 0.7 0.1 0.2 0.2 0.3c0.1 0.3 0.5 0.5 0.8 0.4q0.2 0 0.3 0 0.1-0.1 0.1-0.1c0.1-0.2 0-0.5-0.1-0.6-0.1-0.3 0-0.6 0.2-0.8 0.3-0.1 0.6 0 0.7 0.2 0.4 0.6 0.5 1.2 0.1 1.8q-0.2 0.3-0.5 0.4-0.3 0.2-0.7 0.2c-0.7 0.1-1.5-0.3-1.9-0.9q-0.2-0.4-0.2-0.7c-0.1-0.5 0-1 0.1-1.4q0.4-0.7 1-1.1 0.5-0.2 1-0.3c1.2-0.2 2.3 0.2 3 1.3q0.3 0.6 0.4 1.3 0.1 0.7-0.1 1.3c-0.4 1.4-1.5 2.1-2.9 2.3-2.3 0.2-3.8-1.1-5.4-2.6-1.3-1.2-2.6-2.5-4.5-2.5-1.4 0-2.6 0.7-3.1 2q-0.3 0.6-0.3 1.3h5.8q0.1-0.1 0.1-0.1c0.3 0.1 0.6 0.3 0.5 0.6q0 0.1 0 0.3 0 0.4-0.2 0.9-0.1 0.4-0.3 0.7c-0.6 1.1-1.8 1.7-3.1 1.7-1.3 0-2.4-0.5-3.1-1.6-0.3 1.6-1.1 3-2.2 4.1-1.7 1.5-3.9 2.5-6.1 3q-0.3 0.1-0.6 0.2c-3 0.5-6.2 0.4-9.2-0.2q1.1 1 1.9 2.4c0.7 1.4 1.2 2.9 1.3 4.5 0 1.5-0.2 3.1-0.9 4.5-0.8 1.6-2 2.9-3.5 3.8h-0.1q-0.8 0.5-1.6 0.8-0.9 0.2-1.8 0.3c-2.3 0.3-4.7-0.3-6.5-1.8q-2.3 1.5-4.9 2.3-1.4 0.4-2.9 0.6 1 2.6 2.4 4.8 0.5 0.8 1.1 1.5 0.5 0.7 1 1.4l0.1 0.1c0.1-0.5 0.3-1 0.7-1.3 0.9-0.9 2.3-0.9 3.2 0 0.8 0.8 0.8 2.2 0 3.1q-0.2 0.2-0.4 0.3c0.5 0.1 0.9 0.3 1.3 0.6v0.1q0.6 0.6 0.6 1.5c0 0.6-0.2 1.2-0.6 1.6-0.4 0.5-1 0.7-1.6 0.7-0.6 0-1.2-0.2-1.6-0.7-0.3-0.3-0.6-0.8-0.6-1.2q-0.1 0.1-0.3 0.3c-0.9 0.9-2.3 0.9-3.2 0-0.4-0.4-0.6-1-0.6-1.6 0-0.6 0.2-1.2 0.6-1.6 0.4-0.3 0.9-0.6 1.4-0.6l-0.1-0.1q-1.4-1.1-3-2.1c-1.5-1-3.1-1.8-4.7-2.5q-0.2 1.5-0.7 3-0.8 2.6-2.2 4.8c1.5 1.8 2.1 4.3 1.8 6.6q-0.1 0.9-0.4 1.7-0.3 0.9-0.7 1.6v0.1h-0.1c-0.8 1.6-2.1 2.8-3.7 3.5-1.4 0.7-3 1-4.6 0.9-1.5-0.1-3.1-0.5-4.5-1.3q-1.3-0.7-2.4-1.9c0.7 3 0.8 6.2 0.2 9.2q-0.1 0.3-0.1 0.7c-0.5 2.1-1.5 4.4-3.1 6-1.1 1.2-2.4 2-4 2.2 1 0.7 1.6 1.9 1.6 3.2 0 1.3-0.6 2.4-1.7 3q-0.4 0.3-0.8 0.4-0.4 0.1-0.9 0.2-0.1 0-0.2 0c-0.3 0-0.6-0.2-0.6-0.5q0-0.1 0-0.2v-5.8q-0.6 0.1-1.3 0.3c-1.3 0.5-1.9 1.7-1.9 3.1 0 1.9 1.2 3.2 2.5 4.6 1.5 1.6 2.8 3 2.5 5.4-0.1 1.3-0.9 2.4-2.2 2.8q-0.7 0.2-1.4 0.1-0.6 0-1.2-0.4c-1.1-0.6-1.5-1.8-1.3-3q0-0.5 0.3-0.9 0.4-0.7 1.1-1c0.4-0.2 0.9-0.3 1.3-0.2q0.4 0.1 0.7 0.3c0.7 0.4 1 1.1 1 1.9q0 0.3-0.2 0.6-0.2 0.4-0.5 0.6c-0.5 0.3-1.2 0.2-1.7-0.1-0.3-0.2-0.3-0.5-0.2-0.7 0.2-0.3 0.5-0.4 0.7-0.2 0.2 0 0.5 0.2 0.6 0.1q0.1-0.1 0.1-0.2 0.1-0.1 0.1-0.2c0-0.4-0.1-0.7-0.4-0.9q-0.2-0.1-0.4-0.1-0.3-0.1-0.7 0.1-0.4 0.1-0.6 0.5-0.1 0.3-0.2 0.6c-0.1 0.7 0.1 1.5 0.8 1.9q0.4 0.2 0.9 0.3 0.4 0 0.9-0.1c0.9-0.3 1.4-1 1.4-1.9 0.3-2-1-3.3-2.2-4.6-1.5-1.6-2.8-3-2.8-5.3 0-1.8 0.9-3.4 2.6-4.1q0.2-0.1 0.5-0.1-0.3-0.2-0.6-0.3c-1.5-0.8-2.5-2.2-3-3.9-0.3-1.3-0.3-2.7 0.3-3.9 0.4-0.9 1-1.7 1.8-2.2 0.7-0.5 1.7-0.8 2.6-0.8q0.1 0 0.1 0v-10.2h0.2c2.5 0.8 5 1.1 7.6 1-0.4-1.2-0.7-2.3-0.9-3.6-0.2-1.6-0.1-3.3 0.2-4.9q-0.1 0-0.3 0-1.6-0.1-3.1-0.6-1.4-0.4-2.6-1.1-0.2-0.1-0.4-0.3c0.8 1.8 1.1 3.9-0.3 5.5q-0.2 0.3-0.5 0.5c-0.6 0.5-1.2 0.7-1.9 0.7-0.7 0-1.4-0.2-1.9-0.6q-0.3-0.2-0.5-0.5-0.3-0.4-0.4-0.8c-0.3-0.6-0.3-1.2-0.2-1.8 0.1-0.6 0.4-1.2 0.9-1.5q0.3-0.2 0.6-0.4c0.8-0.3 1.7-0.2 2.3 0.4q0.3 0.3 0.5 0.7 0.1 0.4 0.1 0.9c-0.1 0.7-0.7 1.3-1.4 1.5-0.3 0.1-0.6-0.1-0.7-0.4-0.1-0.3 0.1-0.6 0.4-0.7 0.3 0 0.6-0.2 0.6-0.6q0-0.1-0.1-0.3 0-0.2-0.2-0.3c-0.3-0.3-0.7-0.3-1.1-0.2q-0.2 0.1-0.3 0.2c-0.3 0.2-0.5 0.6-0.6 0.9 0 0.4 0 0.8 0.2 1.2q0.1 0.3 0.3 0.5 0.1 0.2 0.3 0.4c0.3 0.2 0.7 0.4 1.2 0.3 0.4 0 0.8-0.1 1.2-0.4q0.2-0.2 0.4-0.4c1.4-1.7 0.4-4.2-0.7-5.9-0.5-0.8-1.1-1.5-1.7-2.4-0.7-0.9-1.1-1.9-1.5-3-0.7-1.9-1-3.8-0.9-5.8q0-1.7 0.3-3.3 0.4-1.6 1-3c1-2.6 2.8-4.7 5-6.3-1.3 0-2.7-0.5-3.8-1.3q-0.6-0.3-1-0.9-0.5-0.5-0.8-1.1c-0.5-1-0.6-2.1-0.1-3.1q0.1-0.2 0.3-0.5 0.1-0.2 0.3-0.4 0.3-0.2 0.5-0.4c0.5-0.3 1.1-0.4 1.7-0.4 0.6 0.1 1.1 0.4 1.5 0.8 0.1 0 0.1 0 0.1 0.1q0.2 0.2 0.4 0.5c0.3 0.6 0.4 1.3 0.3 1.9q-0.2 0.8-0.8 1.3 0.4 0.3 1 0.4 0.5 0.1 1-0.2 0.5-0.2 0.7-0.7c0.3-0.6 0.4-1.3 0.2-1.9-0.1-1-0.6-2.1-1.1-2.9q-0.7-1.1-1.5-2.1-0.4 0.3-1 0.3c-0.7 0-1.3-0.3-1.8-0.8-0.5-0.5-0.7-1-0.8-1.7v-0.3c0.1-0.6 0.3-1.2 0.8-1.7 0.4-0.4 1-0.7 1.7-0.7h0.3c0.6 0 1.2 0.3 1.7 0.7 0.4 0.5 0.7 1.2 0.7 1.9q0 0.5-0.2 1 1 0.8 2 1.4c0.9 0.5 1.9 1 2.9 1.2 0.7 0.1 1.3 0.1 1.9-0.2q0.5-0.3 0.8-0.8 0.2-0.4 0.2-1-0.1-0.5-0.4-1-0.6 0.6-1.3 0.8c-0.7 0.2-1.3 0.1-1.9-0.2v-0.1q-0.3-0.1-0.6-0.4c-0.5-0.4-0.7-1-0.8-1.6-0.1-0.6 0.1-1.1 0.4-1.6q0.1-0.3 0.3-0.5h0.1q0.2-0.2 0.4-0.4 0.2-0.2 0.5-0.3c0.9-0.4 2.1-0.4 3 0.1q0.7 0.3 1.2 0.8 0.5 0.5 0.9 1c0.8 1.1 1.2 2.5 1.3 3.9zm-5.7 30.4c2.5 0.8 5.3 0 6.1-2.8 0.2-1.1 0-2.3-0.5-3.2-0.7-1.3-1.8-2-3.1-2.1 2 0.6 3.1 2.8 2.7 5-0.6 2.5-3 3.5-5.2 3.1zm62.3-30.5q0.1 0.2 0.1 0.3c0.5 1.1 1.4 1.8 2.6 1.8 0.9 0 1.7-0.4 2.2-1.2q0.1-0.3 0.2-0.6 0.1-0.1 0.1-0.3zm-37.4 5.5c0.4 2.3-0.6 4.7-3.1 5.2-2.2 0.5-4.4-0.6-5-2.7 0.1 1 0.4 1.8 1.2 2.5 1 1 2.7 1.5 4.1 1.1 2.8-0.7 3.6-3.6 2.8-6.1zm-5.5 19.4q-0.4-2.4-1.4-4.7c-2.1-4.5-5.6-8.3-10.4-9.8q-1.5-0.4-2.9-0.6-0.3 0-0.5 0 0 0.2 0.1 0.4 0.1 1.5 0.5 3c1.5 4.8 5.3 8.3 9.8 10.3q2.3 1.1 4.8 1.4zm20.7-13.2q0.6-1.8 0.8-3.7c-2.6-1.3-5.7-1.4-8.4-0.8-0.2 3.2-1.8 5.9-4.4 7.8-1.4 0.9-3 1.5-4.7 1.8-0.4 2.8 0.1 5.6 1 8.2q1.5-0.2 3-0.7 2.3-0.7 4.4-2-0.2-0.2-0.4-0.4v-0.1q-0.5-0.7-0.9-1.5-0.3-0.7-0.5-1.5c-0.5-2.5 0.5-5 2.5-6.6q0.4-0.3 0.9-0.6 0.5-0.2 1-0.4c1.9-0.7 4-0.5 5.7 0.5zm-14.1-2.4q0.1 0 0.1 0 0.9-0.9 2.1-1.6 1.5-0.9 3.2-1.3 0-0.3 0-0.6-0.1-1.5-0.5-2.8-0.4-1.3-1.1-2.4c-2.4-4.1-7-5.9-11.5-5.8h-0.1q-1.5 0-3.1 0.3-1.4 0.3-2.8 0.9c-4.6 2-7.6 6.1-8 11q-0.1 0.9-0.1 1.7 0.3 0 0.6 0.1 1.6 0.1 3.1 0.6 2.1 0.6 4 1.8-0.3-0.7-0.5-1.4-0.4-1.3-0.3-2.6c0-1.4 0.5-2.9 1.4-4.1 1-1.2 2.3-2.1 3.9-2.5 0.9-0.3 2-0.4 3-0.3q0.4 0 0.9 0.1c3.5 0.6 6.1 3.4 6.1 7q-0.1 1-0.4 1.9zm-3.5 6.6q0.4-2 1.3-3.7c-2.2 1.4-5.2 0.8-7.1-1.2-1.5-1.7-1.4-4.9 0.6-6.2q0.4-0.3 0.9-0.4l0.5-0.1-0.3 0.3c-1.1 1.5-1.1 3.5 0.7 4.5 3.2 1.7 5.9-1.7 4.4-4.7-1-2.1-3-3.1-5.2-3.1q-0.8 0.1-1.6 0.3c-1.3 0.4-2.5 1.1-3.3 2.2-0.8 1-1.2 2.2-1.3 3.5q0 1.1 0.3 2.2c0.9 3.1 3 5.3 6.1 6.1 1.3 0.4 2.7 0.4 4 0.3zm-15.9 13.5q1.7-0.9 3.7-1.3c0.2-1.4 0.1-2.7-0.3-4-0.8-3.1-3-5.3-6.1-6.1q-1.1-0.3-2.2-0.3c-1.3 0.1-2.5 0.5-3.5 1.3-1.1 0.8-1.8 1.9-2.2 3.2q-0.2 0.8-0.3 1.7c0 2.2 1 4.2 3.1 5.2 3.1 1.4 6.4-1.2 4.7-4.4-1-1.8-3-1.8-4.5-0.7l-0.3 0.2 0.1-0.4q0.1-0.5 0.4-1c1.3-1.9 4.5-2 6.2-0.5 2 1.9 2.6 4.8 1.2 7.1zm-0.9-11.9q-1.2-1.9-1.9-4-0.5-1.6-0.6-3.1 0-0.3-0.1-0.6-0.8 0-1.6 0c-5 0.5-9.1 3.5-11.1 8.1q-0.6 1.3-0.9 2.8-0.3 1.5-0.3 3.1c-0.1 4.6 1.8 9.2 5.8 11.6q1.1 0.7 2.4 1.1 1.4 0.4 2.8 0.5 0.3 0 0.6 0 0.4-1.7 1.3-3.2 0.7-1.2 1.6-2.1 0 0 0-0.1-0.9 0.3-1.8 0.3c-3.7 0.1-6.5-2.5-7.1-6q-0.1-0.5-0.1-0.9c-0.1-1 0-2.1 0.3-3 0.4-1.6 1.3-2.9 2.6-3.9 1.1-0.9 2.6-1.4 4.1-1.4q1.3-0.1 2.5 0.2 0.8 0.3 1.5 0.6zm0.4 28.2c-1-1.7-1.1-3.8-0.5-5.7q0.2-0.5 0.5-1 0.2-0.5 0.5-0.9l0.1-0.1c1.5-2 4-2.9 6.5-2.4q0.8 0.2 1.5 0.5 0.8 0.3 1.5 0.8l0.1 0.1q0.2 0.2 0.4 0.3 1.3-2 2-4.3 0.5-1.5 0.7-3c-2.6-0.9-5.4-1.4-8.1-1-0.3 1.7-1 3.3-1.9 4.7-1.9 2.6-4.6 4.2-7.8 4.4-0.6 2.7-0.4 5.8 0.8 8.4q1.9-0.2 3.7-0.8zm-3.2 1.8c0.8 1.2 1.8 2.1 3 2.8 1.3 0.7 2.6 1.1 4 1.1 1.4 0.1 2.8-0.2 4.1-0.7 1.4-0.7 2.5-1.8 3.3-3.1v-0.1q0.4-0.7 0.6-1.4 0.3-0.8 0.4-1.6c0.2-1.9-0.2-3.9-1.4-5.4q-0.6 0.8-1.3 1.6-0.3 0.4-0.6 0.7c0.4 0.7 0.6 1.5 0.6 2.3 0 1.2-0.4 2.3-1.2 3.1-0.6 0.7-1.4 1.2-2.3 1.4-0.9 0.3-1.9 0.2-2.8 0-1-0.3-1.8-0.8-2.5-1.6q-1.9 0.7-3.9 0.9zm8.1-2.9q0.1 0 0.1 0c0.5 0 1-0.3 1.3-0.6 0.3-0.2 0.6-0.2 0.8 0 0.2 0.2 0.2 0.6 0 0.8-0.6 0.5-1.3 0.9-2.1 0.9q-0.7-0.1-1.2-0.4-0.7 0.3-1.4 0.6-0.3 0.2-0.6 0.3 0.7 0.7 1.7 1c0.7 0.2 1.5 0.2 2.2 0 0.7-0.2 1.4-0.6 1.8-1.1q0.9-1.1 0.9-2.4 0-0.8-0.3-1.5-1.5 1.3-3.2 2.4zm9.6-15.4c1.8 0.7 3.5 1.6 5.2 2.7q0.8 0.5 1.6 1-0.6-0.7-1.1-1.5c-1-1.7-1.9-3.4-2.6-5.3q-1.6 0.2-3.1 0.1 0.1 1.5 0 3zm15.2-8.6q-0.3 0.3-0.6 0.5-0.9 0.8-1.7 1.4c1.5 1.2 3.5 1.6 5.5 1.4q0.7-0.1 1.5-0.4 0.7-0.2 1.5-0.6c1.4-0.8 2.4-1.9 3.1-3.4 0.6-1.2 0.8-2.6 0.7-4 0-1.4-0.4-2.8-1.1-4q-1.1-1.8-2.7-3-0.3 2-1 3.9c0.8 0.6 1.3 1.5 1.6 2.5 0.3 0.9 0.3 1.9 0 2.8-0.2 0.9-0.7 1.7-1.4 2.3-0.8 0.8-1.9 1.2-3.1 1.2-0.8 0-1.6-0.2-2.3-0.6zm4.8-7.1q-0.1 0.3-0.3 0.6-0.3 0.7-0.6 1.4 0.3 0.5 0.4 1.2c0 0.8-0.4 1.5-0.9 2.1-0.2 0.2-0.5 0.2-0.8 0-0.2-0.2-0.2-0.6 0-0.8 0.3-0.3 0.6-0.8 0.6-1.3q0 0 0-0.1-1.1 1.7-2.4 3.2 0.7 0.3 1.5 0.3 1.3 0 2.4-0.9c0.6-0.5 0.9-1.1 1.1-1.8 0.2-0.7 0.2-1.5 0-2.2q-0.3-1-1-1.7zm20.2-13.5h-2q0 0.1 0 0.1 0 0.3-0.1 0.6v0.1c-0.1 0.8-0.6 1.6-1.2 2.1q-0.8 0.6-1.7 0.8-0.9 0.2-1.8 0c-1-0.2-1.9-0.7-2.6-1.5-0.5-0.6-0.9-1.4-1.1-2.2h-8.9c0.6 2.3 0.9 4.7 0.7 7q0.9 0.3 1.7 0.5c2.9 0.6 6 0.7 8.9 0.2q0.3-0.1 0.6-0.1c2-0.5 4.1-1.4 5.6-2.8 1.3-1.3 2-2.9 1.9-4.8zm-3.1 0h-3.4q0.2 0.2 0.5 0.4 0.1 0 0.2 0c0.3 0.1 0.5 0.3 0.4 0.6 0 0.3-0.3 0.5-0.6 0.5q-0.2-0.1-0.5-0.2c-0.5-0.2-0.9-0.6-1.1-1.1q-0.1-0.1-0.1-0.2h-1.7q0.3 0.9 0.9 1.5c0.5 0.6 1.1 1 1.9 1.2q0.7 0.1 1.4 0 0.7-0.2 1.2-0.6 0.8-0.6 0.9-1.5 0-0.3 0-0.5 0 0 0-0.1zm-6.5-1h1.7q0-0.2 0.1-0.3 0-0.2 0.1-0.4 0-0.2 0.1-0.3c0.4-0.7 1-1.1 1.7-1.3 0.7-0.2 1.4-0.1 2 0.1q0.2 0.1 0.3 0.2c0.8 0.4 1.3 1.1 1.5 2h1.9q-0.1-0.3-0.2-0.6-0.1-0.4-0.3-0.7c-0.7-1.2-1.9-2.1-3.3-2.5-1-0.3-2.2-0.3-3.2 0.2-0.7 0.3-1.3 0.8-1.7 1.4-0.4 0.6-0.6 1.3-0.7 2.1q0 0 0 0.1zm2.8 0h3.6c-0.2-0.5-0.5-0.9-0.9-1.1q-0.1 0-0.2-0.1c-0.4-0.2-0.9-0.2-1.3-0.1-0.5 0.1-0.8 0.4-1.1 0.8q0 0.1 0 0.2-0.1 0.1-0.1 0.2 0 0 0 0.1zm-21.3 22.7q0.9-0.6 1.7-1.4 0.3-0.2 0.5-0.4 0-0.1-0.1-0.1 0 0 0-0.1-0.6-0.7-0.8-1.6c-0.1-0.5-0.1-1.2 0.1-1.7 0.3-1 1-1.7 1.9-2 0.8-0.3 1.7-0.3 2.5 0.1q0.2 0.1 0.4 0.2 0.2-0.5 0.4-1 0.2-0.5 0.4-0.9c-1.5-1-3.3-1.2-4.9-0.6q-0.5 0.2-0.9 0.4-0.4 0.2-0.8 0.5c-1.7 1.3-2.5 3.4-2 5.5q0.1 0.7 0.4 1.3 0.3 0.7 0.7 1.3l0.1 0.1q0.2 0.2 0.4 0.4zm5.6-6.1q-0.1-0.1-0.3-0.2c-0.5-0.2-1.1-0.2-1.6 0-0.6 0.2-1.1 0.7-1.3 1.3q-0.2 0.6 0 1.2 0.1 0.7 0.5 1.1 0 0.1 0.1 0.1 1.5-1.6 2.6-3.5zm-16 1.4c-1.4 0.1-2.8 0-4.1-0.4q-0.6-0.1-1.3-0.4 1.2 1.7 2 3.6 1.2 2.5 1.6 5.3 1.4 0.1 2.8 0c-0.9-2.6-1.3-5.4-1-8.1zm9.1-9.5q-1.4 0.4-2.7 1.1-1 0.6-1.9 1.5-0.9 0.7-1.5 1.7v0.1q-1.2 1.7-1.7 3.8c1.4-0.3 2.7-0.8 3.9-1.6 2.2-1.6 3.6-3.9 3.9-6.6zm-11.9 21.4q0.1-1.4 0-2.9-2.8-0.3-5.3-1.5-1.9-0.8-3.6-2 0.3 0.6 0.5 1.3c0.3 1.3 0.4 2.7 0.3 4.1 2.7-0.3 5.5 0.1 8.1 1zm-10.4 15.6q-0.1-0.2-0.2-0.4c-0.4-0.8-0.4-1.7-0.1-2.5 0.3-0.9 1-1.6 2-1.9 0.6-0.2 1.2-0.2 1.8-0.1q0.9 0.2 1.6 0.8 0 0.1 0.1 0.1 0.2-0.2 0.5-0.5 0.7-0.8 1.3-1.7-0.2-0.3-0.4-0.4l-0.1-0.1q-0.6-0.4-1.3-0.7-0.6-0.3-1.3-0.5c-2.1-0.4-4.1 0.4-5.4 2v0.1h-0.1q-0.3 0.4-0.5 0.8-0.2 0.4-0.4 0.9c-0.5 1.6-0.4 3.4 0.6 4.9q0.4-0.2 0.9-0.4 0.5-0.2 1-0.4zm0.9-0.6q1.9-1.1 3.5-2.6 0 0 0-0.1-0.5-0.4-1.2-0.5-0.6-0.2-1.2 0c-0.6 0.2-1.1 0.7-1.3 1.3-0.2 0.5-0.2 1.1 0 1.6q0.1 0.2 0.2 0.3zm0.1-14.7q-2.1 0.5-3.9 1.7-0.9 0.6-1.7 1.5-0.8 0.9-1.4 1.9-0.8 1.3-1.2 2.7c2.7-0.3 5-1.7 6.6-4 0.8-1.1 1.3-2.4 1.6-3.8zm-16.7 37v-1.9c-0.9-0.2-1.6-0.7-2-1.5q-0.1-0.1-0.1-0.3c-0.3-0.6-0.4-1.3-0.2-2 0.2-0.7 0.6-1.3 1.3-1.7q0.1-0.1 0.3-0.1 0.2-0.1 0.4-0.2 0.1 0 0.3 0v-1.7q-0.1 0-0.1 0c-0.8 0-1.5 0.3-2.1 0.7-0.6 0.4-1.1 1-1.4 1.7-0.4 1-0.5 2.2-0.2 3.2 0.4 1.4 1.3 2.6 2.5 3.3q0.4 0.1 0.7 0.3 0.3 0.1 0.6 0.2zm0-3.1v-3.5q-0.1 0-0.1 0-0.1 0-0.2 0.1-0.1 0-0.2 0c-0.4 0.3-0.6 0.6-0.8 1.1-0.1 0.4 0 0.9 0.1 1.3q0.1 0.1 0.1 0.2c0.3 0.4 0.6 0.7 1.1 0.8zm1.1-16.1v8.9c0.8 0.2 1.5 0.6 2.1 1.1 0.8 0.7 1.3 1.6 1.5 2.5q0.2 1 0 1.9-0.2 0.9-0.8 1.7c-0.5 0.6-1.3 1-2.1 1.2q-0.4 0.1-0.7 0.1v2c1.8 0.1 3.4-0.6 4.7-1.9 1.4-1.5 2.3-3.6 2.8-5.6q0.1-0.3 0.1-0.6c0.5-2.9 0.4-6-0.2-8.9q-0.2-0.8-0.4-1.7c-2.4 0.1-4.8-0.1-7-0.7zm0.3-46.7q0.5 0.8 0.9 1.5c0.6 1 1.2 2.1 1.4 3.3 0.1 0.9 0.1 1.8-0.4 2.6-0.2 0.5-0.6 0.9-1.1 1.2q-0.8 0.4-1.7 0.3c-0.8-0.1-1.5-0.6-2.1-1.1-0.2-0.2-0.2-0.6 0-0.8q0.1-0.1 0.1-0.1h0.1c0.3-0.2 0.7-0.6 0.8-1 0.1-0.4 0-0.8-0.2-1.1q-0.1-0.2-0.3-0.4-0.3-0.4-0.9-0.5c-0.3 0-0.7 0.1-1 0.3q-0.1 0.1-0.3 0.2-0.1 0.1-0.2 0.3-0.1 0.1-0.2 0.3c-0.3 0.7-0.2 1.4 0.1 2.1q0.3 0.5 0.6 0.9 0.4 0.4 0.9 0.8c1.6 1.1 3.8 1.4 5.7 0.7q0 0 0.1 0 2-0.8 4.3-1 0.8-0.1 1.7-0.1 0-0.9 0.1-1.7v-0.1q0.2-2.2 1-4.2 0-0.1 0.1-0.2c0.6-1.8 0.3-4.1-0.8-5.7q-0.3-0.4-0.8-0.8-0.4-0.4-0.9-0.6c-0.6-0.4-1.4-0.4-2.1-0.1q-0.2 0.1-0.3 0.2-0.2 0.1-0.3 0.2-0.1 0.2-0.2 0.3c-0.2 0.3-0.3 0.7-0.3 1q0.1 0.5 0.5 0.9 0.2 0.2 0.4 0.3c0.3 0.2 0.7 0.3 1.1 0.2 0.4-0.1 0.8-0.5 1-0.9q0.1-0.1 0.1-0.1c0.2-0.2 0.6-0.2 0.8 0 0.6 0.6 1 1.3 1.1 2.1 0.1 0.6 0 1.1-0.3 1.6q-0.5 0.9-1.2 1.2c-0.8 0.4-1.7 0.5-2.6 0.4-1.1-0.2-2.3-0.8-3.3-1.4q-0.7-0.4-1.4-1zm-0.3 56.7v1.7q0 0 0.1 0.1c0.5 0.2 0.9 0.6 1.2 1.1q0.1 0.2 0.1 0.5c0 0.3-0.2 0.5-0.4 0.6-0.3 0-0.6-0.1-0.7-0.4q0-0.1 0-0.3-0.1-0.2-0.3-0.4v3.4q0.2 0 0.5 0 0.9-0.3 1.5-0.9 0.4-0.6 0.6-1.2 0.1-0.7 0-1.4c-0.2-0.8-0.6-1.5-1.2-1.9q-0.6-0.6-1.4-0.9zm7.4-49.6c-1 1-2.5 1-3.5 0-0.4-0.4-0.7-1-0.7-1.7 0-0.6 0.3-1.2 0.7-1.7 0.5-0.4 1.1-0.7 1.7-0.7 0.7 0 1.3 0.3 1.8 0.7 1 1 1 2.5 0 3.4zm-2.7-2.6q-0.3 0.4-0.3 0.8v0.2q0 0.5 0.3 0.8c0.3 0.3 0.6 0.4 0.9 0.4h0.1q0.5 0 0.8-0.4c0.3-0.2 0.4-0.5 0.4-0.9 0-0.3-0.1-0.6-0.4-0.9-0.4-0.5-1.3-0.5-1.8 0zm-6.9-8.3c-0.3 0-0.7 0.2-0.9 0.4-0.3 0.3-0.4 0.6-0.5 1v0.1q0.1 0.6 0.5 1c0.2 0.3 0.6 0.4 1 0.4 0.4 0 0.7-0.2 1-0.4 0.3-0.3 0.4-0.7 0.4-1 0-0.4-0.1-0.8-0.4-1.1-0.3-0.2-0.6-0.4-1-0.4zm41.2 40.7c-0.5-0.4-1.4-0.5-1.9 0q-0.3 0.4-0.3 0.9c0 0.4 0.1 0.7 0.3 1 0.5 0.5 1.4 0.5 1.9 0 0.5-0.5 0.5-1.4 0-1.9zm-6-0.9c-0.5 0.5-0.5 1.3 0 1.8 0.5 0.5 1.4 0.5 1.9 0 0.2-0.2 0.4-0.5 0.4-0.9 0-0.3-0.2-0.7-0.4-0.9-0.5-0.5-1.4-0.5-1.9 0zm5.4-2.6q-0.1-0.3-0.3-0.6c-0.5-0.5-1.4-0.5-1.9 0-0.5 0.5-0.5 1.4 0 1.9 0.3 0.2 0.6 0.4 0.9 0.4 0.4 0 0.7-0.2 1-0.4q0.2-0.2 0.3-0.5c0-0.2 0.1-0.6 0-0.8zm-38.4 34.2v5.1q0.1 0 0.3 0 0.2-0.1 0.5-0.3c0.8-0.4 1.2-1.2 1.2-2.1 0-1.2-0.6-2.2-1.8-2.6q-0.1-0.1-0.2-0.1zm274.5-56.7c2.2 1.6 4 3.7 5 6.3q0.7 1.4 1 3 0.3 1.6 0.3 3.3c0.1 2-0.2 3.9-0.9 5.8-0.4 1.1-0.8 2.1-1.5 3-0.6 0.9-1.1 1.6-1.7 2.4-1.1 1.7-2.1 4.2-0.7 5.9q0.2 0.2 0.4 0.4c0.4 0.3 0.8 0.4 1.3 0.4 0.4 0.1 0.8-0.1 1.1-0.3q0.2-0.2 0.4-0.4 0.1-0.2 0.2-0.5c0.2-0.4 0.2-0.8 0.2-1.2-0.1-0.3-0.3-0.7-0.5-0.9q-0.2-0.1-0.4-0.2c-0.4-0.1-0.8-0.1-1.1 0.2q-0.2 0.1-0.2 0.3-0.1 0.2-0.1 0.3 0.2 0.6 0.6 0.6c0.3 0.1 0.5 0.4 0.4 0.7-0.1 0.3-0.4 0.5-0.7 0.4-0.7-0.2-1.3-0.8-1.4-1.5q0-0.5 0.2-0.9 0.1-0.4 0.4-0.7c0.6-0.6 1.5-0.7 2.3-0.4q0.3 0.2 0.6 0.4c0.5 0.3 0.8 0.9 0.9 1.5 0.1 0.6 0.1 1.2-0.2 1.8q-0.1 0.4-0.4 0.8-0.2 0.3-0.5 0.5c-0.5 0.4-1.2 0.6-1.9 0.6-0.7 0-1.3-0.2-1.8-0.7q-0.4-0.2-0.6-0.5c-1.3-1.6-1.1-3.7-0.3-5.5q-0.2 0.2-0.4 0.3-1.2 0.7-2.6 1.1-1.5 0.5-3.1 0.6-0.2 0-0.3 0c0.3 1.6 0.4 3.3 0.2 4.9-0.2 1.3-0.5 2.4-0.8 3.6 2.5 0.1 5.1-0.2 7.5-1h0.2v10.2q0 0 0.1 0c0.9 0 1.9 0.3 2.6 0.8 0.8 0.5 1.5 1.3 1.8 2.2 0.6 1.2 0.7 2.6 0.3 3.9-0.5 1.7-1.5 3.1-3 3.9q-0.3 0.1-0.6 0.3 0.3 0 0.5 0.1c1.7 0.7 2.6 2.3 2.6 4.1 0 2.3-1.3 3.7-2.8 5.3-1.2 1.3-2.4 2.6-2.2 4.6 0.1 0.9 0.5 1.6 1.4 1.9q0.5 0.1 0.9 0.1 0.5-0.1 0.9-0.3c0.7-0.4 0.9-1.2 0.8-1.9q-0.1-0.3-0.2-0.6-0.2-0.4-0.6-0.5-0.4-0.2-0.7-0.1-0.2 0-0.4 0.1c-0.3 0.2-0.4 0.5-0.4 0.9q0 0.1 0.1 0.2 0 0.1 0.1 0.2c0.1 0.1 0.4-0.1 0.6-0.1 0.2-0.2 0.6-0.1 0.7 0.2 0.2 0.2 0.1 0.5-0.2 0.7-0.5 0.3-1.2 0.4-1.7 0.1q-0.3-0.2-0.5-0.6-0.1-0.3-0.2-0.6c0-0.8 0.3-1.5 1-1.9q0.3-0.2 0.7-0.3c0.4-0.1 0.9 0 1.3 0.2q0.7 0.3 1.1 1 0.3 0.4 0.3 0.9c0.2 1.2-0.2 2.4-1.3 3q-0.6 0.4-1.2 0.4-0.7 0.1-1.4-0.1c-1.3-0.4-2.1-1.5-2.2-2.8-0.3-2.4 1.1-3.8 2.6-5.4 1.2-1.4 2.4-2.7 2.4-4.6 0-1.4-0.6-2.6-1.9-3.1q-0.6-0.2-1.3-0.3c0 0.1 0 5.9 0 6 0 0.3-0.3 0.5-0.6 0.5q-0.1 0-0.2 0-0.5-0.1-0.9-0.2-0.4-0.1-0.8-0.4c-1.1-0.6-1.7-1.7-1.7-3 0-1.3 0.6-2.5 1.6-3.2-1.6-0.2-2.9-1-4-2.2-1.6-1.6-2.6-3.9-3.1-6q0-0.4-0.1-0.7c-0.5-3-0.4-6.2 0.2-9.2q-1.1 1.2-2.4 1.9c-1.4 0.8-3 1.2-4.5 1.3q-2.4 0.1-4.5-0.9c-1.7-0.7-3-1.9-3.8-3.5h-0.1q-0.4-0.8-0.7-1.7-0.3-0.8-0.4-1.7c-0.3-2.3 0.3-4.8 1.8-6.6q-1.4-2.2-2.2-4.8-0.4-1.5-0.7-3c-1.6 0.7-3.2 1.5-4.7 2.5q-0.8 0.5-1.5 1-0.8 0.5-1.5 1.1l-0.1 0.1c0.5 0 1 0.3 1.4 0.6 0.9 0.9 0.9 2.3 0 3.2-0.9 0.9-2.3 0.9-3.2 0q-0.1-0.2-0.3-0.3c0 0.4-0.2 0.9-0.6 1.2-0.4 0.5-1 0.7-1.6 0.7-0.6 0-1.2-0.2-1.6-0.7-0.4-0.4-0.6-1-0.6-1.5v-0.1c0-0.5 0.2-1.1 0.6-1.5 0.4-0.4 0.8-0.6 1.3-0.7q-0.2-0.1-0.4-0.3c-0.8-0.8-0.8-2.3 0-3.1 0.5-0.5 1-0.7 1.6-0.7 0.6 0 1.2 0.2 1.6 0.7 0.4 0.3 0.6 0.8 0.7 1.3l0.1-0.1q1.1-1.4 2.1-2.9c0.9-1.5 1.8-3.1 2.4-4.8q-1.5-0.2-2.9-0.6-2.6-0.8-4.9-2.3c-1.8 1.5-4.2 2.1-6.5 1.8q-0.9-0.1-1.7-0.3-0.9-0.3-1.7-0.8h-0.1c-1.5-0.9-2.7-2.2-3.5-3.8-0.6-1.4-0.9-3-0.8-4.5 0-1.6 0.5-3.1 1.2-4.5q0.8-1.4 1.9-2.4c-2.9 0.6-6.2 0.7-9.1 0.2q-0.4-0.1-0.7-0.2c-2.2-0.5-4.4-1.5-6-3-1.2-1.1-2-2.5-2.2-4.1-0.8 1.1-1.9 1.6-3.2 1.6-1.3 0-2.4-0.6-3.1-1.7q-0.2-0.3-0.3-0.7-0.2-0.5-0.2-0.9 0-0.2 0-0.3c-0.1-0.3 0.2-0.5 0.5-0.6q0.1 0 0.1 0.1h5.8q0-0.7-0.3-1.3c-0.5-1.3-1.7-2-3.1-2-1.9 0-3.2 1.3-4.5 2.5-1.6 1.5-3.1 2.8-5.4 2.6-1.4-0.2-2.5-0.9-2.9-2.3q-0.2-0.6-0.1-1.3 0.1-0.7 0.4-1.3c0.7-1.1 1.8-1.5 3.1-1.3q0.5 0.1 0.9 0.3 0.7 0.4 1 1.1c0.1 0.4 0.2 0.9 0.1 1.4q0 0.3-0.2 0.7c-0.4 0.6-1.2 1-1.9 0.9q-0.3 0-0.7-0.2-0.3-0.1-0.5-0.4c-0.4-0.6-0.3-1.2 0.1-1.8 0.1-0.2 0.4-0.3 0.7-0.2 0.3 0.2 0.3 0.5 0.2 0.8-0.1 0.1-0.2 0.4-0.1 0.6q0 0 0.1 0.1 0.1 0 0.3 0.1c0.3 0 0.7-0.2 0.9-0.5q0-0.1 0.1-0.3 0-0.4-0.1-0.7-0.2-0.4-0.5-0.6-0.3-0.2-0.6-0.2c-0.8-0.2-1.5 0.1-1.9 0.8q-0.3 0.4-0.3 0.8-0.1 0.5 0.1 0.9c0.2 0.9 1 1.4 1.9 1.5 1.9 0.2 3.2-1 4.6-2.3 1.5-1.4 2.9-2.7 5.2-2.7 1.9 0 3.4 0.9 4.1 2.6q0.1 0.2 0.2 0.4 0.1-0.3 0.3-0.5c0.8-1.5 2.2-2.5 3.8-3 1.3-0.4 2.7-0.3 4 0.2 0.8 0.4 1.6 1 2.1 1.8q0.9 1.2 0.9 2.7 0 0 0 0.1h10.2l-0.1 0.2c-0.7 2.4-1.1 5-0.9 7.5 1.2-0.4 2.3-0.7 3.5-0.8 1.7-0.2 3.4-0.1 5 0.2q0-0.2 0-0.4 0.1-1.5 0.5-3 0.5-1.4 1.2-2.7 0.1-0.2 0.2-0.3c-1.8 0.7-3.8 1-5.4-0.3q-0.4-0.3-0.6-0.6c-0.4-0.5-0.6-1.2-0.7-1.9 0-0.6 0.2-1.3 0.7-1.9q0.2-0.2 0.5-0.5 0.3-0.2 0.8-0.4c0.5-0.2 1.1-0.3 1.7-0.2 0.7 0.1 1.2 0.4 1.6 1q0.2 0.2 0.3 0.6c0.3 0.7 0.3 1.6-0.3 2.2q-0.4 0.4-0.8 0.5-0.4 0.2-0.8 0.1c-0.8-0.1-1.3-0.6-1.5-1.4-0.1-0.2 0.1-0.5 0.3-0.6 0.3-0.1 0.6 0.1 0.7 0.3 0.1 0.3 0.3 0.6 0.6 0.6q0.2 0.1 0.4 0 0.1-0.1 0.3-0.2c0.3-0.3 0.3-0.8 0.1-1.2q0-0.1-0.2-0.3c-0.2-0.3-0.5-0.5-0.9-0.5-0.4-0.1-0.8 0-1.2 0.1q-0.2 0.1-0.5 0.3-0.2 0.1-0.3 0.3c-0.3 0.4-0.4 0.8-0.4 1.2 0 0.5 0.2 0.9 0.5 1.2q0.1 0.3 0.3 0.4c1.8 1.5 4.3 0.4 5.9-0.7 0.8-0.5 1.6-1.1 2.4-1.7 1-0.6 1.9-1.1 3.1-1.5 1.8-0.6 3.8-0.9 5.7-0.9h0.1q1.6 0 3.3 0.4 1.5 0.3 3 0.9c2.5 1.1 4.7 2.8 6.2 5.1 0.1-1.4 0.5-2.8 1.3-3.9q0.4-0.5 0.9-1 0.5-0.5 1.2-0.8c0.9-0.5 2-0.5 3-0.1q0.3 0.1 0.5 0.3 0.2 0.2 0.4 0.4 0 0 0.1 0 0.2 0.2 0.3 0.5c0.3 0.5 0.5 1 0.4 1.6 0 0.6-0.3 1.2-0.8 1.6q-0.3 0.3-0.6 0.4-0.9 0.6-1.8 0.3-0.8-0.2-1.4-0.8-0.3 0.5-0.4 1 0 0.6 0.2 1 0.3 0.5 0.8 0.8c0.6 0.3 1.2 0.3 1.9 0.2 1-0.2 2-0.7 2.9-1.2q1-0.6 2-1.4-0.2-0.5-0.2-1v-0.1c0-0.7 0.3-1.3 0.8-1.8 0.4-0.4 1-0.7 1.6-0.7h0.3c0.7 0 1.3 0.3 1.7 0.7 0.5 0.5 0.7 1.1 0.8 1.7v0.3c-0.1 0.7-0.3 1.2-0.8 1.7-0.5 0.5-1.1 0.8-1.8 0.8q-0.6 0-1-0.3-0.8 1-1.5 2.1c-0.5 0.8-1 1.9-1.1 2.9-0.1 0.6-0.1 1.3 0.2 1.9q0.2 0.5 0.7 0.7 0.5 0.3 1 0.2 0.6-0.1 1-0.4-0.6-0.5-0.8-1.3c-0.1-0.6 0-1.3 0.3-1.9q0.2-0.3 0.4-0.5c0.1-0.1 0.1-0.1 0.1-0.1 0.4-0.4 0.9-0.7 1.6-0.8 0.5 0 1.1 0.1 1.6 0.4q0.2 0.2 0.5 0.4 0.2 0.2 0.3 0.4 0.2 0.3 0.3 0.5c0.5 1 0.4 2.1 0 3.1h-0.1q-0.3 0.6-0.8 1.1-0.4 0.6-1 0.9c-1.1 0.8-2.4 1.3-3.8 1.3zm-30.5-5.6c-0.7 2.4 0 5.3 2.9 6 1 0.3 2.2 0.1 3.2-0.4 1.2-0.7 2-1.8 2-3.1-0.5 2-2.7 3.1-4.9 2.6-2.6-0.5-3.5-2.9-3.2-5.1zm30.5 62.3q-0.1 0-0.3 0.1c-1.1 0.4-1.7 1.4-1.7 2.6 0 0.9 0.4 1.7 1.2 2.1q0.2 0.2 0.5 0.3 0.2 0 0.3 0zm-5.5-37.3c-2.2 0.3-4.6-0.6-5.1-3.1-0.5-2.3 0.6-4.5 2.6-5-0.9 0-1.8 0.4-2.5 1.1-1 1.1-1.4 2.7-1.1 4.1 0.8 2.9 3.6 3.6 6.1 2.9zm-19.4-5.6q2.5-0.4 4.8-1.4c4.5-2 8.3-5.6 9.7-10.4q0.5-1.4 0.6-2.9 0-0.2 0.1-0.4-0.3 0-0.5 0-1.5 0.1-2.9 0.6c-4.8 1.4-8.4 5.2-10.4 9.8q-1 2.2-1.4 4.7zm13.2 20.7q1.9 0.6 3.8 0.9c1.2-2.6 1.4-5.7 0.8-8.5-3.2-0.2-6-1.7-7.8-4.4-1-1.4-1.6-3-1.9-4.6-2.7-0.4-5.5 0-8.1 0.9q0.2 1.6 0.6 3 0.7 2.3 2 4.4 0.3-0.2 0.5-0.4 0.7-0.5 1.5-0.9 0.8-0.3 1.5-0.5c2.6-0.5 5.1 0.5 6.6 2.5q0.4 0.5 0.6 0.9 0.3 0.5 0.5 1.1c0.6 1.9 0.4 3.9-0.6 5.6zm2.5-14q0.9 1 1.5 2.1 0.9 1.6 1.4 3.3 0.3 0 0.5-0.1h0.1q1.4 0 2.8-0.4 1.3-0.4 2.4-1.1c4-2.4 5.8-7.1 5.8-11.6q-0.1-1.6-0.4-3.1-0.3-1.5-0.9-2.9c-1.9-4.6-6-7.5-11-8q-0.8-0.1-1.7-0.1 0 0.3 0 0.6-0.2 1.6-0.6 3.1-0.7 2.2-1.9 4 0.7-0.3 1.5-0.5 1.2-0.3 2.5-0.3c1.5 0.1 2.9 0.6 4.1 1.5 1.3 0.9 2.2 2.3 2.6 3.8 0.3 1 0.3 2 0.3 3q0 0.5-0.1 0.9c-0.6 3.5-3.5 6.1-7.1 6.1q-0.9 0-1.8-0.3zm-6.6-3.6q1.9 0.4 3.7 1.4c-1.5-2.3-0.8-5.3 1.2-7.1 1.6-1.5 4.9-1.4 6.2 0.5q0.3 0.5 0.4 1l0.1 0.4-0.4-0.3c-1.4-1.1-3.5-1-4.4 0.7-1.7 3.2 1.6 5.9 4.7 4.4 2.1-1 3.1-2.9 3-5.2q0-0.8-0.2-1.6c-0.4-1.3-1.1-2.4-2.2-3.3-1-0.7-2.3-1.1-3.5-1.2q-1.2-0.1-2.3 0.2c-3 0.9-5.2 3.1-6 6.1-0.4 1.3-0.5 2.7-0.3 4zm-13.6-15.9q1 1.8 1.4 3.8c1.3 0.1 2.7 0 4-0.3 3-0.9 5.2-3.1 6.1-6.1q0.3-1.1 0.2-2.2c0-1.3-0.5-2.5-1.2-3.6-0.8-1-2-1.8-3.3-2.1q-0.8-0.3-1.6-0.3c-2.3 0-4.2 0.9-5.2 3-1.5 3.1 1.2 6.4 4.4 4.7 1.7-0.9 1.8-3 0.7-4.4l-0.3-0.4 0.4 0.1q0.6 0.1 1 0.4c1.9 1.4 2 4.6 0.5 6.2-1.8 2.1-4.8 2.7-7.1 1.2zm12-0.9q1.9-1.2 4-1.9 1.5-0.4 3.1-0.6 0.3 0 0.6 0 0-0.9-0.1-1.7c-0.5-5-3.4-9.1-8-11q-1.4-0.6-2.8-0.9-1.6-0.3-3.2-0.4c-4.5 0-9.2 1.8-11.6 5.8q-0.7 1.2-1 2.4-0.5 1.4-0.5 2.8v0.1q0 0.2-0.1 0.5 1.8 0.5 3.3 1.4 1.1 0.6 2.1 1.5-0.3-0.9-0.3-1.8c0-3.6 2.6-6.5 6.1-7.1q0.4-0.1 0.9-0.1 1.5 0 3 0.3c1.5 0.5 2.9 1.3 3.8 2.6 0.9 1.2 1.4 2.6 1.5 4.1q0.1 1.3-0.3 2.6-0.2 0.7-0.5 1.4zm-28.2 0.5c1.7-1 3.7-1.2 5.6-0.5q0.6 0.1 1.1 0.4 0.4 0.3 0.9 0.6c2 1.6 3 4.1 2.5 6.6q-0.2 0.8-0.5 1.5-0.4 0.8-0.9 1.5-0.2 0.3-0.4 0.5 2.1 1.3 4.4 2 1.5 0.4 3 0.6c0.9-2.6 1.3-5.4 1-8.1-1.7-0.3-3.3-0.9-4.7-1.9-2.7-1.8-4.2-4.5-4.4-7.7-2.8-0.7-5.9-0.5-8.4 0.7q0.2 1.9 0.8 3.8zm-1.9-3.2c-1.1 0.7-2.1 1.8-2.7 3-0.7 1.2-1.1 2.6-1.2 4 0 1.4 0.2 2.8 0.8 4 0.7 1.4 1.7 2.6 3.1 3.3v0.1q0.7 0.3 1.5 0.6 0.7 0.2 1.5 0.3c1.9 0.3 4-0.2 5.5-1.4q-0.9-0.6-1.7-1.3-0.3-0.3-0.6-0.6c-0.7 0.5-1.5 0.6-2.3 0.6-1.2 0-2.3-0.3-3.2-1.1-0.7-0.6-1.1-1.5-1.4-2.4-0.2-0.9-0.2-1.8 0.1-2.7 0.2-1 0.8-1.9 1.5-2.6q-0.6-1.8-0.9-3.8zm3 8.1q0 0 0 0.1c0 0.5 0.2 0.9 0.6 1.3 0.2 0.2 0.1 0.5-0.1 0.7-0.2 0.2-0.5 0.2-0.7 0q-0.9-0.9-0.9-2.1 0-0.6 0.4-1.2-0.4-0.6-0.7-1.3-0.1-0.3-0.2-0.7-0.7 0.8-1 1.8c-0.2 0.7-0.2 1.4 0 2.2 0.1 0.7 0.5 1.3 1 1.8 0.7 0.6 1.6 0.9 2.5 0.9q0.8 0 1.5-0.4-1.4-1.4-2.4-3.1zm15.3 9.5c-0.7 1.8-1.6 3.6-2.6 5.2q-0.5 0.8-1.1 1.6 0.8-0.6 1.6-1.1c1.6-1 3.4-1.9 5.2-2.6q-0.1-1.5 0-3.1-1.5 0.1-3.1 0zm8.7 15.2q-0.3-0.3-0.6-0.6-0.7-0.8-1.3-1.7c-1.2 1.6-1.7 3.6-1.4 5.5q0.1 0.8 0.3 1.5 0.3 0.8 0.7 1.5c0.7 1.4 1.9 2.5 3.3 3.1 1.3 0.6 2.6 0.8 4 0.8 1.4-0.1 2.8-0.5 4-1.2 1.2-0.6 2.3-1.6 3-2.7q-1.9-0.3-3.8-0.9c-0.7 0.7-1.6 1.3-2.6 1.6q-1.3 0.3-2.7 0c-0.9-0.2-1.7-0.7-2.4-1.4-0.8-0.9-1.1-2-1.1-3.2 0-0.8 0.2-1.6 0.6-2.3zm7.1 4.9q-0.3-0.2-0.7-0.3-0.7-0.3-1.3-0.7-0.6 0.4-1.2 0.4-1.2 0-2.1-0.9c-0.2-0.2-0.2-0.5 0-0.7 0.2-0.2 0.5-0.2 0.7 0 0.4 0.3 0.8 0.6 1.3 0.5q0.1 0 0.1 0-1.7-1-3.1-2.4-0.4 0.7-0.3 1.5c0 0.9 0.2 1.8 0.8 2.5 0.5 0.5 1.1 0.9 1.8 1 0.8 0.2 1.5 0.2 2.3 0q0.9-0.3 1.7-0.9zm13.4 20.1v-1.9q0 0-0.1 0-0.3-0.1-0.6-0.1c-0.9-0.2-1.6-0.6-2.2-1.3q-0.5-0.7-0.7-1.6-0.2-1-0.1-1.9c0.2-1 0.8-1.9 1.5-2.5 0.7-0.5 1.4-0.9 2.2-1.1v-9c-2.3 0.6-4.6 0.9-7 0.7q-0.2 0.9-0.4 1.8c-0.7 2.8-0.8 6-0.2 8.9q0 0.3 0.1 0.6c0.4 2 1.4 4 2.8 5.5 1.2 1.4 2.8 2.1 4.7 1.9zm0-6.4q-0.2 0.2-0.3 0.4 0 0.1-0.1 0.2c0 0.3-0.3 0.5-0.6 0.5-0.3-0.1-0.5-0.4-0.4-0.7q0-0.2 0.1-0.4c0.2-0.5 0.7-0.9 1.2-1.2q0 0 0.1 0v-1.7q-0.8 0.3-1.5 0.8c-0.6 0.5-1 1.2-1.1 1.9q-0.2 0.7 0 1.4 0.1 0.7 0.6 1.2 0.6 0.8 1.5 0.9 0.2 0.1 0.5 0.1zm1.1-3.1v1.7q0.1 0 0.3 0 0.2 0 0.4 0.1 0.1 0.1 0.3 0.2c0.6 0.3 1.1 0.9 1.3 1.6 0.1 0.7 0.1 1.4-0.2 2.1q0 0.1-0.1 0.3c-0.4 0.7-1.2 1.2-2 1.4v1.9q0.3 0 0.5-0.2h0.1q0.3-0.1 0.6-0.3c1.3-0.7 2.1-1.8 2.5-3.2 0.4-1.1 0.3-2.2-0.1-3.2q-0.4-1-1.5-1.8c-0.6-0.4-1.3-0.6-2-0.6q-0.1 0-0.1 0zm0 2.7v3.6c0.4-0.2 0.8-0.5 1-0.9q0.1-0.1 0.1-0.2c0.2-0.4 0.2-0.8 0.1-1.3-0.1-0.4-0.4-0.8-0.8-1q0-0.1-0.1-0.1-0.1 0-0.2 0-0.1-0.1-0.1-0.1zm-22.8-21.3q0.7 0.9 1.4 1.8 0.2 0.2 0.5 0.5 0-0.1 0.1-0.1 0.7-0.6 1.6-0.8c0.6-0.2 1.2-0.1 1.8 0 0.9 0.3 1.6 1.1 2 2 0.3 0.8 0.3 1.7-0.1 2.4q-0.1 0.2-0.2 0.4 0.5 0.3 1 0.5 0.4 0.2 0.9 0.4c0.9-1.5 1.1-3.3 0.5-5q-0.1-0.4-0.3-0.8-0.3-0.4-0.5-0.8-0.1 0-0.1 0c-1.3-1.7-3.3-2.5-5.4-2.1q-0.7 0.1-1.3 0.4-0.7 0.3-1.3 0.8l-0.1 0.1v-0.1q-0.3 0.2-0.5 0.4zm2.6 3q1.6 1.6 3.5 2.7 0.1-0.2 0.2-0.3c0.3-0.5 0.3-1.1 0.1-1.6-0.3-0.6-0.7-1.1-1.3-1.3q-0.6-0.2-1.3-0.1-0.6 0.2-1.1 0.6 0 0-0.1 0zm2.2-13.3c-0.2-1.4 0-2.8 0.3-4.1q0.2-0.7 0.5-1.3-1.7 1.1-3.6 2-2.6 1.1-5.3 1.5-0.1 1.4 0 2.8c2.6-0.8 5.3-1.3 8.1-0.9zm9.5 9q-0.5-1.4-1.2-2.6-0.6-1.1-1.4-1.9-0.8-0.9-1.8-1.6-1.8-1.1-3.9-1.6c0.3 1.3 0.9 2.7 1.7 3.8 1.5 2.3 3.8 3.6 6.6 3.9zm-21.4-11.8q1.4 0.1 2.8-0.1 0.4-2.7 1.5-5.3 0.9-1.9 2-3.5-0.6 0.2-1.2 0.4c-1.4 0.4-2.8 0.5-4.1 0.4 0.3 2.7-0.2 5.5-1 8.1zm-15.6-10.5q0.2-0.1 0.4-0.2c0.7-0.3 1.6-0.4 2.4-0.1 1 0.4 1.7 1.1 2 2q0.3 0.9 0 1.8-0.2 0.9-0.7 1.6-0.1 0-0.1 0 0 0.1-0.1 0.1 0.3 0.3 0.5 0.5 0.9 0.7 1.8 1.4 0.2-0.2 0.4-0.5 0 0 0-0.1 0.5-0.6 0.8-1.2 0.3-0.7 0.4-1.4c0.4-2-0.3-4.1-2-5.4v0.1l-0.1-0.2q-0.3-0.2-0.7-0.4-0.5-0.3-0.9-0.4c-1.7-0.6-3.5-0.4-5 0.5q0.2 0.5 0.4 0.9 0.3 0.5 0.5 1zm0.5 1q1.1 1.9 2.7 3.5 0 0 0-0.1 0.4-0.5 0.6-1.1 0.1-0.6-0.1-1.2c-0.2-0.7-0.6-1.1-1.3-1.4-0.5-0.2-1.1-0.1-1.6 0.1q-0.1 0.1-0.3 0.2zm14.7 0.1q-0.4-2.1-1.6-3.9-0.7-1-1.5-1.8-0.9-0.8-2-1.4-1.2-0.7-2.6-1.2c0.3 2.8 1.6 5.1 3.9 6.6 1.2 0.8 2.5 1.4 3.8 1.7zm-36.9-16.8h1.9c0.2-0.8 0.7-1.5 1.5-2q0.1 0 0.2-0.1c0.7-0.3 1.4-0.3 2.1-0.2 0.7 0.2 1.3 0.7 1.7 1.3q0 0.2 0.1 0.3 0.1 0.2 0.1 0.4 0 0.2 0 0.3h1.7q0 0 0-0.1c0-0.7-0.2-1.4-0.6-2-0.5-0.7-1.1-1.1-1.8-1.5-1-0.4-2.1-0.4-3.2-0.1-1.3 0.4-2.5 1.2-3.2 2.5q-0.2 0.3-0.3 0.6v0.1q-0.1 0.2-0.2 0.5zm3 0h3.6q0 0 0-0.1-0.1-0.1-0.1-0.2 0-0.1-0.1-0.1c-0.2-0.4-0.6-0.7-1-0.8-0.4-0.1-0.9-0.1-1.3 0.1q-0.1 0-0.2 0.1c-0.4 0.2-0.7 0.6-0.9 1zm16.2 1.1h-8.9c-0.2 0.8-0.7 1.5-1.2 2.2-0.6 0.7-1.5 1.3-2.5 1.5q-0.9 0.2-1.8 0-1-0.2-1.7-0.8c-0.7-0.6-1.1-1.3-1.3-2.2q0-0.3 0-0.6 0-0.1 0-0.1h-2c-0.2 1.9 0.5 3.5 1.9 4.8 1.5 1.4 3.6 2.3 5.5 2.7q0.3 0.1 0.6 0.2c2.9 0.5 6.1 0.4 8.9-0.2q0.9-0.2 1.8-0.5c-0.2-2.4 0.1-4.7 0.7-7zm46.6 0.3q-0.7 0.5-1.5 1c-1 0.6-2.1 1.1-3.2 1.3-0.9 0.2-1.8 0.1-2.6-0.3q-0.8-0.4-1.2-1.2-0.4-0.8-0.3-1.6c0.1-0.9 0.5-1.6 1.1-2.2 0.2-0.2 0.5-0.2 0.7 0q0.1 0.1 0.1 0.2h0.1c0.2 0.4 0.5 0.7 1 0.8 0.4 0.1 0.7 0.1 1.1-0.1q0.2-0.2 0.4-0.3 0.4-0.4 0.4-0.9c0.1-0.4 0-0.7-0.2-1q-0.1-0.2-0.2-0.3-0.2-0.2-0.3-0.3-0.2-0.1-0.3-0.2c-0.7-0.3-1.5-0.2-2.1 0.1q-0.5 0.3-1 0.7-0.4 0.3-0.7 0.8c-1.1 1.6-1.4 3.9-0.8 5.7q0 0.1 0 0.1 0.9 2.1 1.1 4.3 0.1 0.9 0.1 1.7 0.8 0 1.7 0.1 2.2 0.2 4.3 1.1 0.1 0 0.1 0c1.9 0.6 4.1 0.4 5.7-0.8q0.5-0.3 0.8-0.7 0.4-0.4 0.7-0.9c0.3-0.7 0.4-1.5 0.1-2.2q-0.1-0.1-0.2-0.3-0.1-0.1-0.2-0.2-0.1 0-0.1-0.1-0.1-0.1-0.3-0.2c-0.3-0.2-0.6-0.3-0.9-0.2q-0.6 0-1 0.4c0 0 0 0 0 0.1q-0.1 0.1-0.2 0.3h-0.1c-0.1 0.4-0.2 0.7-0.1 1.1 0.1 0.5 0.4 0.8 0.8 1.1q0.1 0 0.2 0.1c0.2 0.2 0.2 0.5 0 0.7-0.6 0.6-1.3 1-2.1 1.1-0.6 0.1-1.2 0-1.7-0.3-0.5-0.2-0.9-0.7-1.2-1.2-0.4-0.8-0.5-1.7-0.3-2.6 0.2-1.1 0.7-2.2 1.3-3.2q0.5-0.8 1-1.5zm-56.7-0.3h-1.6q-0.1 0.1-0.1 0.1c-0.3 0.6-0.6 1-1.2 1.2q-0.2 0.1-0.4 0.1c-0.3 0.1-0.6-0.1-0.6-0.4-0.1-0.3 0.1-0.6 0.4-0.6q0.1 0 0.2-0.1 0.3-0.1 0.4-0.3h-3.4q0 0.3 0.1 0.5 0.1 0.9 0.9 1.5 0.5 0.5 1.2 0.6 0.7 0.2 1.4 0c0.7-0.1 1.4-0.5 1.9-1.1q0.6-0.7 0.8-1.5zm49.6 7.4c-1-1-1-2.4 0-3.4 0.5-0.5 1.1-0.7 1.7-0.7h0.1c0.6 0 1.2 0.2 1.6 0.7 0.5 0.4 0.7 1 0.7 1.7 0 0.6-0.2 1.3-0.7 1.7-1 1-2.4 1-3.4 0zm2.6-2.6q-0.3-0.3-0.8-0.4h-0.2q-0.4 0.1-0.8 0.4c-0.2 0.2-0.3 0.6-0.3 0.9q0 0.5 0.3 0.9c0.3 0.2 0.6 0.4 0.9 0.4 0.4 0 0.7-0.2 0.9-0.4 0.5-0.5 0.5-1.3 0-1.8zm8.3-6.9c0-0.4-0.1-0.7-0.4-1-0.2-0.3-0.6-0.4-0.9-0.4h-0.2c-0.3 0-0.7 0.1-0.9 0.4-0.3 0.3-0.5 0.6-0.5 1v0.1c0.1 0.3 0.2 0.7 0.5 0.9 0.2 0.3 0.6 0.5 1 0.5 0.4 0 0.7-0.2 1-0.5 0.3-0.2 0.4-0.6 0.4-1zm-40.7 41.1c0.5-0.5 0.5-1.3 0-1.8-0.2-0.3-0.5-0.4-0.9-0.4-0.3 0-0.7 0.1-0.9 0.4-0.5 0.5-0.5 1.3 0 1.8 0.5 0.5 1.3 0.5 1.8 0zm1-5.9c-0.5-0.5-1.4-0.5-1.9 0-0.4 0.4-0.5 1.4 0 1.8 0.3 0.3 0.6 0.4 0.9 0.4 0.4 0 0.7-0.1 1-0.4 0.5-0.5 0.5-1.3 0-1.8zm2.6 5.3q0.3-0.1 0.5-0.3c0.5-0.5 0.5-1.3 0-1.8-0.5-0.6-1.3-0.6-1.8 0-0.3 0.2-0.4 0.5-0.4 0.9 0 0.3 0.1 0.7 0.4 0.9q0.2 0.2 0.5 0.3c0.2 0.1 0.6 0.1 0.8 0zm-34.2-38.4h-5.2q0 0.1 0.1 0.3 0.1 0.3 0.2 0.5c0.5 0.8 1.3 1.2 2.2 1.2 1.2 0 2.1-0.6 2.6-1.7q0-0.2 0.1-0.3zm71.6 385.6q0.6 0.4 1 0.9 0.5 0.6 0.8 1.2h0.1c0.4 1 0.5 2.1 0 3q-0.1 0.3-0.2 0.5-0.2 0.3-0.4 0.4 0 0.1 0 0.1-0.3 0.2-0.5 0.3c-0.5 0.3-1.1 0.5-1.6 0.4-0.7 0-1.2-0.3-1.6-0.8 0 0 0 0-0.1 0q-0.2-0.2-0.4-0.5v-0.1c-0.3-0.5-0.4-1.2-0.3-1.8q0.2-0.8 0.8-1.3-0.4-0.4-1-0.4-0.5-0.1-1 0.1-0.5 0.3-0.7 0.8c-0.3 0.6-0.3 1.3-0.2 1.9 0.1 1 0.6 2 1.1 2.9q0.7 1.1 1.5 2 0.4-0.2 1-0.2c0.7 0 1.3 0.3 1.8 0.8 0.5 0.4 0.8 1 0.8 1.7v0.3c0 0.6-0.3 1.2-0.8 1.6-0.4 0.5-1 0.8-1.6 0.8h-0.4c-0.6 0-1.2-0.3-1.6-0.8-0.5-0.4-0.8-1.1-0.8-1.7v-0.1q0-0.5 0.2-1-1-0.8-2-1.4c-0.9-0.6-1.9-1-2.9-1.2-0.6-0.1-1.3-0.1-1.9 0.2q-0.5 0.2-0.8 0.7-0.2 0.5-0.2 1 0.1 0.6 0.4 1 0.6-0.6 1.4-0.8c0.6-0.1 1.3 0 1.8 0.3q0.3 0.2 0.6 0.5c0.5 0.4 0.8 1 0.8 1.6 0.1 0.5-0.1 1.1-0.4 1.6q-0.1 0.3-0.3 0.5-0.1 0-0.1 0-0.2 0.2-0.4 0.4-0.2 0.1-0.5 0.3c-0.9 0.4-2.1 0.3-3-0.1q-0.7-0.4-1.2-0.8-0.5-0.5-0.9-1.1c-0.8-1.1-1.2-2.4-1.3-3.8-1.5 2.3-3.7 4-6.2 5.1q-1.5 0.6-3 0.9-1.7 0.3-3.3 0.4h-0.1c-1.9 0-3.9-0.3-5.7-1-1.1-0.4-2.1-0.8-3.1-1.5-0.8-0.5-1.6-1.1-2.4-1.7-1.6-1-4.1-2.1-5.9-0.7q-0.2 0.2-0.3 0.4c-0.3 0.4-0.5 0.8-0.5 1.3 0 0.4 0.1 0.8 0.4 1.2q0.1 0.1 0.3 0.3 0.3 0.2 0.6 0.3c0.3 0.1 0.7 0.2 1.1 0.1 0.4-0.1 0.7-0.2 0.9-0.5q0.2-0.2 0.2-0.4c0.2-0.4 0.2-0.8-0.1-1.1q-0.2-0.2-0.3-0.2-0.2-0.1-0.4-0.1-0.4 0.2-0.6 0.6c-0.1 0.3-0.4 0.5-0.7 0.4-0.2-0.1-0.4-0.4-0.3-0.7 0.2-0.7 0.7-1.2 1.5-1.3q0.4-0.1 0.8 0.1 0.4 0.1 0.8 0.4c0.6 0.7 0.6 1.5 0.3 2.3q-0.1 0.3-0.3 0.6c-0.4 0.5-0.9 0.8-1.6 0.9-0.6 0.2-1.2 0.1-1.7-0.1q-0.5-0.2-0.8-0.5-0.3-0.2-0.5-0.5c-0.5-0.5-0.7-1.2-0.7-1.9 0.1-0.6 0.3-1.3 0.7-1.8q0.3-0.3 0.6-0.6c1.6-1.3 3.6-1.1 5.4-0.3q-0.1-0.2-0.2-0.3-0.7-1.3-1.2-2.7-0.4-1.5-0.5-3c0-0.1 0-0.3 0-0.4-1.6 0.3-3.3 0.4-5 0.2-1.2-0.2-2.3-0.5-3.5-0.8-0.2 2.5 0.2 5.1 0.9 7.5l0.1 0.2h-10.2q0 0.1 0 0.1 0 1.5-0.9 2.7c-0.5 0.8-1.3 1.4-2.1 1.8-1.3 0.5-2.7 0.6-4 0.2-1.6-0.5-3-1.5-3.8-3q-0.2-0.3-0.3-0.5-0.1 0.2-0.2 0.4c-0.7 1.7-2.2 2.6-4.1 2.6-2.2 0-3.7-1.3-5.2-2.7-1.4-1.3-2.7-2.5-4.6-2.3-0.9 0.1-1.7 0.5-1.9 1.4q-0.2 0.5-0.1 1 0 0.4 0.3 0.8c0.4 0.7 1.1 0.9 1.9 0.8q0.3 0 0.6-0.2 0.3-0.2 0.5-0.6 0.1-0.3 0.1-0.7 0-0.2-0.1-0.4c-0.2-0.3-0.6-0.4-0.9-0.4q-0.2 0-0.3 0.1-0.1 0-0.1 0.1c-0.1 0.2 0 0.4 0.1 0.6 0.1 0.2 0.1 0.6-0.2 0.7-0.3 0.2-0.6 0.1-0.7-0.2-0.4-0.5-0.5-1.1-0.1-1.7q0.2-0.3 0.5-0.5 0.4-0.1 0.7-0.2c0.7 0 1.5 0.3 1.9 1q0.2 0.3 0.2 0.7c0.1 0.5 0.1 0.9-0.1 1.3q-0.3 0.7-1 1.1-0.4 0.3-0.9 0.4c-1.3 0.2-2.4-0.3-3.1-1.3q-0.3-0.6-0.4-1.3-0.1-0.7 0.1-1.4c0.4-1.3 1.5-2.1 2.9-2.2 2.3-0.2 3.8 1.1 5.4 2.6 1.3 1.2 2.6 2.4 4.5 2.4 1.4 0 2.6-0.6 3.1-1.9q0.3-0.6 0.3-1.3c0 0-5.8 0-5.9 0-0.3 0-0.5-0.2-0.5-0.5q0-0.2 0-0.3 0-0.5 0.2-0.9 0.1-0.4 0.3-0.7c0.7-1.2 1.8-1.8 3.1-1.8 1.3 0 2.4 0.6 3.2 1.6 0.2-1.5 1-2.9 2.2-4 1.6-1.5 3.8-2.5 6-3q0.3-0.1 0.7-0.2c2.9-0.5 6.2-0.4 9.1 0.2q-1.1-1.1-1.9-2.4c-0.7-1.4-1.2-2.9-1.2-4.5-0.1-1.6 0.2-3.1 0.8-4.5 0.8-1.6 2-2.9 3.5-3.8l0.1-0.1q0.8-0.4 1.7-0.7 0.8-0.3 1.7-0.4c2.3-0.3 4.7 0.3 6.5 1.9q2.3-1.5 4.9-2.3 1.4-0.4 2.9-0.6c-0.6-1.7-1.5-3.3-2.4-4.8q-1-1.5-2.1-2.9l-0.1-0.2c-0.1 0.6-0.3 1-0.7 1.4-0.4 0.4-1 0.7-1.6 0.7-0.6 0-1.1-0.3-1.5-0.7-0.9-0.9-0.9-2.3 0-3.2q0.1-0.1 0.3-0.2c-0.5-0.1-0.9-0.3-1.3-0.7-0.4-0.4-0.6-1-0.6-1.6 0-0.6 0.2-1.1 0.6-1.6 0.4-0.4 1-0.6 1.6-0.6 0.6 0 1.2 0.2 1.6 0.6v0.1q0.6 0.5 0.6 1.2 0.2-0.2 0.3-0.3c0.9-0.9 2.3-0.9 3.2 0 0.9 0.8 0.9 2.3 0 3.1-0.4 0.4-0.9 0.6-1.4 0.7l0.1 0.1q0.7 0.6 1.5 1.1 0.7 0.5 1.5 1c1.5 0.9 3.1 1.8 4.7 2.4q0.3-1.5 0.7-2.9 0.8-2.6 2.2-4.9c-1.5-1.7-2.1-4.2-1.8-6.5q0.1-0.9 0.4-1.7 0.3-0.9 0.7-1.7l0.1-0.1c0.8-1.5 2.1-2.7 3.8-3.5 1.4-0.6 2.9-0.9 4.5-0.8 1.5 0.1 3.1 0.5 4.5 1.3q1.3 0.7 2.4 1.8c-0.6-2.9-0.7-6.2-0.2-9.1q0.1-0.4 0.1-0.7c0.5-2.2 1.5-4.4 3.1-6 1.1-1.2 2.4-2 4-2.2-1-0.7-1.6-1.9-1.6-3.2 0-1.3 0.6-2.4 1.7-3.1q0.4-0.2 0.8-0.3 0.4-0.1 0.9-0.2 0.1 0 0.2 0c0.3 0 0.6 0.2 0.6 0.5q0 0.1 0 0.2v5.7q0.7 0 1.3-0.2c1.3-0.6 1.9-1.8 1.9-3.1 0-2-1.2-3.3-2.4-4.6-1.5-1.6-2.9-3.1-2.6-5.4 0.1-1.4 0.9-2.5 2.2-2.9q0.7-0.2 1.4-0.1 0.6 0.1 1.2 0.5c1.1 0.6 1.5 1.7 1.3 3q0 0.5-0.3 0.9-0.4 0.7-1.1 1c-0.4 0.2-0.9 0.2-1.3 0.2q-0.4-0.1-0.7-0.3c-0.7-0.4-1-1.1-1-1.9q0.1-0.3 0.2-0.6 0.2-0.4 0.5-0.6c0.5-0.4 1.2-0.2 1.7 0.1 0.3 0.1 0.4 0.5 0.2 0.7-0.1 0.3-0.5 0.4-0.7 0.2-0.2-0.1-0.5-0.2-0.6-0.1q-0.1 0-0.1 0.1-0.1 0.2-0.1 0.3c0 0.3 0.1 0.7 0.4 0.9q0.2 0.1 0.4 0.1 0.3 0.1 0.7-0.1 0.4-0.2 0.6-0.5 0.1-0.3 0.2-0.6c0.1-0.8-0.1-1.5-0.8-1.9q-0.4-0.2-0.9-0.3-0.4-0.1-0.9 0.1c-0.9 0.2-1.3 1-1.4 1.9-0.2 1.9 1 3.2 2.2 4.6 1.5 1.5 2.8 3 2.8 5.3 0 1.8-0.9 3.3-2.6 4.1q-0.2 0-0.4 0.1 0.2 0.1 0.5 0.3c1.5 0.8 2.5 2.2 3 3.9q0.6 2-0.3 3.9c-0.3 0.9-1 1.6-1.7 2.2-0.8 0.5-1.8 0.8-2.7 0.8q-0.1 0-0.1 0v10.2h-0.2c-2.4-0.8-5-1.2-7.5-1 0.3 1.2 0.6 2.3 0.8 3.6 0.2 1.6 0.1 3.3-0.2 4.9q0.1 0 0.3 0 1.6 0.1 3.1 0.5 1.4 0.5 2.6 1.2 0.2 0.1 0.4 0.2c-0.8-1.8-1-3.8 0.3-5.4q0.2-0.3 0.6-0.6 0.8-0.6 1.8-0.6c0.7-0.1 1.4 0.1 1.9 0.6q0.3 0.2 0.5 0.5 0.3 0.4 0.5 0.8c0.2 0.5 0.2 1.2 0.1 1.7-0.1 0.7-0.4 1.2-0.9 1.6q-0.3 0.2-0.6 0.3c-0.8 0.4-1.7 0.3-2.3-0.3q-0.3-0.3-0.4-0.8-0.2-0.4-0.1-0.8c0-0.8 0.6-1.3 1.3-1.5 0.3-0.1 0.6 0.1 0.7 0.4 0.1 0.2-0.1 0.5-0.4 0.6q-0.4 0.2-0.6 0.6 0 0.2 0.1 0.4 0 0.2 0.2 0.3c0.3 0.3 0.7 0.3 1.1 0.1q0.2 0 0.4-0.1c0.2-0.3 0.4-0.6 0.5-0.9 0-0.4 0-0.9-0.2-1.2q-0.1-0.3-0.2-0.6-0.2-0.1-0.4-0.3c-0.3-0.3-0.7-0.4-1.1-0.4-0.5 0-0.9 0.2-1.3 0.5q-0.2 0.1-0.4 0.4c-1.4 1.7-0.4 4.2 0.7 5.8 0.6 0.9 1.2 1.6 1.7 2.4 0.7 1 1.1 2 1.5 3.1 0.7 1.8 1 3.8 0.9 5.7v0.1q0 1.7-0.3 3.3-0.3 1.5-1 3c-1 2.5-2.7 4.7-5 6.2 1.4 0.1 2.7 0.5 3.8 1.3zm-31.1-0.7c2.2-0.5 4.4 0.6 4.9 2.6 0-1.3-0.8-2.4-2-3.1-1-0.5-2.2-0.7-3.2-0.4-2.9 0.7-3.6 3.6-2.9 6-0.3-2.2 0.6-4.6 3.2-5.1zm27.3-62.4q-0.1 0.1-0.3 0.1-0.3 0.1-0.5 0.3c-0.8 0.4-1.2 1.2-1.2 2.1 0 1.2 0.6 2.2 1.7 2.6q0.2 0.1 0.3 0.1zm-11.6 45.4c-0.3 1.4 0.1 3 1.1 4.1 0.7 0.7 1.6 1.1 2.5 1.1-2-0.6-3.1-2.7-2.6-5 0.5-2.5 2.9-3.4 5.1-3.1-2.5-0.8-5.3 0-6.1 2.9zm-11.9 7.4c2 4.5 5.6 8.3 10.4 9.8q1.4 0.4 2.9 0.6 0.2 0 0.5 0-0.1-0.2-0.1-0.4-0.1-1.5-0.6-2.9c-1.4-4.9-5.2-8.4-9.7-10.4q-2.3-1-4.8-1.4 0.4 2.5 1.4 4.7zm12.4-19.8q-0.2 0.5-0.5 1-0.2 0.5-0.6 1c-1.5 2-4 3-6.5 2.4q-0.8-0.1-1.6-0.5-0.8-0.3-1.5-0.8-0.2-0.2-0.5-0.4-1.2 2-2 4.4-0.4 1.4-0.6 3c2.6 0.9 5.4 1.3 8.1 0.9 0.3-1.6 0.9-3.2 1.9-4.6 1.8-2.7 4.6-4.2 7.8-4.4 0.6-2.8 0.4-5.9-0.8-8.5q-1.9 0.3-3.8 0.8c1 1.8 1.2 3.8 0.6 5.7zm3.7 8.1c3.6-0.1 6.5 2.5 7.1 6q0.1 0.5 0.1 1c0 1 0 2-0.3 3-0.4 1.5-1.3 2.8-2.6 3.8-1.2 0.9-2.6 1.4-4.1 1.5q-1.3 0-2.5-0.3-0.8-0.2-1.5-0.5 1.2 1.8 1.9 4 0.4 1.5 0.6 3.1 0 0.3 0 0.6 0.9 0 1.7-0.1c5-0.5 9.1-3.5 11-8.1q0.6-1.3 0.9-2.8 0.3-1.5 0.4-3.1c0-4.6-1.8-9.2-5.8-11.6q-1.1-0.7-2.4-1.1-1.4-0.4-2.8-0.5-0.3 0-0.6 0-0.5 1.7-1.4 3.3-0.6 1.1-1.5 2.1 0.9-0.3 1.8-0.3zm-8.1 7.8c0.8 3.1 3 5.3 6 6.1q1.1 0.3 2.3 0.3c1.2-0.1 2.5-0.5 3.5-1.2 1.1-0.9 1.8-2 2.2-3.3q0.2-0.8 0.2-1.6c0.1-2.3-0.9-4.2-3-5.2-3.1-1.5-6.4 1.1-4.7 4.4 0.9 1.7 3 1.8 4.4 0.6l0.4-0.2-0.1 0.4q-0.1 0.5-0.4 1c-1.3 1.9-4.6 2-6.2 0.5-2-1.8-2.7-4.8-1.2-7.1q-1.8 1-3.7 1.4c-0.2 1.3-0.1 2.7 0.3 3.9zm-6.8 13.1c1.5 1.7 1.4 4.9-0.5 6.2q-0.4 0.4-1 0.5h-0.4l0.3-0.3c1.1-1.4 1-3.5-0.7-4.4-3.2-1.8-5.9 1.6-4.4 4.7 1 2.1 2.9 3 5.2 3q0.8-0.1 1.6-0.3c1.3-0.3 2.5-1.1 3.3-2.2 0.7-1 1.2-2.2 1.2-3.5q0.1-1.1-0.2-2.2c-0.9-3.1-3.1-5.2-6.1-6.1-1.3-0.3-2.7-0.4-4-0.3q-0.4 2-1.4 3.8c2.3-1.5 5.3-0.9 7.1 1.1zm5.4 1.2q0.4 1.3 0.3 2.6c-0.1 1.5-0.6 2.9-1.5 4.1-0.9 1.3-2.3 2.1-3.8 2.6q-1.5 0.3-3 0.3-0.5 0-0.9-0.2c-3.5-0.5-6.1-3.4-6.1-7q0-0.9 0.3-1.8-1 0.9-2.1 1.5-1.5 0.9-3.2 1.4 0 0.2 0 0.5v0.1q0.1 1.4 0.5 2.8 0.3 1.2 1 2.4c2.4 4 7.1 5.8 11.6 5.7q1.6 0 3.2-0.3 1.4-0.3 2.8-0.9c4.6-1.9 7.5-6 8-11q0.1-0.9 0.1-1.7-0.3 0-0.6 0-1.6-0.2-3.1-0.7-2.1-0.6-4-1.8 0.3 0.7 0.5 1.4zm-14.7 0.6q0 0 0 0 0 0 0-0.1 0 0.1 0 0.1zm-14.8 1.3c2.6 1.2 5.6 1.4 8.4 0.7 0.2-3.2 1.8-5.9 4.4-7.7 1.4-1 3-1.6 4.7-1.9 0.3-2.7-0.1-5.6-1-8.2q-1.5 0.2-3 0.7-2.3 0.7-4.4 2 0.2 0.2 0.4 0.4v0.1q0.5 0.7 0.9 1.5 0.3 0.7 0.5 1.5c0.5 2.5-0.5 5-2.5 6.6q-0.5 0.3-0.9 0.6-0.5 0.2-1.1 0.4c-1.9 0.7-3.9 0.5-5.6-0.5q-0.6 1.9-0.8 3.8zm-0.2-4.4c-0.7-0.7-1.3-1.6-1.5-2.6-0.3-0.9-0.3-1.8-0.1-2.8 0.3-0.8 0.7-1.7 1.4-2.3 0.9-0.8 2-1.1 3.2-1.2 0.8 0 1.6 0.2 2.3 0.7q0.3-0.3 0.6-0.6 0.8-0.7 1.7-1.4c-1.5-1.1-3.6-1.6-5.5-1.3q-0.8 0.1-1.5 0.3-0.8 0.2-1.5 0.6c-1.4 0.8-2.4 1.9-3.1 3.4-0.6 1.2-0.8 2.6-0.8 4 0.1 1.4 0.5 2.8 1.2 4 0.6 1.2 1.6 2.2 2.7 3q0.3-2 0.9-3.8zm4.5-7.4q-0.7-0.4-1.5-0.4c-0.9 0-1.8 0.3-2.5 0.9-0.5 0.5-0.8 1.1-1 1.8-0.2 0.7-0.2 1.5 0 2.2q0.3 1 1 1.8 0.1-0.4 0.2-0.7 0.4-0.7 0.7-1.3-0.4-0.6-0.4-1.3c0-0.7 0.3-1.5 0.9-2 0.2-0.2 0.5-0.3 0.7-0.1 0.2 0.3 0.3 0.6 0.1 0.8-0.4 0.4-0.6 0.8-0.6 1.3q0 0 0 0.1 1-1.7 2.4-3.1zm16-6.4q-0.1-1.6 0-3.1c-1.8-0.7-3.6-1.6-5.2-2.6q-0.8-0.6-1.6-1.1 0.6 0.8 1.1 1.6c1 1.6 1.9 3.4 2.6 5.2q1.6-0.2 3.1 0zm5-17.6c0-1.1 0.3-2.2 1.1-3.1 0.7-0.7 1.5-1.2 2.4-1.4q1.4-0.3 2.7 0c1 0.3 1.9 0.8 2.6 1.6q1.9-0.6 3.8-0.9c-0.7-1.2-1.7-2.1-3-2.8-1.2-0.6-2.6-1-4-1.1-1.3-0.1-2.7 0.2-4 0.8-1.4 0.6-2.6 1.7-3.3 3.1q-0.4 0.7-0.7 1.5-0.2 0.7-0.3 1.5c-0.3 1.9 0.2 3.9 1.4 5.5q0.6-0.9 1.3-1.7 0.3-0.3 0.6-0.6-0.6-1-0.6-2.4zm6-3.4c-0.8-0.2-1.5-0.2-2.3-0.1-0.6 0.2-1.3 0.6-1.8 1.1-0.6 0.7-0.8 1.6-0.8 2.5q-0.1 0.8 0.3 1.5 1.4-1.4 3.1-2.4 0 0-0.1 0c-0.5-0.1-0.9 0.2-1.3 0.5-0.2 0.2-0.5 0.2-0.7 0-0.2-0.2-0.2-0.6 0-0.8 0.6-0.5 1.3-0.9 2.1-0.8q0.6 0 1.2 0.4 0.6-0.4 1.3-0.7 0.4-0.1 0.7-0.3-0.8-0.7-1.7-0.9zm10.4-17.3c-1.4 1.4-2.4 3.5-2.8 5.5q-0.1 0.3-0.1 0.6c-0.6 2.9-0.5 6 0.2 8.9q0.2 0.9 0.4 1.7c2.4-0.1 4.7 0.1 7 0.8v-9c-0.8-0.2-1.5-0.6-2.2-1.1-0.7-0.6-1.3-1.5-1.5-2.5q-0.1-0.9 0.1-1.9 0.2-0.9 0.7-1.6c0.6-0.7 1.3-1.1 2.2-1.3q0.3-0.1 0.6-0.1 0.1 0 0.1 0v-1.9c-1.9-0.2-3.5 0.5-4.7 1.9zm4.2 1.2q-0.9 0.2-1.5 0.9-0.5 0.5-0.6 1.2-0.1 0.7 0 1.4c0.1 0.7 0.5 1.4 1.1 1.9q0.7 0.5 1.5 0.8v-1.7q-0.1 0-0.1 0c-0.5-0.3-1-0.7-1.2-1.2q-0.1-0.2-0.1-0.4c-0.1-0.3 0.1-0.6 0.4-0.7 0.3 0 0.6 0.2 0.6 0.5q0.1 0.1 0.1 0.2 0.1 0.2 0.3 0.4v-3.4q-0.3 0-0.5 0.1zm1.7 6.4c0.7 0 1.4-0.2 2-0.7 0.7-0.4 1.2-1 1.5-1.7 0.4-1 0.5-2.1 0.1-3.2-0.3-1.4-1.2-2.5-2.5-3.2q-0.3-0.2-0.6-0.4-0.3-0.1-0.6-0.1v1.8c0.8 0.3 1.6 0.8 2 1.5q0.1 0.2 0.1 0.3c0.3 0.7 0.3 1.4 0.2 2-0.2 0.8-0.7 1.4-1.3 1.7q-0.2 0.1-0.3 0.2-0.2 0.1-0.4 0.1-0.2 0-0.3 0v1.7q0 0 0.1 0zm0-2.8q0.1 0 0.2 0 0.1-0.1 0.1-0.1c0.4-0.2 0.7-0.6 0.8-1 0.1-0.5 0.1-0.9-0.1-1.4q0-0.1-0.1-0.1c-0.2-0.5-0.6-0.7-1-0.9v3.5q0 0 0.1 0zm-22.4 21.7l0.1 0.1q0.6 0.5 1.3 0.8 0.6 0.2 1.3 0.4c2.1 0.4 4.1-0.4 5.4-2.1q0.1 0 0.1 0 0.2-0.4 0.5-0.8 0.2-0.4 0.3-0.8c0.6-1.7 0.4-3.5-0.5-5q-0.5 0.2-0.9 0.4-0.5 0.2-1 0.5 0.1 0.2 0.2 0.4c0.4 0.7 0.4 1.6 0.1 2.4-0.4 0.9-1.1 1.6-2 1.9-0.6 0.2-1.2 0.2-1.8 0.1q-0.9-0.2-1.6-0.8-0.1 0-0.1-0.1-0.3 0.2-0.5 0.5-0.7 0.8-1.4 1.8 0.2 0.2 0.5 0.3zm2.2-3.3q0.5 0.4 1.1 0.6 0.7 0.1 1.3-0.1c0.6-0.2 1-0.7 1.3-1.3 0.2-0.5 0.2-1.1-0.1-1.6q-0.1-0.2-0.2-0.3-1.9 1.1-3.5 2.6 0.1 0.1 0.1 0.1zm-6 12.4q-0.1 1.4 0 2.8 2.7 0.4 5.3 1.5 1.9 0.8 3.6 2-0.3-0.6-0.5-1.3c-0.3-1.3-0.5-2.7-0.3-4.1-2.8 0.4-5.5-0.1-8.1-0.9zm11-4.2c-0.8 1.1-1.4 2.4-1.7 3.8q2.1-0.5 3.9-1.6v-0.1q1-0.6 1.8-1.5 0.8-0.8 1.4-1.9 0.7-1.2 1.2-2.6c-2.8 0.3-5.1 1.6-6.6 3.9zm-13.8 16c1.3-0.1 2.7 0 4.1 0.4q0.6 0.2 1.2 0.4-1.1-1.7-2-3.5-1.1-2.6-1.5-5.3-1.4-0.2-2.8-0.1c0.8 2.6 1.3 5.4 1 8.1zm-17.1 3.3q-0.2 0.5-0.4 1c1.5 0.9 3.3 1.1 5 0.5q0.4-0.1 0.9-0.4 0.4-0.2 0.7-0.5l0.1-0.1v0.1c1.7-1.3 2.4-3.4 2-5.5q-0.1-0.6-0.4-1.3-0.3-0.7-0.8-1.3-0.2-0.3-0.4-0.5-0.9 0.6-1.8 1.4-0.2 0.2-0.5 0.4 0.1 0.1 0.1 0.2 0 0 0.1 0 0.5 0.7 0.7 1.6 0.3 0.9 0 1.8c-0.3 0.9-1 1.6-2 2-0.8 0.3-1.7 0.2-2.4-0.1q-0.2-0.1-0.4-0.2-0.2 0.4-0.5 0.9zm1.3-1.7c0.5 0.2 1.1 0.3 1.6 0.1 0.7-0.3 1.1-0.7 1.4-1.4q0.1-0.6 0-1.2-0.1-0.6-0.6-1.1 0-0.1 0-0.1-1.5 1.6-2.7 3.5 0.2 0.1 0.3 0.2zm10.6 1.4c-2.3 1.5-3.6 3.8-3.9 6.5q1.4-0.4 2.6-1.1 1.1-0.6 2-1.4 0.8-0.8 1.5-1.8 1.2-1.8 1.6-3.9c-1.3 0.3-2.6 0.9-3.8 1.7zm-32.9 15.6q0.1 0.4 0.3 0.7c0.7 1.3 1.9 2.1 3.2 2.5 1.1 0.3 2.2 0.3 3.2-0.2 0.7-0.3 1.3-0.8 1.8-1.4 0.4-0.6 0.6-1.3 0.6-2q0-0.1 0-0.1h-1.7q0 0.1 0 0.3 0 0.2-0.1 0.4-0.1 0.1-0.1 0.3c-0.4 0.6-1 1.1-1.7 1.2-0.7 0.2-1.4 0.2-2.1-0.1q-0.1-0.1-0.2-0.1c-0.8-0.5-1.3-1.2-1.5-2h-1.9q0.1 0.3 0.2 0.5zm3.7 0.5q0.1 0.1 0.2 0.1c0.4 0.2 0.9 0.2 1.3 0.1 0.4-0.1 0.8-0.4 1-0.8q0.1-0.1 0.1-0.1 0-0.1 0.1-0.2 0-0.1 0-0.1h-3.6c0.2 0.4 0.5 0.8 0.9 1zm14.6-9.1q-0.9-0.3-1.8-0.5c-2.8-0.6-6-0.7-8.8-0.2q-0.4 0.1-0.7 0.2c-1.9 0.4-4 1.3-5.5 2.7-1.4 1.3-2.1 2.9-1.9 4.8h2q0 0 0-0.1 0-0.3 0-0.6c0.2-0.9 0.6-1.6 1.3-2.2q0.7-0.6 1.7-0.8 0.9-0.2 1.8 0c1 0.2 1.9 0.7 2.5 1.5 0.6 0.7 1 1.4 1.2 2.2h8.9c-0.6-2.3-0.9-4.6-0.7-7zm46.3 5.2c-0.6-1-1.1-2.1-1.3-3.3-0.2-0.8-0.1-1.7 0.3-2.5q0.5-0.9 1.2-1.2c0.5-0.3 1.1-0.4 1.7-0.3 0.8 0.1 1.5 0.5 2.1 1.1 0.2 0.2 0.2 0.5 0 0.7q-0.1 0.1-0.2 0.1c-0.4 0.3-0.7 0.6-0.8 1.1-0.1 0.3 0 0.7 0.1 1q0 0.1 0 0.1h0.1q0.1 0.2 0.2 0.3c0 0 0 0 0 0.1q0.4 0.4 1 0.4c0.3 0 0.6-0.1 0.9-0.2q0.2-0.1 0.3-0.3 0 0 0.1 0 0.1-0.1 0.2-0.2 0.1-0.2 0.2-0.4c0.3-0.6 0.2-1.4-0.1-2.1q-0.3-0.5-0.7-0.9-0.3-0.4-0.8-0.7c-1.6-1.2-3.8-1.4-5.7-0.8q0 0-0.1 0-2.1 0.9-4.3 1.1-0.9 0-1.7 0 0 0.9-0.1 1.8-0.2 2.2-1.1 4.3 0 0 0 0.1c-0.6 1.8-0.3 4.1 0.8 5.7q0.3 0.4 0.7 0.8 0.5 0.4 1 0.7c0.6 0.3 1.4 0.4 2.1 0q0.1 0 0.3-0.1 0.1-0.1 0.3-0.3 0.1-0.1 0.2-0.3c0.2-0.3 0.3-0.6 0.2-1q0-0.5-0.4-0.9-0.2-0.2-0.4-0.3c-0.4-0.2-0.7-0.2-1.1-0.2-0.5 0.2-0.8 0.5-1 0.9h-0.1q0 0.1-0.1 0.1c-0.2 0.3-0.5 0.3-0.7 0-0.6-0.5-1-1.3-1.1-2.1q-0.1-0.8 0.3-1.6 0.4-0.7 1.2-1.2c0.8-0.4 1.7-0.5 2.6-0.3 1.1 0.2 2.2 0.7 3.2 1.3q0.8 0.5 1.5 1-0.5-0.7-1-1.5zm-56.5 0.3c-0.5-0.6-1.2-1-1.9-1.1q-0.7-0.2-1.4 0-0.7 0.1-1.2 0.6c-0.5 0.3-0.8 0.9-0.9 1.5q-0.1 0.2-0.1 0.5h3.4q-0.1-0.2-0.4-0.3-0.1-0.1-0.2-0.1c-0.3 0-0.5-0.3-0.4-0.6 0-0.3 0.3-0.5 0.6-0.5q0.2 0.1 0.4 0.2c0.6 0.2 0.9 0.6 1.2 1.1q0 0.1 0.1 0.2h1.6q-0.2-0.8-0.8-1.5zm53.8-5.9c0.5 0.4 0.7 1.1 0.7 1.7 0 0.6-0.2 1.3-0.7 1.7-0.4 0.5-1 0.7-1.6 0.7h-0.1c-0.6 0-1.2-0.2-1.7-0.7-1-1-1-2.4 0-3.4 1-1 2.4-1 3.4 0zm-0.8 0.8c-0.2-0.2-0.5-0.4-0.9-0.4-0.3 0-0.6 0.2-0.9 0.4q-0.3 0.4-0.3 0.8v0.1c0 0.3 0.1 0.7 0.3 0.9q0.4 0.3 0.8 0.4h0.2q0.5-0.1 0.8-0.4c0.5-0.5 0.5-1.3 0-1.8zm8.3 8.7c0-0.4-0.1-0.8-0.4-1.1-0.3-0.2-0.6-0.4-1-0.4-0.4 0-0.8 0.2-1 0.4-0.3 0.3-0.4 0.7-0.4 1v0.1c0 0.4 0.1 0.7 0.4 1q0.4 0.4 0.9 0.4h0.2c0.3 0 0.7-0.2 0.9-0.4 0.3-0.3 0.4-0.6 0.4-1zm-42.5-41.1c-0.5 0.5-0.5 1.3 0 1.8 0.2 0.3 0.6 0.4 0.9 0.4 0.4 0 0.7-0.1 0.9-0.4 0.5-0.5 0.5-1.4 0-1.8-0.5-0.5-1.3-0.5-1.8 0zm2.8 4.1c-0.3-0.3-0.6-0.4-1-0.4-0.3 0-0.6 0.1-0.9 0.4-0.5 0.4-0.4 1.4 0 1.8 0.5 0.5 1.4 0.5 1.9 0 0.5-0.5 0.5-1.3 0-1.8zm1.8-3.5q-0.3 0.1-0.5 0.3c-0.3 0.2-0.4 0.6-0.4 0.9 0 0.4 0.1 0.7 0.4 0.9 0.5 0.5 1.3 0.5 1.8 0 0.5-0.5 0.5-1.3 0-1.8q-0.2-0.2-0.5-0.3c-0.2-0.1-0.6-0.1-0.8 0zm-33.5 38.1c-0.5-1.1-1.4-1.7-2.6-1.7-0.9 0-1.7 0.4-2.2 1.1q-0.1 0.3-0.2 0.6 0 0.1-0.1 0.3h5.2q-0.1-0.1-0.1-0.3zm-207.7-84.9v-225.2h1.1v225.2zm276.7-225.2v225.2h-1.1v-225.2zm-190.5-86.2h104.3v1.1h-104.3zm0 396.6h104.3v1.1l-104.3-0.1zm-84.9-67.9c1.2-0.4 1.8-1.4 1.8-2.6 0-0.9-0.4-1.7-1.2-2.1q-0.3-0.2-0.6-0.3-0.1 0-0.3-0.1v5.2q0.2 0 0.3-0.1z"/></svg>