<svg version="1.2" xmlns="http://www.w3.org/2000/svg" viewBox="0 0 756 1770" width="756" height="1770"><style>.a{fill:#b47377}</style><path class="a" d="m106.4 198q-19.3-48.2-10.9-90.5-43.2 60.2 10.7 200.1-56.4-93.2-39.5-166.8-68.4 80.1 16 175.5 47.8 49.2 49.7 86-5.6-23.7-59.2-86-21.8-25.9-29.7-47.1-33.7 58.5 83.7 161.4-61.2-46.6-93.2-101.1-24.2 44.5 93.4 114.4c-47.4-21.8-113.2-68.3-126.4-121-5.7 46.3 22.3 87.4 81.2 119.4 44.2 24.1 68.3 34.3 85.2 89q-27.4-38.5-71.8-62.2-63.9-34.5-80.1-68.4-16.8 89.2 132.2 168.4-77.2-27.3-94.6-53.7 1 45.3 98.5 93.5-86.1-20.6-126.3-108 14.6 139.4 119.7 149.2 82.8 15.1 110.6 92.7-36.2-55.1-103-67.3c-41.4-6.5-109-31.4-114.2-80-12.1 18 15.2 49.5 19.2 75.9 7.1 46.5-21.1 67.7 26.7 135.1q-58.5-33.5-54.8-107.7-18.8 87.3 92 140.8c-50.9-9.8-116.2-22.5-97.4-90.4q-41.7 79.9 119.5 105.6 89.6 17.3 171 75.5c-117.9-67.4-293.4 9.7-290.8-72.3-51.3 111.8 260.2 25.7 393.9 173.7q-133-92.3-288.6-81.9 23.4 63 214.1 113.7 94.6 26.3 142.3 100.4-69.2-71.7-196.4-89.4-86-12.4-120.1-59c-37.7 270.5 268.9 138 362.2 259.4-94.4-79-188 19.3-253.5-60.7q-21.3 99.2 176.3 108.4 66.7-4.5 108 33.4-67.5-28.8-91.2 8.7 25.1-6.1 40.1 4.6-97.3 0.5-63.1 80.5 39-103.4 172.1 24 9.8 35.4 8.2 57.9-22.5-39.7-55.9-68.5-24.2-14.9-25.9 15.3 11.1-51.1 84.3 71.2-56.4-67.7-163.2-76.7-84.1-8.5-140.8-30.3-63.5-27.7-54-104.5c-29.5 119.2 112.7 130.3 192.6 140.2 65.5 8 122.3 30.2 168 88.8 2.6 13.2 3.8 24 2.9 29.8-86.9-64.9-130-137.2-251-85.6q-32.2 12.8-60.1 6.8-33.1-8.2-32.6-73.9-12.1 110.1 98.1 71.3c55.5-22.6 110.5-25.5 155.8 21.9-16.3-11.9-46-10.3-58.6 6.2q-22.8 29.8-0.6 116.3-39-215.5 147.5-49.2-0.4 33.5-13.3 85.7-15.1 63.6 16.2 73.2 19.7-61.7 11.5-194.9-18.4-246.2-183.7-523-70.3-110.3-181.6-299.3-159.2-361.3-130.2-541.4 13.3 369.1 272.7 745.4 162.2 238.7 222.5 473.4 29.8-4.1 31.6-36.5c0.3-29.5 12-46.1 31.7-66.2 28-28.6 61.8-52.9 32.9-74.4 23.3 28.5-2.9 28.5-27.8 32.9-48 8.5-21.2 60-70.2 53.9q27.6 0 35.3-50.5c1.1-17.2 35.5-95.1 66.4-80.7q-30.6-74.8-114.5 39.5 91.3-161.5 114.7-98.9-8.8-90.8-136 82.7 97.4-156.4 40.4-364.6 10.5 132.7-65.4 294.1c-27.1-108.7 157.2-490.7-30.6-417.9q82.8-12.3 30.2 102.7c-38.8 84.7-55.6 99.3-76.8 204q-17.2-79.9 19.4-161.9 49.1-93.5-15.2-208 6.2 33.1-19.7 71.6-36.7 64.1-58.8 164.9c-4.7-47.7 0.5-89.6 16.1-134.5 35.4-102.5 173.4-249.6-2.8-297.7 152.9 84.9-43.4 172-52.2 350.5-27.1-82 98-346.1 2-391.3q27.4 91.3-45.7 172.7-28.8 28.4-36.8 98.4-14.4-54 18.3-102.3 60.8-48.9 43.4-154.8c-68.1 50.6-4.9 114.6-82 139.9 40.2-28.8 17.6-72.5 59.9-126.6q80.8-103.3 125.8 2.3-41.1-208.4-174.9 47.3c-20.9-87.1 261.2-252.1 64.1-298.3q88.1 38.8-14.9 165.6-71.3 73.3-67.4 137.8 4.2 50.4-27.8 62c24.9-41.9-14.7-59.6 28.9-133.3 34.7-58.7 130-140.6 69.3-214.6-12.9-15.6-32.1-26-53.9-27.1 63.7 45.5 52.5 114.5 14.2 168.5-35.6 50.1-56.5 44.9-79.8 118.3-9.2-103.1 163-127.9 56.9-254.3 41.4 92.5-56.9 134.3-93.9 218.1 25-96.6 142.1-163.7 43.2-274.4 8.3 40.7 3.2 83-14.6 120.5 41.3-160.3-118-254.6-0.2-309.7q-135.8 37.5-125.1 198.4z"/></svg>