<svg version="1.2" xmlns="http://www.w3.org/2000/svg" viewBox="0 0 1461 1740" width="1461" height="1740"><style>.a{fill:#a2495d}</style><path fill-rule="evenodd" class="a" d="m865.7 696.5c-31.1 10.4-61.3 23.6-94.4 26.9-7.1 0.8-14.2 1.4-21.9 2.5 10-0.9 14.4 4.3 14.6 13.2 1.5 73.8 28.3 141.2 52.3 209.4 31.5 89 55.8 180.2 81.4 271 25.9 92.2 49.8 185.2 91.3 272.3 22.6 47.4 47.5 93.3 92.4 124.4 28.9 20 61.7 29.4 95.3 37.1 76.7 17.7 155.1 21.8 233 30.1 16.6 1.7 33.6 2.2 50.9 7.8-4.2 6.5-10 5.8-15.2 6.4-56.3 7.6-112.5 15.8-168.9 22.3-34.1 3.9-68.4 5.9-102.7 7.5-84.9 3.9-169.8 7.8-254.8 10.4-125.7 3.9-251.3 1.6-376.9 1.5-57.3 0-114.7-2.4-172-6-69.9-4.4-140-8.9-209.6-17.2-48.8-5.8-97.4-12-146.1-18.1-4.9-0.6-10.3 0.1-14.6-6.8 23.3-4.3 45.1-8.9 67.1-12.2 142.7-21.6 246.9-97.8 319.6-221.2 50.6-85.9 84.3-178.7 114.7-273 32.8-101.5 61.5-204.3 99.1-304.1 16.2-43.2 34.7-85.5 52.1-128.2 17-41.7 17.9-84.1 2.9-126.3-8.9-24.9-20.6-48.9-32.7-77.6-4.7 14.3-8.3 24.6-11.4 35.1-19.5 66.3-32.2 134.7-64.8 196.8-24.3 46.3-49.3 92.2-76.3 137-13 21.6-22.5 44.9-34.1 67.1-9.9 18.8-22.8 35.3-38.6 49.5-9.6 8.5-10.9 8-15.5-4.4-17.7 18.8-34.1 38.9-54 54.9 21.7 17.5 24.1 27.9 10.6 55.9-2.5 5.2-1 6.9 3.3 9.4 30.9 18 31.4 39.6 0.4 63.4 8.6 5.8 17.1 11.9 17.3 23.3 0.2 5.5-2.2 9.9-6 13.7-9.2 9.3-21 8.9-31.3-1-10.8-10.5-9.6-18.7 5.8-34.6-14.7-3.2-22.8-12.9-27.6-25.9-2.9-7.6-2.5-14.8 1.9-22.1 7.3-12.2 7.1-12.4-9-14.5 3.8 31.5-17.9 50.2-49.1 41.2-9.5-2.7-8.7 2.5-10.4 7.9-7.8 25.9-26.4 36.4-50.4 28.6-1.9-0.7-4.5-1-5.6-2.4-9.9-12.6-19.7-22.3-37.5-10.7-5.1 3.3-12.8-2.8-15.8-9.4-3.3-7.7-1.8-15.4 3.3-21.8 4.9-6.1 12.4-8.8 19.3-4.8 10.2 6 13.8 3.6 18.1-7.2 5.2-13.3 26.5-19.3 41.7-12.8 9.4 4 13.1 5.6 15.6-7.4 4.8-25.7 26-33.3 56.5-21.8-4.8-15.4-1.4-28.6 8.9-40.2 1.3-1.4 3.6-4.1 3.1-4.8-11-17.7 5.3-24.8 13.9-33.9 17.2-18.3 35.3-35.7 53.6-53 6.1-5.8 8.2-12.6 9.4-20.3 2.9-19.6 12.2-34.5 31-42.6 18.9-8.2 30.7-22.5 38.9-41.4 31.3-72 58.9-145.4 86.7-218.8 8.1-21.5 11.7-44.3 14.2-70.9-14 16.6-25.6 30.6-42.4 39-33.7 16.8-67.2 18.1-99.9-1.2-24-14.1-31.6-45.5-17.7-67.7 6.1 3 3.7 8.9 4.3 13.6 2.3 17.2 16.1 33.1 32.4 37.1 8.8 2.1 16.3 0.3 22.4-6.4 5.5-6.2 5.2-13.3 1.9-20.2-3.7-7.9-7.8-15.5-12.2-23.1-10.9-18.7-20.1-38.1-22.4-60-3.6-34.2 7.2-62.7 34.2-84.4 14.3-11.5 29.5-21.7 51.1-28.6-39.4 49.1-74.8 96.3-18.4 156 0.8-8.6-2.4-13.1-4.3-17.8-16.4-41.4-10.2-79.2 17.3-114 11.2-14.1 23.9-26.8 37.5-38.6 5.5-4.7 10-10.3 14-16.2 3.7-5.5 3.4-9.2-2.7-13.8-31.6-23.6-37-40.3-25.7-78.3 1.9-6.6 1.1-9.9-4.3-14.1-6.1-4.7-12.7-10-13.3-20.1 10.5 0.8 14.8 10.3 24.2 12.9-3.2-15.1 1.8-27.2 12.5-37.3 4.6-4.5 5.8-10.5 6-16.9 1.7-50.4 26.1-82.2 74.2-96.5 6.8-2.1 14-3.3 21-4.6 12.1-2.1 19 1.3 17.3 15.4-0.7 5.2-2.9 11.4 2 15.8 0.8 0.7 4-0.4 5.4-1.4 6.2-4.7 6.5-11.5 5.1-18.2-0.8-3.8-3.2-7.4-5.5-12.5 17.8-1.3 33.9-7.2 51.4-3.2 31.4 7.1 47.1 31.6 44.2 63.6-2.5 28.6 3 56.5 27.9 75.7 9.1 7.1 13 12.5 1.8 20.9-11 8.2-1.1 21.2-6.3 31.2-1.9 3.7-0.8 9.2-0.2 13.7 1.6 12.9-5.9 17.4-16.8 19.1-0.5 0-1 0-1.5 0.1-14.2 1.6-30.9-4.2-40.5 12-12.8 21.3-18.8 44.1-13.8 69.1 6 30.6 26.4 51.5 47.9 71.6 7.9 7.3 16.5 13.8 24.6 21 25.1 22.4 29 40 14.9 71-7.6 16.8-17.4 32.7-19.5 51.5-0.5 4.1-1.6 8.1-1.6 12.2-0.1 16.9-0.5 33.4-17.1 43 18.4-9 36.9-16.8 54.2-29.5-8.3-6.7-18.5-6.7-24.4-14-2.6-3.2-6.3-6-5.1-10.5 1.5-5.7 6.6-3.7 10.4-3.6 21.4 0.6 43.1-1.9 64.2 4.1-7.6-2.2-12.6-6.4-12.1-15.2 4.5-87.8 23.2-171.5 71.1-246.7 1.6-2.5 2.7-5.8 9-5.7-8.4 45-21.5 89.1-19.5 135.8 24.4-57.6 54.1-112 90-163.3-10.8 5.7-25.3 5.6-28.3 21.7-1.2 6.1-6.3 3.3-9.9 1.2-8.4-5-17-10.6-26.8-11.1-17.6-0.9-16.9-10.3-12.3-22.5 0.7-2 1.3-3.9 2.1-5.8 10.2-26 10.5-26.3 29.9-6.5 6.9 7 10.5 2.2 15.1-1.9 18.4-16.4 37.8-31.4 57.4-46.4 8.4-6.4 14.5-6.1 17.6 3.6 7.1 22 24.8 31.4 44 39.6 16 6.9 31.6 14.7 47.9 20.7 10.6 3.9 15.8 10.2 17 21.1 4.3 38.7 9.1 77.3 13.2 116 6 55.5 11 111.1 17.3 166.5 4 34.5-0.2 41.6-33.9 49.1-13 2.9-25.9 7-39 8.6-13.1 1.5-16.3 7.8-14.4 19.6 6.5 41 13.1 82 19.1 123 5.3 35.5 9.4 71.1 14.9 106.5 2.1 13.8-2.1 17.6-15.5 15.2-29.2-5.2-30-4.8-28.1 24.8 4 61.8 9 123.5 13.4 185.3 3.8 53.1 7.1 106.3 11 159.4 4.2 57.7 8.9 115.4 13.4 173 3.1 40.7 6.4 81.4 9.7 123.5-10.7-2.8-16.1-9.8-22-15.8-40.3-42-65.2-93.1-85.2-146.6-56.3-151.4-95.5-307.1-118.2-467-2.4-16.8-6.2-33.3-8.1-50.1-1.4-11.7-7.6-16.5-18.3-19.1-22.3-5.5-22.7-5.9-22.2-29.1 1-51.4-4.2-102.4-6.7-153.6-0.7-15.3 1.1-25.8 17.9-29.2 2.8-0.5 5.2-3.1 7.8-4.7zm3.8-45.2c0.2 7.6 1.5 15.2 2.6 22.7 1.2 8.5 0.4 16.2-6.3 22.4 6.9-0.7 8.4 4.3 9.8 9.4 1.2 4.5-0.4 11.6 7.9 10 6.9-1.4 8.4-6.3 7.6-12.8-2.9-23.8-5.4-47.7-8.4-71.5-1.1-9.3-4.5-16.2-16-10.7-6.2 3-13 2.4-19.6 1.7 16.7 2.5 22 13.5 22.4 28.8zm-121.4 24.7q-2.4 1.2-4.9 2.4 2.7-1.1 4.9-2.4zm17.1 248.2c0.4 2.4 0.7 4.8 1.2 7.1 14.2 69.6 22 139.8 13.7 210.7-9.6 81.9-35.4 158.8-78.3 229.5-34.6 57.1-76.8 107.5-135.1 142.5-35.3 21.2-73.1 36.2-115.3 42.8 7.6 4.9 14.5 3.4 20.8 3 59.4-3.8 115.1-20.1 165.1-52.8 117.8-77 168.6-191.1 177.8-327.1 3.1-45.7-3.1-91.1-12.5-135.8-8.6-41.1-20.9-81.1-37.4-119.9zm-179.5 333.9c56.8-12.6 99.7-44.8 129.1-94.9 35.4-60.6 39.4-127.1 34.5-194.8-1.2-16.6-2.5-33.3-7.9-48.8-2.7 135.4-33 257.9-155.7 338.5zm264.2 86.9c-11.8 47.9-21.1 96.5-43.5 141.1-22.7 45.2-51.3 85.8-91.1 117.9 92.5-34.9 142.8-160.4 134.6-259zm181.3-1243.7c-0.1 26.3-6.2 49.5-14.4 72.3-6.3 17.5-11.7 35-6.3 53.9 1.5 5.5-0.4 9.9-4.9 13.5-17.4 13.6-34.7 27.2-51.8 41-7.8 6.3-13.1 6.7-16.8-4.2-4.6-13.9-12.6-18.6-26-8.7-4.4 3.2-10.2 4.6-15.4 6.8-12.3 5.2-20.6 1.2-25.9-10.9-4.6-10.3-10.4-19.9-16-29.7-4.4-7.8-8.2-13.4-18.2-13.2-8 0.2-9.2-6.3-7-12 10.3-26 2.3-51.6-0.4-77.4-1-9.9-7.6-10.7-14.4-12.8-43.5-13.1-57.1-54.5-30.1-90.7 5.4-7.2 9.6-12 16.6-0.9 7.4 11.6 19.4 10.8 30.4 6.7 14.8-5.6 29.2-12.4 43.6-19.1 17.3-8.2 35.3-14.2 54.4-15 15.2-0.7 29.7 2.8 40.5 14.8 3.6 3.9 7.9 6.7 13.1 7.6 30.9 5.5 42.2 27.9 47.1 55.4 1.4 8 1.4 16.3 1.9 22.6zm-762.5 1095.7c15.2-1.2 26.6 3.8 34.7 17.3 8.5 14.1 6.6 27.1-1.9 40.1-1.9 3-4.2 5.7-7 9.3 11 7.3 24.1 14.6 16.5 30.7-3.8 8.1-12.2 13.9-21.6 9.9-14.9-6.3-14.6-19-9.6-33.1-22.3 2.1-37.1-6.9-45.1-26.8q-0.1 0-0.1 0 0-0.1 0-0.1l0.2 0.2c-1.8-27.6 11.4-45.7 33.9-47.5zm-56.7-46.4c-15.9 9.5-31.3 6.8-48.8-8.7-3.6 4.7-5.8 10.4-11 14-8.1 5.8-16 6.6-23.9 0.2-6.9-5.7-10.1-13-6.5-21.8 3.7-9 11.2-15.6 20.3-12.6 12.5 4 14.9-1.7 19-11.3 9.9-23.2 38.4-27.1 56.7-8.7-3.2-12.8-4.4-25.6 1.1-38.2q0.4-0.7 0.9-1.3c10.7-10.2 23.5-14.6 38-11.9 17.9 3.4 28.8 17.5 27 33.6-2.1 18.3-17.4 32.6-34.7 32.8-10.3 0.1-18.8-4.4-27.1-9.6 5.9 22.1 2.5 35.5-11 43.5zm1015.2-476.3c27-8 50.4-9.5 73.6-12.2 34-3.9 68.4-3.8 102.7-3.2 2.5 0 5.1-0.1 7.6 0.4 6.2 1.1 15.1-0.4 15.5 8.7 0.5 9-8.2 7.5-13.8 8.2-50.9 6.5-101.9 8.4-153.1 3.5-9.2-0.9-19.1 1.1-32.5-5.4zm-945.3 1.5c-14.2 5.5-27.7 4.1-40.4 4.9-46 2.8-92.1 2.5-138.1-2.6-4.6-0.6-9.1-1.7-13.6-2.6-4.8-1-9.3-2.8-9.1-8.6 0.3-6.2 5.7-6.8 10.2-6.9 22.1-0.4 44.2-1.7 66.1-0.4 36.3 2.3 72.5 6.3 108.6 9.8 4.9 0.5 10.4 0.3 16.3 6.4zm945 34.1c1.7-4.4 5.7-4 9.1-4.1 55-2.5 110.2-7.4 165.1 2.4 7.6 1.4 21.2-0.7 19.9 10.9-1 9.8-13.6 5.7-21.2 5.9-55.3 1.5-110.4-1.4-164.9-11.8-2.8-0.5-6.3 0.2-8-3.3zm-946.4-68.2c-17.2 0-34.4 0.7-51.6-0.1-45.4-2.1-90.8-4.9-135.3-15-4.9-1.2-11-1.5-10.9-8.4 0.1-6.9 6.1-7.8 11.2-7.6 61.8 3.1 123 10.9 183.2 25.6 1.4 0.3 2.6 1.5 3.8 2.2q-0.2 1.7-0.4 3.3zm1.9-36.5c-23.1 3-45.6-1.5-68.1-4.3-36.6-4.5-72.8-11.5-108.4-20.8-2-0.5-4-1-5.9-1.7-4.7-1.8-11-2.7-10.2-9.5 0.9-7.2 7.5-6 12.3-5.7 34.8 2.3 69.2 8 102.9 16.9 26.1 6.9 52.4 13.3 77.4 25.1zm-2.3 104.8c-33.4 7.8-67 13.2-101.1 14.4-27 1-54.2 0.6-81.3 0.5-5.4 0-12.6 1-13.1-6.9-0.5-6.8 6.1-7.5 11-8.3 61.4-10.3 122.8-8.2 184.5 0.3zm947.6-68.1c10.1-9.3 18.9-7.9 26.4-9.9 48.6-12.5 98.3-18.5 148.3-21.5 8.2-0.5 22-4.7 23.4 6.9 1.5 11.5-12.7 9.2-20.3 10.6-57.3 10.1-115.1 15-177.8 13.9zm-939.7-67.5c-31.9-6.2-63.9-11.9-95.6-19-28.4-6.4-56.1-15.7-83.3-26.2-4.3-1.6-9.5-3.6-8.4-9.4 1.4-7 7.6-5.9 12.5-5 59.5 11.2 117.2 28.5 172.6 53 1.4 0.6 2.6 1.6 3.9 2.4q-0.9 2.1-1.7 4.2zm7.6-34.2c-13.2-3.1-26-5.5-38.6-9-44.9-12.5-89.5-25.8-131.5-46.3-5.2-2.5-13.7-4.1-10.8-12.2 2.5-7.3 9.7-3.5 14.8-2.2 56.3 14.2 110.1 35.1 161.4 62.3 2.2 1.2 4.5 2.4 4.7 7.4zm931.8 64.8c20.2-11 42.4-15.9 64.2-21.6 38.1-9.9 76.6-18 116-21.1 5.1-0.4 11.3-1.3 13.2 4.8 2.2 6.8-4.2 8.6-9 9.9-60.3 16.2-121.5 26.3-184.4 28zm-3.6-33.8c15.7-12.1 34.5-17.4 52.3-24.3 36.8-14.3 75-24.3 113.8-31.8 7-1.4 18-5.4 20.7 3 3.3 10.3-9.3 10.1-15.5 12.5-55 21.6-112.8 32.1-171.3 40.6zm-9-35.1c2.8-2.4 4-4 5.6-4.9 51.3-26.1 104.2-48.3 160.2-62.1 6-1.4 15.1-5.2 17.6 2.9 2.6 8.2-7.3 9.9-12.8 12.5-52.9 24.4-108.9 39-165.2 53-0.8 0.3-1.9-0.4-5.4-1.4zm3.8 211.1c5.3-6.2 10.3-4.8 14.5-4.7 54.7 1.6 109.2 4.2 163.1 14.5 2.5 0.5 5.1 0.8 7.4 1.6 4.4 1.5 9.5 3 8.4 9.1-0.9 4.9-5.5 5.6-9.6 6-19 1.9-37.8-0.6-56.5-2.9-40-5.1-79.6-12.7-119.2-20.8-2.3-0.5-4.5-1.6-8.1-2.8zm-931.1 1c-39 8.1-73.9 15.9-109.4 19.9-21.3 2.4-42.7 4.8-64.2 5.8-8 0.3-21.8 5.7-22.8-7.3-1-11.1 12.7-9.5 20.6-10.7 41.1-6.2 82.3-10.6 123.8-11.3 10.2-0.2 20.5-1.1 30.7-1.5 6-0.3 12.1-1.2 21.3 5.1zm925.5 31.1c25-1.7 46.9 4.4 69.1 6.5 33.1 3.1 65.6 10.7 98 18.3 1.5 0.3 3.1 0.6 4.4 1.3 5.7 2.8 15.5 2.8 14.4 11.1-1.4 10-11.5 7.3-17.8 6.4-55.9-7.6-110.8-19.6-163.9-38.9-0.8-0.3-1.3-1.4-4.2-4.7zm-906.3-275.2c-57.7-16.4-114.9-32.5-165.9-64.1-4-2.5-10.4-4.9-7.5-11.5 2-4.5 7-3.1 11-1.8 56.4 17.9 110.1 41.7 159.7 74.2 1.1 0.7 1.8 2.1 2.7 3.2zm900.9 1c0-7.4 3.8-8.4 6.8-10.2 47.4-27.8 96.4-52.1 148.7-69.5 1.9-0.6 3.9-1.3 5.9-1.7 4.4-1.1 9.9-3.5 12.4 1.6 3.2 6.3-2.9 8.9-7.1 11.5-35.5 22.1-74.7 35.9-113.8 50-17.1 6.1-34.5 11.9-52.9 18.3zm-918.7 274.4c-9.5 9.8-21.8 11.1-33.2 14.3-43.3 12.2-86.8 23.6-131.6 28.6-7.5 0.9-18.8 5.6-20.9-5.3-1.9-9.9 10-10.1 16.7-11.8 51.1-13.2 103.2-20.5 155.5-26.3 4.4-0.5 9 0.3 13.5 0.5zm29.2-305.7c-56.6-20.7-110.6-43.4-159.6-76.5-4-2.8-10-6.1-6.9-12 2.8-5.3 8.6-2 12.5-0.5 55.1 21.3 106.5 49.4 154 84.6 0.2 0.2 0 1 0 4.4zm-16.9 344.4c-28.3 10-56.5 20.5-85 29.9-27.7 9.1-55.7 17.3-84.6 22.2-5.4 1-12.3 3.6-14.7-3.5-2.7-7.8 5.1-8.8 10-10.8 54.1-21.4 110.8-32.7 167.9-42.6 1.9-0.3 3.9 0.4 5.8 0.6q0.3 2.1 0.6 4.2zm900.5-2.5c7.7-5.3 13.6-1.2 19.1-0.1 49.2 9.6 98.5 18.7 145.5 36.8 3.8 1.4 7.6 3 11.1 5 3.3 1.9 5.6 4.8 4.1 8.9-1.2 3.4-4.3 4.1-7.6 3.9-4.6-0.3-9.3-0.1-13.7-1.1q-79.5-17.9-154-51c-1.3-0.6-2.6-1.4-4.5-2.4zm-3.8-350.3c22.6-16.3 45.8-31.7 70.1-45.4 24.1-13.4 48.8-25.8 74.7-35.5 6.7-2.5 16-10.3 20.6-2.2 5.1 8.7-6.9 11.9-12.6 15.7-37.4 25.4-79.2 42.3-120.9 59.1-9.9 4-19.8 7.8-29.7 11.7q-1.1-1.7-2.2-3.4zm-862.9-23.8c-43.6-19.9-87.6-39-127.5-66-9.3-6.3-18.3-13-27.1-20.1-3.2-2.5-9.1-5.5-5.2-10.9 3.4-4.8 8.5-1.7 12.6 0.2 33.6 15.5 65.1 34.5 95.7 55.2 18.3 12.3 35.8 25.5 51.5 41.6zm852.5-5.3c12.6-16.7 28.8-28.8 45.3-40.2 30-20.6 60.8-39.7 94.3-54.1 4.4-1.9 10.6-5.8 14-0.3 4 6.6-3.1 10-7.3 13-31.3 22.2-63.6 42.9-98.8 58.5-16.1 7.2-31.7 15.4-47.5 23.1zm5.2 413c1.8-2.7 4.3-1.9 6.7-1.3 49.6 12.9 99 26.6 145.2 49.4 6.4 3.1 18.4 6 15.2 14-3.8 9.5-14.5 2.9-21.8 0.8-49.5-14-95.7-36.3-142-58.2-1.8-0.9-3.6-2.2-3.3-4.7zm-880.6 1.4c-17 7.8-33.3 15.3-49.8 22.8-33.5 15.3-68.1 27.9-103 39.5-3.4 1.1-6.9 2-10.4 2.5-3.4 0.5-7.7 1.7-9.6-2.4-1.9-4.1 1.6-6.7 4.5-8.6 6.1-3.8 12.2-7.6 18.7-10.6 44.7-20.7 91.7-34.5 139.7-45.4 2.9-0.7 5.8-2.3 9.9 2.2zm36.4-440c-49.2-28-97.9-54-140.1-90.2-2.3-2-4.4-4.3-6.5-6.6-1.7-2-2.9-4.4-1.3-6.9 1.7-2.6 4.6-2 7-1 6.1 2.6 12.3 5 18.1 8.3 41.7 24.2 81.7 50.8 116.6 84.3 2.9 2.8 7.5 5.1 6.2 12.1zm826.5-8c9.3-16.4 23.7-27.2 37.2-38.5 27.9-23.5 58.3-43.4 90.8-60.1 4.7-2.4 11.5-6.6 15.2-0.7 3.5 5.5-4 8.4-7.4 11.6-20.2 19.1-43.5 34.1-67.3 48.2-22.7 13.4-45.7 26.4-68.5 39.5zm-807.6-22.7c-27.9-17.8-55.9-35.3-82.2-55.4-17.8-13.7-35.6-27.5-51.1-43.9-2.9-3.1-8.5-6.8-5.4-11.5 4-5.7 9.6-1.1 13.5 1.4 35.5 21.7 66.9 48.6 97.5 76.6 10.4 9.5 20.3 19.7 30.4 29.7q-1.4 1.5-2.7 3.1zm792.1-17.2c17.4-16.2 34.3-33 52.2-48.6 19.6-17.2 41-32.2 63.4-45.6 4-2.4 9.9-6.8 13.5-0.9 3 4.7-3 7.9-6 11.1-33.9 34.9-75 59.9-115.8 85.5-1.6 1-3.7 2-7.3-1.5zm-771.2-14.3c-27.7-17-53.2-36.9-78-57.7-16.1-13.5-30.5-28.7-44.5-44.3-2.6-2.9-6.2-6.6-2.3-10.7 2.7-2.8 5.9 0 8.3 1.6 45.1 30.4 81 70.5 116.5 111.1zm-222.8 605.8c19.1-22.9 118.6-67.6 158.4-72.1-51.1 27.9-101.4 57.5-158.4 72.1zm1013.9-74.5c35.1 12.8 69.4 25.1 102.6 40.4 14.9 6.9 29.3 14.5 42.9 23.7 2.8 1.8 7.4 3.7 5.8 7.9-2.3 5.7-7.1 2.2-10.6 1.1-26.2-8.7-50.9-21.1-75.7-33.1-19.3-9.4-38.1-19.9-56.9-30.1-3.3-1.8-8.1-2.4-8.1-9.9zm-28.9-552.6c17.1-25.4 39.4-45.5 62-65.2 10.8-9.4 22.4-17.8 33.7-26.6 2.9-2.3 6.6-4.9 9.6-2.1 4.6 4.1-0.4 7.4-2.7 10.2-21.9 26-48.2 47.2-75.8 66.8-8.5 6.1-15.4 14.6-26.8 16.9zm-918.2 934.8c-7 12.1-18.9 16.7-29.6 11.2-10.6-5.5-14.7-18.3-9.2-28.8 5.5-10.6 20.5-14.5 32-7.8 3.4 1.9 6.1 5.1 9.1 7.8 1.3 6.1 0.9 12-2.3 17.6zm140.5-152.7c10.3 0.2 20.5 10.2 18.9 20-1.7 10.3-7.8 18.1-18.8 19.3-9.6 1.1-21.9-10.8-21.8-19.8 0.2-10.4 10.6-19.8 21.7-19.5zm-153-47.1q-0.5 0.6-0.9 1.3c-7.1 3.9-11.2 15.1-21.8 10.3-9-4-18-9.8-14.6-21.8 2.8-9.9 9.7-17.5 21.1-16.1 11.1 1.4 16.8 8.8 16.5 20.2-0.1 2.1-0.2 4.1-0.3 6.1zm79.2-853.2c36.6 29.1 69 62.6 101.5 100.1-19.5-6.9-93.2-79.2-101.5-100.1zm833.7 86c26.9-32.6 55.1-63.8 90.4-87.7-26 33.5-56.5 62.4-90.4 87.7zm-897.9 949.5z"/></svg>