<svg version="1.2" xmlns="http://www.w3.org/2000/svg" viewBox="0 0 108 13" width="108" height="13"><style></style><filter id="f0"><feFlood flood-color="#b47377" flood-opacity="1" /><feBlend mode="normal" in2="SourceGraphic"/><feComposite in2="SourceAlpha" operator="in" /></filter><g filter="url(#f0)"><path  d="m64.9 9.1c0 0-0.1 0.3 0.1 0.5 0.3 0.1 0.6 0.3 0.6 0.6 0 0 0.4-0.3 0.1-0.5-0.2-0.3-0.6-0.2-0.8-0.6z"/><path  d="m64.9 9.1c0 0-0.1-0.3 0.1-0.4 0.3-0.2 0.6-0.4 0.6-0.7 0 0 0.4 0.3 0.1 0.5-0.2 0.3-0.6 0.2-0.8 0.6z"/><path  d="m66.3 9.1c-0.2 0-0.5 0.3-1 0.2-0.3 0-0.4-0.2-0.4-0.2 0 0 0.1-0.2 0.4-0.2 0.5-0.1 0.8 0.2 1 0.2z"/><path  d="m68.1 9.1c0 0-0.1 0.3 0.1 0.5 0.3 0.1 0.6 0.3 0.6 0.6 0 0 0.4-0.3 0.1-0.5-0.2-0.3-0.6-0.2-0.8-0.6z"/><path  d="m68.1 9.1c0 0-0.1-0.3 0.1-0.4 0.3-0.2 0.6-0.4 0.6-0.7 0 0 0.4 0.3 0.1 0.5-0.2 0.3-0.6 0.2-0.8 0.6z"/><path  d="m69.5 9.1c-0.2 0-0.5 0.3-1 0.2-0.3 0-0.4-0.2-0.4-0.2 0 0 0.1-0.2 0.4-0.2 0.4-0.1 0.8 0.2 1 0.2z"/><path  d="m71.3 9.1c0 0-0.1 0.3 0.1 0.5 0.3 0.1 0.6 0.3 0.6 0.6 0 0 0.4-0.3 0.1-0.5-0.2-0.3-0.6-0.2-0.8-0.6z"/><path  d="m71.3 9.1c0 0-0.1-0.3 0.1-0.4 0.3-0.2 0.6-0.4 0.6-0.7 0 0 0.4 0.3 0.1 0.5-0.2 0.3-0.6 0.2-0.8 0.6z"/><path  d="m72.7 9.1c-0.2 0-0.5 0.3-1 0.2-0.3 0-0.4-0.2-0.4-0.2 0 0 0.1-0.2 0.4-0.2 0.4-0.1 0.8 0.2 1 0.2z"/><path  d="m74.5 9.1c0 0-0.1 0.3 0.1 0.5 0.3 0.1 0.6 0.3 0.6 0.6 0 0 0.4-0.3 0.1-0.5-0.2-0.3-0.6-0.2-0.8-0.6z"/><path  d="m74.5 9.1c0 0-0.1-0.3 0.1-0.4 0.3-0.2 0.6-0.4 0.6-0.7 0 0 0.4 0.3 0.1 0.5-0.2 0.3-0.6 0.2-0.8 0.6z"/><path  d="m75.9 9.1c-0.2 0-0.5 0.3-1 0.2-0.3 0-0.4-0.2-0.4-0.2 0 0 0.1-0.2 0.4-0.2 0.4-0.1 0.8 0.2 1 0.2z"/><path  d="m77.7 9.1c0 0-0.1 0.3 0.1 0.5 0.3 0.1 0.5 0.3 0.6 0.6 0 0 0.4-0.3 0.1-0.5-0.2-0.3-0.6-0.2-0.8-0.6z"/><path  d="m77.7 9.1c0 0-0.1-0.3 0.1-0.4 0.3-0.2 0.5-0.4 0.6-0.7 0 0 0.4 0.3 0.1 0.5-0.2 0.3-0.6 0.2-0.8 0.6z"/><path  d="m79 9.1c-0.2 0-0.4 0.3-0.9 0.2-0.3 0-0.4-0.2-0.4-0.2 0 0 0.1-0.2 0.4-0.2 0.4-0.1 0.7 0.2 0.9 0.2z"/><path  d="m80.9 9.1c0 0-0.1 0.3 0.1 0.5 0.3 0.1 0.5 0.3 0.6 0.6 0 0 0.4-0.3 0.1-0.5-0.2-0.3-0.6-0.2-0.8-0.6z"/><path  d="m80.9 9.1c0 0-0.1-0.3 0.1-0.4 0.3-0.2 0.5-0.4 0.6-0.7 0 0 0.4 0.3 0.1 0.5-0.2 0.3-0.6 0.2-0.8 0.6z"/><path  d="m82.2 9.1c-0.2 0-0.4 0.3-0.9 0.2-0.3 0-0.4-0.2-0.4-0.2 0 0 0.1-0.2 0.4-0.2 0.4-0.1 0.7 0.2 0.9 0.2z"/><path  d="m84.1 9.1c0 0-0.1 0.3 0.1 0.5 0.3 0.1 0.5 0.3 0.6 0.6 0 0 0.4-0.3 0.1-0.5-0.2-0.3-0.6-0.2-0.8-0.6z"/><path  d="m84.1 9.1c0 0-0.1-0.3 0.1-0.4 0.3-0.2 0.5-0.4 0.6-0.7 0 0 0.4 0.3 0.1 0.5-0.2 0.3-0.6 0.2-0.8 0.6z"/><path  d="m85.4 9.1c-0.2 0-0.4 0.3-0.9 0.2-0.3 0-0.4-0.2-0.4-0.2 0 0 0.1-0.2 0.4-0.2 0.4-0.1 0.7 0.2 0.9 0.2z"/><path  d="m87.3 9.1c0 0-0.1 0.3 0.1 0.5 0.3 0.1 0.5 0.3 0.6 0.6 0 0 0.4-0.3 0.1-0.5-0.2-0.3-0.6-0.2-0.8-0.6z"/><path  d="m87.3 9.1c0 0-0.1-0.3 0.1-0.4 0.3-0.2 0.5-0.4 0.6-0.7 0 0 0.4 0.3 0.1 0.5-0.2 0.3-0.6 0.2-0.8 0.6z"/><path  d="m88.6 9.1c-0.2 0-0.5 0.3-0.9 0.2-0.4 0-0.4-0.2-0.4-0.2 0 0 0-0.2 0.4-0.2 0.4-0.1 0.7 0.2 0.9 0.2z"/><path  d="m90.5 9.1c0 0-0.1 0.3 0.1 0.5 0.3 0.1 0.5 0.3 0.6 0.6 0 0 0.4-0.3 0.1-0.5-0.2-0.3-0.6-0.2-0.8-0.6z"/><path  d="m90.5 9.1c0 0-0.1-0.3 0.1-0.4 0.3-0.2 0.5-0.4 0.6-0.7 0 0 0.4 0.3 0.1 0.5-0.2 0.3-0.6 0.2-0.8 0.6z"/><path  d="m91.8 9.1c-0.2 0-0.5 0.3-0.9 0.2-0.4 0-0.4-0.2-0.4-0.2 0 0 0-0.2 0.4-0.2 0.4-0.1 0.7 0.2 0.9 0.2z"/><path  d="m93.7 9.1c0 0-0.1 0.3 0.1 0.5 0.3 0.1 0.5 0.3 0.6 0.6 0 0 0.4-0.3 0.1-0.5-0.2-0.3-0.6-0.2-0.8-0.6z"/><path  d="m93.7 9.1c0 0-0.1-0.3 0.1-0.4 0.3-0.2 0.5-0.4 0.6-0.7 0 0 0.4 0.3 0.1 0.5-0.2 0.3-0.6 0.2-0.8 0.6z"/><path  d="m95 9.1c-0.2 0-0.5 0.3-0.9 0.2-0.4 0-0.4-0.2-0.4-0.2 0 0 0-0.2 0.4-0.2 0.4-0.1 0.7 0.2 0.9 0.2z"/><path  d="m96.9 9.1c0 0-0.1 0.3 0.1 0.5 0.2 0.1 0.5 0.3 0.6 0.6 0 0 0.3-0.3 0.1-0.5-0.2-0.3-0.6-0.2-0.8-0.6z"/><path  d="m96.9 9.1c0 0-0.1-0.3 0.1-0.4 0.2-0.2 0.5-0.4 0.6-0.7 0 0 0.3 0.3 0.1 0.5-0.2 0.3-0.6 0.2-0.8 0.6z"/><path  d="m98.2 9.1c-0.2 0-0.5 0.3-0.9 0.2-0.4 0-0.4-0.2-0.4-0.2 0 0 0-0.2 0.4-0.2 0.4-0.1 0.7 0.2 0.9 0.2z"/><path  d="m100.1 9.1c0 0-0.1 0.3 0.1 0.5 0.2 0.1 0.5 0.3 0.6 0.6 0 0 0.3-0.3 0.1-0.5-0.2-0.3-0.6-0.2-0.8-0.6z"/><path  d="m100.1 9.1c0 0-0.1-0.3 0.1-0.4 0.2-0.2 0.5-0.4 0.6-0.7 0 0 0.3 0.3 0.1 0.5-0.2 0.3-0.6 0.2-0.8 0.6z"/><path  d="m101.4 9.1c-0.2 0-0.5 0.3-0.9 0.2-0.4 0-0.4-0.2-0.4-0.2 0 0 0-0.2 0.4-0.2 0.4-0.1 0.7 0.2 0.9 0.2z"/><path  d="m103.3 9.1c0 0-0.1 0.3 0.1 0.5 0.2 0.1 0.5 0.3 0.6 0.6 0 0 0.3-0.3 0.1-0.5-0.2-0.3-0.6-0.2-0.8-0.6z"/><path  d="m103.3 9.1c0 0-0.1-0.3 0.1-0.4 0.2-0.2 0.5-0.4 0.6-0.7 0 0 0.3 0.3 0.1 0.5-0.2 0.3-0.6 0.2-0.8 0.6z"/><path  d="m104.6 9.1c-0.2 0-0.5 0.3-0.9 0.2-0.4 0-0.4-0.2-0.4-0.2 0 0 0-0.2 0.4-0.2 0.4-0.1 0.7 0.2 0.9 0.2z"/><path  d="m106.5 9.1c0 0-0.1 0.3 0.1 0.5 0.2 0.1 0.5 0.3 0.6 0.6 0 0 0.3-0.3 0.1-0.5-0.2-0.3-0.6-0.2-0.8-0.6z"/><path  d="m106.5 9.1c0 0-0.1-0.3 0.1-0.4 0.2-0.2 0.5-0.4 0.6-0.7 0 0 0.3 0.3 0.1 0.5-0.2 0.3-0.6 0.2-0.8 0.6z"/><path  d="m107.8 9.1c-0.2 0-0.5 0.3-0.9 0.2-0.4 0-0.5-0.2-0.5-0.2 0 0 0.1-0.2 0.5-0.2 0.4-0.1 0.7 0.2 0.9 0.2z"/><path  d="m42.7 9.1c0 0 0.1-0.3-0.2-0.4-0.2-0.2-0.5-0.4-0.5-0.7 0 0-0.4 0.3-0.2 0.5 0.3 0.3 0.7 0.2 0.9 0.6z"/><path  d="m42.7 9.1c0 0 0.1 0.3-0.2 0.5-0.2 0.1-0.5 0.3-0.5 0.6 0 0-0.4-0.3-0.2-0.5 0.3-0.3 0.7-0.2 0.9-0.6z"/><path  d="m41.3 9.1c0.2 0 0.5-0.3 1-0.2 0.3 0 0.4 0.2 0.4 0.2 0 0-0.1 0.2-0.4 0.2-0.5 0.1-0.8-0.2-1-0.2z"/><path  d="m39.5 9.1c0 0 0.1-0.3-0.2-0.4-0.2-0.2-0.5-0.4-0.5-0.7 0 0-0.4 0.3-0.2 0.5 0.3 0.3 0.7 0.2 0.9 0.6z"/><path  d="m39.5 9.1c0 0 0.1 0.3-0.2 0.5-0.2 0.1-0.5 0.3-0.5 0.6 0 0-0.4-0.3-0.2-0.5 0.3-0.3 0.7-0.2 0.9-0.6z"/><path  d="m38.1 9.1c0.2 0 0.5-0.3 1-0.2 0.3 0 0.4 0.2 0.4 0.2 0 0-0.1 0.2-0.4 0.2-0.5 0.1-0.8-0.2-1-0.2z"/><path  d="m36.3 9.1c0 0 0.1-0.3-0.2-0.4-0.2-0.2-0.5-0.4-0.5-0.7 0 0-0.4 0.3-0.2 0.5 0.3 0.3 0.7 0.2 0.9 0.6z"/><path  d="m36.3 9.1c0 0 0.1 0.3-0.2 0.5-0.2 0.1-0.5 0.3-0.5 0.6 0 0-0.4-0.3-0.2-0.5 0.3-0.3 0.7-0.2 0.9-0.6z"/><path  d="m34.9 9.1c0.2 0 0.5-0.3 1-0.2 0.3 0 0.4 0.2 0.4 0.2 0 0-0.1 0.2-0.4 0.2-0.5 0.1-0.8-0.2-1-0.2z"/><path  d="m33.1 9.1c0 0 0.1-0.3-0.2-0.4-0.2-0.2-0.5-0.4-0.5-0.7 0 0-0.4 0.3-0.2 0.5 0.3 0.3 0.7 0.2 0.9 0.6z"/><path  d="m33.1 9.1c0 0 0.1 0.3-0.2 0.5-0.2 0.1-0.5 0.3-0.5 0.6 0 0-0.4-0.3-0.2-0.5 0.3-0.3 0.7-0.2 0.9-0.6z"/><path  d="m31.7 9.1c0.2 0 0.5-0.3 1-0.2 0.3 0 0.4 0.2 0.4 0.2 0 0-0.1 0.2-0.4 0.2-0.5 0.1-0.8-0.2-1-0.2z"/><path  d="m29.9 9.1c0 0 0.1-0.3-0.1-0.4-0.3-0.2-0.6-0.4-0.6-0.7 0 0-0.4 0.3-0.1 0.5 0.2 0.3 0.6 0.2 0.8 0.6z"/><path  d="m29.9 9.1c0 0 0.1 0.3-0.1 0.5-0.3 0.1-0.6 0.3-0.6 0.6 0 0-0.4-0.3-0.1-0.5 0.2-0.3 0.6-0.2 0.8-0.6z"/><path  d="m28.5 9.1c0.2 0 0.5-0.3 1-0.2 0.3 0 0.4 0.2 0.4 0.2 0 0-0.1 0.2-0.4 0.2-0.5 0.1-0.8-0.2-1-0.2z"/><path  d="m26.7 9.1c0 0 0.1-0.3-0.1-0.4-0.3-0.2-0.6-0.4-0.6-0.7 0 0-0.4 0.3-0.1 0.5 0.2 0.3 0.6 0.2 0.8 0.6z"/><path  d="m26.7 9.1c0 0 0.1 0.3-0.1 0.5-0.3 0.1-0.6 0.3-0.6 0.6 0 0-0.4-0.3-0.1-0.5 0.2-0.3 0.6-0.2 0.8-0.6z"/><path  d="m25.3 9.1c0.2 0 0.5-0.3 1-0.2 0.3 0 0.4 0.2 0.4 0.2 0 0-0.1 0.2-0.4 0.2-0.4 0.1-0.8-0.2-1-0.2z"/><path  d="m23.5 9.1c0 0 0.1-0.3-0.1-0.4-0.3-0.2-0.6-0.4-0.6-0.7 0 0-0.4 0.3-0.1 0.5 0.2 0.3 0.6 0.2 0.8 0.6z"/><path  d="m23.5 9.1c0 0 0.1 0.3-0.1 0.5-0.3 0.1-0.6 0.3-0.6 0.6 0 0-0.4-0.3-0.1-0.5 0.2-0.3 0.6-0.2 0.8-0.6z"/><path  d="m22.1 9.1c0.2 0 0.5-0.3 1-0.2 0.3 0 0.4 0.2 0.4 0.2 0 0-0.1 0.2-0.4 0.2-0.4 0.1-0.8-0.2-1-0.2z"/><path  d="m20.3 9.1c0 0 0.1-0.3-0.1-0.4-0.3-0.2-0.5-0.4-0.6-0.7 0 0-0.4 0.3-0.1 0.5 0.2 0.3 0.6 0.2 0.8 0.6z"/><path  d="m20.3 9.1c0 0 0.1 0.3-0.1 0.5-0.3 0.1-0.5 0.3-0.6 0.6 0 0-0.4-0.3-0.1-0.5 0.2-0.3 0.6-0.2 0.8-0.6z"/><path  d="m18.9 9.1c0.2 0 0.5-0.3 1-0.2 0.3 0 0.4 0.2 0.4 0.2 0 0-0.1 0.2-0.4 0.2-0.4 0.1-0.8-0.2-1-0.2z"/><path  d="m17.1 9.1c0 0 0.1-0.3-0.1-0.4-0.3-0.2-0.5-0.4-0.6-0.7 0 0-0.4 0.3-0.1 0.5 0.2 0.3 0.6 0.2 0.8 0.6z"/><path  d="m17.1 9.1c0 0 0.1 0.3-0.1 0.5-0.3 0.1-0.5 0.3-0.6 0.6 0 0-0.4-0.3-0.1-0.5 0.2-0.3 0.6-0.2 0.8-0.6z"/><path  d="m15.8 9.1c0.2 0 0.4-0.3 0.9-0.2 0.3 0 0.4 0.2 0.4 0.2 0 0-0.1 0.2-0.4 0.2-0.4 0.1-0.7-0.2-0.9-0.2z"/><path  d="m13.9 9.1c0 0 0.1-0.3-0.1-0.4-0.3-0.2-0.5-0.4-0.6-0.7 0 0-0.4 0.3-0.1 0.5 0.2 0.3 0.6 0.2 0.8 0.6z"/><path  d="m13.9 9.1c0 0 0.1 0.3-0.1 0.5-0.3 0.1-0.5 0.3-0.6 0.6 0 0-0.4-0.3-0.1-0.5 0.2-0.3 0.6-0.2 0.8-0.6z"/><path  d="m12.6 9.1c0.2 0 0.4-0.3 0.9-0.2 0.3 0 0.4 0.2 0.4 0.2 0 0-0.1 0.2-0.4 0.2-0.4 0.1-0.7-0.2-0.9-0.2z"/><path  d="m10.7 9.1c0 0 0.1-0.3-0.1-0.4-0.3-0.2-0.5-0.4-0.6-0.7 0 0-0.4 0.3-0.1 0.5 0.2 0.3 0.6 0.2 0.8 0.6z"/><path  d="m10.7 9.1c0 0 0.1 0.3-0.1 0.5-0.3 0.1-0.5 0.3-0.6 0.6 0 0-0.4-0.3-0.1-0.5 0.2-0.3 0.6-0.2 0.8-0.6z"/><path  d="m9.4 9.1c0.2 0 0.4-0.3 0.9-0.2 0.3 0 0.4 0.2 0.4 0.2 0 0-0.1 0.2-0.4 0.2-0.4 0.1-0.7-0.2-0.9-0.2z"/><path  d="m7.5 9.1c0 0 0.1-0.3-0.1-0.4-0.3-0.2-0.5-0.4-0.6-0.7 0 0-0.4 0.3-0.1 0.5 0.2 0.3 0.6 0.2 0.8 0.6z"/><path  d="m7.5 9.1c0 0 0.1 0.3-0.1 0.5-0.3 0.1-0.5 0.3-0.6 0.6 0 0-0.4-0.3-0.1-0.5 0.2-0.3 0.6-0.2 0.8-0.6z"/><path  d="m6.2 9.1c0.2 0 0.5-0.3 0.9-0.2 0.4 0 0.4 0.2 0.4 0.2 0 0 0 0.2-0.4 0.2-0.4 0.1-0.7-0.2-0.9-0.2z"/><path  d="m4.3 9.1c0 0 0.1-0.3-0.1-0.4-0.3-0.2-0.5-0.4-0.6-0.7 0 0-0.4 0.3-0.1 0.5 0.2 0.3 0.6 0.2 0.8 0.6z"/><path  d="m4.3 9.1c0 0 0.1 0.3-0.1 0.5-0.3 0.1-0.5 0.3-0.6 0.6 0 0-0.4-0.3-0.1-0.5 0.2-0.3 0.6-0.2 0.8-0.6z"/><path  d="m3 9.1c0.2 0 0.5-0.3 0.9-0.2 0.4 0 0.4 0.2 0.4 0.2 0 0 0 0.2-0.4 0.2-0.4 0.1-0.7-0.2-0.9-0.2z"/><path  d="m1.1 9.1c0 0 0.1-0.3-0.1-0.4-0.2-0.2-0.5-0.4-0.6-0.7 0 0-0.3 0.3-0.1 0.5 0.2 0.3 0.6 0.2 0.8 0.6z"/><path  d="m1.1 9.1c0 0 0.1 0.3-0.1 0.5-0.2 0.1-0.5 0.3-0.6 0.6 0 0-0.3-0.3-0.1-0.5 0.2-0.3 0.6-0.2 0.8-0.6z"/><path  d="m-0.2 9.1c0.2 0 0.5-0.3 0.9-0.2 0.4 0 0.4 0.2 0.4 0.2 0 0 0 0.2-0.4 0.2-0.4 0.1-0.7-0.2-0.9-0.2z"/><path  d="m53.7 11.4c0 0 2.6 0.7 3.8-1.3 1.2-1.9 3.1-4.2 5.4-4.7 0 0-2.1-3-4.4-1.1-2.2 1.9-1.6 5.5-4.8 7.1z"/><path  d="m53.8 11.4c0 0-2.6 0.7-3.8-1.3-1.3-1.9-3.1-4.2-5.4-4.7 0 0 2.1-3 4.3-1.1 2.3 1.9 1.6 5.5 4.9 7.1z"/><path  d="m53.7 0c0 1.7 2.6 4.2 2 7.8-0.4 3-2 3.6-2 3.6 0 0-1.5-0.6-2-3.6-0.5-3.6 2.1-6.2 2-7.8z"/><path  d="m44.3 9.7c-0.1-0.2-0.1-0.5 0.1-0.6 0.2-0.2 0.5-0.2 0.7 0 0.4 0.2 0.5 0.8 0.2 1.2-0.3 0.3-0.8 0.4-1.2 0.3q-0.4 0-0.6-0.3-0.2-0.3-0.3-0.6c-0.2-0.4-0.2-0.8 0-1.2 0.2-0.4 0.5-0.7 0.9-0.9q0.5-0.4 1.1-0.4 0.4-0.1 0.7 0 0.3 0 0.6 0.1c0.8 0.2 1.4 0.7 1.9 1.3q0.1 0.1 0.2 0.2l0.2 0.3 0.3 0.5 0.3 0.4 0.3 0.5c0.5 0.5 1 1.1 1.6 1.4 0.3 0.1 0.7 0.2 1.1 0.2 0.3 0 0.7-0.1 1-0.3 0 0 0 0 0 0q0.1 0 0 0.1-0.4 0.4-1 0.4c-0.4 0.1-0.8 0-1.2-0.1-0.8-0.3-1.3-0.9-1.8-1.5l-0.4-0.4-0.3-0.5q-0.2-0.2-0.3-0.5l-0.2-0.2q-0.1-0.1-0.2-0.2c-0.4-0.5-1-1-1.7-1.2-0.1 0-0.3 0-0.5-0.1-0.2 0-0.3 0-0.5 0-0.3 0.1-0.7 0.2-1 0.3-0.3 0.2-0.5 0.5-0.7 0.7-0.1 0.3-0.1 0.7-0.1 1q0.1 0.2 0.3 0.4 0.1 0.2 0.4 0.3 0.2 0 0.4 0 0.1 0 0.2-0.1 0.1 0 0.2-0.1 0.2-0.2 0.1-0.5c0-0.1 0-0.3-0.1-0.3-0.2-0.1-0.3-0.1-0.5-0.1-0.1 0.1-0.1 0.3-0.1 0.4q0.1 0.1 0 0.1c0 0-0.1 0-0.1 0z"/><path  d="m54.2 11.8c0.3 0.2 0.7 0.3 1 0.3q0.6 0 1.1-0.2c0.6-0.3 1.2-0.8 1.6-1.4q0.3-0.4 0.6-0.9l0.3-0.5q0.2-0.3 0.4-0.5c0.5-0.6 1.2-1.1 1.9-1.3 0.8-0.2 1.7-0.2 2.4 0.3 0.4 0.2 0.7 0.5 0.9 0.9 0.2 0.4 0.2 0.9 0 1.3q0 0.1-0.1 0.3-0.1 0.1-0.2 0.3-0.3 0.2-0.6 0.3-0.3 0.1-0.7-0.1c-0.2 0-0.4-0.2-0.5-0.3-0.3-0.4-0.2-1 0.2-1.2 0.2-0.1 0.5-0.1 0.7 0q0.1 0.1 0.2 0.3 0 0.1 0 0.2-0.1 0.1-0.1 0.1-0.1 0-0.1 0 0 0 0-0.1c0.1-0.1 0-0.2-0.1-0.3-0.2-0.1-0.3-0.1-0.5 0q0 0-0.1 0.1 0 0.1-0.1 0.2 0 0.3 0.2 0.5 0.1 0.1 0.3 0.2 0.3 0.1 0.5 0 0.2-0.1 0.4-0.2 0.1-0.1 0.1-0.2 0.1-0.1 0.1-0.2c0.1-0.3 0.1-0.7 0-1-0.2-0.3-0.4-0.5-0.7-0.7-0.6-0.3-1.3-0.4-2-0.2-0.7 0.1-1.3 0.6-1.7 1.1-0.3 0.3-0.5 0.6-0.7 0.9q-0.3 0.5-0.7 1c-0.4 0.6-1 1.1-1.8 1.4q-0.5 0.3-1.2 0.2-0.6-0.1-1.1-0.5 0 0 0-0.1 0.1 0 0.1 0z"/><path  d="m44.7 9.6c0 0.1-0.1 0.2-0.2 0.2-0.1 0-0.2-0.1-0.2-0.2 0-0.1 0.1-0.2 0.2-0.2 0.1 0 0.2 0.1 0.2 0.2z"/><path  d="m63.4 9.6c0 0.1-0.1 0.2-0.2 0.2-0.1 0-0.2-0.1-0.2-0.2 0-0.2 0.1-0.3 0.2-0.3 0.1 0 0.2 0.1 0.2 0.3z"/></g></svg>