<svg version="1.2" xmlns="http://www.w3.org/2000/svg" viewBox="0 0 912 618" width="912" height="618"><style>.a{fill:#a2495d}</style><path fill-rule="evenodd" class="a" d="m906.5 515.3c15.3 37.7-5 79.7-42.7 95-44.4 18-101.1 1-149.9-33.3-29.2-20.8-58.7-46.1-86.6-70.4-3.1 2-6.6 3.9-10.3 5.4-34 13.8-124.9 1.4-152.2-54q-0.8-1.5-1.5-3c-0.1-0.4-0.2-0.7-0.3-1-0.2-0.3-0.3-0.6-0.4-1q-0.3-0.8-0.6-1.6c-0.6-0.2-1.1-0.3-1.6-0.6-0.3-0.1-0.6-0.3-1-0.4-0.3-0.1-0.6-0.2-0.9-0.4-0.5-0.2-1-0.5-1.6-0.7-0.5 0.2-1 0.5-1.5 0.7-0.3 0.1-0.7 0.2-1 0.4-0.3 0.1-0.6 0.3-0.9 0.4q-0.8 0.3-1.6 0.6c-0.2 0.5-0.4 1-0.6 1.6-0.2 0.3-0.3 0.6-0.5 0.9q-0.1 0.5-0.3 1-0.7 1.5-1.5 3c-28.2 54.9-119.2 66-153 51.7-3.7-1.6-7.2-3.5-10.3-5.6-28.3 24-58.1 48.8-87.6 69.1-49.3 33.6-106.2 49.7-150.4 31-37.5-15.8-57.1-58.1-41.2-95.5 12.4-29.5 34.6-44.5 56.1-59.1l0.9 3.5c-15.2 9-40.4 30.3-52.3 58.4-13.3 31.4 3.9 67.1 35.4 80.4 45.8 19.4 88.2 7.8 131.9-15.2 36.5-19.2 70.1-48.4 102.9-76.4-17.9-14.6-23.8-38-30.9-60.4-51.2 18.6-116.9 22-136.5 68.1-2.7 6.4-2.4 15.2 0.5 17.6 2.5-3.3 9.3-5.2 14.6-2.9 6.4 2.7 8.2 10.6 5.5 16.9-3.1 7.4-12.6 7.3-19.9 4.2-12.4-5.2-11-21.6-5.8-34 21.5-50.8 88.3-57.7 140.2-74.8-4.4-12.9-9.5-25.3-17.9-35.2-27.4 16.4-57.6 28.9-76.3 21-8.4-3.6-12.7-12.9-9.2-21.2 11.5-27.1 45.8-32.7 72.9-21.3 7.7 3.3 14 7.1 19.2 11.7 8.2-5.2 16.6-10.6 24.8-15.6q-1-4.4-1.9-9c-23.6-2.3-47.1-5.2-69.3-9.3-58.6-11.2-110.2-40-128.3-84.4-15.2-37.8 0.7-81.5 38.4-96.8 27-10.9 51.2-7.7 74.6-3.4-4-23.4-6.8-47.7 4.5-74.5 15.9-37.4 59.8-52.8 97.3-36.9 8.7 3.7 16.8 8.7 24.2 14.8 1.1-9.6 3.4-18.8 7.1-27.5 15.9-37.5 58.1-57.1 95.6-41.2 26.8 11.3 41.7 30.7 55.1 50.3 13.7-19.4 28.9-38.6 55.9-49.5 37.7-15.3 79.6 5 94.9 42.7 3.5 8.7 5.7 18 6.7 27.5 7.5-5.9 15.7-10.8 24.4-14.4 37.7-15.3 81.5 0.7 96.8 38.4 10.9 27 7.7 51.2 3.3 74.6 23.5-4 47.8-6.8 74.5 4.5 37.5 15.9 52.8 59.8 37 97.3-18.7 44.2-70.8 72.2-129.6 82.5-22.1 3.7-45.7 6.3-69.3 8.3q-1 4.5-2.1 8.9c8.1 5.2 16.4 10.7 24.6 16 5.3-4.5 11.6-8.2 19.3-11.4 27.3-11 61.5-4.9 72.6 22.4 3.4 8.4-1.1 17.6-9.5 21.1-18.8 7.6-48.8-5.3-76-22.2-8.6 9.8-13.8 22.1-18.4 34.9 51.6 17.9 118.3 25.8 139 77 5.1 12.4 6.2 28.8-6.2 33.9-7.4 3-16.9 2.9-19.9-4.5-2.6-6.4-0.7-14.3 5.7-16.8 5.4-2.2 12.1-0.2 14.6 3.1 3-2.4 3.3-11.2 0.8-17.6-18.9-46.4-84.5-50.8-135.5-70.1-7.5 22.2-13.7 45.5-31.8 59.9 32.3 28.5 65.5 58.1 101.8 77.9 43.3 23.6 85.5 35.9 131.6 17.2 31.7-12.8 49.4-48.2 36.6-79.9-11.5-28.3-36.3-50-51.4-59.1l0.9-3.5c21.3 14.8 43.3 30.3 55.3 59.9zm-220.5-116.4l4.2 2.6c11.2 7.3 42.2 22.9 62.1 14.8 6.7-2.7 11.5-9.3 8.7-16.1-6.1-15.1-35.1-21.8-55.9-13.3-7.8 3.1-14 7.2-19.1 12zm-461.6-0.9l4.3-2.5c-5.1-4.9-11.2-9.1-18.9-12.3-20.7-8.8-49.8-2.6-56.2 12.5-2.8 6.7 1.9 13.4 8.6 16.2 19.7 8.4 51-6.8 62.2-13.9zm426.8-15.7q-1.2 5-2.5 9.7c-3.5 13.3-7.5 24.5-16.5 32.7 5.6 2.4 11.5 4.7 17.3 7 6.5-13.2 12.3-25.7 23.1-36l-2.2-1.4c-6.9-4.8-13.6-8.8-19.2-12zm-55.2 20.4c6.9 7.2 16.6 13 27.7 18.2 11.9-7.5 14.7-18.3 19.7-32.3 0.4-1.3 1.5-4.5 2.9-9-4.1-2.2-7.1-3.7-8.3-4.3-3.5-1.8-6.8-3.5-10-5q-7.6 0.6-15.1 1.1c-0.8 3.6-2 7.4-3.5 11.1-2.7 6.2-7.3 13.1-13.4 20.2zm-0.8 4.7c0.4 1.9 0.9 3.8 1.7 5.6 3.3 8.1 11.5 14.9 19.6 11.6 0.7-0.2 1.3-0.5 1.9-0.8-8.8-4.7-16.7-9.9-23.2-16.4zm22.8-316.6c-0.6 35.4-16.2 74.1-40.6 108.7-6.2 8.8-12.8 17.5-19.7 26.3-1.6 11-2.9 22.1-4 33.3q7-1.5 14.1-3c0.6-6.9 2.4-14 5.6-21.7 11.5-27.1 40-47 67.1-35.5 8.4 3.5 11.8 13.3 8.3 21.6-8 18.8-38.3 30.8-69.4 38.1 0.8 13 5.8 25.4 11.7 37.7 17.5-8.5 35.4-19.2 53.6-28.6 17.1-30.6 30.1-60.8 18.3-90-2.6-6.4-9-12.5-12.7-12.1 0.4 4.1-3 10.2-8.4 12.4-6.3 2.6-13.2-1.7-15.8-8.1-3-7.4 3.7-14.1 11.1-17.1 12.5-5 23.1 7.6 28.1 20 12.3 30.3 2.5 60.9-12.7 91 30.3-14.7 61-24.1 91.1-11.4 12.4 5.3 24.8 16 19.6 28.4-3.1 7.4-9.9 14-17.2 10.9-6.4-2.7-10.6-9.6-7.9-16 2.3-5.3 8.4-8.6 12.5-8.1 0.4-3.8-5.5-10.2-11.9-12.9-29-12.3-59.4 0.3-90.3 16.9-9.6 18-20.6 35.8-29.3 53.2 12.2 6 24.5 11.2 37.5 12.3 7.8-31 20.2-61.2 39.1-68.8 8.4-3.4 18.1 0.1 21.5 8.5 11 27.3-9.3 55.5-36.5 66.6-7.8 3.1-14.9 4.8-21.8 5.3-1.1 4.6-2.1 9.4-3.2 14.1 29.1-2.4 58-6.1 84.6-13.9 47.3-14 85.9-35.1 105.3-81 13.3-31.4 0.8-69-30.7-82.3-25.8-11-55.7-9.9-73.7-6.5q-0.3 1.8-0.6 3.6l-3.1-1.9q0.1-0.4 0.2-0.9c-0.3 0.1-0.7 0.1-0.9 0.2l-1.9-3.1q1.8-0.3 3.6-0.7c3.7-17.9 5.2-47.7-5.3-73.7-12.9-31.7-50.3-44.7-81.9-31.9-13 5.2-23.9 12.1-33.4 20.1zm-3.5 274.9q-0.5-0.2-1.1-0.2 0 0.1 0 0.2 0.6 0 1.1 0zm33.5 8.7q0.8-2.6 1.6-5.7-4.8 0.4-9.7 0.8 4 2.4 8.1 4.9zm5.5-21.9l0.5-2.6c-14.8 0.2-27.8-4.8-41.6-9.8q-0.5 1.1-1 2.2c1.3 5.2 2.2 10.3 2.3 15.6 6 1.2 11.7 3.5 17.6 6.7q9.9-0.7 19.7-1.4c0.9-3.4 1.7-7 2.5-10.7zm-60.1-51.6c2.4 4.7 4.8 9.4 7.1 14.2 4.7 2.4 9.4 4.9 14.1 7.3 7.2-15.4 16.5-30.8 25.2-46-15.4 8.5-30.8 17.5-46.4 24.5zm68 37.4c7.1-0.1 14.3-1.5 22.1-4.7 20.8-8.4 37-33.4 30.8-48.5-2.7-6.8-10.7-8.2-17.5-5.5-19.8 8.1-31.2 40.9-34.2 53.9zm-79.9 32.1c2.3-12.3 5-30.2 3.3-39.9-9.9-1.8-28.7-0.3-41.1 1.8-5.2 1.8-15 5.3-18.4 6.7q-4.2 1.7-8.3 3.8c-0.9 11.4-3 23.5-6.5 35.4q-0.7 2.4-1.5 4.8c-3 9.1-6.8 18-11.4 26.3q0.8 3 1.3 5.9c8.4 1.6 17.1 4.8 26.3 9.3q2.3 1.2 4.7 2.4 5 2.7 10.2 5.8c15.8-11.2 28.5-26.5 35.4-42.8 1.7-3.9 4.8-15.7 6-19.4zm0.1 0.5c0.1 0.1 0.3-0.1 0.5-0.6q-0.3 0.4-0.5 0.6zm-45.9 64.7q-3.8-2-7.5-3.7-1.9 5.3-4 10.1 5.9-2.8 11.5-6.4zm-39.4 7.9c-1.3 3.1-4.4 5.5-8.4 7.3 9-0.2 17.9-1.8 26.4-4.8 3.2-4.8 6.1-10.3 8.7-16.3-8.1-3.4-15.9-5.7-23.2-6.7 0.3 7.2-0.8 14-3.5 20.5zm-11.8-179.3q0.5 1.2 0.9 2.3c4.5 2.7 8.8 5.7 12.6 9.4 5.1-3.4 10.8-5.8 17.2-7.8q6.5-7.4 12.9-14.9c-1.8-3-3.7-6.1-5.8-9.3l-1.4-2.2c-10.4 10.6-23.1 16.3-36.4 22.5zm-162.9-218.1c-5.5 12.9-8.5 25.4-9.5 37.8 24.7 25.4 41 63.8 48.3 105.6 1.8 10.6 3.3 21.5 4.6 32.5 6.6 9 13.6 17.8 20.7 26.5 2.7-4.1 5.3-8.1 7.9-12.2-4.5-5.2-8.2-11.5-11.3-19.3-11.1-27.3-5-61.5 22.3-72.5 8.4-3.5 17.7 1 21.1 9.4 7.6 18.9-5.3 48.8-22.1 76 9.7 8.6 22 13.8 34.9 18.4 6.3-18.3 11.5-38.6 17.7-58.1-9.6-33.8-21.7-64.3-50.7-76.6-6.4-2.7-15.2-2.5-17.6 0.4 3.3 2.6 5.1 9.3 2.9 14.7-2.7 6.3-10.6 8.1-16.9 5.4-7.4-3.1-7.3-12.5-4.2-19.9 5.2-12.4 21.6-11 34-5.7 30.1 12.7 44.8 41.3 55.3 73.3 11-31.8 26.1-60.2 56.4-72.5 12.5-5 28.8-6.2 33.9 6.3 3 7.4 2.9 16.8-4.5 19.8-6.4 2.6-14.2 0.7-16.8-5.7-2.2-5.4-0.2-12.1 3.1-14.6-2.4-2.9-11.2-3.3-17.6-0.7-29.2 11.9-41.8 42.2-51.9 75.8 6 19.6 10.8 39.9 16.9 58.4 12.9-4.4 25.3-9.4 35.2-17.8-16.4-27.5-28.9-57.6-21-76.4 3.5-8.3 12.9-12.7 21.2-9.1 27.1 11.5 32.7 45.8 21.3 72.9-3.3 7.7-7.1 13.9-11.7 19.1 2.6 4.1 5.2 8.2 7.7 12.3 7.3-8.6 14.4-17.3 21.2-26.1 1.4-11.1 3.1-21.9 5-32.5 8-41.6 24.8-79.8 49.9-104.8-0.8-12.4-3.7-25-8.9-38-12.8-31.6-48.2-49.4-79.9-36.5-26 10.5-46.4 32.3-56.6 47.5q1 1.5 2 3l-3.5 0.9q-0.3-0.4-0.5-0.8c-0.2 0.2-0.4 0.5-0.5 0.8l-3.5-1q1-1.4 2-2.9c-10-15.4-30.1-37.5-55.9-48.4-31.4-13.3-67.1 3.9-80.4 35.4zm226.5 214q1.3-13.1 2.9-26c-5.5 6.7-11.1 13.5-16.7 20.2q2.4 3.9 4.8 7.7 4.4-0.9 9-1.9zm2 40q0 0.6 0 1.2 0.1 0 0.2 0-0.1-0.6-0.2-1.2zm-8.2-33.5q2.5 4.1 4.8 8.1 0.4-4.8 0.9-9.6-3 0.7-5.7 1.5zm-14.3 4.3c-3.8 1.2-7.3 2.4-10.6 3.6q-5 5.7-10 11.4c2.1 3.1 3.9 6.7 5.4 10.4 2.1 5 3.5 11.4 4.4 18.6 5.7-4.4 11.3-7.8 16.3-9.9 3.7-1.5 7.6-2.6 11.2-3.3q0.6-7.5 1.3-15.1c-1.4-3.2-3.1-6.5-4.8-10.1-0.6-1.2-2.1-4.2-4.3-8.4-4.5 1.3-7.7 2.4-8.9 2.8zm-2.8-5.5q4.4-1.1 9.1-2.2-1.3-2.4-2.9-5.1-3.1 3.7-6.2 7.3zm-21.7 15.9q0.1 0.1 0.2 0.2 0.4-0.4 0.8-0.9-0.5 0.4-1 0.7zm48.3 2.1c3.1 5.9 5.4 11.7 6.4 17.7 5.3 0.2 10.5 1.1 15.6 2.5q1.1-0.4 2.2-0.9c-4.8-13.9-9.5-26.9-9.1-41.8l-2.6 0.5c-3.7 0.7-7.3 1.5-10.7 2.3q-0.9 9.8-1.7 19.7zm31.5-30.9c13.1-2.7 46.1-13.6 54.4-33.4 2.8-6.7 1.5-14.7-5.2-17.5-15-6.4-40.2 9.3-49 30.1-3.3 7.7-4.8 14.9-5 22zm24.3-151.6c-18 19.7-29.6 45-38.5 73.6-3.9 12.5-6.8 25.7-9.2 39.1 8-11.1 15.3-22.3 21.6-33.9 14.4-26.3 24.5-52.2 26.1-78.8zm-89.4 127.2c4.9-5.1 9-11.2 12.3-18.9 8.8-20.7 2.5-49.8-12.5-56.2-6.7-2.8-13.4 1.9-16.3 8.5-8.3 19.8 6.9 51.1 13.9 62.3zm-59-28.5c-4.9 16.9-9.4 34.3-15.5 50.2 5 1.6 10.1 3.3 15.1 5 5-1.7 10.1-3.2 15.1-4.8-5.8-16-10.1-33.4-14.7-50.4zm-40.3 75.6c3.8-3.6 8.1-6.6 12.7-9.2q0.5-1.1 0.9-2.3c-13.2-6.4-25.7-12.3-36-23l-1.4 2.1c-2.2 3.2-4.2 6.3-6 9.2q6.3 7.6 12.7 15.2c6.4 2 12.1 4.5 17.1 8zm43.9 119c2.7-9.1 6.5-18 10.9-26.4q1.2-2.3 2.5-4.5c6.1-10.7 13.2-20.7 20.7-29.3q-1.2-4.4-2.9-8.6c-1.6-4-7.3-15.4-9.1-18.8-7.2-10.3-18.5-24.2-26.3-29.8-7.9 5.5-20.1 21.3-27.5 31.6-1.8 3.5-7 12.5-8.6 16.5q-1.8 4.1-3.1 8.6c7.4 8.7 14.4 18.7 20.3 29.6q1.2 2.2 2.4 4.4c4.3 8.6 7.9 17.5 10.5 26.7q2.6 1.5 5.1 3.2 2.4-1.6 5.1-3.2zm-92.4-63.7c-12.3-2.1-29.9-3.7-39.2-2.1-1.7 9.6 0.6 27.8 2.7 40.2 1.1 3.7 4.2 15.4 5.8 19.4 6.6 16.4 19.1 31.8 34.7 43.3q5.2-3.1 10.3-5.6 2.4-1.3 4.8-2.4c9.2-4.4 18-7.5 26.4-8.9q0.5-2.9 1.4-5.9c-4.6-8.4-8.2-17.3-11-26.4q-0.8-2.5-1.5-4.9c-3.3-11.9-5.2-24-6-35.4q-4-2.3-8.2-4c-4-1.7-16.5-6.1-20.2-7.3zm-29.6-29.6q1.1 0.5 2.2 1c5.1-1.3 10.3-2.1 15.6-2.3 1.1-6 3.5-11.7 6.7-17.6q-0.7-9.9-1.4-19.7c-3.4-0.9-7-1.7-10.7-2.5l-2.6-0.5c0.1 14.8-4.8 27.8-9.8 41.6zm25.6-1q-0.1-0.5-0.1-1.1-0.1 0.5-0.2 1.1 0.2 0 0.3 0zm14-33c-2.3 4.2-3.8 7.2-4.4 8.4-1.8 3.5-3.5 6.8-5 10q0.6 7.6 1.1 15.1c3.6 0.7 7.5 2 11.1 3.5 5.1 2.1 10.6 5.6 16.3 10.1 0.9-7.2 2.5-13.5 4.6-18.5 1.6-3.7 3.5-7.3 5.5-10.3q-4.8-5.8-9.7-11.6c-3.3-1.2-6.8-2.4-10.6-3.7-1.2-0.5-4.4-1.6-8.9-3zm11.8-2.5q-3.1-3.7-6.2-7.4-1.6 2.7-2.9 5.1 4.7 1.1 9.1 2.3zm-17.1 0.9q-2.7-0.8-5.7-1.6 0.4 4.9 0.8 9.7 2.3-4 4.9-8.1zm7.8-12.2q-8.4-10.1-16.4-20.4 1.4 13 2.5 26.1 4.5 1 8.9 2 2.5-3.8 5-7.7zm30.7 27.6q-0.5-0.4-0.9-0.7 0.4 0.4 0.7 0.9 0.1-0.1 0.2-0.2zm-13.9-53.4l2.6-4.2c7.2-11.2 22.8-42.2 14.8-62.1-2.7-6.7-9.4-11.5-16.1-8.8-15.2 6.2-21.8 35.1-13.4 56 3.2 7.8 7.2 14 12.1 19.1zm-178.5 37.2c18.7 8 30.7 38.3 38.1 69.4 13-0.8 25.3-5.8 37.7-11.7-8.5-17.5-19.3-35.4-28.6-53.6-30.6-17.1-60.8-30.1-90-18.3-6.4 2.6-12.5 9-12.1 12.7 4.1-0.5 10.2 3 12.4 8.4 2.5 6.3-1.7 13.2-8.1 15.8-7.4 3-14.1-3.7-17.1-11.1-5-12.5 7.5-23.1 20-28.1 30.3-12.3 60.9-2.5 91 12.7-14.8-30.3-24.2-61-11.4-91.2 5.2-12.3 16-24.7 28.4-19.5 7.3 3.1 13.9 9.9 10.8 17.2-2.7 6.4-9.5 10.6-15.9 7.9-5.4-2.3-8.7-8.4-8.1-12.5-3.8-0.4-10.3 5.5-12.9 11.9-12.3 29 0.3 59.4 16.9 90.3 18 9.6 35.8 20.6 53.2 29.3 6-12.2 11.2-24.5 12.2-37.5-31-7.8-61.1-20.3-68.8-39.1-3.4-8.4 0.2-18.1 8.6-21.5 27.2-11 55.5 9.3 66.5 36.5 3.2 7.8 4.9 14.9 5.3 21.8 4.7 1.1 9.4 2.1 14.1 3.2-0.9-11.2-2-22.4-3.5-33.4-6.7-8.8-13.3-17.7-19.3-26.5-23.9-35.1-38.9-73.9-39-109.3-9.3-8.2-20.2-15.2-33-20.6-31.5-13.4-69.1-0.9-82.4 30.6-10.9 25.8-9.9 55.7-6.4 73.7q1.8 0.3 3.5 0.6l-1.9 3.2c-0.2-0.1-0.6-0.2-0.8-0.2 0 0.2 0.1 0.6 0.2 0.9l-3.2 1.8q-0.3-1.8-0.6-3.6c-17.9-3.7-47.8-5.2-73.8 5.4-31.6 12.8-44.7 50.2-31.9 81.9 18.7 46.1 57 67.8 104.1 82.5 26.5 8.2 55.3 12.3 84.4 15.1q-1.5-7-3-14.1c-6.9-0.6-14-2.4-21.7-5.6-27.1-11.5-47-40-35.5-67.1 3.5-8.4 13.2-11.8 21.6-8.2zm91-165.8c1.2 26.6 10.9 52.6 24.9 79.2 6.1 11.6 13.3 23 21.1 34.1-2.2-13.4-5-26.5-8.7-39.2-8.4-28.7-19.6-54.2-37.3-74.1zm-58.8 231.5c-2.8-13-13.7-46.1-33.4-54.4-6.7-2.8-14.8-1.5-17.6 5.2-6.4 15 9.4 40.3 30.1 49 7.7 3.3 15 4.8 22 5zm80.9-100.4c-8.4-20.9-33.4-37-48.5-30.9-6.8 2.7-8.2 10.8-5.5 17.5 8.1 19.9 40.9 31.2 53.9 34.2l4.8 1.2c-0.1-7-1.5-14.3-4.7-22zm-56.9 142.6c-1.2 0.6-4.3 2.1-8.4 4.3 1.3 4.5 2.3 7.7 2.7 9 4.8 14 7.5 24.9 19.3 32.6 11.1-5 20.9-10.7 28-17.8-6-7.2-10.6-14.2-13.1-20.4-1.5-3.7-2.7-7.6-3.4-11.2q-7.5-0.6-15.1-1.3c-3.2 1.5-6.5 3.1-10 4.8zm-1.9-5.9q-4.8-0.4-9.6-0.9 0.8 3.1 1.5 5.7 4.2-2.5 8.1-4.8zm26.7-3.3q0-0.2 0-0.3-0.6 0.1-1.2 0.2 0.6 0 1.2 0.1zm-6 58c0.7 0.3 1.3 0.6 1.9 0.9 8.1 3.4 16.4-3.3 19.8-11.4 0.8-1.8 1.3-3.6 1.8-5.5-6.6 6.3-14.6 11.5-23.5 16zm26.9-122.6c-15.4-7.2-30.8-16.4-46-25.2 8.5 15.4 17.5 30.9 24.5 46.4 4.7-2.3 9.4-4.8 14.1-7.1 2.4-4.7 4.9-9.4 7.4-14.1zm-58.6 61.4q9.9 0.9 19.7 1.7c6-3 11.8-5.3 17.8-6.3 0.2-5.3 1.1-10.5 2.5-15.6q-0.5-1.1-1-2.2c-13.8 4.8-26.9 9.5-41.7 9.2l0.5 2.5q1 5.6 2.2 10.7zm0.5 68.7c5.9-2.2 11.7-4.4 17.4-6.7-8.9-8.4-12.7-19.6-16-33.1q-1.2-4.6-2.3-9.6c-5.6 3.1-12.4 7-19.4 11.6l-2.2 1.5c10.6 10.4 16.3 23 22.5 36.3zm39.4 52.2c11-9.2 22.2-17.8 33.4-25.7 9.1-6.4 17.9-12.4 26.4-17.8-15.9-9-30-20.4-40.6-31.7-0.8 3.6-1.8 7.2-3.3 10.8-4.3 10-14.2 18.4-24.2 14.2-3.5-1.5-6.5-3.2-9.2-5.1-6.8 3-13.9 5.8-21.1 8.6 8 16.4 17.6 33.1 38.6 46.7zm21.4 10.2c32.1 13.6 77.9 8.5 105.2-17.3-4.1 1.5-8 1.9-11 0.6-10.6-4.4-18.6-12.6-24.9-23.7-9.1-2.7-18-6.4-26.5-10.9-5.9 3.5-11.9 7.5-17.8 11.8-13 9.1-26.6 19.9-40.7 31.7l0.3 0.1c4.4 2.7 9.7 5.3 15.3 7.7zm120.6-38.2c-13 3.4-26.5 3.3-39.9 0.6 4.8 5.5 10.2 9.6 16.1 12.1 7.4 3.1 15.1 0.1 20-5.9q2.1-3.2 3.8-6.8zm2.8-8.4c-9.2-5.9-17-13.7-23.5-22.7q-1.2 0-2.4 0-4.1-0.1-8.3 0.4c-7.4 0.9-15.3 3.1-23.4 6.3q-2.6 1-5.2 2.2-3.8 1.6-7.6 3.6 5.6 3.6 11.5 6.5 4.8 2.4 9.8 4.2c8.5 3.1 17.3 4.9 26.3 5.1 6 0.2 12.1-0.4 18.1-1.8q2-0.4 3.9-1 0.5-1.4 0.8-2.8zm1.4-6.2q1.1-6.5 1-13-0.1-4.6-0.7-9.2-0.7-5.6-2.2-11.2-0.8-3-1.8-6-1.8-5-4.1-9.9c-1.8-3.9-4-7.8-6.3-11.5q-1.5-2.2-3-4.4c-5.2-7.3-11.3-13.9-17.9-19.6-0.8 8.7-0.5 17.7 0.9 26.5q0.4 2.6 0.9 5.3 1.3 6.4 3.5 12.6 1.7 5.1 4 9.9 1.3 2.9 2.8 5.6 2.8 5 6.2 9.6 2.8 3.7 5.9 7 4.5 4.8 9.8 8.7 0.4 0.3 0.8 0.6 0.1-0.5 0.2-1.1zm9.3 4.1c-2.3-10.8-2.3-21.8-0.6-32.8-0.5-0.6-1.1-1.1-1.6-1.7q-0.9 0.8-1.7 1.7c1.5 11 1.3 22.1-1.1 32.7q1.2 0.8 2.5 1.5 1.3-0.7 2.5-1.4zm-29.7-133q0.1-0.1 0.1-0.2-0.1 0.1-0.1 0.2zm35.1 129.5q5.4-3.8 9.9-8.5 3.2-3.3 6-6.9 3.5-4.5 6.4-9.5 1.5-2.7 2.9-5.5 2.3-4.8 4.1-9.9 2.2-6.2 3.6-12.6 0.6-2.6 1.1-5.3c1.5-8.8 1.9-17.8 1.2-26.5-6.7 5.6-12.8 12.2-18.1 19.4q-1.6 2.1-3.1 4.4-3.6 5.5-6.5 11.4-2.4 4.8-4.2 9.8-1.1 2.9-1.9 6-1.6 5.5-2.4 11.1-0.7 4.6-0.8 9.2-0.2 6.5 0.8 12.9 0.1 0.6 0.2 1.1 0.4-0.3 0.8-0.6zm0.2 5.9q0.4 1.4 0.8 2.8 2 0.6 3.9 1c7.7 0.9 15.4-2.3 18.5-9.7 2.1-5 3.1-10.5 3.1-16.5-0.8 0-1.6-0.1-2.4 0-6.6 8.9-14.6 16.5-23.9 22.3zm26.4 21.5c5.9-2.4 11.3-6.4 16.2-11.8-13.4 2.4-26.9 2.3-39.8-1.2q1.6 3.5 3.6 6.8c4.9 6.1 12.6 9.2 20 6.2zm112.1 19.4c-13.9-12-27.4-23-40.2-32.3-5.9-4.5-11.8-8.5-17.7-12.1-8.5 4.4-17.5 8-26.6 10.6-6.5 10.9-14.6 19-25.2 23.3-3.1 1.2-7 0.8-11-0.8 26.9 26.2 72.6 32 104.9 18.9 5.8-2.4 11-4.9 15.5-7.5zm5.7-2.3c21.2-13.3 31-29.8 39.3-46.1-7.2-2.9-14.2-5.8-21-8.9-2.7 1.9-5.7 3.5-9.2 4.9-10.1 4.1-19.9-4.5-24-14.6-1.4-3.6-2.5-7.2-3.1-10.8-10.8 11.2-25.1 22.3-41.1 31.1 8.4 5.5 17.1 11.6 26.1 18.2 11.1 8 22.1 16.9 33 26.2zm-179.6-173.9q0 0 0.1-0.1 0 0-0.1 0.1zm188.3-218.7q0 0 0-0.1z"/></svg>