<svg version="1.2" xmlns="http://www.w3.org/2000/svg" viewBox="0 0 502 1753" width="502" height="1753"><style>.a{fill:#b47377}</style><path fill-rule="evenodd" class="a" d="m328 70.6c1-57.2-92.4-25-21.2 7.8q76 54.9 46.6 113.3 23.4 35.4-65.7 118.2-33.6 31-38 58.8c13.6-19.8 31.4-34.3 50.7-49.2 80.1-62 114.3-105.5 73.8-211.9q37.2 37.3 22.5 159.1 21.6-38.8 8.5-90 40.4 48.4-9.6 152.7 15.3 70.4-17.9 117.8 15.9 112-58.3 161.4-30.2 29.3-63.5 80.8c73.6-41.8 116.4-69.9 153-150.6q45-89.1 86.1-103.6-49.1 35.4-71.8 93.6 23-39.5 53.9-55-47.7 41-63.5 102.5c4.2-11.5 11.4-21.7 21-29.4-17.1 23.8-24.1 53.3-19.5 82.3 13.5 27.5 4.3 60.7-21.4 77.4-2.2 17.6-7.7 34.7-16.2 50.4q44.6 40.2-44.5 110.1-48.4 42.7-73.5 90.9c80.9-81.3 153.7-21.3 183.4-165q9.8 30.3-25.4 93.9 31-45.6 84.8-28.8c-90.4-6.7-68.2 36.2-105.3 80.6-33.9 40.5-85.7 38.7-134.2 94.8q20.3-15.5 80.2-34.2 54.3-16.3 54-34c96.8 20.1-30.9 61.6-61 71.6q-47.4 15.8-68.7 51.5c30.4-44.3 131.8-33.4 203-105.3q-3.1 61.9-79 85.4-92.5 28.3-119.9 71.1c73.9-70.4 255.1-67.4 144.9-6.1 72.1-52.1-84.1-14-141.1 28.9q153-66.9 212.5 22.4-67-63.2-157.4-29.6c48.7-4.8 162.6 0.8 131.5 80.4q-10.8-32.4-44.3-42 39.2 33.4-0.8 57.9c29.7-30.6-50.8-99.1-101.1-54.8 111.5-16.3 65.6 91.9 154.3 85.4q-22.1 27.6-76.6-9.4c24 28 30.9 74.6 80.5 68.3-46.5 19.6-59.5-53.3-118.1-74.4 30.9 33.2 14.4 44.7 59.9 58.3-47-3.7-60.4-53.2-94.3-64.7-12.5-4.2-48.2-0.4-45.9 13.5q8.3 105.5 4.9 297.7c-0.9 51.5 4.5 136.4-17.8 181.7 0.7-103.6 8.6-203.6 6.9-307.8q-2-125.2-10.2-321.9-39.8-578.9-8.2-994.4-42 210.2-28.8 621.8-1.6 78.8 12.4 320.4 14.4 183.4 11.5 270.7c0.1-3.8-2.1-7.3-5.5-8.9q-8.1-2-22.7-25-7.3-9.3-28-15.5 14.8-3.5 45.7 10.8c-20.3-26.3-57.8-11.5-79.3-38.1 17.4 12.7 29.9 8.8 48.5 13q13.3 3 32 9.9c-58-45.8-127-53.2-67.6-32.5-40.9-2.4-50.6-47.6 37.8-5.4q-76.8-39.9-72.7-19.7-14.6-27.7 91.9 18.8c-26.1-25.9-58.6-30.9-93.2-31.5q-6-0.1-9.2-2.4 5.6-0.6 10.5-2.8-10.4 0.9-20.5-1.2 49.2-13.7 111.2 25.5-7.4-8.6-29.2-19.5-35.5-17-68.9-15.2-33.7 9.7-53.5-0.5 21.4 5 47.2-4.3c-26.3-3.3-57.6 11.2-81.7-9.4q11.6 7.2 41 7.5-24.9-4.7-41.9-20.5c39 31 62.3 11.4 98.7 16.3q22.8 3 58.2 16.5-8.8-20.2-85.3-26.1-52.8 5.6-71.6-15.7 24.4 17.1 71.8 11.9-54.3 0.6-71.8-26.9 26 28.5 83 21.8-13.4-5-28.7-5.2-24.4 0.5-48.9-34.1c-13.1-0.4-38.5 10-23.1 20.4q-55.1-23 42.9-46.6c-18.2-7.2-38.9-3.7-53.8 9 14.6-17.2 37.9-19.2 58.8-15.4 31.6 5.8 54.8 26.5 83.8 40.8 20.7 10.3 43 17.9 65.2 24.3-23.7-29.7-59.5-45.3-86.2-76.2-28.9-33.5-47.5-65.6-110.7-37.9q16-16.6 55.4-14.3-28.4-9.4-67.5 7.2 57.3-39.8 125.6 21.4c-6.6-11.3-14.1-22-22.4-32.2 13.6 11.1 31.5 15.4 48.7 11.7-13.9-2.6-27.4-6.8-40.4-12.4-18-6.5-30.3-23.4-30.9-42.6q0.2-13.9-1.3-27.7c10.5 25.4-1.4 46.2 37.9 60.4-14.3-12.2-24.3-28.7-28.4-47.1-11.8-26.3-24.9-37.6-37.8-52.6-10-11.7-34.3-38.3 0-22.5q-29-10 18.2 30.6-16.8-51.1-42.2-51.8 25-6.4 48.7 55.5 8.5 8.9 18 16.7c-15.4-32.5-39.7-90-70-107.9 9-0.2 17.4 4.2 22.5 11.5-6.3-12.2-18.9-19.8-32.6-19.8 25.6-11 56.3 41.5 73.9 60 34.9 36.6 90.5 81.6 118.4 101.1-31-39.4-62.8-60.6-94.7-94.7-20.5-21.9-37.7-46.9-51-74-7.3-22.8-17-44.8-28.9-65.5 8 6.2 14.7 14 19.7 22.9-5.8-17.7-18.4-32.5-34.9-41 10.1 2.7 19.4 7.8 27.1 14.9-12-16.1-30.3-26.2-50.3-27.9 26.6-3 52.2 11.5 63.3 35.9q33.5 55.1 63.4 68-28.5-25-60.5-82.7-21.9-50-33.5-63.3-11.3-12.8-8.1-23.7 25.9 27.5 78.3 96.9 58.8 75.7 105.7 95.7c-56.6-45.7-43.3-90.3-90.5-139.4-40.8-42.6-97.3-77.5-72.8-105.5 4.4-5.1 10.7-8.3 17.8-8.7q-48 23.9 38 59.2c-13.8-5.7-23.4-18.3-25.3-33.1-0.2-23-8.9-45-24.4-62 6.8 4.1 12.3 10 16 17.1-1.4-6.8-3.6-13.4-6.3-19.8-8.4-17.3-13.4-36.1-14.8-55.2 1.6 5.6 4.3 10.8 8.1 15.2-4.7-13.5-3.4-28.4 3.5-41-1.6 10.3-0.8 20.9 2.4 30.9 17.8 53.9 50.7 101.6 94.7 137.6-30-35-55.1-74-74.5-115.8q-22.5-46.3-14.8-90.2 4.9-10.5 3.6-18.8c-1.4-21.1 2.1-42.2 10.2-61.7q9.4-12.9 8.6-21.6c1.2-21.8 9-42.6 22.3-59.9q9.7-17.4-0.6-42c-5.7-18.4 1.4-38.3 17.5-48.9 3.6-1.5 5.7-5.2 5.3-9-0.1-25.1 14.1-48 36.6-59q35.4-27.6 53.4-51.1c-16.1 9.8-30.9 21.4-44.2 34.7-1.7-14.7 5.5-29 18.2-36.6 3-1.6 5.5-4.2 7-7.3 11.5-41.7 50.9-69.4 94-66.2 17 1.7 31.3 13.4 36.3 29.8q-26.1-36.4-74.5-11 92.3-2.9 67.5 51.3zm-225.8 593.6q0.1 0.1 0.3 0.1-0.2 0-0.3-0.1zm120.6 542.5c3.6-7.4-0.6-9.7-4-12.6-14.9-12.9-48.8-30-102-51.1q2.4 6.7 13.8 12.2 74 30.8 92.2 51.5zm104.5-129.2c-25.2 12.1-48.6 29.5-56.9 52.2 24.4-23.6 44-37.6 68.8-49.3 23.5-11.1 52.9-14.7 66.6-36.9-16.2 17-55 22.8-78.5 34zm0.8-146.5c-26.9 11.4-51.6 28.9-63.6 53.8 44.3-31.6 105.6-34.9 132.1-79.7-9.4 11.4-51.4 18.6-68.5 25.9zm-100.8 231.4c8.9-23.4-62.7-75.6-78.6-87.4q44.7 39.1 54.6 52.2-32.3-9.1-79.4-58.1 33.4 36.8 58.3 53.7c24.9 16.8 25.9 9.8 45.1 39.6zm-96.6-196.2q32.7 30.3 72.2 52.1-48.3-36-115.3-119.8 16.8 41.1 43.1 67.7zm40.5 60.8q-34.2-23-59.2-54.3 28 54.8 102 97.9c0.3-26.7-22.8-30.2-42.8-43.6zm201.3-267.1c-77.3 47.7-117.9 95.5-115.7 138.4 29.9-48.4 157.9-80.5 115.7-138.4zm-28.8-42.1c31.8-21 40.5-40.7 38.2-54.5q-61.8 40.9-128.5 116.7c22.9 1.7 64.1-44.9 90.3-62.2zm11.1 20.4q-8.2 9.6-76 80c19.1-13.6 77.9-58.3 76-80zm-267.5-371q-27 58.6 12.4 116.5 91.3 121.6 102.9 127.3c-33-46.9-116.7-188.8-115.3-243.8zm161 84.7q118.7-76.9 113.4-109.1-64.5 34.2-113.4 109.1zm126.3-60.8c-6.2 27.8-59.4 59.1-82.8 85.3q-19.2 21.5-48.2 58.7c35.2-36 52.8-50.8 65.9-59.7 26.4-17.8 80.1-41 65.1-84.3zm-16.9 58.6q-2.7 4.8-19.2 16.1-51.4 35.9-94.6 88.5 42-42.2 82.7-69.2 22.1-13.9 31.1-35.4zm-113.7 114.3q19.4-14.8 76.5-64.8-20.9 8.7-76.5 64.8zm97.4-61.7q-83 73-95.7 95.7c23.4-25 98.7-69.1 95.7-95.7zm-210.2-301c-26.2 37 21.1 53.8 40.3 89.1 12.2 22.5 19.6 48.6 23.7 72.3q5.4 27.3 20.4 28.2c-29.6-27.1-5.9-88.1-43.6-135-21-26.1-53.6-16.4-40.8-54.6zm78.6 245.9q-39.9-52-72.5-128c-12.9 41.3 43.3 103.3 72.5 128zm-43 736.6c-17.7-18.6-37.3-16.6-60.4-40.8-2.5-2.6-2.8-3.4-6.1-5.1-14.6-7.5-35.5-12.9-50.6-5.3q13.5 26.2 47.1 31 20.7 1.4 49.2 10.8 10.7 3.8 20.8 9.4z"/></svg>