<svg version="1.2" xmlns="http://www.w3.org/2000/svg" viewBox="0 0 950 1765" width="950" height="1765"><style>.a{fill:#a2495d}</style><path fill-rule="evenodd" class="a" d="m721.4 1635.9q4.1 2.8-1 8.2-28.7 57.5 10.6 25.9-32 35.3-28.9-10.3-37.5 42.2 15.5 46.9-68.4 1.3-15-61.4c-113.8 45.4-105.3-22.3-137.3-10.6q7.2-9.8 27.3 2.2 28.8 13.6 52.5-3.8-26 10.1-52.4-5.8-36.8-20.5-53-4.6c21.8-34.7 109.4 36.2 110.3-19.8q-129.4-18.5-131 26.6-5.2-16.1 23.4-33.5-45.1 18.3-42.2 45.7-7.3-18.1 24.9-42.2-19.2 1.3-40.3 17.7 69.6-58.5 168.9-34.1-49.3-30.2-91.3-12.3c-38.7 11.2-78.4 6.9-106.7-23.2q-34.9-4.4-85.2-75.7c17.3 11.8 49.8 31.6 70.8 36.3 28.2 6.4 57.5-18.5 97.6-14.8-41.7-43.6-128.5 33.1-215.8-74.1q-32-4.9-47-40.7 18.8 36.3 98.4 36.8 51.4 0.2 104.5 15.6c-37-23.6-90.4-19.8-132.3-30.4q-80.6-20.4-89.6-69.2 27.6 9.6 53.9 13.5c46.5 7.1 78.7 9.5 125.2 26.2-50.9-41.6-132.6-27.6-194.9-51.5q-44.8-20.2-48.6-63.4c39.8 100.2 113.7 25.8 218 71.6-16.6-23.5-122-42.2-158.8-56.9-67.5-26.8-138.6-70.8-144.4-123.5q12.8 39.8 67.5 66.1-52.6-31.1-68.5-100.2-12.1-43.3-40.3-24.7 31.9-27.4 53.9 31.5 10.2 20.1 29.6 33.8 69.4 64.7 142 75.9-56.6-18.5-90.1-48.3c-39.4-35.2-40.9-79.2-81.5-114.9q-18.9-11.4-35.1-34.3 30.1 27.9 78.2 38.3 73.4 19.5 139.7 92.6c-90.5-139.9-224.6-97.9-260.4-180.3-12.6-28.8-20.7-64.6-23-81.7q-6.1-44.6-4.4-109.6-20.8-26.2-3.6-170.3-35-26.3 39.7-176.9-9.8-97.4 116-213.1 207.4-148.5 408.6-97.1-144.7-70.7-391.4 58.3 37.8-277.8 207.6-154.1 229.2-63.6 317.7 0.3 117.5 25.1 111.1 80.1c106.2 252.4-315.5 347.6-60.5 388.4q-135.6 4.4-90.9-67.3 93.1-115.3 16.2-189.9 48.8 90-29.9 186.5-89.3 121.8-127.6 31.4 48.4-42.2 27.9-81-5.6 67.5-56.4 81c29.1-42.7-105.7-57.5-101.4-110.8-35.9 65 125 66.8 81.5 114.8q-0.4-20.4-26.6-27.2 17.1 20.6 13.5 32.3-0.1-0.2-0.2-0.4-0.2 0.9-0.3 1.8-2.1 4.8-8 8c-8.3-21.5-20.3-18.6-37.3-9.3-52.2 28.6-106.4-13.5-162.7-33.8-133.3-48-168.8 31.1-200.5 126.8 51.1-106.3 113-163.4 207-105.1 30.3 18.8 66.3 36.4 117.7 32.9-25.4 11.1-57.5 16.9-98.2-3.4 21.4 16.2 46.1 21.6 74.7 16.7 31-5.3 22.6-11.7 55.7-4.7q-55.1 7-129.6 80.9 97.7-78.2 141.9-60.8c-67.3 30.6-119.5 86.7-145.2 156q177.3-204.1 158.3-48.7c-5.6-150.3-177.6 75.7-167.3 241.5q56.4-216 108.5-184.4-30.3 12.3-27 59.3c20.9 87.3 102.9 133.1 115.8 220.1 15.6 105.7-89 187.1-50.5 261.1 10.4-133.1 219.1-223.7 66.8-284.3q117.2 40.7 42.4 138.6c41 103.7-72.8 154.9-22.6 267.6q-8.5-67.1 9.4-120.1-6.3 68.4 3.5 82.2c-0.4-64.2 60.7-99.2 18.8-137.5 61.8 40-32.1 105.6-6 181.6-1-21 3.2-42 12.2-61q-14 47.6 9.7 109.5-15.7-71.9-1.3-115.1 21.7-48.6 10.6-80.6 15.9 34.6 0 77.5 14.9-17 12.2-22.5 5.4 10.8-6.6 26.1-11.2 35.5-3.2 73.2-1.1-33.3 12.1-50.7-16.2 44.5 5.8 114.1-13.8-75.3 0.7-100.3-8.8 35.2-0.2 68.8 32.3-78.5-4.5-109.6c33.6 23.7 31.9 87.3 24.7 123.1q-2.7 25.5 6.1 40.3c-8.4-56 42.4-89.3 19.7-121.9 28.3 27.2-26.3 72.4-12.6 132.7q1.7-28.2 25-48 6-21 4.2-37.2 3 14.3 1.2 32.4 34.4-16.3 32.9-51.6 7.8 35.2-30.7 62.4c-12.6 40 20.4 64.1 8.2 94.7 33.5-27.7-17.9-113.5 68.4-94.3-45.9-5.5-51.5 20.1-37.1 55.5q11.8-64.4 52-33.5-51.1-29.1-45 68.9 2.2-38.2 11.4-48.4-16.1 52.4 1.5 110.5-8.9-164.8 46.3-104.3c-39-33.7-47.5 16.7-41.8 47.7q1.3-14.5 12.7-1.9c-19.1-13.1-7.7 17.3-3.4 25.5q15.8 30.1 8.7 52.9c15.9-22.8 0-38.5-0.4-61.9-0.4-24.1 27.3-66.9 28.4-21.5q-3.8-30.3-16.3-9.6-7.6 14.8-7.3 33.2 29.8-34.3 72-3.4-43.2-27.1-68.2 5.2 31.7-16 48.3 6.9c-25.7-25.4-45.4-7.1-27.3 32.1q23.6 42.4 20.7 65.4 114.9 101.5 168.4 119.4-11.5 14.8-56.2-15.5c-244.1-173-471.8-391.5-584.9-674.5-49.5-123.8-107.5-293.9-88.2-431.3q-58.2 187.5 147.8 589.4 91.8 163.9 353 407.6zm-128.4-1178.7q9.1-18.5-13-43.8 20.2 46.2-41 63.1c55.8 63 98-70 89.6-104.2q-4.8 47.9-35.6 84.9zm-214.2 964.5q36.3 43.6 110.8 22.9-27.2-18.4-110.8-22.9zm-2.8 2.1q-18.3 2.1-45-2.9c15.2 37.3 102.1 56.1 132.2 47.9q-70.9-2.3-87.7-27.9 26.1 21 82 21.5-66-7.8-81.5-38.6zm121.7 85.8q21.2-13.4 45.2-8.8-20-9.8-77.6 9.5 15.2 6.8 32.4-0.7zm12.8 5.2q22-10.2 46.5-4.8-26.4-13.7-54.3 0.8-7.4 4.7-9 3.6 4.8 5.2 16.8 0.4zm49.8 9.5c6.1 1.7 14.4 7.4 17-2.7-6 1.9-10.2-2.9-16.4-5.2q-19.3-7-46.3 0.5 1.6 4.4 7.2 5.8c11.1 2.8 23.6-2.5 38.5 1.6zm-348.3-1367.1q23.7-63.5 63.2-57.1c38.7-42 63.4-67.3 108-59-99.2-74-154.5 27.5-171.2 116.1zm363.1 1110.1z"/></svg>