<?xml version="1.0" encoding="UTF-8" standalone="no"?>
<!-- Created with Inkscape (http://www.inkscape.org/) -->

<svg
   width="75mm"
   height="125mm"
   viewBox="0 0 75 125"
   version="1.1"
   id="svg1"
   xml:space="preserve"
   inkscape:version="1.3.2 (091e20e, 2023-11-25, custom)"
   sodipodi:docname="qwewqeqweqwewqeqwe.svg"
   xmlns:inkscape="http://www.inkscape.org/namespaces/inkscape"
   xmlns:sodipodi="http://sodipodi.sourceforge.net/DTD/sodipodi-0.dtd"
   xmlns="http://www.w3.org/2000/svg"
   xmlns:svg="http://www.w3.org/2000/svg"><sodipodi:namedview
     id="namedview1"
     pagecolor="#ffffff"
     bordercolor="#000000"
     borderopacity="0.25"
     inkscape:showpageshadow="2"
     inkscape:pageopacity="0.0"
     inkscape:pagecheckerboard="0"
     inkscape:deskcolor="#d1d1d1"
     inkscape:document-units="mm"
     showgrid="false"
     inkscape:zoom="0.97890839"
     inkscape:cx="236.48791"
     inkscape:cy="264.06965"
     inkscape:window-width="1920"
     inkscape:window-height="991"
     inkscape:window-x="-9"
     inkscape:window-y="-9"
     inkscape:window-maximized="1"
     inkscape:current-layer="layer1" /><defs
     id="defs1" /><g
     inkscape:label="Layer 1"
     inkscape:groupmode="layer"
     id="layer1"
     style="display:inline"><path
       class="a"
       d="m 55.842946,6.8115109 c -0.52917,-1.613958 -1.11125,-3.730625 -1.66688,-6.03249997 h -3.28083 c 0.47625,1.58749997 1.00541,3.14854197 1.40229,4.57729197 1.45521,5.0006301 7.06437,19.3674961 7.06437,19.3674961 0,0 3.38667,9.49854 3.25438,15.10771 -0.10583,5.60917 -0.39688,6.32354 -1.37583,8.62542 -1.4023,3.41312 -2.9898,5.82083 -5.3975,8.20208 q -0.23813,0.23812 -0.47625,0.47625 v -0.0529 q -0.15875,0.18521 -0.29105,0.34396 -0.79375,0.76729 -1.66687,1.53458 c -6.6675,5.13292 -6.87917,5.29167 -6.85271,5.29167 -3.09562,2.16958 -5.90021,4.497917 -8.651875,8.202077 q -0.15875,0.21167 -0.34396,0.4498 c -2.69875,3.62479 -4.73604,7.35541 -5.47687,11.80041 -0.74084,4.47146 -0.74084,8.91646 0.66145,13.20271 0.71438,2.143134 1.5875,4.233324 2.91042,6.111874 1.29646,1.85208 2.98979,3.41312 4.921245,4.60375 3.83647,2.4077 8.62542,3.175 12.99105,2.0902 2.16958,-0.55562 4.33917,-1.42875 5.97958,-3.01625 1.64042,-1.53458 2.75167,-3.65125 3.06917,-5.87375 0.34396,-2.222494 -0.0794,-4.577284 -1.21708,-6.508744 -1.16417,-1.93145 -3.4925,-3.09562 -5.715,-2.8575 -1.11125,0.10584 -2.24896,0.47625 -3.04271,1.24355 -0.82021,0.76729 -1.24354,1.93145 -1.08479,3.0427 0.0529,0.55563 0.23812,1.0848 0.58208,1.53459 0.3175,0.44979 0.84667,0.74083 1.37583,0.82021 0.55563,0.0529 1.13771,-0.0529 1.56104,-0.42334 0.39688,-0.34396 0.52917,-0.97896 0.26459,-1.48166 0.23812,0.5027 0.10583,1.11125 -0.29104,1.48166 -0.39688,0.34396 -1.00542,0.44979 -1.50813,0.37042 -0.55562,-0.0794 -1.03187,-0.37042 -1.37583,-0.79375 -0.3175,-0.44979 -0.47625,-0.97896 -0.52917,-1.50813 -0.13229,-1.08479 0.29104,-2.2225 1.08479,-2.93687 0.79375,-0.74083 1.905,-1.08479 2.96334,-1.19063 2.19604,-0.1852 4.39208,0.9525 5.50333,2.83105 1.08479,1.905 1.45521,4.18041 1.08479,6.323534 -0.34396,2.14312 -1.40229,4.15396 -3.01625,5.63562 -1.5875,1.48167 -3.67771,2.30188 -5.79437,2.83104 -4.2598,0.97896 -8.89,0.18521 -12.54126,-2.16958 -1.825625,-1.16417 -3.413125,-2.69875 -4.656665,-4.49792 -1.21708,-1.7727 -2.06375,-3.836444 -2.72521,-5.900194 -0.47625,-1.56105 -0.8202,-3.14855 -1.00541,-4.73605 -0.23813,-2.19604 -0.26459,-4.47145 0,-6.69395 q 0.0794,-0.7673 0.21166,-1.50813 c 0.23813,-1.27 0.50271,-2.43417 0.84667,-3.51896 0.42333,-1.21708 0.92604,-2.38125 1.56104,-3.43958 4.603745,-7.59354 8.546045,-10.768537 13.255625,-14.208127 q 0.0529,-0.0265 0.1323,-0.0794 0,0 -0.0265,-0.0265 0.58208,-0.39687 1.1377,-0.8202 c 2.56646,-1.50813 4.92125,-3.36021 7.22313,-5.55625 2.61937,-2.54 4.57729,-4.97417 5.92667,-8.28146 0.97896,-2.43417 1.56104,-4.84188 1.85208,-7.22313 0.23813,-8.70479 -5.08,-23.389166 -8.81062,-34.7662481 z"
       id="path1"
       style="stroke-width:0.264583" /><path
       class="a"
       d="m 49.062806,0.77364193 h -2.48708 c 0.68792,2.75165997 1.21708,5.52979097 1.42875,7.62000097 0.3175,3.2808301 0.23812,6.6410401 -0.55563,9.8160401 -0.47625,1.05833 -1.08479,2.03729 -1.82562,2.88396 -0.92604,1.08479 -2.03729,2.010826 -3.30729,2.592906 -1.27,0.60854 -2.69875,0.92604 -4.127495,0.89959 -2.83104,0 -5.63563,-1.4023 -7.32897,-3.677706 -0.84666,-1.13771 -1.34937,-2.54 -1.4552,-3.94229 -0.0794,-1.42875 0.21166,-2.88396 0.89958,-4.1275 0.68792,-1.24355 1.71979,-2.32834 3.01625,-2.9368801 1.29646,-0.635 2.80459,-0.76729 4.18042,-0.39687 1.37583,0.37041 2.645825,1.2435401 3.413125,2.4341601 0.79375,1.21709 0.97895,2.77813 0.52916,4.1275 -0.44979,1.37584 -1.50812,2.56646 -2.936865,2.96334 -1.37584,0.42333 -2.98979,-0.0265 -3.96875,-1.11125 0.97896,1.08479 2.59291,1.56104 3.99521,1.16416 1.428745,-0.39687 2.513535,-1.61396 2.989785,-2.98979 0.47625,-1.37583 0.29104,-2.96333 -0.50271,-4.20687 -0.79375,-1.24355 -2.063745,-2.1431301 -3.492495,-2.5400001 -1.40229,-0.39688 -2.96333,-0.26459 -4.28625,0.37041 -1.34938,0.6350001 -2.40771,1.7462501 -3.12209,3.0162501 -0.74083,1.27 -1.05833,2.77813 -0.97896,4.23334 0.0794,1.48166 0.58209,2.91041 1.45521,4.1275 1.74626,2.381246 4.63021,3.836446 7.59355,3.889366 1.481655,0.0265 2.963325,-0.29104 4.312705,-0.89958 1.34937,-0.60854 2.51354,-1.56104 3.4925,-2.672286 q 0.42333,-0.50271 0.79375,-1.03188 -0.15875,0.47625 -0.37042,0.92604 c -0.84667,2.010836 -2.06375,3.836456 -3.62479,5.344586 -1.56104,1.53458 -3.492495,2.69875 -5.556245,3.46604 -4.15396,1.5875 -8.78417,1.74625 -13.255633,1.29646 4.445003,0.66145 9.101673,0.79375 13.493753,-0.635 2.169585,-0.68792 4.259785,-1.79917 6.032495,-3.33375 1.74625,-1.53459 3.175,-3.46605 4.18042,-5.556246 2.06375,-4.2598 2.61937,-9.0223 2.40771,-13.6525001 -0.13229,-2.06375 -0.50271,-4.762501 -1.03188,-7.46125097 z"
       id="path1-5"
       style="stroke-width:0.264583" /><path
       class="a"
       d="m 59.501816,78.167786 c -3.67771,-3.14854 -6.77333,-7.01146 -8.75771,-11.403537 -2.01083,-4.39209 -2.75167,-9.31334 -2.06375,-14.07584 0.26458,-2.03729 0.74083,-4.04812 1.32292,-6.0325 q 1.05833,-2.2225 1.87854,-4.52437 c 0.92604,-1.93146 1.53458,-3.99521 1.77271,-6.13833 0.82021,-3.67771 1.19062,-7.46125 1.19062,-11.21834 0,-8.149156 -1.45521,-16.1924961 -3.51896,-23.99771107 h -1.905 c 2.2225,7.83167497 3.83646,15.87500507 3.99521,23.99771107 0.13229,5.34459 -0.635,10.68917 -2.2225,15.79563 q -0.50271,1.27 -0.9525,2.59291 c -0.68791,1.27 -1.53458,2.43417 -2.51354,3.51896 -2.69875,3.04271 -6.40292,5.18584 -10.424575,6.00604 -1.98438,0.42334 -4.07459,0.50271 -6.08542,0.26459 -2.01083,-0.29104 -3.86291,-1.42875 -5.05354,-3.06917 -1.16416,-1.64042 -1.71979,-3.81 -1.29646,-5.79437 0.29105,-0.9525 1.0848,-1.74625 2.06375,-2.01084 0.47625,-0.13229 1.03188,-0.18521 1.48167,0 0.44979,0.18521 0.74083,0.68792 0.68792,1.16417 0.0794,-0.47625 -0.21167,-1.00542 -0.66146,-1.21708 -0.47625,-0.18521 -1.03188,-0.1323 -1.50813,-0.0265 -1.00541,0.26458 -1.85208,1.05833 -2.19604,2.06375 -0.50271,2.01083 0,4.25979 1.19063,5.97958 1.19062,1.74625 3.09562,2.98979 5.21229,3.36021 2.0902,0.29104 4.20687,0.23812 6.29708,-0.13229 4.153955,-0.74084 8.043325,-2.88396 10.953745,-5.97959 q 0.18521,-0.18521 0.34396,-0.39687 -1.13771,2.43416 -2.51354,4.73604 c -4.86834,8.06979 -11.773955,14.86958 -19.632075,20.134787 -7.85813,5.26521 -16.7216722,9.12813 -26.00854721,11.1125 C 9.9189058,81.025246 18.861823,77.321076 26.852241,72.161706 34.842651,67.002329 41.933486,60.255459 47.013486,52.106289 q 0.74083,-1.13771 1.40229,-2.32833 -0.29104,1.40229 -0.44979,2.83104 c -0.3175,2.43417 -0.26459,4.92125 0.13229,7.35542 0.39687,2.43416 1.13771,4.78895 2.19604,7.01145 2.09021,4.418547 5.29167,8.281457 9.04875,11.377087 3.75708,3.09562 8.06979,5.50333 12.7,7.01146 -4.60375,-1.5875 -8.86354,-4.04813 -12.54125,-7.19667 z"
       id="path1-57"
       style="stroke-width:0.264583" /></g><style
     id="style1">.a{fill:#a2495d}</style><style
     id="style1-9">.a{fill:#a2495d}</style><style
     id="style1-7">.a{fill:#a2495d}</style></svg>
