<svg version="1.2" xmlns="http://www.w3.org/2000/svg" viewBox="0 0 458 487" width="458" height="487"><style>.a{fill:#a2495d}</style><path fill-rule="evenodd" class="a" d="m457.7 129.6c-0.3-1.8-2.4-3.1-3.3-5.8-0.6-1.8-0.7-3.7-0.6-5.8-0.3-1.2 0-2.6 0.4-4 0.2-2 0.4-3.9 0.5-5.7-0.9-0.8-0.4-1.7 0-2.5-0.1-1.4-0.4-2.6-0.9-3.7q-0.3-0.6-0.7-1.2c-0.9-0.5-2.1-0.9-2.7-1.7q0.2-0.5 0.1-1-1.8-1.3-4.1-1.9c-0.1 0.8-0.3 1.7-0.6 2.2 0.1-0.4-0.2-0.5-0.3-0.6-1.3-0.1-2.3 0.3-3 1.4-2.1-0.5-5.2 0.3-7.7 0.1-0.5 1-0.8 2-0.9 3.1 2.2-0.9 4.7-0.4 7.3-0.3 0.2 4.8-0.3 10.1-0.5 15.2-0.6-0.1-1.1 0.2-1.5 0.4-0.8 4.9-5.9 3.6-8.4 6.3-0.6 0.8 0.1 1.6 0.5 2.3-0.7 1.4-1.7 3.4-1.6 4.4l-0.4-6.2c0-2.4-0.5-5.8 1.9-6.8-0.1-0.3-0.3-0.5-0.5-0.6q-0.1 0.1-0.2 0.2-0.1-0.1-0.2-0.3c-0.5-0.1-1.1 0-1.5-0.5q0-0.6 0.1-1.3c-4.1 7.4-3.1 16.3-8.1 23.4-0.3 1-2 2.4-0.1 3.1 3.2-0.7 1.1-4.6 3-6.3 0.8 0.2 1.7-0.6 2.2 0.5 0.3 0.9 0.4 1.6 0.3 2.3 0.2 0.3 0.1 0.6 0.1 0.9l-0.7 0.6v-0.1q-0.3 0.6-0.9 1.1c-1.6 2.6 1.7 2 2 3.9-3.5 1.5 2.3 4.1-1.2 5.6-1.7 3 2.3 2.9 2.8 5.5-1 1.3-1.7 2.8-3.8 2.3 0.9-2-0.8-3.2-1.2-4.9 0.8-1.7-1.2-2.7-1.5-4.3-4-2.7-2 4.3-5.9 3.2-2-2.3 1.3-3.2 1.8-5.2l-0.7-0.6c-1.3 0.4-3.3-0.6-4 1.2 0 1-0.2 2 0.4 2.6-0.4 0.6-0.8 0.9-1.5 0.8q-0.2-0.3-0.4-0.7c-1 2.7-1.5 5.5-1.1 8.4q-2 0.9-4 1.7c-2.6 9.9-1.5 21-6.8 30.1-0.3 8.1 0 14-3.2 20-4.7 8.9-15.4 16.3-20.1 24.6-4.4 7.7-4.5 19.8-5.7 29-0.2 2-0.5 3.9-0.8 5.8l0.9 0.6v0.5l-1-0.9c-0.5 2.9-1.2 5.7-2.2 8.6-1.5 4.1-1.9 10.1-7.3 12.5-3-6.9 1-15.2 1-21.7q0-1.6-0.1-3.2c-0.4 0.3-0.8 0.6-1 0.7-0.4-1 0.2-1.3 1-1.6-0.2-5.7-0.6-11.1-0.7-16.5-0.3 0.1-0.6 0.2-0.9 0.6v1.5c-1.4-3.9-6.6-1-9.5-2.1l-1.2 0.7c0.5-0.2 0.5-0.7 0.5-1.1-0.4 0-0.9-0.2-1.2 0.3l-1.1-1.3c0.5-0.2 0.5-0.6 0.5-1-1.7 0.2-2.7-1.6-3.7-2.7 2.7-0.9 2.7 0.3 5.4 1.8-0.4 0.6 0.1 1.6 0.8 2.2 0.1-0.6 0.3-1.1 1.5-0.7 1.6 0.9 4.8 0.8 7.3 2.4 0.7-0.5 1.2-1 1.7-1.4-0.1-3 0-5.9 0.2-9q0.3-3.7 0.7-7.5c-2 0.1-5-1.7-5.9 1.2l-0.7-2.2 5.3-1.7c-0.7-3.5-8.6 2.7-6.6-4h2c-0.2 0.5 0.4 0.8 0.7 1.1 0.8-0.1 2.1 0.5 2.6-0.6-2.6 0-0.4-2.5-2-3.3l-0.2 0.2c0.1 0.5 0.1 0.8-0.4 0.2l0.4-0.2c-0.3-1.2-1-3.7 0.9-4.2 0.8 2.9 0.8 4.9 2.6 7.9l2-0.8q0.1-0.4 0.1-0.8l-0.1-0.1 0.2-0.1c2.8-23 7-44.9 7.1-67.8-0.5-0.7-0.7-1.5 0-1.9q0-1.7-0.1-3.3l-0.2-0.3c-7.8-5.7-14.2-14.1-20.4-22.9-1.6 1-2.3-2.5-4.3-1.4-0.7-0.3-1.8-0.5-1.6-1.6 0.9 0.1 2.2-0.1 2.9-1.2q0.1 0 0.1 0c-2-2.9-3.9-5.8-5.9-8.6-0.5 0-1 0-1.4-0.1-2.2-3.5-4.8 1.9-7.2 0.4-0.9-1.7 0.8-2.1 1.3-3.1-0.8-0.6-1.1-1.5-1.1-2.6q0.2-1 0.5-2.1c-6.6 2.5-10 8.4-18.1 11.3-1.4 4.8 1 10.7-2.2 14.9-1.6-2.8-5.1-2-6.2-5.3-0.6-1.5 1.1-3.4 0.1-5.3q-0.2-0.1-0.4-0.2 0.1-0.1 0.1-0.1c-0.8-1.1-2.5-2.1-4.6-3v3.5h-1.3l1.3-3.5c-5-1.9-12.1-2.8-14.9-2.2-2 0.4-4 3.4-5.9 2.5-1 3.6-2.1 7.2-2.4 11-1.9 0.9-4.5 1.6-5.1 2.9 2.6 3 0.1 7.9 0.8 10.9 2 8.9 11.6 18.5 16.7 28 4.2 7.8 5.7 16.6 7.8 25.1q0.1-0.4 0.3-0.7c0.8 0.8 1.3 1.7 1.1 2.7l-0.4 0.4q-0.3-0.2-0.5-0.5 0.5 2.1 1.2 4.2c1.4 4.7 3.8 9.4 5.3 14.3 3.2 10.4 2.3 22.8 5.2 30.4 1 2.8 4.2 5.5 5.1 8.4 0.9 2.6 0 5.6 0.5 8.4 1.3 6.9 7.8 13.5 5.1 21.1-6-10.4-8.5-24.3-13.7-35.8-0.4 0.6-1 1.3-1.7 1.2-0.9-0.6-3.3-0.8-2.5-2.4h0.6c-0.3-0.2-0.6-0.4-0.8-0.8l-1-1.1c0.6 0.1 2.2 0.5 2.8 1.8q-0.1 0.1-0.1 0.1h1c-0.2 0.7 0.4 1 0.8 1.1l0.7-0.4q-0.3-0.7-0.6-1.3c-6.3-13-17.7-22.9-24.2-36.2q-1.5-3.1-2.9-6.2l-0.7 0.9v-2.6c-9.5-21.8-12.9-41.4-17.3-62.8-3.4-16.6-6.4-38.4-18.7-47.2 4.2-6.7-0.2-18.9-6.3-25.8-1.7-1.2-2.2 2.6-3.4 1.4-4.9-6.5-10.5-11.6-15.5-17.9-1.8-1.1-0.6 5.3-3.9 3.7-0.3-4.4-2.1-9.6-3.5-14.9-0.2 1-0.3 2.1 0.5 2.7l-0.3 0.1c-2.9-0.5-1.4-4-3-5.2-1.4-0.4-4.5-1.3-6.1-0.3 1.3 1.1 2.8 2.3 4.4 3 1 2-1.4 3-2.1 4.6-2.8 0.7-2.4-3.3-4.2-4.2-1-0.6-1.9-3.9-3.8-1.9 0.3 3.1-6.3 3-2.4 6.8-0.1 1.8-1.2 0.1-2.3 0.7-0.6 0.6-0.8 1.3-0.8 2.1-0.7 2.8-3.6 2.5-4.5 4.9-1 0.1-2.1 0.8-2.7 0.6-0.9 2.4-2.7 5.4-1 7.9 2.8 2.8 5.5 3.6 8.8 4.2 0.5-1 1.9-1.8 1.3-2.7-0.8-0.8-1.8-1.2-3.1-0.8v-0.7c0.8-0.9 1.9-1.4 3.3-1.2l0.1 1c0.3 3.8 3.2 1 4.9 2 0.7 3-3 1.2-3.8 1.9 0.6 2.1-0.7 3.5-0.9 5.3-2.2 0.7-1.2-2.1-2.9-2.8-3.1 2.1-2.6-3.3-5.2-1.3l0.1 1.4c-1.3 0.7-1.3-0.8-2-1.4 0.1 1.2-0.1 2.4-0.9 3.3-0.8 0-1.1-0.4-1.3-1-0.4 0.9-0.7 1.9-0.2 2.9l-3 0.2c-0.6-1.3 0.7-1 1-2q-0.2-0.4-0.5-0.8c-2.9 5.2-5.2 10.4-4.1 16.8-2.4 0.5-2.5 1.8-3.5 2.8-0.9 5.4 2.7 10.5 4.8 16.6 4.5 13.3 7.3 28.3 10.5 39.3 2.5 8.3 5.2 16.6 8 24.8l0.6-0.5 0.7 0.9-1.1 0.3c4.8 14.1 9.8 28.2 14.2 42.8q0.2-0.1 0.4-0.1v1.1h-0.1q1 3.2 2 6.5c14.3 11.6 32 22.1 42.8 37.4-6.9-5.5-14.4-8.6-20.8-13.6-11.2-8.8-20.8-18-30-27.7-4.7-5-10.6-9.3-15-14.8-10.4-13.2-17.8-24.1-30.7-31.4-2-0.7-2.3 1.9-4.2 1.2-9-7.9-18.9-13.7-30.1-17-0.2 1.2 1.3 3-0.8 3.6-8-5.8-17.1-9.7-26.6-12.5 1.2 3 2.1 5.9 2 8.5-6-0.9-9.7-6.4-14.4-9.8-9.7 3.1-12.5-7.7-20.2-8.6q0.8 2.2-1.7 3.4c-3.4-2.1-6.9-4.1-10.5-5.8-0.5 0.5-1.1 0.9-0.8 1.8 0.2 0.2 0.4 0.2 0.8 0.2 0.4-1.4 2.4-1 3.5 0.1-0.1 1.2-1.7 1.6-1 2.9 2.7 0.4 0.2 2.7 2.6 3.6 0.3 0.4 0.6 1.6-0.2 1.9-0.3-1.2-3.1-1.3-2-3-1.8-0.6-3.2 1.7-4.9 2.5-3.9-1.2-2.3 4.7-5.1 5.1-1.8-0.7-0.7-2.2-1.1-3.2-1 0-1.7-0.4-2.4-1.2-1.1-1.9-2.1-3.7-2.2-5.9 1.4 1.2 2.8-0.1 4.3 0.4 1-0.6 0.8-1.4 1.3-2.2 3.8 1.4-2.6 1.9-1.4 4.7 0.8-0.1 1.7 0.2 2-0.7 3.7 0.3 3-3.8 4.4-5.8h-0.4c-3.1-2.2-5.2 1.4-7.9 1.9-2.5-0.4-4.8 1.3-7.4 0.3-0.4 0.5-1.1 0.7-0.8 1.3-2.4 0.4-0.4-1.6-1.1-2.7-1.3-0.4-1.5-1.6-3-1.7 1.1 3-1.2 3-2.9 3.6 0.4 0.2 0.9 0.5 1.2 0.9-0.7 2.3-0.3 1.9 0.4 4.5 4.9 1.9 11.3 1 15.3 4.7 1.3 9.3 13 12.9 20.1 17.4-1.6 0.7-2.4-0.2-4.3 1.1 8 8.7 18.3 12.9 25.6 22.9-5.5 8.6-3.6 17.6 3.7 27 0.1 1.5-2.4 2.2-3.3 3.4q0.5 0.4 0.9 0.8v-1.1c0.8 0 1.1 0.3 1.5 0.6v1.1h-0.8c24.1 21.5 46.9 42.8 70.3 63.5q0.2 0.2 0.4 0.3c0.5-0.2 1-0.5 1.4 0.5 0.1 0.5 0.3 0.9 0.6 1.4 3.6 3.8 6.6 8 10.6 11.5 6.8 6 16.3 10.1 19.8 18.7-2.4-1-4.9-1.8-7.4-2.5-0.2 0.1-0.6 0-0.8 0.1l-0.3-0.4c-3.2-1-6.4-1.8-9.7-2.6 0.2 2-2.9-0.5-4 1-0.2-1.7 2.1-0.5 3.3-1.2-3.4-1-6.8-2-10-3.2-2.6 0.7-4.8 0.8-6.8 0.6l0.2 1.4-0.3 0.3v-1.7c-5.9-0.8-10.4-4.6-17.6-2.8-2.5 0.6 0.1 2.7-2.6 3.2-8.6-2.9-16.6-1.4-26.8-1.9-1.9 0.6 1.9 2.9-0.1 3.4-11.1-1.1-21.8 3.2-33.3 3 0.3 1.7 3.5 2.7 1.9 4.5-16.1 0.3-31.8-0.4-43.3-9.3-1.4-0.4-3.4 0.5-4.7 0-6-5.1-11.1-11.8-19.9-11.4-1.3 1.7-3.6 3.1-4.1 5 12.5 20.7 32.3 26.6 50.2 36.3 8.6 0.7 17-0.4 22.7 3.6-1-0.8-0.1 1.4-0.1 1.4 2.7 3.5 6.4 3.7 9.6 5.8 2.5 6.3 11.5 8.1 17.3 11.2 0.5 1.3 1.3 2.3 2.3 3.2q0.1-0.3 0.4-0.5 0.1 0.1 0.2 0.2c0.2-0.2 0.4-0.4 0.5-0.6l0.7 0.4c1.5-0.3 0.4-2.5 2.6-1.7 0.6 2.1-2.6 2.4-3.3 2.8 0.2-0.4-0.2-0.6-0.5-0.9q-0.3 0.2-0.6 0.3c0.8 0.7 1.7 1.2 2.7 1.7 0.7-0.7 1.8-1.1 2.5-0.4-0.6 0-0.9 0.5-1.2 1 3.9 1.5 8.5 2.2 11.5 4.8 0.9 1.2-3.1 1-1.3 2.5 8.9 3.1 15.8 5.7 23.6 9.2-1 0.5-2.3 0.9-1.5 2 3.8 0.8 7.7 1.3 11.7 1.6q0 0 0.1-0.1 0 0.1 0 0.1c4.5 0.4 9.1 0.5 13.6 0.8q1.9 1.5 4 2.6 0-0.1 0-0.2c0.4 0.2 0.7-0.1 1.1-0.4-1-0.5-1.6-1.5-2.8-1.1v-1.2c2.8-1.7 2.6 1.8 3.8 2.7v0.5q0.7 0.1 1.4 0.2l0.3-1.1c0 0.5 0.3 0.8 0.6 1.1 8.7 0.5 18-1 27.8-1.4 7.9-0.3 15.9-0.1 23.7-0.5q-0.1-0.5-0.1-0.9c0.9-0.3 1.2 0.2 1.4 0.9q0.7-0.1 1.4-0.1c-0.7-1.3-0.2-3 1.4-2.7l-1 2.7q0.6-0.1 1.2-0.1c4-0.3 8.1-0.7 12.2-1.1-0.2-0.9-0.2-2-1.2-3.4-0.5 2.9-2-0.9-3.4 0l1.1-1.7c-0.9-0.4-4.1 0.5-3.2-2.1 1.7 0.4 5.5 1 8.2 1.5v1.2h-1.1c0.3 1.8 0.2 3.1 0.7 4.4 5.2-0.5 10.5-1 15.5-1.2 8.9-0.4 19.3-1.7 26.3 2.7-24.6 8.3-49.4 16.8-70 27.3q-0.8 1.9-2.4 3.6l0.2 0.1-1.3 1.1c2.4 0 0.7 2.3 1.7 3.3-1-0.7-2-1.7-2.6-2.8-3.7 2.9-9.1 5.2-13.6 7.8-3.1 5.8-9.9 10.6-16.4 15.4q0 0.1 0 0.1 0 0-0.1 0-0.7 0.6-1.5 1.1c-0.2 0.2-0.4 0.5-0.7 0.6q-2.1 1.6-4 3.2c1.3 5.4-4.5 8.7-8.9 12.4 0.3 5.8-9.1 8.6-10.5 13.8 1.6 5.9 10.5 5.9 14.6 10.4 5.6-1.9 9.6-0.4 14.1-0.1q3.7-2.6 7.4-5.4c-1.2-0.6-1.9-1.8-1.9-3.3 1.2 0.3 1.5 2.1 2.6 2.8q0.4-0.2 0.7-0.5c-0.3-0.5-0.6-1.1-0.8-1.5 0.6-0.1 1.3 0.3 1.7 0.9 21.6-15.6 46.5-32.6 74.1-43.5q1.1-0.5 2.2-1l0.1-0.6 0.4 0.4c10.5-4.9 15.1-11.4 24-19 12.5-10.7 23.6-21.6 38.8-23.2-6 15.9-23.1 28.8-32.4 43.7-2.1 3.5-4.4 9.1-2.9 13.3 17.7-2.7 21-20.1 29.2-29.1 1.7-2 3.6-2.7 6.4-3.5 1.3-1.1 2.3-2.4 3.3-3.7l-1.5 0.8v-1.8c0.7-0.1 1.7 0.3 2.3-0.1q0.2-0.3 0.4-0.5c-0.4-0.6-1.5-0.5-2-0.5 0.9-1.6 1.9-1.4 3-0.9 1.5-2.1 3.1-4.2 5.5-6 1 0.9 1.9 1.9 2.7 2.9v-1.7h-0.8q0.6-0.3 0.9-0.7l-0.9-0.6c-0.3-1.9 2-3.7 1.5-5.1 0.3-1.3-0.9-0.6-1.3-0.9l0.8-1c-0.4-0.4-0.6-0.9-1.2-0.9-0.8-0.8-0.2-1.8 0.5-2.4 2.1 0.3 2-2.2 3.8-2.6 0.4-1 1.3-2.4 0-3.3 0-1.9 1.8-0.7 2.7-0.9 0.8 2.1-2.3 2.6-0.6 4.1 2.2-0.7 0.9 2.4 2.2 3.2-0.3 0.8-1 2-1.9 2-2.8-3.4-2.2 2.7-4 3.4 0.5 0.4 0.6 0.9 0.6 1.4 0.6-0.7 1.4-1.1 3-0.9v0.9c0.2-0.7 0.5-1.3 0.6-1.7 1.4 0.2 1.4 1.7 1.7 3 2-1.2 3.9-2.4 5.6-3.4-0.4-0.9 0.5-2.1 1.3-2.5l0.9 0.9q-0.1 0.2-0.1 0.4c3.1-1.6 6.1-2.7 9.8-2.1 3-2 6.2-4 9.5-5.9-0.3-0.1-0.6-0.2-1.1-0.3q0-0.1 0-0.2c-1.4 0-3.3-1-3.8-0.4 0.2-2.9 2.5 0.4 3.1-1-0.1-0.4 0-0.8 0.6-1q0.1 0.1 0.2 0.2h1.4c0.1 0.8 0 1.3-0.2 1.7q0.1 0.2 0.2 0.4 0.2 0.1 0.4 0.2 0.8-0.5 1.7-1 0 0 0-0.1c-1.3-2.1 2-6.8-2.4-7.2 0.9-2.1-2.5-5.2 1.2-6 0-1-0.4-1.6-1.1-2.3-0.2-0.9 0-1.6 0.5-2.2-0.5-0.3-0.9-0.9-1.6-1-0.9-0.5 0.1-1.4 0.5-2l-0.6-0.6c1.2-4.4-4.5-4.3-3.7-8.8 2.8-1.4-1.7-3.4 0.3-5.3-1.5-2.5 0.9-4.1 0.7-6.4 0.9-0.5 1.6-1.6 2.4-0.4 0.5 2.1 1 3.9 0.1 5.9 0.3 0.5 0.9 0.2 1.3 0.3 0.9-1.8 2.5 0.4 3.5-0.9 1.9-0.1 1.9 2.1 3.2 2.7l-0.2 0.5c-0.5 0-0.9-0.7-1.3-0.9-0.4 0-0.9-0.2-1.1 0.3 0.1 2.1 2.3 1.5 3.4 2.4 0.3 1.3 2.3 0.6 2.3 2-1.3 1.3-1.4-0.8-2.5-1.3-1.9-0.1-2.6 2.1-4.4 2-0.7-0.5-0.2-2.1-1.4-1.6-0.2 0.6-1.1 0.9-0.8 1.7 2.7 1.2 5.4 2.3 7.8 2.8v-0.9c0.9 0.5 1.5-1.4 2.1 0.1 1.7-0.1 3.6 0.2 4.4-1.9 1.8 0.3 3.9 0.3 5 1.7 1.5-0.4 0.8-2.1 1.3-3.1 1-1.5-1.2-3 0.3-4.4l-3.1-1.8c-0.2-1-2.2-1.5-1.5-2.6-1-1-1.3-2.2-1.1-3.9 0.7-0.9 1.4-1.8 2.7-1.4 2.1-1.1 0.5-4.1 0.8-5.5l0.4 0.4 0.5-0.7c1 0.8-0.6 0.4-0.3 1.4 0.8 0.5 1.9 0 2.8 0.1 1-1.3 3.3-0.9 3.5-2.9-0.8-0.5-2-0.4-2.8 0.2-2-0.8-1.6-3.1-1.8-5.6-0.7-0.6-1.9-0.9-1.9-1.8-1.1-0.2-1.1-1.7-1.5-2.5q-0.1 0.2-0.2 0.5l-0.1-0.9c-0.2-0.2-0.6-0.3-1.2 0.1-0.3-1 0.3-1.4 0.1-2-0.3-0.2-0.5-0.5-0.8-0.8l-0.9 0.8 0.6-1q-0.2-0.1-0.5 0l-0.1-1.6c-0.2-0.2-0.4-0.5-0.6-0.7q-0.5 0.3-1 0.5 0.7 0.5 1.3 1c-0.8 0.1-1.6-0.2-2.4-0.6-1.2 0.5-2.4 0.9-3.6 1.1q0.5-1.4 1.1-2.7c-0.6-0.5-1.2-1-1.9-1.4-1 1.7-1.8 3.5-2.3 5.5 0.2 0.6 0.8 0.9 1.3 1.2l0.3-0.1q0 0.1 0 0.2c1.5 0.5 3.4 0.5 2.6 3 0.3 0.4 1.1-0.2 0.9 1-2.4 0.8-3.3-2-3.5-4q-0.1-0.1-0.3-0.1l-2.5 0.5c-1.2-0.3-2.1-1.9-1.4-3.2 4.1-1.1 3.6-7.5 7.3-9.2 0.2 0.2 0.4 0.4 0.3 0.6-0.6 1.2-1.4 2.5-2.1 3.7q0.9 0.6 1.9 1.2c3.4-6.9 8.9-13.2 16-19.1l-0.3-0.4h0.4c0.6-3.7 2.4-7.1 2-11.1q0.9-2 1.7-4.1c-1.4 0.3-1-1.6-1.6-2.2 2-1.4 0.6-4.1 1.7-5.8-0.2-2.1 1.9-3.8 2.7-5.2l0.6 0.7c0.2 1.2-0.5 2.1-1.3 2.7-0.4 1.5 0.6 1.3 1.4 1.3q1.1-2.9 2.3-5.8c-0.3 0.1-0.4 0.3-0.5 0.7l-2.1-2c-0.2-2.9 2.7-0.3 3.5-2.4-0.4 0.7-0.3 1.1-0.1 1.5q1.1-2.7 2.1-5.4c-0.5-0.1-1.1-0.5-1.4-0.6 0.3-0.9 1.2-0.6 1.9-0.7q0.4-1.1 0.8-2.2-0.3 0-0.7 0.1c-0.7-1.4 0.2-3.3-2-3.4 1.1-1.8 0.9-3.8 2-5.6-0.6-0.8-1.1 0.5-1.9 0.1v-0.5c2.9-0.9-0.6-3.3 1.2-4.8 1.9 0.1 1.6 2.7 2.2 4.1 1.6-0.3 2-2.4 2.4-3.7 0.7-0.9 1.3-0.4 1.8-0.1 3.3-9 6.4-18.3 9.2-27.5-0.5-0.5-1.2-0.7-2.2-0.3-0.9-1.9-3.2-1.3-4.4-2.7l1-1.4c-0.5-0.5-0.9-1.3-1.8-0.8 0.9-2-1.4-5.9 1.4-6.2 2.2 3.4 6-0.1 9.1 1.2q0.2-0.8 0.4-1.6c-0.6-0.7-0.9-1.9-2-1.3-1-0.8-3.4-0.8-2.9-2.5-0.2-1.2 1-1.9 2-2.2 1.5 3.6 2.9 2.2 4.4 0.8 1.8-6.7 3.4-13.2 4.8-19.6-0.5 0.7-1 1.3-1.6 1.4 0.1-1.1-0.2-2.1-1-2.6-1.1-2.9 2.6-2.6 2.7-4.9-0.4-3.5-3.5 0.7-3.9-3-0.1-1-0.5-1.9-0.7-2.8q-0.3 0-0.6-0.1c-0.6-0.8-1.4-1.6-1.1-2.9 0.6-2.9 2.7-1.7 4.5-1.4 0.8-1.3 0.4-2.5 0-3.8 0.5-0.5 0.8-1.3 1.4-1.5 0.9 0.9 0.4 2.7 0.3 4h0.8c0-0.6 0.5-1 0.8-1.6 0.6 0 1.1 0.1 1.6 0.6q0.1 0.3 0.1 0.5 0.3-1.5 0.5-3c-1.6-0.5-2.5-3.1-4.5-2.8 1.8-0.8-0.2-2.8 1.8-2.8 2.5-0.4 3.3-3.9 3.9-6.2l0.9 1.2c0.8-3 1.7-6 2.7-8.8 1.6-4.3 5.1-7.6 4.4-11.9zm-109.6 273.5c0.8 2.3 1.5 1.8 2.5 1.1-0.3-0.7-0.1-1.6 0.2-2.4-1.2-0.2-1.8 0.7-2.7 1.3zm-330.6-265.7c-0.5 1.1-1.2-0.2-2 0q-0.1 0.1-0.1 0.1c2 0.9 4.8 0.4 7 1-0.3-1.3-1.8-2.2-1.5-3.6-0.4-0.5-0.8-0.7-1.3-0.9-2.1 0.5-3.9 1.4-4.4 2.9 0.7 0.6 1.7-0.6 2.3 0.5zm329.1 266.4c-0.3 0.4-0.6 0.8-0.7 1.1q0.4-0.5 0.7-1.1zm44-36.4l-0.2 0.3 1.6 0.5c-0.1-0.8-1-0.6-1.4-0.8zm-362.2-234.9l-0.4-0.3c-0.1 0.3-0.5 0.6-1.4 0.9-0.6 0.1-1.4 0.1-2.3 0.2 0.8 0.4 1.9 0.6 2.6 1.1zm370.3 241.9h0.2v-1.2zm-7.8 7.6c-1.3 0.6-1.4 1.6-1.3 2.9q2-1.2 4.1-2.3 0-0.1 0-0.3c-1.1 0.4-1.9-0.3-2.8-0.3zm4.8-20c-0.1 0.8 1.2 1 1.9 0.8-0.1-0.2 0.1-0.4 0.2-0.7-0.5-0.5-1.4 0-2.1-0.1zm-29.6 80.3l0.1 1.4c0.5 0.3 0.8-0.3 1.2-0.7l-0.1-0.7zm20.4-71.4c-0.4 0.4-1.1 0.3-1.5-0.2-0.1-1.8 2.5-2.9 1-4.7-1.8 0.3-2.4 3-2.8 4.8 1.2 2.3 2.8 0.3 4.5 1.7l0.8-0.1c0.6-1.2-1.2-1.1-2-1.5zm-29 54.9h-1.3l2.5-1.3q-0.3-0.6-0.6-1.3l-1.4-0.9h1.1q-0.5-1-0.9-2.1c-1.7-1.1-4-1.7-4-4.2 0.5 0 1.6 0.2 1.8-0.5-0.2-0.7-1.3-0.6-1.8-0.6 0.2-0.9 0.8-1.5 1.5-1.7q-1.3-3.8-2.1-7.7-0.5 0.1-0.9-0.1c-0.5 0.3-1 0.6-1.3 1 0.4 0.3 0.8 0.8 1.3 0.6v1.1c-0.5 0-1.6-0.1-1.8 0.7 0.1 0.6 1.2 0.4 1.8 0.4v0.7c-1.8 0.6-1.5-1.8-3.3-1.8-1.8 0.8 0.6 1.9 0.7 2.2-0.5-0.1-1 0-1.4 0.2q0.7 1.4 1.3 2.8 0.1 0.1 0.3 0c0.2 0.3 0.2 0.6 0.1 0.9 1.2 3 2.3 6.4 3.6 9.7l0.7-0.4-0.5-1.2h1.3l-0.8 2.9-0.3-0.1q0.8 1.9 1.7 3.7c1.1 2.3 2.4 4.6 3.8 6.9q0 0 0.1-0.1c-0.1-1.1 1.2-2.3-0.2-3-0.3-0.1-0.5 0.2-0.6 0.3l-0.1-1.6 0.4 0.4 1.6-2.8c0.2 0 0.5-0.2 0.7-0.4q-0.8-1.6-1.5-3.2-0.6 0.4-1.6 0.5zm-326.8-293.2c-0.4-1-0.9-0.1-1.3-0.1 0.3 0.7 1.1 0.6 1.3 0.1zm175.4-99.7c0.2-0.9 0.8-1.5 0.5-2.4-2.8-1.1-0.2-3-0.3-4.7-3.3-0.5-0.4 5.4-3.7 3.3-0.8-0.9-1.1-3.1-2.9-2.2 5.1 1.1-0.8 10.9 6.4 9.3 0.9 0.1 1.7-0.2 2.4-0.8q-0.2-1.1-0.2-2.1c-0.8-0.1-1.7 0.5-2.2-0.4zm-12.9-11.9c-0.4-1.6 1.5-3 1.8-4.7 2.7-1.4 4.9 0.5 7.6 0.2 1.5 0.6 0.2 1.8 0.5 2.9 0.6-0.1 0.9 0.6 1.3 0.9-0.5 1.1-0.9 2.7-2.2 2.9h-0.4c-0.3 1.1 0.8 0.1 1.1 0.9 0.7-1.2 2.4-1.2 4-1.3-0.1-0.2 0-0.6 0.2-1q0.5-1.3 0.8-2.7c-0.9-0.3-1.7-0.7-2.2-1.6-0.3-1.5 1.2-1.8 0.1-3.3-0.2-0.5-0.8-0.8-0.6-1.6-1.4 0.1-2.9 0.4-3.8-0.7-0.2 1.8-2.5 0.4-2.2 2.1 0.5 0.6 1.6 0.1 1.8 1.2 0 0.7-0.9 1.5-1.4 0.8-2.3-1.2-3.2-3.7-3.7-6.1l0.8-1.1c0.8 0.7 1.1 1.5 1.1 2.6 1.1 0.4 2.7-0.9 3.8-0.5 0.3-1.7-0.5-2.9-1.4-4-2.8-0.7-5.2 0.8-6.5 2.8-0.4 2.2-2.2 1.1-3.3 1.2q-0.1 0.9-0.2 1.7c0.5 0.1 1.2 0.1 1.4 0.9-0.1 1.4-1 2-1.8 2.7q-0.1 1.4-0.2 2.8c1.3 0.7 3 0.5 3.6 2zm4.7 15.1c0.2-0.6-0.4-1-0.8-1.4-0.6 0.2-1.4-0.2-1.7 0.6-0.1 1.5 1.7 1.4 2.5 0.8zm223.8 110.5c0.6-1.6-0.1-3.2-1-4.4q0.1 0.2 0.2 0.5c-1.1 0.4-1.1 1.1-2.1 1.6l0.2 2.5zm-86.5-38.2q-0.1 0.1-0.2 0.3c0.4 0.3 0.7 0.6 1 0.8q-0.4-0.5-0.8-1.1zm-140.7-104.7c-0.4 1.4 1.4 1 2 1.8 2.9-0.4 7.9-1.6 10.9 1q-0.6-1.9-1.5-3.6c-0.5 0-1.1-0.2-1.2-1h0.6q-0.4-0.5-0.8-1-0.3 0.1-0.7 0.1c-0.1 1.4-1.9 0.2-2.1 1.6-1.1-1.4-2.5-1.3-3.8-2.1 0 0.8-0.9 1.4-1.4 2-1.4 0.7-2.3-0.4-3.3-1.3q-0.2 0.5-0.4 1c0.7 0.1 1.4 0.6 1.7 1.5zm1.6 28.2c-0.5-1.1-1.4-0.5-2.2-0.6-0.6 0.8 0.2 1.1 0.5 1.7 0.9-0.1 1.6 0.1 1.7-1.1zm-162 101c1-0.2 0.4 1 1 1.4v1.3c2.3 0.1 0.1-2.6 2-2.7l1.5 0.2c0.1-0.5-0.5-0.7-0.7-1.1-0.5 0.5-0.9 1.1-1.8 0.8-1.1-0.6-1.4-1.8-1.5-2.8q-0.4-0.1-0.8-0.1c0.1 0.9 0.7 1.9 0.3 3zm146.2-83.1c0.5-0.2 0.8-1 1.4-1.5 1 0.8-0.7 2.2 1.1 2.3 0.9-1.1 1.5-1.7 1.5-3.4 0.7-1.3 3.1 0.1 2.9-1.9 0.3-1.4 1.9 0.1 2.1-1.3-0.6-1.3-2.8-0.3-2.9-1.9-1.4-0.2-1.2 1-1.9 1.8-1.1-0.5-2.1-1.1-3.2-1.2 0.5 1.7 0.8 3.2 0.5 4.6-1.1 0.6-1.7 0.5-2.2 0.5q-0.2 0.2-0.4 0.4c-0.1 1 0.2 1.4 1.1 1.6zm-0.7-12.6c0.9-0.1 1.7-0.3 2.5-0.8 1.4 3.1 3.8-1.4 5.5 1.3 0.8 1.3-1.2 3.5 0.9 3.5 1.6 0.1 3.1 0 4.2-1.5-1.9 0-3.8-4.6-6.3-3.6l-1-0.9c0.8-1.7 3.4-1 4.7-2.4l-0.1-0.5c-1.6-0.2-3.8-0.9-5.4 0.9q-0.1-0.1-0.2-0.3-0.2 0.9-0.1 2c-1.9 1.1-2.7-0.1-4.8 1.4q0 0.4 0.1 0.9zm18.5 1.7l-0.9 0.1v0.7zm-27.6 352.2l-0.9-0.9-0.2 0.8q0.6 0.1 1.1 0.1zm276.1-225.5c-0.1 0.9 0.5 1.3 0.9 1.8q0.3-1.3 0.5-2.6c-0.3 0.5-0.9 0.8-1.4 0.8zm-68.6 192.5l0.9-0.3-1.2 0.1zm21.7-12.1c-0.3 1.4-1.9 3.2-0.3 4.3 1.5-0.3 0.6-2.8 1.5-3.9-0.3-0.7-0.8-0.3-1.2-0.4zm44.1-178.1q-0.3-0.1-0.5 0 0.2 0.2 0.5 0.4c0.2 1.1 0 1.9-0.7 2.7-0.2 0.9 0.3 1.5 0.7 2.3 1.8 0.3 0.9-1.1 1.4-2.2 0.6 0.7 1.1 0.7 1.6 0.6q0.3-1.9 0.6-3.8c-1.3 1-2.5 2.4-3.6 0zm-37.6 193.6c-0.2 0.9 0.4 0.4 0.7 1.1 0.1-0.3 0.3-0.5 0.2-0.7-0.1-0.4-0.7-0.4-0.9-0.4zm-169.6 7.3h0.1q0 0-0.1 0 0 0.1 0 0.2-0.1-0.1-0.2-0.2-0.2 0.1-0.4 0h-1.8v-0.5c-0.6-1.5 3.3-2.9-0.2-3.8l0.4 0.5-0.7 0.6-0.4-0.5c0-1.6 3.5-0.5 3.6-3.1l1.5 1.8-1.4-0.2c0.5 2.1-0.1 3.6-0.4 5.2zm189.2-28.1h-0.1q0-0.1 0-0.2-0.6-1.2-1.3-2.5-0.2-0.1-0.4-0.2c-0.7 0.8-0.7 1.8-1.4 2.7-1.4 1.3-2.6-0.3-2.7-1.8 0.6 0.3 0.9-0.5 1.4-0.8-0.6-1.2-1.3-2.6-2.6-3.1 0.6-1.2 1.2-2.7 1.4-4.1q-0.3-0.4-0.6-0.7c-0.9-1.2-2.1-2.1-3.3-3.1-0.3 1.7-0.9 3.3-1.4 4.5-0.4 1.3 1 1 1 1.9-0.2 0.3-0.4 0.9-0.8 0.8 0.1-0.6-0.4-0.7-0.7-1l-0.8 1.1q-0.1 0.3-0.1 0.5c0.1 0.2 0.3 0.4 0.5 0.8q-0.1 0.1-0.2 0.2c0.4 0.6 1.3 0.9 1.5 1.4-0.4 0-0.8-0.1-0.9 0.3l1 0.9c0.6 3.3 1.8 6.4 3.6 9.1 1.4 0.2 0.7-1.5 1.6-2.1 1.4 0.9-0.8 4.1 0.2 6.7q0.1 0.1 0.2 0.2 0 0 0.1 0 0 0.1-0.1 0.1c0.8 1.2 2.2 0.1 3.2 0.8l0.2 2.6c0.4 0.6 0.9 0.7 1.5 0.6-0.6-2.1 2.5-2.1 3.2-3.2 0.2 1.1 0 2.8-0.7 4 0.3 0.6 0.8 0.8 1.3 0.8 1.3-2.3 3.2-4.6 3.5-7.2-3.4-2.6-5.5-6.3-7.3-10zm0.1 12.2v-2.1l1.6 1.5zm-359-206.3l-1.7-2c-0.8-1.1-2.9-1-2.8 0.5l1.3 1.8c0.4 3.5-3.2 0.3-4.1 2.8-0.7 0.2-1.7 0.8-2.3-0.1 0.7-0.6 1.6-1.6 1.5-2.9 0.1-1.1-1.5-0.6-1.4-1.3q0.8-0.6 2.2-0.5c0-0.7 0.9-1.3 1.5-1.9 2.3 0.7 5.3-0.1 6.6 2.8zm331.9 173.1c0.3 0.6 0.7 1.1 1.3 1.3 0.6-0.8 1.6-1 1.1-2.4q0 0 0.1 0-1.3 0.5-2.5 1.1zm-216.1 57.6h-1.3l-0.7 4-0.8-1.8-3.8 1.8c-3-3 2.9-3.2 2-6.4l1.3 1.1c0.3-2.3 1.8 0 3.3-0.4zm173.8 41.3q-0.4-1-0.7-1.9c-0.2 0.5-0.3 1-0.2 1.6 0.3 0.3 0.6 0.3 0.9 0.3zm3.2-174.7c-0.2 0.8 0.3 1.9-0.8 2.4l-0.7-2.4zm1.8-41h-1.3v-1.1h2.1c0.1 0.5-0.4 0.8-0.8 1.1zm-0.7-12.4l0.6 0.8-0.7 0.6-0.6-0.8zm-1.8 14.2l2 0.4-0.7 2.4-0.6-1.7-2 1.7zm-3.3 3.9h1.3v2.2h-1.3zm-0.8 7.5c1.3-0.2 0.6 1.6 0.8 2.2h-1.3c0 0 0.6-2.2 0.5-2.2zm-71.6-83.3c0.8-0.3 0.2-1.2 0.4-1.7l-1.3-0.3q0 0-0.1 0v0.3h-0.7c-0.1 0.4-0.5 0.7-0.8 1l-0.7-0.2 0.7-1.4-2-0.2c0.7-0.7 1.5-0.2 2.3 0.2 0.2-1.1 0.6-2.3 1.2-2.7v3h0.1c0.5 0 0.9-0.3 1.3-1.1 0.5 1.1 0.4 2.4 1.8 3.5-0.6 1.3-1.4-0.3-2.2-0.4zm11.1 9.4l0.3-1.8 0.8 0.9zm3.1 48.2l-0.5-0.6 1.8-1.1-0.5-1.1h1.3c0.3 1.3-1.9 1.9-2.1 2.8zm5.5 22.1l0.1-2.8 1 1.9-1.1 1zm-0.1-14.9l1-1.7 0.7 0.8c-0.5 0.3-0.8 1.3-1.7 0.9zm-110.6-143.8c-1.2-0.6-0.6-2.1-0.9-3.2 0.5-0.5 0.8-1.3 1.4-1.5l2 2.6c0.1 1.4-1.7 1.4-2.5 2.1zm-13.2 47.6l1.3 0.1 0.2 3.1c-1.5-0.3-2.1-2-1.5-3.2zm14.8-25.8v-1.2c0.3-0.1 1-0.4 1.2 0.2 0.4 0.9-0.6 1.1-1.2 1zm3.3-2.4c1-1.7-1.1-2.7-1.5-3.7 3-1.7 2.3 2.4 3.9 3.5-0.5 1-2 1.1-2.4 0.2zm4.6-7.4c-0.2 0.9-1.3 0.1-1-0.6l0.7-0.1c0.1 0.3 0.4 0.4 0.3 0.7zm5.6 121.8l-0.7-0.9 2.9-1c0 0-2.2 1.8-2.2 1.9zm6.2 1.3l-0.8-0.9c0.4-0.5 1.2-0.8 1.9 0zm2.9 1.2l-0.4 0.3-1.1-1.2c0.4-0.8 1.9 0 1.5 0.9zm-188.7-49.6c-0.8 0-1.1-1-0.7-1.7l1 0.6c-0.1 0.3 0.3 0.9-0.3 1.1zm32.6 12l0.6-0.7c0.2-0.3 0.9-0.2 1 0.1-0.4 0.3-0.8 1.3-1.6 0.6zm-0.5-7l0.5 0.9-0.1-0.9zm13.7 6.3h-1.8c0-0.6 1.1-0.9 1.8-1.1zm3 30.7l-0.5-2.6c0.9 0.4 0.7 1.4 0.8 2.3zm4-18.7c0.1 0.5 0.3 1.8-0.8 2.1-0.9-0.8 0.2-1.6 0.8-2.1zm0.4 5.5l-0.7-0.8 0.7-0.6 0.7 0.8zm6.5-6.9l1.5-2 0.7 0.8zm4.1 62.4h-1.5v-3.4c2.4 0.2-1.8 2.3 1.5 2.3zm2-22.3l2.2-0.3 0.3 0.4zm46.9-27.3l-0.3 0.2-0.4-1.8c0.3 0.3 1 0.9 0.7 1.6zm-9.1 7.6l1.5 3.8c-2.1-2.4-3.5 2.4-4-1.6 1.4-0.8 2.4-0.7 2.5-2.2zm-9.1 19.2l1.1 2.1-1.5-1.8zm-16.5-2.6l0.7 1-1.1 0.9zm-6.8-21.4l-1.5-1.7c0.5-0.5 1.4 0.8 2.2 1.1zm2.6-15.2l1 3.4c-0.7 0.4-1.7-1.4-2.5-2.1zm0.1 30.9c-0.1 0.3 0 0.8-0.5 1-0.4-0.2-0.3-0.7-0.3-1.1 0.5-0.1 1.7 0.1 2.2 0.3zm5 36.8l-1.3-1.7h1.3zm0.6-25.8l-0.4-2.6 1.1 1.2 1.1-0.9 0.7 0.8zm3.5 7.1v-2.9l0.7 2.3zm2.1 5.4l-0.3 0.3-0.4-1.9c0.4 0.5 1 1 0.7 1.6zm2.4-24.2l0.4-1.2 1.1 1.3c-0.4 2.7 2.7 4.7 4.1 7.9l-2.4 1.5c-0.1-0.9 0.5-1.5 0.3-2.5l-2.2-0.3 1.9-0.9c-1.4-1.4-3.1-3.6-3.2-5.8zm4.1 19.9v1.6l-1.3-1.6zm3.8 25.6c-0.9-0.8-2.5-0.6-3.8-0.6v-1.7c1.3 0.4 2.2 1.4 3.8 1.1zm-1.1-3.4c-1.2-0.5-2.8-0.7-2.7-1.8 1.9 0 2.2 1 2.7 1.8 0.6 0.2 1.1 0.5 1.1 1.1-0.6-0.3-0.9-0.7-1.1-1.1zm1.6-27.1c-0.2 0.4-0.7 0.2-1 0.3l-0.8-0.9c0.5-0.3 0.4-0.6 0.4-1-0.3 0-0.6-0.2-0.9 0 1.2-1.4-3.5-3-0.4-3.8 0.3 0.7 0.5 1.6 1.4 2.4-1.6 1.4 2 1.3 1.3 3zm0.4 4.1l1.5-1.2c-1.1 0.9 2.2 2.5-0.4 3.1-0.6-0.5-0.2-1.4-1.1-1.9zm0.6 26.9v-1.1c1-0.2 1.5 0.9 2.6 0.6 0.2 1-1.8 0.3-2.6 0.5zm3.5 20.6c0-0.9-1.2-2.5 0.2-2.9l1.4 1.7c-0.5 0.2-0.4 0.7-0.4 1l0.7 0.2c1.9 0-1.2 1-1.9 0zm8.3-18.2l-5.2-1.8h5.2zm1.2-69c-0.9 1 1.6 2.3 0.3 3.4-0.9-0.8-1.1-2.9-0.3-3.4zm0.7 90.3l-0.7-0.8 0.7-0.6 0.7 0.8zm1.1-85.1l-0.3 0.2 0.4-1.7zm0.3 22.7l3.3 0.6c-0.2 0.9-1.7 0.6-3 0.6q-0.2 0-0.3 0.1zm0.2 40.3l0.4-0.4 2 3.3zm3.3 22.3c0.5-0.4 1.3 0.1 1.8 0.5-0.5 0.4-1.3-0.1-1.8-0.5zm1.3-44.2h-2.6l2.5-2.2c1.5 0.8 0.1 1.4 0.1 2.2zm21.2-14.4l0.3 0.3-1.1 0.9zm-2.6 16.6l1.7 0.6 0.4-1 0.7 0.8c-0.6 0.9-2.2-0.1-2.9 0.3zm-6.5-10.5c1.2-0.2 1.9 0.6 3.6 0.6-2.1 0.3-4.6 0-6.4 2.6-1.2-2.4 2.3-1.4 2.8-3.2zm4.3 56l-0.7 2.9-0.7-2.9zm-5.4-49.9l0.7-2.8 0.7 0.8zm1.3 44.9c0 1.2-0.5 3-2.5 2.2-1-1.9 1.1-2.2 2.5-2.2zm-4-18.4h2c0.9 1.6-1.1 1.3-2 1.8zm2.7 29.1c-0.7-0.2-1.1 0.3-1.2 0.6l1.8 1.1-1.8 1.1c0.1 0.3 0.7 0.6 0.5 1.1-1.6 1.9-0.7-0.9-2.6-0.5 3-4.1-2-12.1 5.4-11.3h0.5c-1.8 1.7-1.8 5.2-2.6 7.9zm2.6 6.1l-1.1 0.9 0.8-2c0.4 0.2 0.3 0.7 0.3 1.1zm-0.3-2.6l1.4-1.2 0.7 0.9q-0.1 0.2-0.3 0.3l2.6 1.8h-3.3v-1.6c-0.5 0-0.9-0.1-1.1-0.2zm2.7 15l1.1-1.7 0.8 0.9c-0.6 0.3-1 1.2-1.9 0.8zm-0.6-17.5c1.1 0.2 2.9 2.3 4.4 2.1l1.7 2.7c-2.8-1.4-4.4-2.5-6.1-4.8zm-124.5 58.2l-1.5-1.6 4.8 0.4c-0.6 0.5-1.8 1.5-3.3 1.2zm45.7 2.7l-0.4-1.9 1.1 1.3zm6.1-0.2l-1-1.1 2.2-0.5c0.6 0.7-0.8 1.1-1.2 1.6zm4.9 20.5l0.8-2.1 0.7 0.8zm9.3-11h-2c0.4-0.6 0.6-2.7 2-1.1zm5.2-4.9l-0.7 0.6-1.1-1.3c0.7 0 2.1-0.9 1.8 0.7zm7.7-10.1l-0.7-0.8 0.7-0.6 0.7 0.8zm11.5 18.9l1.3-2.2h0.8zm12.5-11.8l-1.3-1.3h2c0.2 0.6-0.3 0.9-0.7 1.3zm19-19.1c0.8 1.2-0.8 0.4-1 1.3q0 0.2 0 0.3 0-0.2 0-0.3c0-0.6-0.1-2.1 1-1.3zm-1.8-4.4l-0.7 1.8-1.3-1.8zm-2.4 3l0.3 0.4-1 0.9-0.3-0.5zm-5.8 9.2v-0.8c0.1 0.3 0.1 0.5 0 0.8v0.6l3.3 0.3c0.2-2-2.1-1.1-2.6-2.3 0.8-0.4 2.7 0.4 2.6-1.4 1.5-0.8 0.5 3 2.5 1.5 0.8 2.2-0.4 3.1-0.5 4.6v-1.4c-0.6-0.4-1 0.1-1.5 0.5-0.4-0.6-1.3-1.9-2-1.1l-1.1 1c-1.3-0.8-0.9-1.6-0.7-2.3zm-1.3 21.9c0.5 0.4 0.3 0.8 0.3 1.2l-0.7 0.6zm10.8 33.6v1.3c-0.9-1.3-3.3 0.1-3.3-1.8-0.9 2.9-3.9 3.3-2.6 6.8-1.6-0.9 0.6-4.6-2-5.7-0.4 0.3-0.9 0.7-0.7 1.1h-2c2.5-2.8 7.5-3.1 11.3-4.6l-3.3 2.4c0.4 1 1.7 0.5 2.6 0.5zm1-64.5l-0.8-0.1c1.5-0.9 1.4-2.3 3.3-3.5 0.9 2-1.8 2.4-2.5 3.6zm4.2 0.7c-1.2-0.2-0.6-1.9 0.1-2.9 1.3 0.9 0.2 2-0.1 2.9zm3.4 26.8l1.3-1.2 1.3 1.2q0.1-0.1 0.3-0.2c-0.7 0.7-1.5 1.2-2.9 0.2zm3.3-0.6q0.1-0.1 0-0.6h0.6q-0.3 0.3-0.6 0.6zm0.6-2.3l-0.6-1.6h1.3c0 0.5 0.2 1.4-0.7 1.6zm3.3 37.7h-1.3c-0.2-1 1.1-1.3 2-1.1 0.2 0.4-0.3 0.8-0.7 1.1zm4.8 1.9l1.2-1.1-0.5-0.7zm6.6-5c-1.1 0.3-1.8-0.7-2.6-1.3-0.1-0.8 0-1.8 1.3-1.6 2 0.8-1.6 2.1 1.3 2.2zm13.8-155.6l0.4 0.4-1.1 1zm-3.1 20v0.5l-2.8-1.6c1.1-0.5 1.8 0.5 2.8 1.1zm-0.3 33.3c-0.3 0.2-0.8 0.9-1.3 0.5l0.6-1.4zm-9.1-61.2l-0.5 2.8-0.8-2.8zm0.7 13.1v1.1h-1.2v-1.1zm-0.8 34.3c0.1 0.5 0.2 1.7-0.8 2.2l-0.7-0.9zm-1.9 11l-1.5 1.2-0.6-0.9 1.4-1.1zm0 10.2l-1.1 0.9 0.7-1.4zm-2.7-58.3c0.6 0.3 1.9 1.1 1.3 2.3-1.4 0.2-1.3-1.4-1.3-2.3zm-1.2 45.5v1.8l-0.8-1.8zm-2.9 6.9l-0.7-0.8 1.7-0.8c0.8 0.7-0.7 1.2-1 1.7zm0.5-9.1c-0.1 0.5-0.1 1.9-1.1 2.4l-0.8-1.5zm-4.7 29.7l0.5-0.9 1 1.2zm5.4-0.2l-1-1.2 0.7-0.6c0.3 0.6 0.8 1.4 0.3 1.8zm2.6-4.3c-0.2-0.4 0.5-2.2-1-2l-0.7 0.6c-0.7-0.8-1.5-1.5-2.6-1.4-0.1 0.7 1.1 2.1-0.3 2.5-0.5-0.4-0.4-0.9-0.4-1.3-0.6-0.3-1.1 0.4-1.4 0.6-0.6-1.1-2.2-3.2 0-3.6l-0.1-0.7c-3.5 2.3-2.8-4.8-6.3-3.3l1-1.6 4 2.4c1.8-2.3-6.4-4-1.1-6.3l1.1 1.3c-0.4 0.1-0.3 0.7-0.3 1.1 0.5 0.3 0.8 1.5 1.8 1.2-1.4-1.6 1.4-1.6 1-3l-0.2-0.1c-0.3 0.4-0.5 0.6-0.4 0h0.4c0.5-0.8 1.7-2.5 3.1-1.6-1.4 2-2.7 3.1-3.6 5.9l2.2 1.2v-0.9l4.2 0.8c-0.2 1 0.3 2.4-0.4 3.2l-1.4-0.2c-0.2 2.6 2.8 3.4 4.3 5-0.8 1.4-1.9-0.6-2.9 0.2zm3.7-2.3c-0.8-0.7-1.3-1.9-2.2-1.8l-0.4 0.4-0.4-0.5c0.9-2 3.3 0.2 3.7 1.3zm2.4 2.9l-0.3-0.5 1-0.8 0.4 0.5zm-0.7-19.7l0.9-1.3-2.2-0.4 2.5-0.7 0.7 1.6zm3.6-1.7l-0.6-0.8 0.7-0.6 1 1.3c-0.2 0.4-0.7 0.2-1.1 0.1zm3.1 71.1c-1-1-1-2.4-2.3-3.3l0.8-0.7c0.7 1 2.1 2 2.2 3.4zm1.2 38.4c0-0.9 1.5-0.3 2.3-0.5l0.4 0.5zm0.2-38.2l0.7-0.6c0.3 0.3 1 0.9 0.8 1.5l-0.4 0.4zm2.1 3.2l0.4-0.3v0.8zm2.1 41.1c0-1.3 0.5-2.9 2.3-2.3-1.2 0.9 0.2 3-2.3 2.3zm-3.4-86.1v0.1l-1.8-0.7q0.9 0 1.8 0.6l-0.1-0.6c2.3 0.8 4.8 3.2 7.2 5.4-2.3 0.3-4.6-3.4-7.1-4.8zm13.1-27.6l0.3 0.3-1.1 1zm-4.5 18.1l1.1-0.9 0.3 0.3c-0.4 0.4-0.8 0.9-1.4 0.6zm2 98.3c-0.2-0.6 0.3-0.9 0.6-1.1h1.1zm1.1-44.1l-0.7-0.8c0.8-0.3 2.6-0.4 3.2 0.9-0.6 0.5-1.7 0.1-2.5-0.1zm10.5 36.6v-2.2l1.1 1.3zm2-15q-0.2 0-0.4 0 0.2-0.1 0.4 0c0.9-0.1 2.4-0.4 2.4 1.2-0.9 1.5-1.5-1-2.4-1.2zm2.7-106.4c-0.9 0.1-1.2-1.6-2.5-0.7 0 0.4-0.2 0.7 0.3 1.1-1-0.7-2.6 0.6-2.8 1 0.4 1.7-0.6-0.1-0.1-0.7-0.4-0.1-0.7-0.2-1 0.2l-1.1-1.3c0.8-0.4 2.2 0.2 3.2 0.1 0.3-1-1.4-3 0.8-3.5 0.7 0.9-0.4 2.6 1.4 2.5 2.9-1.1-1.2-1.8 0.7-2.8 1.1 0.5-0.3 3.3 1.8 2.1zm-39.5 189l-0.4 0.3-1.1-1.2 0.8-0.7c0.4 0.5 0.9 1 0.7 1.6zm7.4 24.8h-2.3c-0.1-1 1.5-0.5 2.3-0.7zm-4.1-25.3c-0.6-3.1 3.6-2.7 5.1-5.1-0.9 1.7-3.7 3.9-5.1 5.1zm12.7-14.3l-1.1-1.3 0.7-0.6 1.4 1.6c-0.3 0.5-0.8 0.3-1 0.3zm32.3-11l1.5 0.3c-0.6-1.7-1.8-2.8-0.3-4.1 0.7 0.5 0.2 1.3 0.3 1.9l0.6 0.1q0 1.4 0 3h0.1c0.1 0.2 0 0.4 0 0.5q-0.1 0.9 0 1.7l-0.8-0.9c0.3-0.3 0.6-0.5 0.8-0.8q0-0.3-0.1-0.5l-2.1-0.4zm-15.3 24c1.8 0.3-0.6 1.8-0.6 2.9h-0.7c-0.9-1.9 1.3-1.3 1.3-2.9zm0 12.5v0.5l-1.3-1.6zm0.7 3.3h-1.3v-1.5c0.6-0.2 0.9 0.1 1.3 0.4zm10.5-10.7h-0.6v-2.9h0.6zm6-21.8l-0.1-1.5-3.6-0.6c1.4-1 2.9 0 4.3 0 0.6 0.7-0.5 1.4-0.6 2.1zm2.8-4c-1-0.6-0.8-1.7-0.7-2.2l0.7 0.2v-0.2c-0.3-0.5-0.4-1 0-1.4v1.4c0.9 1.4 3.6 2.6 0 2.2zm16.2 3v-0.5h1.6zm5.3 7.1l-0.4-0.5 1.1-0.9 0.4 0.5zm5.2 2.8c-1-0.8-2.2-2-3-3.2q-0.2-0.3-0.3-0.6 0.1 0.3 0.3 0.6c1.1 1.1 3.7 1.2 3 3.2zm18.1-21.9h-1.3v-1.1h0.6l-0.6-3.9c0.4 1.7 4.8 3.5 1.3 5zm5.3-156.6c3 0 1.1 2.4 2.6 3.5l-1.3-1.1c-0.3 0.3-0.9 0.4-0.7 1.1h-0.6zm-2.1-41.2l1.1 1.3-0.7 0.6-1.1-1.3zm-5 38.1l0.9 2-1.7-0.6zm-2.2-28.3q-0.2-0.2-0.3-0.4 0.2 0.2 0.3 0.4zm0.9 24.5c-0.8 0.4-1.6-1.5-2.5-1.5l1-0.9c0.5 0.8 1.7 1.4 1.5 2.4zm-0.2 4.3c-0.3 0.2-0.8 0.9-1.4 0.6l1.2-1c0 0 0.3 0.4 0.2 0.4zm-3.8-47.2c1 1.2 1.9-0.2 2.5 1.5l-3.9 1.9c-0.8-2.3 0.1-2.5 1.4-3.4zm-1.1 4.6l-0.7 2.1-1.1-1.3zm-5.7-3.8c-1.5-2-4.8 1.2-4.7-2.5 1.5 1 3.9 0.3 4.7 2.5zm0.5 31.4l-1.5 0.4 0.7-1.4zm-7.6-25.1c0 1.8 4 0 2.6 2.9-0.9 0.1-1.5-1-2.6-0.5zm2.4 31.5l-0.7 0.6-0.7-0.8 0.7-0.6zm-3.4-8.5l-0.1 0.7-1.1 0.9zm3.3 12.2l-1 0.8c-0.3-0.3-0.8-1-1.3-0.8l-0.7 0.6-2.2-2.6c1.4 0.6 3.6 1.4 5.2 2zm-12.3-134.2l0.3 0.3c-0.3 0.3-0.8 0.9-1.4 0.6zm2.1 95.7h-2.7v-0.7zm-4.8-98.5h0.7v1.7h-0.7zm2 115v1.2l-2.5-2.3 2.5 1.2zm-2.4-93.8l0.4 1.9c-0.5 0.6-1.3-0.9-1.9-1.4zm0 5.8l-0.7 0.6 0.4-1.7c0.4 0.2 0.3 0.7 0.3 1.1zm-3.3 5.6c2.2-0.5 1.4-3.4 0.8-4.2 3.4 1.8 1.1 3.8-0.8 4.2zm2.2 40c-0.4-0.2-0.5-0.4-0.6-0.7l-0.8-0.9 0.4-0.4c0.3 0.4 0.2 0.9 0.4 1.3zm-1.3-51.5l-1.1 1-0.7-0.9c0.5-0.2 1.4-0.5 1.8-0.1zm-5.6 39.3v0.4l-2-1.1c0.5 0 1.6-0.1 2 0.7zm-2-28.5l0.6-1.3 0.4 0.5zm3.3 31.3v0.4l-1.3-1.7zm-1.3 11.4l4.6 1.6c-3.8 0-0.5 5-4.6 2.3 0.4-1.9 1.3-2.6 0-3.9zm3.3-44.4l-0.7-0.8c0.5-0.2 0.4-0.7 0.3-1-0.2-0.1-0.7-0.2-1 0.2l-0.4-0.5 2-1.6c-0.7 0.9 1 3.1-0.2 3.7zm0.6-21.3c-0.6 0.5 1.3 2.2-0.3 2.5-0.5-1.2-1.1-1.9 0.3-2.5zm-1.6 16.4l-1.2 1c-0.8-1.3-0.7-4-3.1-3.8 2.3-0.5 3.3 0.1 4.3 2.8zm-3.7 37.9c-1.5 0.2-3.5-1.2-3.3-2.4 0.1 1.6 3.3 0.4 3.3 2.4zm-14.7 14.5l-0.4-2.5c1.9 0 0.7 2 0.4 2.5zm1-27.4c0.4-1-2.7-2.8 0-2.3 0 0.8 1.4 1.9 0 2.3zm3 28.4l-1.1 0.9-0.8-0.9zm-0.5 32.9c-0.6 0.2-1-0.3-1.3-0.6 0.3-0.5 1.4-1.4 2-1.7l-1.3 1.1c0.2 0.3 0.7 0.6 0.6 1.2zm8.2-56c0.7 0.4 0.2 1.2 0.4 1.9l-0.4 0.3c-1.4-0.8-0.2-1.4 0-2.2zm1.1 57.1l-1.5-1.7h1.5zm4.6 1.1l-2.7-1.7h2v-1.8h1.3zm-4.6-16.4l-0.8-1.3h2.1c2.2 2.4 6.4 1.1 10.4 2.4l-0.5 3.3c-1-0.6-1-1.6-2.1-2.2l-2 1.7 0.8-2.3c-2.4 0.1-5.7 0-7.9-1.6zm8.9 32.4l0.7 0.9-0.7 0.6-0.7-0.9zm0.3 4l-0.3-0.3c1.5 0.9 0.9-1.2 2.5-0.7l1 1.2c-0.9 1.8-2.1 0.2-3.2-0.2zm4.6 3.3l-1.4-1.7 0.7-0.6 1.4 1.7zm-1.6-7.9l1-1.6-0.4 1.7c1.1 0.1 1.6 1.3 2.5 1.5-1 1.7-1.7-1.8-3.1-1.6zm1.3-2.7c1.3 0.3 2.7-0.5 3.6 0.6-1.1-0.1-2.6 2-3.6-0.6zm2-13.1c1.4 0.8 0.3 1.8 0.3 2.6 2.5 0.3-0.4 1.5 1.1 2.7l-1.5 1.2c-1-1.9 0.6-4.5 0.1-6.5zm0.4-3.3c0.9 0.7 0.6 1.5 0.7 2.4-0.9 0.5-1.6-1.8-0.7-2.4zm-0.1 10.9l1.1 1.3-1.9 1.5zm2-19.7c-0.3 0.3-0.7 0.4-0.7 0.9-0.4-2.2-5.4 0.9-3.9-2.6 1 0.3 1.9 0.8 3.3 0.6 0 2.5 2.8-0.8 3.9 1.1 0.2 0.5-0.4 0.8-0.6 1.1h-1.4c0.2-0.6-0.2-0.8-0.6-1.1zm2.6 17.1v0.5l-2-1.1c0.7 0 1.6-0.2 2 0.6zm-4.1 28.2l-0.3 0.3-0.4-1.9c0.4 0.5 1 1 0.7 1.6zm-1.8 49.8c1.1 2.7 6.3-0.6 5.9 2.9l-2 0.6c0.2-0.6-0.2-1-0.6-1.3l-5.3 2.4c-2.4-2.2 1.7-2.5 2-4.6zm4.5 17.8h-0.7l1.4-2.8c2.1 1.9-1 1.2-0.8 2.8zm-9 4.8l1.4 2.5c-1.1-0.1-1.5-1.4-2.5-1.5zm-6.6 11.5v0.5h-2.2c-0.1-0.9 1.6-0.3 2.2-0.5zm-3.9 14.2c0.3-0.2 0.6-0.5 0.6-1 1.1 0.2 0.2 2.1 1.3 2.9l-1.9-1.9-0.1 0.1-2-2.2zm-7.9 27.3l-0.4-0.4 1.1-1 0.4 0.5zm-0.1-107.9c0.5-0.1 1.7 0.1 2.2 0.3-0.5 0-1.7-0.2-2.2-0.3zm4.3 103.5c0.1-0.5-0.3-0.8-0.6-1.1h-1.6c0-0.3 0.1-0.7-0.1-1.1q-0.3-0.3-0.5-0.5c0.3 0.1 0.4 0.3 0.5 0.5 1.2 0.8 3.3 1.1 3.9 1.7l0.5 0.5zm0.6-17.5c-0.3-0.8 0.6-1.1 1-1.7h1.1zm5.9 2.9l-1.3 0.6c0.3 0.1 0.6 0.3 1 0.4h0.4c-0.3-0.3-0.2-0.7-0.1-1zm1.7-6.8l0.8-1.2 0.3 0.4-1.5 1.3 0.3-0.4h-1.6c1-2.4 2.8-2.2 4.5-2.1-0.8 1-3.3-0.1-2.8 2zm17.7 0.4l-1.8-2.1 0.3-0.3 1.8 2.1zm2.7-4.8c1.2 0.6 1.7 2.5 3 3.6-2.3 0.9-2.2-2.9-3-3.6zm20.8 20.2l-0.7-0.9 0.7-0.6 0.7 0.9zm-22.6-30.7c-5.4-2-12.8-1.9-15.5-6.7q2.9 0.6 5.7 1.2c0.1-0.3 0.2-0.6 0.5-0.7h0.6v0.9q0.5 0.1 1 0.3c-0.2-1 0.5-3-1-3.5 2.6-0.3 1.8 2.6 2.7 3.8q0 0-0.1 0c11.8 2.9 22.9 7.1 31.9 15.5-9.3-1.6-17.1-7.6-25.8-10.8zm2.7-9l2.3-2.2h0.4zm1.2 2.2c-0.3 1-1 0.4-1.7 0-0.3 0-0.6-0.1-0.8-0.1 0.2-0.2 0.5 0 0.8 0.1 0.5 0.1 1 0 1-0.8zm-1.9-21.8c0-0.6 0.2-1.4-0.7-1.7h-2v-2.4l1.4 1.7 0.6-0.4c0.3 0.6 1.8 2.3 2.7 2.8zm18.5 5.7h-1.4l0.7-2.8c1.1 0.1 0.6 1.7 0.7 2.8zm11.9 81.7l-3.8-1.7 2.6-1 0.1-0.1c-0.3-0.2-0.7-0.5-0.5-1 0.6-0.1 0.7 0.3 1 0.5l-0.5 0.5c0 0 0 0.1 0.1 0.1h-0.2l-0.4 0.6c0.3 0.6 1 0.4 1.6 0.4zm1.1 0v-1h1.7zm2.1-69.2c-1.9-2.4-1.9-6.5-2.6-9.7h1.3c-0.8 3.6 1.4 6.2 1.3 9.7zm-6.6-32.1c-9.9-10.2-23.7-26.6-32.6-41.2 0.4-0.6 0.6-1.4 0.6-2.2 2.8 1.4 5.5 3 8.3 5 0.6-0.5 1.1-1 0-1.9h1.3c0.7 1.3-0.1 1.7-0.9 2.1 10.5 7.5 20.6 18.9 27.1 31.4q0.1 0 0.2 0.1c0.3 0.1 0.5 0 0.7-0.1q0.1-0.3 0.6-0.5c-0.3 0.1-0.4 0.3-0.6 0.5-0.3 0.5 0 1.3 0 1.8q2.7 5.6 4.2 11.1c-5.1 1.9-6.5-3.6-8.9-6.1zm8.9 104h-1.1v-1.1h1.1zm0-42.3l-0.1-0.7c0.6 0.1 1.9 0.7 2.8 1.2-0.6 0.7-2.2 0.4-2.7-0.5zm5.7-21.7c-0.3 0.8-1.4 0.6-2 0.6l3.3-3.5c-0.7 1.5 4.4 4.3 0 4.6 0.4-0.8-0.9-1.1-1.3-1.7zm2.6 4.6l-2 6.3v-8.1zm-2.4 39.2v-1.6l1.2 1zm0.4-29.5v-2.2c1.1 0 0.9 1.5 1.3 2.2zm1.3 33.3l0.6-1.6h0.4zm0.5-20.6l-0.4-0.4 1.5-1.3c0.7 0.6-0.7 1.2-1.1 1.7zm-0.5-102.8c0-0.6 1.3-1 2-1.1 0 0.8-1.1 1.1-2 1.1zm19.2-137.5l0.1 0.4q-0.1-0.2-0.1-0.4l-0.9-2.9c2.8-0.6 0.8 1.6 0.9 2.9zm-2-7.2l-2.9 2.5c0-0.6 1.5-1.3-0.3-2.6 0.8 0.5 2.4-0.4 3.2 0.1zm-6.6 21.6c0.4 0.2 0.3 0.7 0.3 1.1l-1.1 1zm-5.7 37.2l-1.5-1.7c1.1-0.2 1.7-0.7 2.6 0.8zm2.6-26.9l-0.7 0.6c-1.3-0.9-1.1-4 0.5-4.5 2.6 1.5-0.1 2.6 0.2 3.9zm1 85.6c1.3-0.1 3.5 0.9 3.7 2.7-1-0.3-2.7-1.1-3.7-2.7zm5.4 4.4h-1.2v-1.2h1.2zm-0.3-113.6l-0.4-0.5c0.4-1.1 1.8-0.5 2.5 0.1-0.4 0.7-1.4 0.4-2.1 0.4zm4.9 0l0.1 0.7 1-0.2c0.5 1.4 0.6 1.7 0.1 2.9l-0.7-0.8c0.6-0.3 0.2-1.2 0.2-1.8-0.7-0.2-1.4 0.2-2.1 0.4l-0.7-0.8c0.4-0.9 1.7-0.6 2.1-0.4zm1.2 5.7l0.7-1.4c0.4 0.4 0.3 0.7 0.3 1.1-0.4 0.5-0.7 0.2-1 0.3zm0.8 19.2v1.7l-0.7-1.7zm-3.7 19.2c0.7-1-0.5-3.4 2-3.4-1.6 0.2 0.6 5.1-2 3.4zm1.1 65.1c0-0.8 1.1-1.1 1.9-1.3 0 0.8-1.1 1.1-1.9 1.3zm-1.9 44.9c0.3 0.9-0.5 2-1.5 2.7-0.3-0.2-0.8-0.1-1-0.6l-0.1-0.7c1.7 1 1.1-0.9 2.6-1.4zm-3.2-1.6l0.4 0.4-1.2 1zm-6.6 6.9l1.9-0.8 1.4 2.4zm9.1 93.3h-2.1c-0.2-0.9 1.5-0.3 2.1-0.5zm0.5-73.1l-0.1-3 0.5 2.6zm-0.7-13.2l0.1-2.1c-0.4-0.1-0.9-0.2-1.1 0.1l-0.4-0.4c1.7-1.5 3 1.8 4 3.2-0.9 1.8-1.5-0.9-2.6-0.8zm3-7.5c-0.1-0.2-0.3-0.3-0.5-0.4-0.1 0.1-0.3 0-0.5-0.2-0.3 0.7 0.3 1.2 0.6 1.6l-0.7 0.6c-2.4-2.1-4-0.3-6.1-0.5l-0.6-2.3c1.2 2.2 3-0.4 4.6 1.1l2.1-1.2 0.1 0.7c0.1 0.1 0.3 0.1 0.5 0.2 0.5-0.1 0.7-1 1.1-0.2l-0.7 0.6zm0.9 25.3l0.8-0.7c0.5 0.6 0.1 1.5 1 2-0.5 0.6-1.3-0.9-1.8-1.3zm1.3-172.6l0.7-0.6 0.7 2.3zm1.3-14.6l-1.8-2.1 0.7-0.6 1.8 2.1zm8.5 264.1c-1.7-1.6-4.7-3.5-4.6-6.2-0.6 0.3-1.1-0.5-1.4-0.9 0.9-0.7-0.3-2.6 1.1-3.1 0.5 0.6 1.4 1.8 2.1 1l-1 1.7c2.1 0.4 4.6 3.3 4.7 5.5-0.1 0.3-0.2 0.7 0.2 1.1l-1.1 1zm13.6-151.8l-1.3-2.4c0.5-0.2 0.9 0.3 1.3 0.6zm2.5-42.2c0.6 0.3 1.9 1.1 1.5 2.3h-1.5zm-0.5 12.5c0.3 0.5 1.6 1.6 1.3 2.9l-2.1-0.5zm0 20l3.8 0.6c-3.5 1.4-5.7 2.1-9.1 1.7 1.1-0.7 4.4-0.7 5.3-2.3zm-6.1 116.3h-1.8l1.3-2.4c1.1 0 0.3 1.6 0.5 2.4zm0-96.4v-1.1h1.5v1.1zm2.4-121.8c0.3-0.2 0.7 0.4 0.6 0.7-0.5 0-1.5 0.5-1.5-0.6 0 0 0.8-0.1 0.9-0.1zm-1.1 40.6l1 1.1c-0.4 0.5-0.7 0.4-1 0.3l-0.7-0.8zm-1.9-34.5l-0.3 0.3-0.1-2.1c0 0 0.4 1.9 0.4 1.8zm-4.1 41.5l-1 0.9-0.7-0.9zm-2.7 232v-1h0.2c0.3 0.1 0.4 0.2 0.4 0.6-0.1 0.2-0.3 0.5-0.6 0.4zm2.8-55.7l-2-1.1h2zm-1.1-172.4c1.5-1.3-1.4-0.9-0.4-1.9 2.2 0.7 3.5 0 4 3 0.6 0.5 1.1-0.1 1.4-0.3 0.5 0.3 0.4 0.6 0.4 1l2.5-0.7-4.8 4c-0.9-1.7-1.3-3.6-3.1-5.1zm4.4 74.4c0.2 0.5-0.4 0.8-0.5 1.1l-1.5-1.1zm-0.8 146c-0.2-1.1-0.3-3.1 0.9-4 2.5 0 0.3 2.4 1.7 3.5-0.6 1.4-1.6 1.5-2.6 0.5zm3.2-6.2c-0.2-0.7 0.2-1.3 0.9-1v0.7c-0.2 0.4-0.6 0.3-0.9 0.3zm0.3-157.5v-2.2h1.3c0.4 1.1-0.9 1.9-1.3 2.2zm35.7 136.6v0.2c-0.2 0.5-0.6 0.5-0.9 0.5l-0.1-0.7zm-2.5-5.3c0.4 0.3 0.3 0.7 0.3 1.1-0.3 0.3-0.5 0.9-1.1 0.6v-0.9c0.2-0.3 0.3-0.9 0.8-0.8zm32-133.4c-0.2 0.4-0.6 0.3-1 0.2l-0.7-0.8c0.5-0.6 1.3-0.1 1.7 0.6zm-3.6-0.6c0.1 0.5-0.2 1.9-1.1 2.5 0.9-0.6-0.9-3 1.1-2.5zm-7.7-22.3l1.1 1.3-1.4-0.2zm-12.4 42.7c4 1.8-1.8 2.5-1.3 5.1-2-1.4 2.4-2.9 1.3-5.1zm-1.3 9.7c-1.1 0.9-2.2-1-2.6-2.4 1.9-0.5 2.1 1.4 2.6 2.4zm-2.8 6.6q0.2 0.1 0.2 0.2c-0.1-0.1-0.1-0.2-0.2-0.2-0.6-0.5-2-1.5-0.5-2 1.7 0.2-0.3 1.1 0.5 2zm-2.5-8.4c2.6 0.7 0.9 3.5 1.5 5.1l-0.8 0.6c0.4-2-1.1-3-0.7-5.7zm-1.5 1.4l-1.1 0.9-1.4-1.6c0.8-0.9 1.7 0.6 2.5 0.7zm-0.3 7.8v1.6h-0.8v-1.6zm-8.6 79.2c-0.4 0.6-1.1 1.2-0.7 2 0.6 1.8 1.5-0.6 2.4 0.5-1.6 0.8-3.6 0.6-5-1 1.1-0.5 2.2-2 3.4-1.5zm-6.2 8.7c-0.5-0.1-1.2 0.4-1.5-0.3l0.6-0.6c0.8-1.1 2-1.2 3-0.2l-1.5 0.1c-0.2 0.3-0.7 0.5-0.6 1zm1.5-3.7h1.3v2.4zm-0.5-4c-0.7 1.3 1.9 3.7-0.6 4.4-0.6-1.8-0.4-2.6-1.2-4.3h0.3c0.6-0.3 0.9-1.1 1.5-0.1zm-1.5-19.3v1.1h-2c0.5-0.6 0.7-2.7 2-1.1zm-2.6 3.5c0.7 1.2-0.9 1.7-1.4 1.2l1.2-1.4zm-1.6 9.1l0.9-0.1 0.1 2.4h-0.5c-0.4-0.7-1.1-1.5-0.5-2.3zm0.2 12c-0.8 0.5-1-0.6-1-1.3l0.9-0.1zm0.6-39.5h-1.3v-1.1h1.3zm-4.8-64.9c0.4 0.5 0.8 1.1 1.5 1v-0.2c-0.3-0.3-0.3-0.7 0-1.3v1.3c0.5 0.5 1.6 0.8 2.1 2-1.4-0.8-2.6-0.6-4.3-2.2zm-0.1 93.6c-0.8 1.2-1.5-0.3-2.2-0.8l1.1-0.1c0.6-0.3 1.2 0.4 1.1 0.9zm0.3 12.2l-1.7 1.6c-0.3-1.1 0.8-1.9 1.1-2.2zm-5.3-82.6l0.5-2.8 2.8 2.4c-1.1 0.3-2 0.6-3.3 0.4zm9.2 107.8c0.4 1.5 1.8 1.7 1.8 3.5 1.4 1.7-1.2 1.5-1.6 2.5 0.6-1.5-0.2-2.7-1.5-3 0.9-4.2-4.1-2.2-5.5-4.9-0.3-1.4 0.2-2.2 0.4-3.3 1.6-0.4 0.8 1.6 1.9 2.2 0.7-0.8 2.2-0.2 2.7-1.3l-0.9-0.9c0-0.3-0.2-0.8 0.2-1 2.9 3.8 4-4.1 6.7 0.3 0.7-0.5 0.3-1.3 0.8-1.8 0.1 0.2 0.4 0.4 0.6 0.3l0.2 2.3c0 1.8-1.4 1.6-2.7 2.1l0.5 1.7-3.5 1.3zm2.3-11.2c0.2-0.1 0.7-0.1 0.9 0.3 0.2 1.1 0.1 2-1 2-0.8-0.6-0.2-1.6 0.1-2.3zm3.2 16.4c-2.1 0.9-1.2-2.6-0.5-1.9 0.2 0.7 1.2 1.3 0.5 1.9zm0.5 3.3l-2.1 0.5c-0.5-1.2 0.5-1.4 1.1-1.7 0.3 0.4 1.3 0.3 1 1.2zm1.8-23.4c-0.4 0-0.6-0.2-0.7-0.3-1.3 0.8-1.3 3.2-3.1 3.6-0.4-0.7 0.8-1.8-0.1-2.6v1h-1.3v-1.4c-0.3 0.1-0.6 0.1-0.8-0.2 3-2.4-2.8-4.1-0.2-6 2.9 0.3 6.4-3.3 7.7 1.2-0.3 1-0.2 2.1-0.5 3.2 1.2 0.6 2.7 1.1 2.3 3.2l-2.6-2.2zm3.5 3.1h0.1q0.2 0.2 0.4 0.4c0.1 0.2 0 0.4-0.1 0.6q-0.1 0.1-0.1 0.1-0.3 0.2-0.5 0.4h-1.9c-0.6-1.1 1-2 2.1-1.5zm-0.1 3.9c-0.3-0.2-0.6-0.4-0.7-0.7l0.7 0.7c0.9 0.4 2 0.7 1.3 2.2l-3.3-0.6 2.6-1.1zm-0.5 11.6h-1l1-2.1zm-1.5-3.7v-1.2c2.2 1 2-1.7 3.9-1.2-1.5 0.5-1.7 4.1-3.9 2.4zm1.9-28.1c0.7-0.6 1.9-1.8 3-1.1 0.2 1.6-2.6 3.1-3 1.1zm6 34.2h-2c0-0.6 1.1-0.9 2-1.1zm-1.6-36.5c-0.4-1 0.4-1.9 1.4-2.1 0.3 0.3 0.8 0.5 0.7 1 0.2 1.6-1.2 0.9-2.1 1.1zm2.5-13.8c-0.3-0.5 0.2-1 0.4-1.4 0-0.5 0.2-1.3-0.3-1.6 0.6-0.4-0.1-1.4 0.8-1.3 1 0.3 1.7 1.4 1.7 2.5 0.5 1.9-1.4 2.4-2.6 1.8zm-0.3-8c1.1-0.6 0.5-1.8 1.1-2.7 1.6-0.9 1.8 1.3 2.6 1.9-0.7 1.7-2.7 1.8-3.7 0.8zm4.5-10.8c-1 0.1-2.5 0.2-2.5-1.2 0.1-0.6 0.8-0.4 1.1-0.4 0.7 0.2 1.7 0.3 1.4 1.6zm1 1.9c-0.4-1.1 0.4-2.1 1.4-1.8 0.5 1.2-0.4 2-1.4 1.8zm2.1 27.4c0.3-1.3 0.4-2.8 0.3-4.1h0.9c0.4 1.1-0.3 2.8 0.9 3v0.7zm3.9-5.6c0.5-0.4 0.2-1.2 0.6-1.7 1.1-0.3 1.6 1.9 2.5 2.2-1-0.2-2.3 0.7-3.1-0.5zm3.4 1.1l0.6-0.1c-0.1 2.2 1.8 1.7 2.2 3.6-1.6-0.3-3.2-1.4-2.8-3.5zm7.6 5.8c0.4 0.5 0 1.2-0.4 1.8l-0.7-0.9zm1.9-16.8c1.5-0.1 2 1.5 3.6 1.9l-1.1 1c-1.9-2.6-3.9 0.1-5.7-1.6 1.8 1.3 1.3-1.5 3.2-1.3zm-0.6-3.1c0.4 0.5 0.3 0.9 0.2 1.2l-1.1 0.9zm-3.1-5.1l0.9-0.1v0.5c-0.4 0.2-1 0.1-0.9-0.4zm-0.9 2.1c0.4 0.7 1.9 0.6 2.9 1.8-0.7 0.4-1.9-0.6-2.9-1.2zm-4.3 2.8c2.6-0.2 1.4 4 2.9 5.7-0.6 0.1-1.1 0.2-1.5 0.8-0.8 2.4 0.7 4.4 1.6 6.3l-0.6 0.7c-3.5-1.3-4.1-5.4-6.2-7.9 1-2.5 3.2-3 3.8-5.6zm-4.2-0.4c0.6 0.3 1.1 0.3 1 1.3l-1.8 0.1-0.1-1.4zm-0.2 2.8l0.1 1c-2.6 3.2-2.2-2.8-5.2-1.1 0.8-4.5 3.1 0.7 5.1 0.1zm-3.5-3.8c0.4 0.1 0.3 0.7 0.3 1h-0.3zm-1.2-16.6l-0.1-0.7c0.8-0.5 1.5 1.3 2.6 1.4-0.9 1.8-1.5-0.9-2.5-0.7zm0.9-29.8v1.7c-1.7 0.6-2.1-0.4-2.5-1.1l-0.8-0.6c0.4 0.1 0.6 0.3 0.8 0.6l0.5 0.5 2.8-2.9c-1.7-1.7-2.6 1.2-4.1 0.7 0.2-1.1 2.4-2.2 0.8-3.5 0.1-0.4 0.2-0.6 0.5-0.6 0.3-0.2 0.7-0.1 1-0.2q-0.1 0.2-0.3 0.4c0.9 0.4 2 1.1 2.1-0.7 2.5 0.9 2.5 2.7 3.8 4l-1.3-1.2c-0.9 0.4-0.7 1.2-0.7 1.8-0.9 0-2.7-0.2-2.6 1.1zm-1.6-1.7c0.2 0 0.7-0.1 0.9 0.3 0.1 0.5-0.4 0.7-0.6 1 0 0-0.3-1.2-0.3-1.3zm4.2 35l-0.3-2 1.1 1.3zm0.1-15.7c-0.6-0.4-0.7-1.6 0.1-1.9 0.9 0 0.9 1 1.4 1.5 1.2 1.6-1 1.2-1.5 0.4zm1.6 17l0.8-1.3 0.3 0.4zm3.9-10.3c-1.2-0.9-2.3-2.9-3.6-3.8 1.1 0.5 1.2-1 2.1-1.1 0.7 1.5 2.5 2.9 1.5 4.9zm2.5-59.6v1.1l-2.1-1.7c0.6 0 1.7 0 2.1 0.6zm-1.5-2.2v-1.2h1.5v1.2zm-0.4 43.8l1 0.6c-0.1 0.4 0.3 1.1-0.2 1.4-1.1 0.1-0.6-1.8-0.8-2zm4.9 11.3c-0.8 0.6-1.3 2.3-0.2 3.3l-1 0.5c-1 2.6-2.4 5.4-1.5 8.4-1.6-0.6-2.3-2.6-2.1-3.9 2.3-0.5 0.8-3.8 2.4-5.1-1-2.3 1.6-2.6 1.9-4.1 0.1 0.2 0.8 0.5 0.5 0.9zm-1.2-52.9v-1.7c0.7 0 1.6-0.2 2 0.6 0.2 0.5-0.4 0.8-0.6 1.1zm0.7 24.5l0.2-1.8 2.2 3.3c-0.6-0.1-1.9-0.4-2.4-1.5zm4.7 31.4l-1.3-1.7c0.7-0.2 0.9 0.3 1.3 0.6zm-7.3-83.3l0.1 0.1-2 1.1c0.5-0.6 1.1-0.9 1.9-1.2l-0.6-0.4c2.5-1.4 6.8-1.9 10.6-2.4-1.5 2.3-6.7 1.6-10 2.8zm10.5 75.8c0.3-0.9 0.3-2.5 1.8-2.1 0.3 1.7-1.6 1-1.8 2.1zm3.1-4.8c-0.9-0.6 0-1.5 0.5-2.1 0.2 0 0.4 0.2 0.5 0.4-0.3 0.6-0.3 1.5-1 1.7zm2.9-12.2c-2 2.3-1.9-1.7-3.2-2.5-0.7-0.7-0.8-2.8 0.7-2.6 0.7 1.4 3.2 2.5 2.5 5.1zm0.9-39.9c-0.6 0.2-1.3 0.6-1.7-0.6 0.4-0.1 1.1 0.4 1.7 0.6 0.3-0.1 0.6-0.1 0.8 0.1-0.2 0.1-0.5 0-0.8-0.1zm1.5-0.5c0.6 0.1 2 0.3 2.5 1.5-0.8-0.5-2.6 0.8-2.5-1.5zm4.4 2.9l1-0.8 0.7 0.8zm2 4.6c-1 0.3-1.3-0.9-1.7-1.3 0.7-1.6 1.4 0.2 2.5-0.7 0 0.6 0.2 1.8-0.8 2zm13.8-116.5l2-0.5c1.1-0.2 0.7-1.4 1.1-2.1-0.6-0.4-2-0.1-1.8-1.5 0.7 0.3 0.8-0.8 1.4-0.7-0.2 2 3.1 2 2 3.8-1.3-0.1-2.3 2.6-4.3 2.3-0.2-0.4-1.3-1.1-0.4-1.3zm2.7 14.5c-0.4-0.8-1.3-0.5-1-1.6 0.4-0.1 1-0.4 1.2 0.2 0 0.4 0.3 1.3-0.2 1.4zm-6.7 19c0.4 1 1 1.7-0.3 2.4l-1.1-1.2zm-3.3 6.3c0.1 0.1 0.5 0.1 0.9 0.2-0.5-0.7-1.3-1.3-0.2-2.1 0.8-0.5 1.3 0.4 1.8 1.2-0.1-0.6 0.3-1.4 0.7-2q0.1 0 0.1 0c-0.1-0.2-0.2-0.6-0.1-1 2 0.6 4.7-0.4 6 1.7l0.2-0.4c1.2 1.3 2.8 1.9 3.9 3.7l-1.3 0.1c-0.8-1.9-2.8-1.3-4.2-0.4-0.9-2 1.3 0.1 0.5-2-0.4-0.2-0.5-0.8-1-0.6-0.7-0.6-1.5 0.1-2 0.8-0.4-0.4-1-0.7-1.4-1.1 0.1 0.7-0.6 1.5-0.7 2q-0.1 0-0.3 0 0.2 0.1 0.3 0.2c-0.2 0.6-0.6 1-1.1 1.1q0 0.2 0 0.5c-0.2 0.4-0.7 0.2-1.1 0.1-0.3-0.5-1.5-1.1-1-2zm12.2-5.5c0.6 1.7-1.7 2.2-2.1 0.4-1.1-1-1.9 0.4-3.1-0.5 0.9-1.3 0.3-2.1 0.8-3.6 1.2-0.4 2.9 2.7 3.5 0 0.3 0.7-0.2 1-0.4 1.4 0.2 0.8 1.2 1.3 1.3 2.3zm-2.6 1.6l-1 0.9-0.7-0.9c0.4-0.5 1.2-0.8 1.7 0zm-4.4 6.7c-0.1-0.5-1.3-1.1-0.4-1.9l2.1 0.1c0.4 1.7-1.3 1-1.7 1.8zm-4 45.2c-1-1.1 0.6-2.5 1.3-3.1-0.3 1.1-0.7 2.4-1.3 3.1zm-0.7 3.4c-0.8-0.6 0.2-1.1 0.4-1.7 1.2 0.5-0.4 1.3-0.4 1.7zm0.5-42.9l0.3-1c0.4 0 0.9-0.3 1.2 0.2-0.3 0.3-0.7 0.9-1.5 0.8zm-0.9 28.3c0.2 1.9-2.1 2.6-0.3 4.3-0.4 1.4-1.2 0.2-1.9 0.1 2.2-2.2-1.6-1.4-1.1-3.2 0.8-0.5 2.1-2.1 3.3-1.2zm-3.2-30.6c1.2-0.5 1.9 0.2 2.3 1.5-0.9 0.6-2.4 0.4-2.9-1zm-0.6 55.8h0.6c0.4 0.1 0.3 0.7 0.3 1-0.4-0.3-1.2 0-0.9-1zm4.9-3.9c-1.7 0.5-1.6-2.8-3.4-2.1l1.5-0.8-0.7-0.7c0.8-3.1 2.3 0.4 3.9 0.2 0.6 1.8-1.9 1.5-1.3 3.4zm2.9 6.5c-0.1 1.5 0.7 3.7-0.6 4.3 0.2-1.8-2.3-2.9-0.6-4.7 0.4 0.1 0.9-0.3 1.2 0.4zm12.9-47.3c-1.4 1.4-2.2-1.1-3.6-0.5l0.1-0.7c0-0.1-0.1-0.2-0.2-0.3q-0.5-0.1-0.9-0.3-0.2 0.1-0.4 0.1c0.5 1 1 1.9 2 2.1-0.3 2-2.4 0.3-3.9 0.9-0.9 1.1-1 1.6-0.7 1.8q0.1-0.1 0.1-0.3l0.2 0.5c1.1 0.3 3.6-0.1 2.2 2.4l2.1-1.1 0.1 1c-0.5 0.7-1.4 1.9-2.7 1.6-1.6-1.5-4.4-1.7-3.9-4.8 3-2.8-1.7-5 0-8.3-2.4-1.3 0.3-3.3-0.3-5.2q0.1 0 0.1 0c-1.5-0.9-3.4-1.1-5-0.7v-0.7c1.4-0.8 4.3-0.3 5.8 0.3 1.7 4.6 2.9-2.1 5.5 0.3v0.3c-2 0-2.2 2.2-2.9 3.6l1 1.8c-0.3 0.1-1.2-0.5-1.6-1.1q-0.2 0.1-0.5 0.2c0.1 0.7 0.3 1.4 0.5 2 0.9 0.8 1.3 2.1 1.8 3.2q0.2 0.1 0.5 0.1c0.3 0 0.6 0 0.9 0.3 1.1 0.3 2.3 0.7 3.7 1.5zm-0.1-11.8v0.4h-0.9v-0.4zm-2.4-12.5l-0.7-0.9 0.7-0.6 0.7 0.9zm-1.1-3.2l0.4 0.4-0.6 0.1v-0.7c-4.4 0.5 0.8-3.4-2.2-4.6-1.2-0.2-0.8 1.3-1.7 1.8-2.2 1-1.4-2-2.6-2.8 0.1-1.6-2.8-4.2 0.4-4.7-0.2-0.7 0-1.5-0.6-1.9-1.2 0.2-0.5 1.7-1.3 2.3-0.3 0-0.8 0.2-0.9-0.2 1.5-1.6-0.8-5.5 2-5.8 0.4 0.5 1.4 0.6 1.9 0.5q0.1-0.1 0.3-0.3 0 0.3-0.3 0.3c-0.4 0.5-0.3 1.1-0.2 1.7 2.8 0.8 5.5 1.6 7.6 4.2 0.6 0 1.4-0.3 1.8 0.5-0.4 1.1 1.3 2-0.1 2.3l-0.7-0.6c-0.5-0.1-0.6 0.4-0.8 0.7 0.5 1.7 2.8 1.9 2.7 4.1-1.3 1.7-4.5 0.1-5.1 2.7zm5.7 2.9l-1 0.8-1.1-1.2c0.5-1.3 1.3 0.1 2.1 0.4zm6.6-51.7c-0.6 1.6-1.9-0.6-2.5-0.1 0.5-1.5 1.9 0.6 2.5 0.1zm-5.3-2.5h0.9c0.6 0.8 0.4 1.9 0.5 3-0.9-0.2-1.5-1.7-1.4-3zm1.2 37.2l0.9-0.1 0.1 0.7c-0.4 0.1-0.9 0-1-0.6zm1.4-1.8c1 1 0.8 2.7 1.8 3.9-1.1-0.8-2.1-2.1-1.8-3.9zm2.1 2.8l0.2-1.2 0.2 0.2zm-4-6.4c-4.2-1.8 0-4.5-1.2-7.5-0.2-1.3 0.9-1.9 1.7-1.8q-0.1-0.3-0.1-0.6c0.4-0.4 0.3-1.5 1.2-1.2 0.5 0.4 0.7 1.1 0.7 1.6-0.1 0.6-0.5 0.8-0.9 0.8 1.2 1.4 2.3 3.3 3.1 4.9-0.2 0.3-0.5 0.3-0.9 0.4q0 0.1 0 0.2c0.1 0.8-0.1 1.2-0.4 1.5 0.7 0.4 1.6 0.7 2.2 1.1l-0.6 0.8c-1.7-1.2-3-0.3-4.8-0.2zm6.2 3c-0.7 0.3-1.5-0.5-1.3-1.2 0.5 0.2 1.5 0.3 1.3 1.2zm0.3-12.1c-0.3-0.8 0.3-1.2 0.5-1.9 1.1-0.7 3.5-1.9 4.4 0.4-2.3-0.7-3 3.1-4.9 1.5zm-28.8 122.2q0.5-1.4 1-2.8-0.3 0-0.7 0.3c-0.4 0.4 0.1 1.5-0.5 2q0.2 0.2 0.2 0.5zm-15.5 73.6c-1 0.5-1.7 1.6-1.4 2.7 0.6 0.3 0.9 0.9 1.6 0.6l-0.3 1.4c0.3 1.1 1.4 1.4 2.3 1.5 0.1-0.1 0.3-0.4 0.2-0.7 0.5-1.5 0.2-2.2-1.1-3.2 0.3-0.2 0.3-0.8 0.3-1l1.5-0.1c2.2 0.1-0.4 2.2 1.3 2.8 0.8-1.5 2.3-3.2 3.1-5.1-1.8-1.3-3.6-2.7-5-4.4-0.3 0.1-0.4 0.3-0.4 0.4l-1.7-1.6c0.2-1.7-1.6-2-2.1-3.2 1-0.2 1.1-0.2 1.9 0.3q0.1 0.2 0.2 0.4-0.2-0.5-0.3-0.9c-1 0-2 0.1-2.9 0.3-1 0.9-2.9 1.6-1.7 3.4 2.3 1.4-2.2 2.4 0 4.1 0.6-0.2 1.1-0.9 0.8-1.8 1.5-0.3 2.7 0.1 3.9 0.5-0.4 0.7-1.4 1.5-1.6 2.4 1 0.9 1.4-0.6 2.4-0.1l0.1 0.5c-0.4 0.5-0.6 1-1.1 0.8zm3.5-45.8l-0.2 3.6q1.1-2.9 2.3-5.9c-0.7 0.4-1.2 1.3-2.1 2.3zm-9.2 48.8c0.8 0.6 1.8 1 2.9 0.9-0.2-0.5-0.5-0.6-0.8-0.8-1 1.1-1.7-0.3-2.4-1.1q-0.1 0-0.1 0 0.1 0.4 0.4 1zm10 21.6c-0.6-2-3.2-0.2-3.5-2.1-0.9-2.3-3.3-2.8-5.4-3.5-1.3 1.7 1.5 2.1 1.8 3.5-1.4 1 0.9 4.3-1.9 4.1-0.6 1.2 1.1 2.3 1.7 2.8 2 0 1.5-2.2 3.2-2.8 0-0.7-0.3-1.5 0.1-2l-0.6-0.6c0.3-0.3 0.7-0.2 1.1 0 0.8 0 1.2 1.1 2.1 0.6l-0.8 0.4c0.9 0.7 1.7 1.2 2.2-0.4zm-6.3-25.5c-1 0.4-1.1-1-1.6-1.5 0.4 2.6-2.9 2.3-2.5 4.3q0.1 0.1 0.1 0.1c0.5-0.1 1-0.3 1.6 0q0 0 0-0.1c1-0.7 0.9-2.7 2.4-2.8zm7.7 0.9v0.6c-0.2 0.7-1 0.3-1.5 0.5 0.1-0.9 0.8-1.3 1.5-1.1zm6.2 24.8c-0.4 2.1-1.1 6.1 0.3 8-1.3 0.7 0.2 3.1-1 4-0.7 0-1.1-0.8-1.6-1.2-1.2 0-2.4 0.2-2.6 1.5-0.6 1.8 1.4 1.5 1.7 2.6l-1.8 1.4q0.1 0.3 0.2 0.5c3-2.6 5.6-5.3 7.7-8.2q0.1 0 0.1 0c-0.5-0.3-0.8-0.9-0.7-2.1 2.8-2.5-2.2-3.7-0.8-6.2q-0.1 0-0.1-0.1c-0.6 0.1-0.9-0.1-1.4-0.2zm-9.3-11.7c-0.5-0.2-0.8 0.5-1.2 0.8 0.6 0.8 1 1.9 2 0.8-0.1-0.7-0.2-1.2-0.8-1.6zm17.3 18.5q0 0.4 0 0.6 0.4-0.1 0.9-0.1-0.2-0.3-0.3-0.5zm-15.3 2h-0.8c0 0.6 0.8 1.5 1.1 0.7 0.1-0.5-0.1-0.6-0.3-0.7z"/></svg>