<svg version="1.2" xmlns="http://www.w3.org/2000/svg" viewBox="0 0 108 15" width="108" height="15"><style></style><filter id="f0"><feFlood flood-color="#b47377" flood-opacity="1" /><feBlend mode="normal" in2="SourceGraphic"/><feComposite in2="SourceAlpha" operator="in" /></filter><g filter="url(#f0)"><path  d="m58.6 5.1q-0.4 0.1-0.8-0.1c-0.3-0.1-0.5-0.3-0.6-0.6-0.2-0.5-0.2-1.1 0.1-1.6q0.3-0.3 0.6-0.5 0.4-0.2 0.8-0.3c0.6 0 1.2 0.1 1.6 0.4 0.5 0.3 0.9 0.8 1.1 1.3 0.1 0.5 0.2 1.1 0.1 1.6q-0.2 0.9-0.7 1.6c-0.3 0.4-0.7 0.8-1.2 1q-0.2 0.1-0.4 0.2-0.2 0.1-0.4 0.1l-0.4 0.1q-0.2 0-0.4 0-0.9 0.1-1.7-0.1c-1-0.3-2-0.9-2.7-1.8q-0.5-0.7-0.7-1.5l-0.2-0.4q0-0.2-0.1-0.4 0-0.4 0-0.8c0-1.1 0.4-2.2 1-3.1l0.1-0.3 0.2 0.2q0.3 0.4 0.5 0.7 0.2 0.4 0.3 0.8 0.4 0.8 0.4 1.6c0 0.6-0.1 1.1-0.2 1.7q-0.3 0.8-0.8 1.4c-0.7 0.9-1.6 1.6-2.7 1.9-1.1 0.3-2.2 0.2-3.3-0.2-0.5-0.3-0.9-0.7-1.2-1.1q-0.5-0.7-0.7-1.5-0.1-0.8 0.1-1.7c0.2-0.5 0.6-1 1-1.3 0.5-0.3 1.1-0.4 1.6-0.4q0.5 0.1 0.8 0.3 0.4 0.2 0.6 0.6c0.4 0.4 0.4 1 0.2 1.6-0.1 0.2-0.4 0.4-0.6 0.5-0.3 0.2-0.6 0.2-0.8 0.1q0 0 0 0 0-0.1 0-0.1 0.4 0.1 0.8-0.1c0.2-0.1 0.4-0.3 0.5-0.5 0.2-0.5 0.1-1-0.2-1.5q-0.2-0.3-0.5-0.5-0.4-0.1-0.8-0.2c-0.5 0-1 0.1-1.4 0.4-0.4 0.3-0.8 0.7-0.9 1.2-0.1 0.5-0.2 1-0.1 1.5q0.2 0.8 0.6 1.4c0.3 0.4 0.8 0.7 1.2 0.9q0.2 0.1 0.4 0.2 0.1 0 0.3 0.1l0.4 0.1h0.4q0.8 0 1.5-0.2c1-0.3 1.9-0.9 2.5-1.7q0.4-0.6 0.7-1.4 0.3-0.7 0.2-1.5c-0.1-1-0.5-2-1.1-2.8h0.3c-0.5 0.9-0.9 1.9-0.9 2.9q0 0.4 0.1 0.8 0 0.2 0 0.3l0.1 0.4q0.3 0.7 0.8 1.4c0.6 0.8 1.5 1.4 2.4 1.6q0.8 0.2 1.6 0.2 0.2 0 0.3-0.1h0.4c0.2 0 0.3-0.1 0.4-0.1q0.2-0.1 0.3-0.2 0.7-0.3 1.2-0.9 0.5-0.6 0.6-1.4c0.1-0.5 0.1-1-0.1-1.5-0.1-0.5-0.4-0.9-0.9-1.2-0.4-0.3-0.9-0.4-1.4-0.4q-0.4 0.1-0.7 0.2-0.4 0.2-0.6 0.5c-0.3 0.4-0.3 1-0.1 1.5 0.1 0.2 0.3 0.4 0.5 0.5q0.3 0.2 0.7 0.1 0.1 0 0.1 0 0 0.1-0.1 0.1z"/><path  d="m49.1 9.5q0.4-0.1 0.8 0c0.2 0.2 0.4 0.4 0.6 0.6 0.2 0.5 0.1 1.1-0.2 1.6q-0.2 0.4-0.6 0.6-0.4 0.2-0.8 0.2c-0.5 0.1-1.1 0-1.6-0.3-0.5-0.3-0.8-0.8-1-1.3-0.2-0.6-0.2-1.1-0.1-1.7q0.1-0.8 0.6-1.5c0.3-0.5 0.8-0.8 1.3-1.1q0.2-0.1 0.4-0.1 0.2-0.1 0.4-0.2h0.4q0.2-0.1 0.4-0.1 0.8 0 1.6 0.2c1.1 0.3 2.1 0.9 2.7 1.8q0.5 0.6 0.8 1.4l0.1 0.4q0.1 0.2 0.1 0.4 0.1 0.5 0.1 0.9c-0.1 1.1-0.4 2.2-1 3.1l-0.2 0.2-0.2-0.2q-0.2-0.3-0.4-0.7-0.2-0.4-0.4-0.7-0.3-0.8-0.3-1.7c-0.1-0.5 0-1.1 0.2-1.6q0.3-0.8 0.8-1.5c0.7-0.9 1.6-1.5 2.7-1.8 1-0.3 2.2-0.3 3.2 0.2 0.5 0.2 1 0.6 1.3 1q0.5 0.7 0.6 1.6c0.1 0.5 0.1 1.1-0.1 1.6-0.1 0.5-0.5 1-1 1.3-0.4 0.3-1 0.5-1.6 0.4q-0.4 0-0.8-0.2-0.3-0.2-0.6-0.6c-0.3-0.5-0.4-1.1-0.1-1.6 0.1-0.3 0.3-0.5 0.6-0.6 0.2-0.1 0.5-0.1 0.8-0.1q0 0.1 0 0.1 0 0 0 0-0.4-0.1-0.8 0.1c-0.2 0.1-0.4 0.3-0.5 0.6-0.2 0.4-0.1 1 0.2 1.4 0.2 0.4 0.7 0.7 1.2 0.7 0.5 0.1 1.1-0.1 1.5-0.4 0.4-0.3 0.7-0.7 0.9-1.2 0.1-0.4 0.1-1 0-1.5q-0.1-0.7-0.6-1.3c-0.3-0.4-0.7-0.8-1.1-1q-0.2-0.1-0.4-0.1-0.2-0.1-0.4-0.1l-0.3-0.1h-0.4q-0.8-0.1-1.5 0.1c-1 0.3-1.9 1-2.5 1.8q-0.5 0.6-0.7 1.3-0.3 0.8-0.2 1.5c0 1 0.5 2 1.1 2.8h-0.4c0.6-0.8 0.9-1.8 0.9-2.9q0.1-0.3 0-0.7 0-0.2-0.1-0.4l-0.1-0.4q-0.2-0.7-0.7-1.3c-0.6-0.8-1.5-1.4-2.5-1.7q-0.7-0.2-1.5-0.1-0.2 0-0.4 0l-0.4 0.1c-0.1 0-0.2 0-0.3 0.1q-0.2 0-0.4 0.1-0.7 0.4-1.1 1-0.5 0.6-0.7 1.4c-0.1 0.5 0 1 0.1 1.5 0.2 0.4 0.5 0.9 0.9 1.1 0.5 0.3 1 0.5 1.5 0.4q0.4 0 0.7-0.2 0.3-0.2 0.5-0.5c0.3-0.4 0.4-1 0.2-1.4-0.1-0.3-0.3-0.5-0.5-0.6q-0.4-0.1-0.8-0.1 0 0.1 0 0 0 0 0 0z"/><path  d="m60.3 7l46.2 0.2c0 0 0.1 0 0.1 0.1q0 0.1-0.1 0.1l-46.2 0.2c-0.1 0-0.3-0.1-0.3-0.3 0-0.2 0.2-0.3 0.3-0.3z"/><path  d="m47.4 7.6l-46.4-0.3c0 0 0 0 0 0q0-0.1 0-0.1l46.4-0.2c0.1 0 0.3 0.1 0.3 0.3 0 0.2-0.2 0.3-0.3 0.3z"/><path  d="m1 8.3c-0.5 0-0.9-0.5-0.9-1 0-0.6 0.4-1 0.9-1 0.6 0 1 0.4 1 1 0 0.5-0.4 1-1 1z"/><path  d="m106.5 8.3c-0.5 0-0.9-0.5-0.9-1 0-0.6 0.4-1 0.9-1 0.6 0 1 0.4 1 1 0 0.5-0.4 1-1 1z"/><path  d="m49.3 5.1c-0.3 0-0.6-0.2-0.6-0.6 0-0.3 0.3-0.5 0.6-0.5 0.3 0 0.6 0.2 0.6 0.5 0 0.4-0.3 0.6-0.6 0.6z"/><path  d="m59 4.5c0 0.3-0.2 0.6-0.5 0.6-0.4 0-0.6-0.3-0.6-0.6 0-0.3 0.2-0.6 0.6-0.6 0.3 0 0.5 0.3 0.5 0.6z"/><path  d="m59 10c0 0.4-0.2 0.6-0.5 0.6-0.4 0-0.6-0.2-0.6-0.6 0-0.3 0.2-0.5 0.6-0.5 0.3 0 0.5 0.2 0.5 0.5z"/><path  d="m49.9 10c0 0.4-0.3 0.6-0.6 0.6-0.3 0-0.6-0.2-0.6-0.6 0-0.3 0.3-0.5 0.6-0.5 0.3 0 0.6 0.2 0.6 0.5z"/></g></svg>