<svg version="1.2" xmlns="http://www.w3.org/2000/svg" viewBox="0 0 4970 860" width="4970" height="860"><style>.a{fill:#a2495d}</style><path fill-rule="evenodd" class="a" d="m2271.2 602.7c50.6-3.5 80.4 48.6 116.7 56.1-73.5 88.9-157.5 66.1-206.7 5 35.8-17.4 39.3-57.7 89.9-61.1zm20.9 149c22.4-45.7 82.5-45.7 107.3-73 39.7 108.3-21.4 169.4-99.3 181.3 2.9-39.8-30.3-62.6-8-108.3zm130.2-73c113.7 19.3 136.1 103.3 107.3 176.3-32.8-22.3-69.6-4.9-97.9-47.2-28.3-41.7 2-93.9-9.4-129.1zm128.1 36.7c-50.7 3.5-80.5-48.7-116.7-56.6 73.5-88.4 157.5-66.1 206.6-4.5-36.2 17.4-39.2 57.6-89.9 61.1zm-128.1-76.5c-17.9-48.5-15.4-87.6-0.1-117.1 5.4 13.5 9.9 27.2 13.5 41.1q-5.4-21.2-13.2-41.7c18.9-35.6 56.5-56.9 99.1-63.1-3.5 39.7 29.8 62.6 8 108.3-22.4 45.2-82.5 45.2-107.3 72.5zm-22.9 0c-113.7-19.4-136.1-103.3-107.3-176.3 32.8 22.3 69.6 5.4 97.4 47.1 3.4 5.2 6 10.5 7.9 15.9q-6.7 18.4-11.4 37.3 4.8-18.5 11.7-36.6c13.2 38.6-8.2 81.8 1.7 112.6zm11.4 1.5c10.5 0 18.4 8.5 18.4 18.4 0 10.4-7.9 18.9-18.4 18.9-10.4 0-18.8-8.5-18.8-18.9 0-9.9 8.4-18.4 18.8-18.4zm1730.3-32.8c1-16.4 11.9-32.3 8.9-45.2 49.2 18.4 54.2 60.1 33.8 92.9-15.9-14.9-45.7-15.9-42.7-47.7zm51.2-28.8c-14.9-6.5-26.9-21.9-40.3-22.9 32.3-41.2 74-32.8 98.9-3.5-18.9 10.5-28.8 38.8-58.6 26.4zm-10-56.2c-11.4 12-29.8 17.4-35.2 29.8-27.4-44.7-5.5-80.9 30.8-94.3 3.4 21.8 26.3 41.2 4.4 64.5zm-57.1-9.9c7.4 14.4 6.9 33.8 16.4 43.2-51.2 10.4-78-22.3-78-61.1 21.4 4.5 47.2-10.9 61.6 17.9zm-27.8 52.2c15.9-3 34.3 3.4 45.7-2.5-5 52.1-44.7 67.5-81.5 56.1 10.5-19.4 4-48.7 35.8-53.6zm-461.5-314q0 0.1 0 0.1 0 0 0-0.1zm0 0.1c-4.9 31.8 16.4 63.5 14.9 85.4-35.3-9.5-54.2-59.1-28.3-123.7 54.1 29.8 62.6 86.4 32.3 118.7 0-31.8-20.3-54.1-18.9-80.4zm0 106.2c-30.3-13.4-90.4-16.4-108.3-35.2 17.9 25.8 82.9 27.3 101.8 47.2-47.7 17.3-144.5-3.5-168.9-87 47.7 20.4 147.6-7.4 175.4 75zm-22.4 42.3c-33.2 85.4-105.8 82.9-170.8 62.1 34.2-58.2 102.3-92.4 169.8-72.1-36.2 10.5-77.9 62.6-126.1 56.7 55.6 11.4 94.8-41.8 127.1-46.7zm-61.1 359.1c-2-29.3 27.8-46.2 32.3-67.1 51.2 42.3 38.3 90.5 3 118.8-9.9-20.4-33.3-22.4-35.3-51.7zm86-11.9c-26.4-12.9-26.4-47.7-42.3-62.1 62.6-22.8 97.9 12.4 104.4 57.1-22.9-1.5-35.8 17.9-62.1 5zm-42.3-75c11.5-65.6 59.6-78.5 101.9-62.1-12.9 18.9-3 40.2-27.4 56.6-24.3 15.9-54.1-1-74.5 5.5zm20.9-74c2 29.3-27.8 46.7-32.3 67-49.2-40.5-39.2-86.6-6.6-115.3-0.9 14.7-0.9 29.6 0.1 44.8 0-16.2 1.1-32 3.2-47.5q0.4-0.4 0.8-0.7c10 20.9 32.8 22.4 34.8 51.7zm-86 12.4c26.4 12.4 26.4 47.2 42.3 61.6-62.1 22.8-97.9-12.4-104.3-57.1 22.8 1.4 36.2-17.4 62.1-4.5zm42.2 74.5c-11.4 65.6-59.6 78.5-101.8 62.1 12.9-18.9 2.9-40.2 27.3-56.1 24.3-16.4 54.1 0.5 74.5-6zm1053.6-454.6c-19.8-11.9-107.8 7.5-123.2-53.6 25.4 22.8 69.1 13.9 85 29.3-15.4-20.4-45.7-10.9-83-33.8 45.7-22.8 111.3 7.5 121.2 58.1zm-74.5-141.5c-10.9 12.4-8.9 77-53.6 79.4 19.3-14.9 18.8-46.7 31.8-55.6-16.4 7.9-14 30.8-34.8 53.6-10.4-35.2 19.9-77.4 56.6-77.4zm-967.7 578.7c6 0 10.9 5 10.9 10.9 0 6-4.9 11-10.9 11-5.9 0-10.9-5-10.9-11 0-5.9 5-10.9 10.9-10.9zm683.6-421.8c-70.6 46.7-66.1 145.6-0.5 192.3 116.2 82.5 269.2-43.7 238.9-192.3-24.8-121.7-186.3-165.4-297.1-162.4-138.5 3.4-286.9 61.3-396.2 134.3q-8.5-4.5-17.2-8.8c110.7-77.6 267.6-135.1 412.9-138.9 122.2-2.5 280.7 36.7 311.5 172.4 36.3 156.4-128.1 295-255.8 208.6-73.5-49.7-86.5-159.9-8-213.1 44.7-30.8 114.8-17.4 141.6 31.3 33.3 60.1-23.3 133.6-85.4 106.3-40.8-17.9-40.8-82 3.5-91.4 35.2-8 53.6 34.8 27.8 51.6 22.8-17.8 3.9-51.1-24.9-46.2-33.7 5.5-36.2 60.2-4.4 77 50.6 26.9 101.3-35.7 76-88.9-20.9-43.7-83.5-57.6-122.7-31.8zm-504.8 8.5c-41.1 33.1-79.1 71.7-109.8 115.2 5.2-11.5 12.6-22.7 22.4-32.8-19.5 13.3-32.7 34.2-38.4 57-28.6 46.3-48.8 97.6-56.3 153.4q-1.6 1.3-3.2 2.7c8-122.5 83.5-227.6 169.9-303.5 11.2-9.7 23.1-19.3 35.7-28.6q8.7 4.2 17.3 8.5c-13.2 9.1-25.7 18.5-37.6 28.1zm-98.8 217.6c38.8 41.7 112.8 17.8 106.8-37.3-4-34.8-54.1-51.2-71-22.8-14.4 24.3 8.9 52.6 32.8 38.7-24.4 16.9-56.2-14.4-36.8-43.7 24.3-36.3 82-13.9 83.5 29.3 2.9 65.6-83 90.9-125.7 39.7-19-22.8-23.7-53.9-16.6-82.1q7.6-12.3 16-24.2c-16.9 37.5-10.6 79.2 11 102.4zm-569.8-198.2c-35.8-23.9-92.9-11-111.3 29.3-23.3 49.1 22.9 106.3 69.1 81.4 28.8-15.4 26.3-65.5-4.5-70.5-26.3-4.5-43.2 26.3-22.3 42.7-23.4-15.9-7-55.1 25.3-47.7 40.2 8.5 40.2 67.6 3 84-56.2 24.8-107.8-42.2-77.5-97.9 24.3-44.7 87.9-57.1 128.6-28.8 71.1 49.2 59.7 150.5-6.9 196.2-116.3 80-265.3-47.7-233-192.2 17.5-77.1 72-130.1 149.4-162 29.6-6.5 59.1-11.6 88-15.4-4.5 1.7-9 3.8-13.2 6.3-111.7 23.9-192.1 79.7-211.3 174.6-27.8 136.6 111.8 252.8 217.1 176.8 59.1-42.7 63.1-134.1-0.5-176.8zm117.7-188.3v-14.9c181.2-5.9 401.4 45.9 583.6 138.3q-6.3 4.4-12.3 8.9c-217.4-104.2-485.1-155.4-673.7-122.6q6.6-2.9 13.8-4.8c30.3-3.2 60-4.9 88.6-4.9zm588.5 140.7q6-4.2 12.3-8.4c95.5 50.5 179.5 112.2 240.6 182.6-5.3-4.8-10.2-10.2-14.7-16.4 6.5 14 17 25.7 29.6 34.3 36 45.2 62.5 93.8 76.7 145-38.1-134.7-174.5-252.3-344.5-337.1zm358.4 188.1c43.7-28.8 33.3-99.3-17.4-101.8-32.3-1.5-54.6 41.2-31.3 60.6 19.4 16.9 48.7-0.5 39.7-24.3 12 24.8-21.3 49.1-44.7 26.8-29.8-27.3-1-76 38.3-71.1 60.1 7.5 70.5 89 17.4 119.8-28.8 16.9-65.6 12.4-92.6-6q-7.2-9.1-14.9-17.9c32.8 29.3 78.5 32.3 105.5 13.9zm-216.6-194.7c-17.9-2.5-66.6 33.3-101.8-2 25.8 8 50.6-9.4 67-3.5-18.4-8.9-33.8 5-67.5 0 19.8-26.8 75-24.3 102.3 5.5zm-141.6 16.4c1 43.2-22.8 62.1-13.4 85.9-5.5-21.3 25.3-51.2 18.4-84.4 45.7 46.7-16.9 106.8-16.9 129.1-39.3-36.7-31.8-106.8 11.9-130.6zm-588.7-165.4c-74.3 2.4-142 14.6-197.8 37.7-248.1 53.9-510.3 199.2-603.3 387.1q-0.3-0.8-0.7-1.5c40.2-86.3 111.8-163.1 200.3-226.8 23.7-5 45.7-17.9 60.1-37.5-12.8 11.7-27.1 19.8-41.8 24.7 170.6-116.4 397.3-185.7 583.2-184.2zm-814.9 456.2q-0.1-0.4-0.3-0.7 5.7-15.6 12.7-30.8 0.4 0.7 0.7 1.4-7.3 14.9-13.1 30.1zm293.3-282.9c1.5 52.7-28.3 75.5-15.9 104.4-6.9-25.9 30.3-62.6 22.4-102.9 55.1 57.2-21.4 129.7-20.9 157.5-47.7-44.7-38.7-130.1 14.4-159zm129.2 54.7c-17.9-11.9-90.4-0.5-108.8-58.1 23.3 22.8 59.6 17.8 74 33.2-14.9-20.3-39.2-13.4-73-37.2 36.7-17.9 94.4 14.9 107.8 62.1zm48.2 197.2c10.4 20.9-39.8 112.8-61.6 106.8-15.9-15.9 38.7-105.3 61.6-106.8zm-64.1 111.3c-17.4 24.3-45.7 51.1-86.4 42.2-10.5-2.5-11-11.4-5-12.4 5-1 9.4 3.5 5.5 8.9 36.2 6 59.6-10.4 85.9-38.7q0 0 0 0zm0 0c-11.4 37.2-13.9 65.5 9.4 93.9 3-6 9-5 10.5 0 2 5.9-5.5 9.9-12.9 2-28.3-30.8-19.4-68.6-7-95.9q0 0 0 0zm110.8-13.4c1 16.8 30.8 27.3 23.8 48.1-5.4 16.4-37.7 24.9-47.2 41.3-11.4 18.9 23.4 42.2-12.4 54.6-74.5-102.3-51.2-196.2 63.6-234 39.7 40.8-28.3 72.1-27.8 90zm-45.7 85.4c20.3-10.4-7-29.8-1-42.2 5.9-12.4 46.7-2 29.8-28.3-16.9-25.9 35.3-42.3 14.9-70.6-66.6 9-92.9 91.4-43.7 141.1zm-45.2-243.9c24.8 118.2-44.7 185.8-170.4 172.4-7.5-37.3 30.3-18.9 41.2-38.3 9-15.9 0.5-48.7 11.9-61.6 14.4-16.4 38.3 4.5 53.7-3.5 15.9-8.4 8.4-82.9 63.6-69zm-14.9 43.2c-34.3-3.5-22.4 50.2-53.2 48.2-31.3-1.5-2 28.3-9.9 39.7-7.5 11.5-38.3-2.4-36.8 20.4 67.6 17.9 125.7-46.2 99.9-108.3zm434.6-283.2c16.4-2.4 68.1 52.2 59.6 65.6-14.9 7.5-63.5-49.2-59.6-65.6zm62.1 68.6c12.5 17.4 24.4 42.7 9.5 68.5-4 6.5-10 4.5-9.5 0.5 0.5-3.9 4-5.9 7.5-2 11.9-23.3 5.5-42.7-7.5-67zm66.1 14.4c-3.5-3.5-1.5-7.5 2.5-7.5 4 0 5.4 6-1.5 9.5-27.3 12.4-51.7-2-67.1-16.4 22.4 15.9 41.3 23.8 66.1 14.4zm-51.2-93.4c12 3.5 25.4-14.9 38.3-5.5 9.9 7.5 8.9 31.3 17.4 41.3 10.9 11.9 34.3-6.5 34.7 20.8-85.9 28.3-145-8.4-145.5-95.4 36.7-17.8 42.7 35.3 55.1 38.8zm48.2 50.2c-2.5-16.4-21.3-2-28.8-8.5-6.9-6.9 8.9-32.3-12.9-26.3-21.4 5.5-20.9-33.8-44.7-26.3-8.5 47.7 41.7 83.9 86.4 61.1zm-176.3-22.9c86.4 9.4 116.7 71.5 80 154.5-26.9-3-6-24.8-16.9-36.8-9-9.4-33.3-10.9-39.3-21.3-8.4-13.9 11.4-25.3 9.4-37.8-2.4-12.4-55.1-23.8-33.2-58.6zm78 111.8q0 0 0 0 0 0 0 0zm-0.1 0c27.4-42.2-3.9-95.9-51.6-91.9-10.5 22.3 29.3 26.3 20.8 47.2-7.9 20.8 19.4 7.4 25.4 15.4 5.9 7.4-10.4 25.3 5.4 29.3zm657.3 205.6c4.5 14.9-37.3 69.1-51.2 63.1-8.4-12.4 36.3-64.1 51.2-63.1zm-53.2 65.6c-13.9 13.9-35.2 28.3-60.6 17.9-6.4-2.5-5.4-7.9-1.4-8.4 2.9 0 5.4 3.4 2.4 6.4 22.9 8 39.8-0.5 59.6-15.9q0 0 0 0zm0.1 0c-11 22.9-15.9 40.8-4 61.6 3-3.5 6.4-2 6.9 1.5 1 3.5-4.4 5.5-8.4-0.5-15.4-22.8-5.5-46.2 5.4-62.6q0 0 0.1 0zm73 3c-1 10.9 17.4 20.9 10.4 33.3-5 10.4-27.3 12.4-34.8 21.8-9.4 11.5 10.5 29.8-13.9 34.3-37.2-74-12.4-132.1 66.1-144.5 21.3 30.3-26.3 43.2-27.8 55.1zm-38.3 50.2c14.4-4.5-1.5-19.9 3.5-27.4 5.5-7.4 30.8 3.5 22.3-14.9-8.4-18.8 27.4-23.8 17.4-44.2-44.2-1-70 49.2-43.2 86.5zm-4-162.5c4 79.5-48.2 115.3-128.1 93.9-1-24.8 21.3-9.4 30.3-20.4 7.9-9.4 5.4-31.7 14.4-38.7 10.9-8.9 24.3 7 35.2 3.5 11-4 14-53.2 48.2-38.3zm-13.9 26.4c-21.8-6-19.9 30.3-39.7 25.8-19.9-4.5-4 17.9-10.5 24.8-6.4 6.5-24.3-5.9-25.8 9 41.7 18.8 86-16.9 76-59.6zm518.2-12c12.4 1 43.2 50.2 34.2 59.1-11.9 3.5-40.2-47.2-34.2-59.1zm35.7 61.6c7 14.9 11.9 36.3-3.5 53.2-3.9 4.4-8.4 2-7.4-1 1-3 4.5-3.5 6 0 12.9-15.9 11.4-31.8 4.9-52.2zm47.7 21.4c-2-3.5 0-6 3-5.5 3.5 1 3 5.5-2.5 7-22.8 5.4-38.2-9.5-48.2-22.9 14.9 15.4 27.8 24.9 47.7 21.4zm-23.8-78.5c8.4 4.5 21.3-7.5 29.8 2 6.4 6.9 1.5 24.8 6.4 33.8 6.5 10.4 27.4 0.5 22.9 20.8-69.1 8-107.8-28.8-94.9-94.4 30.8-7.9 26.8 33.3 35.8 37.8zm28.8 45.7q0 0 0 0 0 0 0 0zm-20.9-11.4c-4-6 11.9-22.9-5.5-21.9-16.8 1-10.4-28.8-29.8-26.8-13.9 34.7 18.4 70 56.2 60.1 0.5-12.9-16.4-5-20.9-11.4zm-93.4 15.9c0.5-10-37.3-26.9-15.4-49.7 63.6 20.4 76.5 72.5 36.3 129.2-20.4-6.5-1-19.9-7.5-30.3-4.9-9-23.3-13.5-26.3-22.4-4-11.4 12.9-17.4 12.9-26.8zm25.9 47.2c26.8-27.9 11.9-73.6-24.9-78-10.9 15.4 17.9 24.3 9 39.2-9.5 14.4 12.9 8.5 16.4 15.4 2.9 7-12 17.4-0.5 23.4zm-1780.5-347.8q-9.3 6.3-18.3 12.8c-29.5 6.2-61.6 0.2-84.5-20.2-51.7-46.2-21.9-134.1 46.2-128.6 44.2 3.4 65.6 63.5 26.8 87.4-31.3 18.9-62.1-15.4-43.7-39.8-15.4 24.4 12.9 49.7 38.7 35.8 29.8-16.9 14.9-69-20.8-74.5-57.2-8.4-84.5 67.1-42.8 109.3 21.5 21.7 61 30.2 98.4 17.8zm494.5-163.9q-10.5 1.1-21.1 2.5c11.7-4.5 24.2-6.5 36.8-5.5q-8.1 1-15.7 3zm-34.3 8.7q10.1-2.1 20.6-3.9c-36.9 15.8-59 51.3-57 81.7 3.4 52.1 70 78.5 97.3 35.2 17.4-26.8-8.4-67.5-36.7-57.1-24.4 8.9-24.4 42.7 1 46.7-27.4-2-31.8-42.7-1-52.2 38.2-11.9 66 37.3 42.2 69.1-35.8 48.2-111.8 16.4-112.3-44.7-0.3-31.4 19.2-59.5 45.9-74.8zm-520.3 186.1c-33.3 4.9-48.7-9-67.1 0 16.4-6 40.8 11.4 66.6 3.4-35.3 35.3-83.9-0.4-101.3 2 27.3-29.8 81.9-32.3 101.8-5.4zm622.5 310.9c-16.9-8.9-41.8-2.9-47.2-29.8-2.5-13.9 2.9-29.8-2.5-40.2 45.2 4 59.1 37.7 49.7 70zm-11-66c-13.9-2-27.3-12-38.7-9.5 17.4-41.7 54.1-44.7 81.5-26.3-12.9 13.4-14.9 39.2-42.8 35.8zm-21.3-44.8c-6.5 12.5-20.4 21.9-22.4 33.3-33.3-31.3-23.3-66.5 4-85.4 8 16.9 31.3 27.8 18.4 52.1zm-49.7 5c9.4 10.4 13.4 26.8 23.4 32.3-40.3 20.9-70.1-0.5-79-32.8 18.8-1 36.7-19.9 55.6 0.5zm-11.4 50.2c12.9-6 29.3-5 37.7-12.9 8 44.7-21.3 66.5-54.6 65.5 4-17.8-8-41.2 16.9-52.6zm-2460.5 115.3c-20.4-32.8-15.4-74.5 33.3-92.9-3 12.9 7.9 28.8 9.4 45.2 3 31.8-27.3 32.8-42.7 47.7zm-67.6-102.8c25.3-29.3 66.6-37.8 98.9 3.4-13 1-24.9 16.4-39.8 22.9-29.8 12.4-39.7-15.9-59.1-26.3zm73-94.4c36.3 13.4 58.7 49.7 31.3 94.4-5.4-12.5-24.3-17.9-35.2-29.8-21.9-23.4 1-42.8 3.9-64.6zm114.8 36.7c0 38.8-26.8 71.6-78 61.1 9.4-9.4 8.4-28.8 15.9-43.2 14.9-28.8 40.7-13.4 62.1-17.9zm2 123.7c-37.3 11.4-76.5-4-82-56.1 11.9 5.9 30.3-0.5 46.2 2.5 31.8 4.9 25.4 34.2 35.8 53.6zm425.7-367.6c1 26.3-18.9 48.7-19.4 80.5-30.3-32.3-21.3-88.9 32.8-118.8 25.4 64.6 7 114.3-28.3 123.7-1.5-21.8 19.9-53.6 14.9-85.4zm175.4 31.3c-24.4 83.4-121.2 104.3-168.9 86.9 18.9-19.8 83.4-21.3 101.8-47.2-17.9 18.9-78 21.9-108.3 35.3 27.8-82.5 127.2-54.7 175.4-75zm-153 117.2c32.3 5 71.5 58.2 127.1 46.7-48.6 6-90.4-46.2-126.1-56.6 67.5-20.4 135.6 13.9 169.4 72-64.6 20.9-137.1 23.4-170.4-62.1zm61.1 359.2c-2 29.3-25.3 31.3-35.3 51.7-35.3-28.4-48.2-76.5 3-118.8 4.5 20.9 34.3 37.8 32.3 67.1zm-86-11.9c-26.3 12.9-39.7-6.5-62.6-5 7-44.7 42.3-80 104.9-57.1-15.9 14.4-15.9 49.1-42.3 62.1zm-32.2-80.5c-24.4-16.4-14.5-37.8-27.4-56.6 42.3-16.4 90.4-3.5 101.9 62-20.4-6.4-50.7 10.5-74.5-5.4zm53.1-68.6c2-29.3 25.3-30.8 35.3-51.6q0.1 0.1 0.3 0.2c2.1 15.6 3.2 31.6 3.2 48 1.1-15.3 1.1-30.4 0.1-45.2 32.5 28.6 42.8 74.9-6.1 115.7-4.5-20.4-34.8-37.8-32.8-67.1zm86 12.5c26.3-13 39.7 5.9 62.5 4.4-6.9 44.7-42.2 80-104.3 57.2 15.4-14.5 15.9-49.2 41.8-61.6zm32.7 80.4c23.9 15.9 14 37.3 26.9 56.2-41.8 16.3-90.4 3.4-101.4-62.1 20.4 6.4 50.2-10.5 74.5 5.9zm-1007.4-518.6c-36.8 22.9-67.1 13.4-82.5 33.8 15.4-15.4 59.1-6.5 84.5-29.3-15.4 61.1-102.9 41.7-122.7 53.6 9.9-50.6 75.5-80.9 120.7-58.1zm10.4-5.9q0 0 0-0.1 0 0 0 0.1zm-34.8-53.7c13 8.9 12.5 40.7 31.8 55.6-45.2-2.4-43.2-67-54.1-79.4 37.2 0 67 42.2 57.1 77.4-21.3-22.8-18.4-45.7-34.8-53.6zm945.9 554.9c6 0 10.4 4.9 10.4 10.9 0 6-4.4 10.9-10.4 10.9-6 0-10.9-4.9-10.9-10.9 0-6 4.9-10.9 10.9-10.9zm-684.1-421.8c-38.7-25.8-101.8-11.9-122.2 31.8-25.3 53.2 24.9 115.8 76 88.9 31.8-16.8 28.9-71.5-4.4-77-28.8-4.9-47.7 28.4-24.9 46.2-25.8-16.8-7.9-59.6 27.9-51.6 44.2 9.4 44.2 73.5 3.4 91.4-62.1 27.3-119.2-46.2-85.9-106.3 26.8-48.7 97.4-62.1 142.1-31.3 78.5 53.1 65.6 163.4-8 213.1-127.6 86.4-292.1-52.1-255.8-208.6 30.8-135.7 188.8-174.9 311-172.4 145.7 3.8 302.6 61.3 413.3 138.8q-8.6 4.4-17.2 8.9c-109.4-73.1-258.1-130.9-396.6-134.3-110.3-3-271.7 40.7-296.6 162.4-30.8 148.6 122.7 274.7 239 192.3 65.5-46.7 69.5-145.6-1-192.3zm520.6 0.5c86.4 75.8 161.4 180.8 169.5 303.1q-1.6-1.4-3.3-2.8c-7.5-55.4-27.5-106.3-55.8-152.3-5.6-23-18.9-44.2-38.4-57.6 10.3 10.5 17.9 22.2 23.1 34.3-30.8-44.1-69.1-83.2-110.5-116.7-11.9-9.6-24.5-19-37.7-28.3q8.6-4.2 17.2-8.4c12.7 9.3 24.7 18.9 35.9 28.7zm83.4 225.5c21.4-22.8 27.8-63.7 11.7-100.8q8 11.4 15.3 23.3c6.9 28.1 2.3 58.8-16.5 81.5-42.7 51.2-128.7 25.9-126.2-39.7 2-43.2 59.6-65.6 83.5-29.3 19.8 29.3-12.5 60.6-36.8 43.7 24.3 13.9 47.7-14.4 33.3-38.8-16.9-28.3-67.1-11.9-71.1 22.9-6.4 55.1 67.6 79 106.8 37.3zm569.8-198.3c-64 42.7-60.1 134.1-0.5 176.9 105.4 76 245-40.3 217.1-176.9-19.2-94.8-99.5-150.6-211.2-174.5-4.2-2.5-8.6-4.6-13.2-6.3 28.8 3.7 58 8.8 87.5 15.2 77.4 32 131.9 85 149.4 162.1 32.7 144.6-116.3 272.3-232.5 192.3-66.6-45.7-78.5-147-7-196.2 40.7-28.3 104.3-15.9 128.7 28.8 30.3 55.6-21.4 122.7-78 97.9-36.8-16.4-36.8-75.5 3.5-84 32.2-7.4 48.6 31.8 25.3 47.7 20.9-16.4 3.5-47.2-22.4-42.7-30.8 4.9-33.2 55.1-4.4 70.5 46.2 24.9 92.4-32.3 69-81.5-18.9-40.2-75.5-53.1-111.3-29.3zm-689.1-56q-6-4.4-12.3-8.8c182.4-92.4 402.6-144.3 583.7-138.3v14.9c28.7 0 58.4 1.7 88.8 4.9q7.2 2 13.7 4.8c-188.6-32.8-456.4 18.4-673.9 122.5zm-29.4 0.1q6.2 4.1 12.2 8.4c-170.2 84.8-306.7 202.3-344.8 337.2 14.1-51.1 40.6-99.5 76.4-144.6 13-8.7 23.8-20.5 30.4-34.7-4.9 6.7-10.4 12.5-16.2 17.6 61.3-71 145.9-133.2 242-183.9zm-242 183.9q-7.3 8.5-14.2 17.1c-27 18-63.5 22.2-92.3 5.5-52.7-30.8-42.2-112.3 17.4-119.7 39.2-5 68 43.7 38.7 71-23.3 22.4-56.6-2-44.7-26.8-9.4 23.8 19.9 41.2 39.7 24.3 23.4-19.3 1-62.1-31.3-60.6-50.6 2.5-61.1 73.1-17.8 101.9 26.9 18.1 71.8 15.5 104.5-12.7zm214.9-187.5c-33.8 4.9-49.2-9-67.6 0 16.4-6 41.3 11.4 66.6 3.4-35.3 35.3-83.5-0.5-101.3 2 27.3-29.8 81.9-32.3 102.3-5.4zm51.2 152.5c0-22.4-62.6-82.5-17.4-129.2-6.5 33.3 23.8 63.1 18.3 84.5 10-23.9-13.9-42.8-13.4-86 43.7 23.9 51.2 93.9 12.5 130.7zm1378.4 127.2q-0.3 0.7-0.6 1.4c-93.1-188-355.5-333.3-603.7-387.1-55.7-23-123.3-35.2-197.4-37.6v-0.5c185.9-1.5 412.3 67.8 582.9 184.1-14.6-4.9-28.7-13-41.4-24.7 14.3 19.7 36.2 32.5 59.8 37.6 88.5 63.7 160.1 140.5 200.4 226.8zm0.1 2.8q0.3-0.7 0.6-1.3 6.1 13 11.1 26.3-0.2 0.3-0.3 0.6-5.2-12.9-11.4-25.6zm-265.8-93.8c0-27.8-76-100.3-20.8-157.5-8 40.3 28.8 77 22.3 102.9 11.9-28.8-17.4-51.7-16.4-104.4 53.2 28.9 62.6 114.3 14.9 159zm-35.7-166.4c-33.8 23.8-58.2 16.9-73.1 37.3 14.4-15.4 50.7-10.5 74.1-33.3-18.9 57.6-91 46.2-108.8 58.1 12.9-47.2 71-80 107.8-62.1zm-94.4 366.1c-21.9 6-72.1-85.9-62.1-106.8 23.3 1.5 78 90.9 62.1 106.8zm2.5 4.5c26.3 28.3 49.6 44.7 85.9 38.7-4-5.4 0.5-9.9 5.5-8.9 5.9 1 5.4 9.9-5 12.4-40.7 9-69.1-17.9-86.4-42.2q0 0 0 0.1 0-0.1-0.1-0.1zm0.1 0.1c12.4 27.3 21.3 65-7 95.8-7.5 7.9-14.9 4-13.4-2 2-5 7.9-6 10.9 0 23.3-28.3 20.4-56.6 9.5-93.8zm-139.2-103.4c114.8 37.7 138.2 131.6 64.1 233.9-35.7-12.4-1.5-35.7-12.4-54.6-9.4-16.4-41.7-24.8-47.7-41.2-6.9-20.9 23.4-31.3 24.4-48.2 0.5-17.9-67.6-49.2-28.4-89.9zm74.1 175.3c49.2-49.7 22.3-132.1-44.2-141.1-20.4 28.3 32.2 44.7 15.4 70.6-16.9 26.3 23.3 15.9 29.3 28.3 5.9 12.4-21.4 31.8-0.5 42.2zm108.8-174.8c15.4 7.9 39.2-13 53.6 3.4 11.4 13 2.5 45.7 11.9 61.6 11 19.4 48.7 1 40.8 38.3-125.2 13.4-194.8-54.1-169.9-172.4 54.6-13.9 47.7 60.6 63.6 69.1zm51.1 82.4c1-22.8-29.3-8.9-36.7-20.3-8-11.5 21.3-41.3-10-39.8-30.8 2-18.9-51.6-53.6-48.2-25.4 62.1 32.3 126.2 100.3 108.3zm-594.1-325.8c-8.5-13.5 43.2-68.1 59.6-65.6 4 16.4-45.2 73-59.6 65.6zm-10 70c3-4 7-2 7.5 2 0.5 4-5.5 6-9.5-0.5-15.4-25.8-3.4-51.2 9.5-68.6-13.4 24.4-19.4 43.8-7.5 67.1zm7.5-67.1c-15.9 14.5-39.8 28.9-67.1 16.4-6.9-3.4-5.4-9.4-1.5-9.4 4 0 6 4 2.5 7.5 24.4 9.4 43.2 1.4 66.1-14.5zm40.2-117.7c-0.5 86.9-59.6 123.7-145.5 95.4 0-27.3 23.8-9 34.3-20.9 8.9-9.9 7.9-33.8 17.8-41.2 12.5-9.4 26.4 8.9 38.3 5.5 12.4-3.5 18.4-56.7 55.1-38.8zm-103.8 88.9c45.2 22.9 95.4-13.4 86.9-61.1-23.8-7.4-23.3 31.8-45.2 26.3-21.3-5.9-5.4 19.4-12.4 26.4-7.4 6.4-26.3-8-29.3 8.4zm143.6 35.8c-2 12.4 17.4 23.8 9.4 37.8-6.5 10.4-30.3 11.9-39.2 21.3-11 11.9 9.9 33.8-17.4 36.8-36.3-83-6-145.1 80.4-154.5 21.4 34.7-31.3 46.2-33.2 58.6zm-45.2 53.2c16.3-4 0-21.9 5.9-29.3 6-8 32.8 5.4 24.9-15.4-8-20.9 31.3-24.9 21.3-47.2-48.2-4-79 49.6-52.1 91.9zm-605.6 268.7c-13.9 6-55.6-48.2-51.2-63.1 14.9-1 59.6 50.7 51.2 63.1zm2 2.5c19.9 15.4 36.7 23.8 59.6 15.9-3-3-1-6.5 2.5-6.5 3.9 0.5 4.9 6-2 8.5-25.4 10.4-46.2-4-60.1-17.9zm0 0c10.9 16.4 20.3 39.8 5.4 62.6-3.9 6-9.4 4-8.9 0.5 1-3.5 4.5-5 6.9-1.5 12.5-20.8 7.5-38.7-3.4-61.6zm-100.9-52.1c78.5 12.4 103.4 70.5 66.1 144.5-24.8-4.4-4.5-22.8-13.9-34.3-8-9.4-29.8-11.4-35.3-21.8-6.4-12.4 11.9-22.4 10.5-33.3-1-11.9-48.7-24.8-27.4-55.1zm22.9 18.8c-9.9 20.4 25.3 25.4 17.4 44.3-8.5 18.3 16.9 7.4 21.8 14.9 5.5 7.4-10.4 22.8 4 27.3 26.8-37.3 1-87.4-43.2-86.5zm95.4-37.7c10.9 3.5 23.8-12.4 35.2-3.5 8.5 6.9 6.5 29.3 13.9 38.7 9.5 11 31.8-4.4 30.8 20.4-79.9 21.4-132.1-14.4-128.1-93.9 33.7-14.9 37.2 34.3 48.2 38.3zm41.7 47.7c-1.5-14.9-19.9-2.5-25.8-9-6.5-6.9 9.4-29.3-10.5-24.8-19.8 4.5-17.9-31.8-39.7-25.8-9.9 42.7 34.3 78.4 76 59.6zm-628.4-12.4c-9-9 21.3-58.2 34.3-59.2 5.4 12-22.4 62.6-34.3 59.2zm3.5 54.6c1.4-3.5 4.9-3 5.4 0 1 3-3 5.5-6.9 1-15.9-16.9-10.5-38.3-3.5-53.2-6.5 20.4-8 36.3 5 52.2zm-5-52.2c-10 13.5-25.9 28.4-48.2 22.9-6-1.5-6-6-2.5-7 2.5-0.5 5 2 3 5.5 19.9 3.5 32.8-6 47.7-21.4zm11.4-94.8c13.4 65.5-25.3 102.3-94.9 94.3-3.9-20.3 16.9-10.4 22.9-20.8 5.4-9 0.5-26.8 6.9-33.8 8-9.4 21.4 2.5 29.8-2 9-4.5 5-45.7 35.3-37.7zm-8.4 23.3c-18.9-2-12.4 27.8-29.3 26.8-17.4-1-1.5 15.9-6 21.9-4 6.4-20.9-1.5-20.4 11.4 37.8 9.9 69.6-25.3 55.7-60.1zm58.1 64.6c0.5 9.4 17.4 15.4 13.4 26.8-3.5 9-21.4 13.4-26.3 22.4-6.5 10.4 12.4 23.8-7.5 30.3-40.7-56.6-27.3-108.8 36.3-129.2 21.8 22.9-15.9 39.8-15.9 49.7zm-25.3 47.2c11.4-6-4-16.4-0.5-23.4 3.4-6.9 25.8-0.9 16.3-15.4-8.9-14.9 19.9-23.8 9-39.2-37.3 4.5-52.2 50.2-24.9 78zm1798.5-335.1q-9.1-6.5-18.4-12.9c37.3 12.6 76.9 4.1 98.7-17.7 41.8-42.2 14.4-117.7-42.7-109.3-35.8 5.5-51.2 57.7-20.9 74.5 25.4 14 54.2-11.4 38.8-35.7 18.4 24.3-12.4 58.6-43.7 39.7-38.8-23.8-17.9-83.9 26.8-87.4 67.6-5.5 97.4 82.4 46.2 128.6-23.2 20.5-55.3 26.5-84.8 20.2zm-441.8-90.2c2-30.3-20.1-65.8-56.9-81.7q10.4 1.8 20.6 4c26.6 15.3 46.1 43.4 45.8 74.7-0.5 61.1-76.5 92.9-112.8 44.7-23.4-31.7 4.5-80.9 42.7-69 30.8 9.4 26.3 50.2-1 52.2 25.4-4 25.4-37.8 1-46.7-28.3-10.5-54.1 30.3-37.2 57.1 27.8 43.2 93.8 16.9 97.8-35.3zm-49.5-83.9q-10.7-1.4-21.2-2.5-7.5-2.1-15.7-3c12.6-1 25.1 1 36.9 5.5zm533.4 192.2c19.8-26.8 74.5-24.3 101.8 5.5-17.4-2.5-66.1 33.3-101.3-2 25.8 7.9 50.1-9.5 66.5-3.5-18.4-8.9-33.8 5-67 0zm-622.5 311c-9.4-32.3 4.5-66.1 49.7-70.1-5.5 10.5 0 26.4-3 40.3-4.9 26.8-30.3 20.8-46.7 29.8zm-32.3-101.9c27.9-18.3 64.1-15.4 81.5 26.4-10.9-2.5-24.3 7.4-38.7 9.4-27.4 3.5-29.4-22.3-42.8-35.8zm83-61.1c26.8 18.9 36.8 54.2 4 85.5-2-11.4-15.9-20.9-22.4-33.3-12.9-24.3 10.4-35.3 18.4-52.2zm86.9 56.7c-9.4 32.3-38.7 53.6-79.5 32.8 10.5-5.5 14-21.9 23.9-32.3 18.4-20.4 36.7-1.5 55.6-0.5zm-27.3 103.3c-33.3 1-62.6-20.9-55.1-65.6 8.4 8 25.3 7 38.2 13 24.9 11.4 12.9 34.7 16.9 52.6zm-1482.9-535.4h4455.6v10.6h-4455.6zm-256.3-56.6h4968.2v19.1h-4968.2z"/></svg>