<svg version="1.2" xmlns="http://www.w3.org/2000/svg" viewBox="0 0 351 13" width="351" height="13"><style></style><filter id="f0"><feFlood flood-color="#ab6d3a" flood-opacity="1" /><feBlend mode="normal" in2="SourceGraphic"/><feComposite in2="SourceAlpha" operator="in" /></filter><g filter="url(#f0)"><path  d="m330.1 1.1c0.1 3.2-2.1 5.5-5.3 5.6 3.2-0.1 5.5 2.1 5.6 5.4-0.1-3.3 16.9-5.6 20.1-5.7-3.2 0.1-20.3-2.1-20.4-5.3z"/><path  d="m330.4 6.8c-8.5 0-21.1-4-21-6.5-0.1 2.5-108.2 5.8-116.7 5.7 8.5 0.1 116.4 4.5 116.3 7 0.1-2.5 12.9-6.2 21.4-6.2z"/><path  d="m20.6 1.1c0 3.2 2.1 5.5 5.4 5.6-3.3-0.1-5.6 2.1-5.6 5.4 0-3.3-16.9-5.6-20.2-5.7 3.3 0.1 20.4-2.1 20.4-5.3z"/><path  d="m20.3 6.8c8.5 0 21.1-4 21-6.5 0.1 2.5 108.2 5.8 116.7 5.7-8.5 0.1-116.3 4.5-116.2 7-0.1-2.5-13-6.2-21.5-6.2z"/><path  d="m216.2 6.6c0 0.3-0.3 0.5-0.7 0.5-0.3 0-0.6-0.2-0.6-0.5 0-0.4 0.3-0.6 0.6-0.6 0.4 0 0.7 0.2 0.7 0.6z"/><path  d="m214.5 6.6c0 0.4-0.3 0.7-0.8 0.7-0.5 0-0.9-0.3-0.9-0.7 0-0.5 0.4-0.8 0.9-0.8 0.5 0 0.8 0.3 0.8 0.8z"/><path  d="m211.2 7.6c-0.6 0-1.1-0.5-1.1-1 0-0.6 0.5-1.1 1.1-1.1 0.7 0 1.2 0.5 1.2 1.1 0 0.5-0.5 1-1.2 1z"/><path  d="m208 7.9c-0.9 0-1.6-0.6-1.6-1.3 0-0.8 0.7-1.4 1.6-1.4 0.8 0 1.5 0.6 1.5 1.4 0 0.7-0.7 1.3-1.5 1.3z"/><path  d="m205.7 6.6c0 1-0.9 1.8-2.1 1.8-1.1 0-2-0.8-2-1.8 0-1 0.9-1.9 2-1.9 1.2 0 2.1 0.9 2.1 1.9z"/><path  d="m200.6 6.6c0 1.3-1.2 2.4-2.8 2.4-1.5 0-2.7-1.1-2.7-2.4 0-1.4 1.2-2.5 2.7-2.5 1.6 0 2.8 1.1 2.8 2.5z"/><path  d="m190.1 9.8c-2 0-3.7-1.4-3.7-3.2 0-1.8 1.7-3.3 3.7-3.3 2.1 0 3.7 1.5 3.7 3.3 0 1.8-1.6 3.2-3.7 3.2z"/><path  d="m184.7 6.6c0 2.4-2.2 4.3-4.9 4.3-2.7 0-4.9-1.9-4.9-4.3 0-2.4 2.2-4.4 4.9-4.4 2.7 0 4.9 2 4.9 4.4z"/><path  d="m143.5 6.6c0 0.3 0.3 0.5 0.6 0.5 0.4 0 0.7-0.2 0.7-0.5 0-0.4-0.3-0.6-0.7-0.6-0.3 0-0.6 0.2-0.6 0.6z"/><path  d="m145.1 6.6c0 0.4 0.4 0.7 0.9 0.7 0.5 0 0.9-0.3 0.9-0.7 0-0.5-0.4-0.8-0.9-0.8-0.5 0-0.9 0.3-0.9 0.8z"/><path  d="m147.3 6.6c0 0.5 0.5 1 1.1 1 0.7 0 1.2-0.5 1.2-1 0-0.6-0.5-1.1-1.2-1.1-0.6 0-1.1 0.5-1.1 1.1z"/><path  d="m150.1 6.6c0 0.7 0.7 1.3 1.6 1.3 0.8 0 1.5-0.6 1.5-1.3 0-0.8-0.7-1.4-1.5-1.4-0.9 0-1.6 0.6-1.6 1.4z"/><path  d="m154 6.6c0 1 0.9 1.8 2 1.8 1.2 0 2.1-0.8 2.1-1.8 0-1-0.9-1.9-2.1-1.9-1.1 0-2 0.9-2 1.9z"/><path  d="m159.1 6.6c0 1.3 1.2 2.4 2.7 2.4 1.5 0 2.8-1.1 2.8-2.4 0-1.4-1.3-2.5-2.8-2.5-1.5 0-2.7 1.1-2.7 2.5z"/><path  d="m165.9 7.6c0 1.8 1.6 3.2 3.6 3.2 2.1 0 3.7-1.4 3.7-3.2 0-1.8-1.6-3.3-3.7-3.3-2 0-3.6 1.5-3.6 3.3z"/></g></svg>