<svg version="1.2" xmlns="http://www.w3.org/2000/svg" viewBox="0 0 851 583" width="851" height="583"><style>.a{fill:#a2495d}</style><path fill-rule="evenodd" class="a" d="m805.8 575.6c-41.5 16.8-94.4 1-140-31.1-27.2-19.3-54.7-42.9-80.8-65.7-2.9 1.9-6.2 3.6-9.7 5-31.8 12.9-116.8 1.3-142.2-50.5q-0.7-1.3-1.3-2.7-0.1-0.4-0.3-0.9-0.2-0.4-0.4-0.9-0.1-0.2-0.1-0.4-0.2-0.2-0.4-0.4c-0.2-0.1-0.4-0.3-0.5-0.4q-0.5-0.4-1-0.8-0.2-0.2-0.4-0.4-0.2 0-0.5-0.1-0.4-0.1-0.9-0.2-0.5-0.1-0.9-0.2-0.3-0.1-0.5-0.2-0.3 0.1-0.5 0.2-0.5 0.1-0.9 0.2-0.5 0.1-1 0.2-0.2 0-0.5 0.1-0.2 0.2-0.4 0.3-0.4 0.4-1 0.8-0.2 0.3-0.4 0.5-0.2 0.1-0.4 0.3-0.1 0.2-0.2 0.5-0.2 0.4-0.4 0.8-0.2 0.5-0.4 0.9-0.5 1.4-1.3 2.7c-26.2 51.5-111.3 61.8-142.9 48.4-3.4-1.5-6.7-3.2-9.6-5.2-26.4 22.4-54.3 45.6-81.8 64.5-46 31.3-99.2 46.4-140.4 29-35-14.8-53.3-54.2-38.5-89.2 11.6-27.5 32.3-41.6 52.4-55.2l0.8 3.3c-14.2 8.4-37.7 28.2-48.8 54.5-12.4 29.4 3.7 62.7 33 75.1 42.8 18.1 82.4 7.2 123.2-14.2 34.1-18 65.5-45.2 96.1-71.3-16.7-13.7-22.2-35.5-28.8-56.4-47.9 17.3-109.2 20.5-127.5 63.6-2.5 5.9-2.3 14.1 0.4 16.4 2.4-3.1 8.7-4.8 13.7-2.7 5.9 2.5 7.6 9.8 5.1 15.8-2.9 6.9-11.7 6.8-18.6 3.9-11.5-4.9-10.2-20.2-5.3-31.7 20-47.5 82.4-53.9 130.8-69.9q-0.9-2.6-1.8-5.2c-23.2 5.1-46.6 9.7-68.9 12.7-55.2 7-109.4-3.7-138.3-38-24.4-29-22.8-72.5 6.2-96.9 22.9-19.3 47.7-22.4 71.8-25.4l-0.8 3.3c-16.4 1-46.4 8-68.2 26.4-24.4 20.5-25.2 57.5-4.7 81.9 29.9 35.6 70.2 43.9 116.2 43.3 27.7-0.4 56.4-5.7 84.8-12.1-3.3-8.4-7.3-16.2-13-22.9-25.6 15.4-53.7 27-71.2 19.6-7.8-3.3-11.9-12-8.6-19.8 10.7-25.3 42.8-30.5 68.1-19.8 7.1 3 13 6.6 17.8 10.8 7.8-4.8 15.6-9.8 23.2-14.5-1.9-8.7-3.7-17.9-5.7-26.8-6.4-0.5-13-2.2-20.2-5.2q-1.1-0.5-2.2-1c-36.5-7.8-72.1-14.1-97.5 7.2-4.9 4.2-8.5 11.6-7.1 14.8 3.6-1.6 9.9-0.3 13.4 3.8 4.2 4.9 2.3 12.2-2.6 16.4-5.7 4.8-13.5 0.8-18.3-5-8.1-9.6 0-22.6 9.6-30.7 24.8-20.8 57.1-19.6 90.2-14-6.2-4.7-11.5-10.5-15.3-16.9-49.2-19.3-89.3-52.3-99-93.9-8.6-37 12.6-75 49.6-83.6 7.8-1.8 15.2-2.5 22.4-2.4 1.1-7.1 3-14.3 6.2-21.7 11.9-28.2 41-43 70.1-39.8 15-25.2 44.2-39.6 74-32.2 7.8 1.9 14.7 4.7 21 8 4.2-5.8 9.2-11.3 15.4-16.5 23.5-19.7 56-19.7 80.6-3.7 24.8-15.6 57.4-15.2 80.5 4.9 6.1 5.3 11 10.9 15.1 16.7 6.4-3.2 13.3-5.9 21.2-7.7 29.9-6.9 58.9 7.9 73.5 33.3 29.2-2.7 58 12.5 69.5 41 3 7.4 4.9 14.6 5.9 21.7 7.1 0 14.5 0.8 22.3 2.7 36.9 9.2 57.5 47.5 48.3 84.4-10.3 41.4-50.8 73.8-100.3 92.4-3.9 6.3-9.3 12-15.6 16.7 33.2-5.2 65.5-5.9 90 15.3 9.5 8.3 17.4 21.4 9.2 30.9-4.9 5.6-12.8 9.6-18.5 4.7-4.8-4.3-6.6-11.6-2.3-16.5 3.5-4.1 9.9-5.2 13.4-3.6 1.5-3.2-1.9-10.6-6.8-14.9-25.1-21.7-60.8-15.9-97.4-8.6q-1.1 0.4-2.2 0.9c-7.2 2.9-13.9 4.5-20.3 4.9-2.1 8.9-4 18-6.1 26.7 7.5 4.8 15.3 10 23 14.9 4.9-4.2 10.8-7.6 18-10.6 25.5-10.3 57.4-4.6 67.7 20.9 3.2 7.8-0.9 16.5-8.8 19.7-17.6 7.1-45.6-5-71-20.7-5.7 6.6-9.8 14.4-13.3 22.7 28.3 6.8 56.9 12.5 84.6 13.3 46.1 1.3 86.4-6.4 116.8-41.5 20.9-24.1 20.7-61.1-3.4-82-21.5-18.6-51.4-26.1-67.8-27.4l-0.8-3.3c24.1 3.4 48.9 6.9 71.4 26.4 28.7 24.9 29.6 68.4 4.8 97.1-29.4 33.8-83.7 43.7-138.9 35.8-22.3-3.2-45.5-8.2-68.6-13.7q-1 2.6-1.9 5.2c48.1 16.7 110.4 24.1 129.7 71.8 4.7 11.7 5.8 27-5.8 31.7-6.9 2.8-15.7 2.7-18.5-4.2-2.5-6-0.7-13.3 5.3-15.7 5-2.1 11.3-0.2 13.6 2.9 2.8-2.2 3.1-10.4 0.7-16.4-17.6-43.4-78.9-47.4-126.5-65.5-6.9 20.8-12.8 42.5-29.6 56 30.1 26.5 61.1 54.2 95 72.7 40.4 22 79.8 33.5 122.9 16.1 29.5-12 46.1-45.1 34.1-74.7-10.7-26.4-33.9-46.6-48-55.2l0.9-3.2c19.9 13.9 40.4 28.2 51.6 55.9 14.3 35.2-4.6 74.3-39.8 88.6zm-166-197.3l3.9 2.4c10.4 6.8 39.4 21.4 57.9 13.9 6.3-2.6 10.8-8.8 8.2-15-5.7-14.2-32.8-20.4-52.3-12.5-7.2 2.9-13 6.7-17.7 11.2zm-431-0.8l4-2.4c-4.7-4.6-10.4-8.5-17.6-11.5-19.4-8.2-46.5-2.4-52.5 11.7-2.6 6.2 1.7 12.5 8 15.1 18.4 7.8 47.6-6.3 58.1-12.9zm398.3 28.5q-8.5-2.1-16.9-4.2-0.3 0.3-0.7 0.6c5.3 2.2 10.7 4.4 16.2 6.5q0.7-1.4 1.4-2.9zm-79.5 19.6c8.8-5.1 16.6-11.3 22.8-18.5q3-3.5 5.6-6.9 1.6-2.2 3-4.3 0.5-0.7 1-1.5l4.3-5.1q0 0 0.1-0.1c8.6-14.7 11.5-28.2 12.4-41.1-5-1.5-10.2-2-16.1-0.7q-2.6 0.5-5.4 1.5c-0.6 0.2-1.2 0.4-1.8 0.7q-0.4 0.2-0.8 0.4c-1.6 3.8-3.8 7.9-6.4 12.1q-1.7 2.8-3.8 5.7c-3.5 5-7.5 10-12.1 15q-1.7 2-3.6 3.9c-7.6 7.8-16.3 15.2-25.8 21.6q-2.2 1.4-4.4 2.8-3.1 1.9-6.4 3.7-4.3 2.4-8.8 4.4-5.6 2.5-11.3 4.4-6.1 2-12.4 3.1c-6.6 1.1-13.3 1.5-20 1q1 0.6 1.9 1.1c4.9 3.1 10.1 5.4 15.4 7.1q4.5 1.4 9.1 2.2 5.5 1 11.1 1.1c16.6 0.6 33.7-3.7 48.4-11.4q2-1 4-2.2zm-140.1 11.9q4.6-0.7 9.1-2.1c5.4-1.6 10.6-3.8 15.6-6.8q0.9-0.5 1.8-1.1c-6.7 0.4-13.3-0.1-19.9-1.3q-6.3-1.2-12.4-3.3-5.7-2-11.2-4.5-4.5-2.1-8.8-4.6-3.2-1.8-6.3-3.8-2.2-1.4-4.3-2.9c-9.4-6.5-18-14-25.5-21.9q-1.9-2-3.6-4c-4.5-5-8.5-10.2-11.9-15.2q-2-2.9-3.7-5.8c-2.5-4.2-4.6-8.3-6.2-12.2-1.2-2.9-2.2-5.8-2.8-8.4q-0.1-0.6-0.2-1.2-0.5-2.1-0.8-4.2-0.1-0.9-0.2-1.8-0.7-1.5-1.2-3.1-0.2-0.4-0.4-0.8-0.9-2.9-1.4-5.8-0.5-3.2-0.5-6.5c-13.9 6.1-12 5.1-14.4 6.2q-0.2 0.2-0.5 0.3-0.1 0.8-0.1 1.6c0 1-0.5 2-0.5 3.1-0.7 2.4 0 0-1.2 5q-0.1 3.2-0.1 6.5 0.1 3.4 0.3 6.9c0.7 12.9 3.3 26.5 11.8 41.3q0.1 0.1 0.1 0.3c0.4 0.5 4.8 6 5.1 6.5q1.4 2.1 3 4.3 2.5 3.5 5.5 7c6.1 7.2 13.8 13.6 22.5 18.9q2 1.1 4 2.2c14.6 7.9 31.5 12.5 48.1 12.2q5.7-0.1 11.2-1zm-130-83.7c-1.3 0.7-3.9 2-7.5 3.8 1.3 4.3 2.3 7.3 2.6 8.5 1.6 4.6 3 8.9 4.5 12.9-1.1-8.2-0.6-16.6 0.4-25.2zm-24.2-153.6c16.7 5.1 32.6 15.2 48.1 26.7-3.4-7.1-5.5-14.6-6-22.1-12.5-14.1-23.2-29.2-31.3-44.8-2.7 2.1-5.3 5.4-6.7 8.8-4.4 10.3-5.4 20.8-4.1 31.4zm14.2-52.4c4.3-2.9 9.1-4 14.3-1.8 6.8 2.9 13 9.2 10.1 16.1-2.2 5.3-7.6 8.9-13 7.9 4.6 7.6 9.8 15.2 15.5 22.8q0.7 0.9 1.4 1.9c1.4-9.4 5.7-18 13.5-24.6 1.3-1.1 2.8-2 4.3-2.5 1.3-0.9 2.9-1.5 4.5-1.9 10-2.4 19.5-0.6 27.8 3.9q-0.3-1.1-0.6-2.3c-2.7-9-5.6-17.8-9-26-2.4 4.9-8.5 7-14.1 5.6-7.3-1.8-8.6-10.5-6.8-17.7 1.3-5.5 5.1-8.7 10-10.3-12.6-21.7-30-39-55.7-49.8q-3.2-1.4-6.6-2.4-1.2 3.3-2 6.7c-6.7 27.1-3.3 51.4 6.4 74.4zm181.4-124.2q-2.6 2.3-4.9 5c-18.3 21.1-26.3 44.3-28 69.2 5.1-0.6 9.9 0.6 13.5 4.9 4.8 5.7 7.4 14.1 1.7 18.9-4.4 3.7-10.9 4.5-15.1 1.1 0.6 9 1.8 18.1 3.4 27.4q0.2 1.2 0.4 2.3c5.4-7.7 13.2-13.4 23.2-15.7 1.7-0.4 3.3-0.5 4.9-0.3 1.6-0.2 3.3-0.1 4.9 0.3 10 2.5 17.7 8.4 23 16.1 0.2-0.7 0.4-1.5 0.5-2.3 1.7-9.2 3.1-18.4 3.8-27.3-4.3 3.4-10.8 2.4-15.1-1.3-5.7-4.9-2.9-13.3 2-18.9 3.7-4.3 8.5-5.4 13.6-4.7-1.4-25-9.1-48.3-27-69.6q-2.3-2.7-4.8-5.1zm187 52.7q-0.8-3.5-1.9-6.8-3.4 1-6.7 2.3c-25.8 10.5-43.4 27.5-56.4 48.9 4.9 1.8 8.6 5 9.9 10.5 1.7 7.2 0.2 15.9-7.1 17.6-5.6 1.3-11.7-0.9-14-5.8-3.5 8.2-6.6 16.9-9.4 25.9q-0.3 1.1-0.6 2.2c8.3-4.3 17.8-5.9 27.8-3.5 1.7 0.4 3.2 1.1 4.5 2q2.3 0.9 4.2 2.6c7.8 6.7 12 15.4 13.2 24.7q0.7-0.9 1.5-1.8c5.7-7.5 11-15 15.8-22.6-5.4 1-10.7-2.7-12.9-8.1-2.8-6.9 3.4-13.1 10.4-15.9 5.2-2.1 10-0.9 14.2 2 10.1-22.9 13.8-47.1 7.5-74.3zm2.3 95.5c-1.4-3.5-3.9-6.8-6.5-8.9-8.4 15.4-19.3 30.4-32.1 44.3-0.6 7.4-2.8 15-6.3 22 15.7-11.3 31.7-21.1 48.5-26 1.4-10.6 0.6-21.1-3.6-31.4zm48.6 102.1q-1 2.1-2.6 4c-7.3 8.5-21 12.6-37.1 14.1-3.2 6.4-5.7 12.9-7.3 18.2 14.6-4.1 28.8-8.9 42.3-14.6 4.4-7.4 6.4-15.3 4.7-21.7zm-71.5 82.6c0.9 8.5 1.2 16.9 0 25.1 1.6-3.9 3-8.2 4.7-12.9 0.4-1.2 1.4-4.1 2.7-8.3-3.5-2-6.2-3.3-7.4-4zm-68-11.8q0.4-2.7 0.7-5.2 0.1-0.9 0.3-1.8l1.4-5.8q0 0.1 0.1 0.2 0-0.2-0.1-0.3 0.1-0.4 0.1-0.7c0.4-6.5 0.1-12.5-0.7-18.1-5.6 0-11.6 0.6-18 1.9-0.2 0.1-3.4 1.1-3.6 1.2-1 0.4-2.1 0.8-2.8 1.1-0.5 0.2-1.1 0.5-1.7 0.6-0.6 0.2-1.3 0.4-1.9 0.6q-0.2 1.7-0.5 3.5c-0.8 6.1-2.2 12.4-4 18.9q-0.7 2.6-1.5 5.2c-3.2 10.4-7.6 20.9-13.2 30.9q-1.2 2.3-2.6 4.5-1.9 3.1-3.9 6.2-2.5 3.7-5.3 7.1-0.3 0.4-0.6 0.9-2.2 2.7-4.5 5.2-1.8 1.9-3.6 3.8-4.6 4.5-9.7 8.3c-5.3 4.1-11.1 7.5-17.3 10q1.1 0.1 2.2 0.2c5.7 0.5 11.4 0.2 17-0.7q4.5-0.8 9-2.2 5.3-1.6 10.5-4c4.9-2.3 9.7-5.1 14.1-8.3q0.4-0.3 0.9-0.6 2.3-1.7 4.5-3.5 1.1-0.9 2.2-1.9c6.1-5.3 11.5-11.3 16.2-17.8q1.3-1.9 2.5-3.8c5.5-8.5 9.6-17.7 11.9-26.9q1.1-4.5 1.9-8.7zm-138.1 75q4.4 1.4 9 2.3c5.5 1 11.2 1.4 16.9 1q1.1-0.1 2.2-0.2c-6.2-2.6-11.9-6.1-17.2-10.2q-5-3.9-9.5-8.6-1.8-1.8-3.5-3.8-2.3-2.5-4.4-5.3-0.3-0.4-0.7-0.8-2.6-3.5-5.1-7.2-2-3.1-3.9-6.3-1.3-2.2-2.5-4.5c-5.4-10.1-9.7-20.7-12.7-31.1q-0.8-2.6-1.5-5.2c-1.7-6.5-2.9-12.9-3.6-18.9q-0.3-1.9-0.4-3.6c-0.8-0.3-9.4-3.4-10.1-3.6q0.1-0.1 0.3-0.8-0.2 0.4-0.3 0.8c-6.3-1.4-12.3-2.1-17.9-2.2-0.6 3.6-0.2 11.2 0.2 17.9 0.1 2.4 0.3 4.6 0.4 6.5q0.1 1.1 0.1 2.1 0.1 0.5 0.1 0.9 0.2 2.1 0.6 4.3 0.6 4.3 1.7 8.8c2.1 9.2 6.1 18.4 11.5 27q1.2 1.9 2.5 3.8c4.5 6.6 9.9 12.7 15.9 18.1q1 1 2.1 1.9 2.2 1.9 4.5 3.6 0.4 0.3 0.9 0.6c4.4 3.3 9.1 6.1 14 8.5q5.1 2.5 10.4 4.2zm-36.9-102.5q0-0.4-0.1-0.7 0-0.1-0.1-0.1 0.1 0.5 0.2 0.8zm-75.9-21.1q2.2 4.3 4.1 8.6c4.9-2.4 9.8-5 14.7-7.3q0.2-1.1 0.5-2.2 1-4.4 2.1-9c-6 0.2-13.3 0.6-21.1 1.5l-2.4 0.2c0.9 2.7 1.6 5.5 2.1 8.2zm32.6-35.6c-2.2 7.5-3.8 14.7-5 20.5q4.7-0.3 9.2-0.6 1.1 0 2.2-0.1c3.2-4.4 6.5-8.8 9.7-13.1q-3.9-2.7-7.8-5.6c-2.5-0.9-5.1-2.1-7.6-3.4 0-0.1-0.7 2.3-0.7 2.3zm-28.2-59.4c9.2 11.3 19.6 22.2 30.5 32.7 1-5.5 1.9-12.4 2.1-19.6-13.6-8.8-23.7-18.8-26.3-29.8q-0.5-2.4-0.4-4.7c-4.4 4.8-6.4 12.7-5.9 21.4zm120.5 23.3l-1.7 1.8c-5.4 5.7-10.1 11.3-13.8 15.9q4.4 1.9 8.5 3.7 1 0.5 2 0.9c4.8-2.5 9.8-4.8 14.6-7.3q-2.2-4.1-4.4-8.4c-1.9-2.1-3.6-4.3-5.2-6.6zm-3.5-31.3c1.8 7.6 4.7 13.9 8.3 19.4l3.1-3.5q0.4-0.5 0.8-1c-4.5-12.2-8.6-24.4-12.2-36.3-1.4 7-1.6 14.5 0 21.4zm50.2 38.2q-2.2 4.2-4.5 8.4c4.8 2.5 9.7 4.9 14.5 7.5q1-0.4 2-0.9 4.2-1.8 8.6-3.5c-3.7-4.7-8.3-10.4-13.6-16.2l-1.6-1.8q-2.5 3.5-5.4 6.5zm88.8 32q-3.9 2.8-7.9 5.4c3.2 4.4 6.4 8.8 9.5 13.3q1.1 0.1 2.2 0.2 4.5 0.2 9.3 0.7c-1.1-5.9-2.7-13.1-4.8-20.6l-0.6-2.4c-2.5 1.3-5.1 2.4-7.7 3.4zm40.4 35q0.8-4 2.2-8.1l-2.4-0.3c-7.7-1-15.1-1.5-21-1.8q1.1 4.7 2 9.1 0.2 1 0.4 2.1c4.9 2.5 9.7 5.1 14.6 7.6q2-4.3 4.2-8.6zm-26.4-10.4c-4-0.1-7-0.1-8.4-0.1q1.8 2.8 3.5 5.7 3.1 1.3 6.2 2.7c-0.2-1.4-0.6-4.3-1.3-8.3zm-81.4 94.8q0.3-0.5 0.5-1 1.3-2.5 2.5-5.2 0.5-1.3 1.1-2.6c3-7.5 5.1-15.4 6.3-23.3q0.3-2.3 0.5-4.5c0.7-6.6 0.7-13 0.1-19.3-5.5 3.1-10.8 6.8-15.7 11.1q-1.7 1.5-3.4 3.1-5.7 5.4-10.5 11.7 0 2.3-0.1 4.7-0.1 2.6-0.3 5.2-0.3 3.7-0.8 7.3-0.5 4.4-1.4 8.8-0.1 0.5-0.2 1-0.7 3.4-1.6 6.7-0.7 2.5-1.5 5-0.4 1.2-0.9 2.4-1.7 4.8-3.9 9.4-0.4 0.9-0.9 1.7-2.5 5-5.8 9.6-0.3 1.7-0.3 3.5 0 0.2 0 0.4c4.6-2.1 8.9-4.6 12.9-7.6q3.8-2.8 7.1-6 2.2-2.2 4.3-4.5 1.7-1.9 3.2-3.9 1.3-1.5 2.4-3.2 3.6-5 6.4-10.5zm-70.6 21.7q3.3 3.2 7 6.1c4 3 8.2 5.7 12.8 7.8q0-0.2 0-0.4 0-1.8-0.3-3.5-3.1-4.6-5.6-9.7-0.5-0.8-0.9-1.7-2.1-4.6-3.8-9.5c-0.2-0.8-0.5-1.6-0.8-2.4q-0.7-2.5-1.4-5-0.9-3.3-1.5-6.8-0.1-0.5-0.2-1-0.8-4.3-1.3-8.7-0.4-3.7-0.6-7.4-0.2-2.6-0.2-5.2-0.1-2.3-0.1-4.7c-3.1-4.2-6.6-8.1-10.3-11.8q-1.7-1.6-3.4-3.1c-4.9-4.4-10.1-8.2-15.5-11.4-0.8 6.3-0.8 12.8-0.3 19.3q0.2 2.2 0.5 4.5c1.1 7.9 3.1 15.8 6 23.4q0.5 1.3 1 2.7 1.2 2.6 2.4 5.2 0.2 0.5 0.5 0.9 2.8 5.6 6.2 10.7 1.2 1.6 2.4 3.2 1.5 2 3.2 4 2 2.3 4.2 4.5zm44.1-191.2q-1.5 4-3.1 8c1.9-1.7 3.6-3.5 5.3-5.4q-1.1-1.3-2.2-2.6zm-3.6-4.6c-4.3-5.5-8.3-11-11.8-16.6-3.6 5.5-7.6 11-12 16.4q3.5 9.6 7.2 19.1 2.2 1.6 4.5 3.1 2.4-1.5 4.6-3c2.6-6.3 5.1-12.7 7.5-19zm-27.5 4.4q-1.1 1.3-2.2 2.5c1.6 2 3.4 3.8 5.2 5.5q-1.5-4-3-8zm6.4 39.5q-2.6 1.8-5.2 3.7c1.7 1.3 3.3 2.8 4.8 4.3q2.1 2.1 3.8 4.6 0.3 0.4 0.5 0.8 0.9 1.4 1.7 2.9 0.7 0.6 1.3 1.2 1 0.9 1.9 1.9 0.9-1 1.8-1.8 0.7-0.7 1.3-1.3 0.9-1.5 1.8-2.8c0.2-0.3 0.3-0.5 0.5-0.8q1.8-2.5 3.8-4.5c1.5-1.6 3.2-3 4.9-4.3-1.7-1.3-8.9-6.9-10.9-10.3q-0.1-0.4-0.3-0.7-1.3-3.4-2.7-6.7-1.4 3.3-2.9 6.7-0.1 0.3-0.2 0.6c-2.1 3.1-4 4.5-5.9 6.5zm90.5 13.1c-0.2 0.3-4.6 2.3-8.1 3q-3.2 0.5-6.4 1 1.5 3 2.4 6 0.9 2.9 1.3 5.9 0 0.4 0.1 0.9 0.2 1.6 0.2 3.3 0.3 0.8 0.6 1.7 0.4 1.2 0.8 2.5 1.2-0.4 2.4-0.8 0.9-0.3 1.8-0.5 1.4-0.9 2.9-1.7 0.4-0.2 0.7-0.5 2.7-1.3 5.5-2.3 3.1-0.9 6.3-1.5-1.4-2.9-2.8-5.8c-0.9-1.5-1.5-2.9-1.8-4.4-0.3-1.9-0.1-1.4-0.4-4q0-0.4 0.1-0.7 0.3-3.6 0.6-7.3c-1.9 1.6-4.3 3.6-6.2 5.2zm33-56.8c7.5-6.2 13.8-13.5 15.8-21.7 0.7-2.9 0.7-5.9-0.2-8.5-2.6 0.8-5.1 2.5-7 4.7-5.5 6.4-7.9 15.8-8.6 25.5zm-5.3 10.2c-5.7 3.3-11.9 6.3-18.2 9.2-0.9 6.7-1.6 13.5-2.2 20.3q1.2 2.4 2.6 4.8 2.7-0.3 5.4-0.7 7.8-6.6 15.3-13.5c-1.3-6.8-2.3-13.6-2.9-20.1zm4.1 25.9q-3.2 2.8-6.4 5.7c2.4-0.7 4.8-1.5 7.1-2.4q-0.4-1.7-0.7-3.3zm-27.7-14.4q-1.5 0.7-3.1 1.3c0.6 2.5 1.3 4.9 2.2 7.2q0.4-4.2 0.9-8.5zm-40.3 64.5c-2.6-6-5.6-11.2-8.8-15.8-5 2.5-10.1 5.7-15.2 9.8q-0.1 0.1-0.1 0.1l-4.4 5c-0.5 0.3-0.9 0.8-1.4 1.2-0.5 0.4-1 0.9-1.5 1.4q0.6 1.6 1.2 3.3c2 5.8 3.7 12.1 5.1 18.6q0.5 2.6 0.9 5.3 1 5.4 1.6 11 3.1-4.7 6.4-9 1.7-2.2 3.3-4.2c4.3-5.2 8.8-10 13.2-14.1q1.3-1.3 2.6-2.4c-0.2-0.7-0.4-1.3-0.6-2-0.3-0.5-0.5-1.1-0.7-1.7l-1.6-6.4zm-31.3 85.6q0.9-6.2 1-12.4-0.2-0.3-0.5-0.7-0.3 0.2-0.7 0.4-2.9 5.6-4.9 11.4-0.7 1.9-1.3 3.8-0.7 2.4-1.3 4.9-0.7 3-1.2 6-0.1 0.4-0.1 0.8-0.6 4.2-0.7 8.5-0.1 2.7 0 5.3 1.4-2.3 2.6-4.6 1.9-3.9 3.3-7.9 0.1-0.3 0.3-0.7 1-2.9 1.7-5.9 0.7-2.5 1.2-5 0.4-1.9 0.6-3.9zm-29.3-30.6q1.1 2.1 2.1 4.3 1.1 2.3 2.1 4.7 1.4 3.4 2.6 6.9 1.5 4.2 2.7 8.4 0.2 0.5 0.3 1 0.9 3.4 1.6 6.8 0.6 2.5 1 5.1 0.2 1.2 0.3 2.5 0.7 5.1 0.8 10.2 0 0.9 0 1.8 0 5.7-0.8 11.4 0.5 1.6 1.2 3.1 0.8-1.5 1.3-3.1-0.7-5.7-0.7-11.4 0.1-0.9 0.1-1.8 0.2-5.1 0.9-10.2 0.2-1.3 0.4-2.5 0.4-2.6 1-5.1 0.8-3.4 1.7-6.7 0.2-0.5 0.3-1 1.3-4.2 2.8-8.4 1.3-3.4 2.8-6.8 1-2.4 2.2-4.8 1-2.1 2.1-4.2c-0.9-5.2-2.2-10.3-3.9-15.2q-0.7-2.2-1.5-4.3c-2.4-6.1-5.3-11.9-8.7-17.2q-5.3 7.9-9 17.1-0.8 2.1-1.6 4.2c-1.7 4.9-3.1 10-4.1 15.2zm2.6 46q1.4 4 3.2 7.8 1.2 2.4 2.5 4.8 0.2-2.7 0.1-5.4 0-4.2-0.6-8.4 0-0.5-0.1-0.9-0.4-3-1.1-6-0.5-2.5-1.2-4.9-0.6-2-1.2-3.9-2-5.8-4.8-11.4-0.3-0.2-0.7-0.4-0.2 0.3-0.4 0.7-0.1 6.2 0.7 12.3 0.3 2 0.6 4 0.5 2.5 1.1 5 0.7 3 1.7 5.9 0.1 0.4 0.2 0.8zm-9.4-107.3c-5.1-4.2-10.1-7.5-15.1-10.1-3.3 4.5-6.3 9.7-9 15.7q-0.1 0.3-0.3 0.6 0.1 0 0.1 0.1l-1.6 2.8-0.9 4.7-0.4 1.9q1.3 1.2 2.6 2.5c3.3 3.1 6.6 6.6 9.8 10.4q1.6 1.9 3.1 3.9 1.7 2 3.3 4.2 3.3 4.4 6.3 9.1 0.7-5.6 1.7-10.9 0.5-2.7 1.1-5.3 0.5-2.5 1.1-4.9c1.2-4.8 2.6-9.3 4.2-13.6q0.6-1.7 1.3-3.4-0.8-0.7-1.5-1.4h0.1l-3.2-3.5-2.2-2.3q0-0.1 0-0.1-0.3-0.2-0.5-0.4zm157-54.8c4.6-5.3 8-12 10-18.9-8.7 8.9-18.1 17.7-27.7 26.4q0.1 0.6 0.3 1.2l1 4.5c5.8-3 11.3-7.3 16.4-13.2zm12.2-30.6c0.5-8.6-1.3-16.5-5.7-21.5q0.1 2.4-0.5 4.7c-2.7 10.9-13 20.8-26.7 29.4 0.1 7.2 0.9 14.1 1.8 19.6 11.1-10.3 21.6-21 31.1-32.2zm-29.7-29q1.6-1.8 3.6-3.1c-6.6-0.8-14.1 2.3-20.8 7.7-3.8 14.2-6.4 29-8.5 44 5.1-2.4 11.2-5.8 17.1-9.9-0.9-16.1 1.3-30.2 8.6-38.7zm-25.5 13.1c-4.5 5.6-8 12.2-9.7 19.1-1.9 7.6-2.2 14.5-1.4 21l4.3-1.7q0.6-0.3 1.2-0.5c1.5-12.9 3.4-25.6 5.6-37.9zm-19.1 66.3q-0.1-4.7-0.1-9.6c-0.7-2.6-1.3-5.4-1.7-8.2l-2.3 0.8c-7.3 2.7-14.1 5.5-19.5 8q3.1 3.6 5.9 7.2 0.7 0.8 1.4 1.7c5.4-0.1 10.9 0.1 16.3 0.1zm-28.3-6.8c-3.6 1.7-6.3 3.1-7.6 3.7q3 1.7 5.8 3.5 3.4-0.3 6.7-0.4c-0.8-1.2-2.5-3.6-4.9-6.8zm-14.1-74.8c-3.8 11.9-8.1 24-12.8 36.2q0.5 0.5 0.9 0.9l2.9 3.6c3.8-5.4 6.8-11.6 8.6-19.2 1.8-6.9 1.7-14.4 0.4-21.5zm-3.4-11.3c-3.4-7.9-8.6-14.2-14.8-16.6q1.2 2 1.7 4.4c2.6 11-2.1 24.5-10.4 38.4 3.3 6.3 7.1 12.1 10.4 16.6 5.3-14.2 9.8-28.5 13.1-42.8zm-26.3-14.4c-2 1.9-3.4 4.6-4.1 7.4-2.1 8.2 0.1 17.7 3.8 26.6 3.9-8.8 6.2-18.3 4.3-26.5-0.7-2.9-2.1-5.5-4-7.5zm-13.3 2c0.4-1.5 1-3 1.8-4.3-6.2 2.2-11.5 8.4-15 16.3 3.1 14.3 7.4 28.7 12.4 43 3.4-4.4 7.3-10.2 10.7-16.5-8.1-14-12.6-27.6-9.9-38.5zm-32 97.8c-2.5 3.2-4.2 5.6-5.1 6.8q3.4 0.1 6.7 0.4 2.9-1.7 5.9-3.3c-1.3-0.7-3.9-2.1-7.5-3.9zm-4.7-2.2c-5.4-2.6-12.1-5.5-19.4-8.3l-2.3-0.9c-0.4 2.9-1 5.6-1.8 8.3q0 4.8-0.3 9.5c5.5 0.1 11 0 16.4 0.1q0.7-0.8 1.4-1.7 2.9-3.4 6-7zm-24.6 23.5c-3.7-1-4-1.2-8.1-3.2q-0.3-0.3-0.5-0.5-2.8-2.4-5.5-4.8 0.2 3.7 0.5 7.3 0 0.4 0 0.7c-0.7 3.4-1.6 6.6-2.3 8.4q-1.5 2.8-2.9 5.7c2.1 0.4 4.2 1 6.2 1.7q2.8 0.9 5.5 2.4 0.4 0.2 0.8 0.4 1.4 0.8 2.8 1.8 0.9 0.2 1.8 0.5 1.2 0.4 2.4 0.9 0.4-1.3 0.8-2.5 0.3-0.9 0.7-1.7 0-1.7 0.2-3.4 0.1-0.4 0.1-0.9 0.5-3 1.4-5.8 1-3.1 2.5-6-3.2-0.5-6.4-1zm-40.3-21.1c2.3 1 4.7 1.8 7.1 2.5q-3.2-2.9-6.3-5.7-0.4 1.6-0.8 3.2zm-15.4-61.3c1.9 8.2 8.1 15.7 15.5 21.9-0.5-9.6-2.8-19.1-8.2-25.6-1.9-2.2-4.4-3.9-7-4.8-0.8 2.6-0.9 5.6-0.3 8.5zm17.4 52.3q7.5 7 15.1 13.7 2.7 0.4 5.5 0.7 1.4-2.3 2.7-4.7-0.9-10.2-2-20.3c-6.3-3-12.4-6.1-18-9.5-0.7 6.5-1.8 13.3-3.3 20.1zm27.5 0.3c0.9-2.3 1.7-4.7 2.3-7.2q-1.6-0.6-3.1-1.3 0.4 4.3 0.8 8.5zm3-32.4c-1.6-6.9-5-13.6-9.4-19.3 2 12.4 3.7 25.1 5 38q0.6 0.3 1.2 0.5l4.3 1.8c0.9-6.5 0.7-13.4-1.1-21zm-17.6-27.8c-6.7-5.5-14.1-8.7-20.7-8.1q1.9 1.3 3.5 3.2c7.3 8.6 9.2 22.7 8.1 38.8 5.8 4.2 11.9 7.7 16.9 10.1-1.8-15-4.3-29.8-7.8-44zm-45.3 35.3c1.9 7 5.2 13.7 9.8 19.1 5 6 10.4 10.3 16.1 13.4l1.1-4.5q0.2-0.5 0.4-1.2c-9.6-8.8-18.8-17.8-27.4-26.8zm20.3 73.3c-0.8 4-1.2 6.9-1.5 8.3q3.1-1.4 6.2-2.6 1.8-2.9 3.7-5.7c-1.4 0-4.4-0.1-8.4 0zm252.9 54.4q1.3-0.3 2.7-0.5 2.7-0.5 5.3-0.6c4.6-0.1 8.9 0.6 13.2 1.9-0.6-2.5-1.1-8.6-1.4-11.6-0.1-1.2-0.1-1.9-0.1-3q-0.1-0.8-0.1-1.6 0-1.9 0-3.7c-3.4 0.7-6.7-0.4-8.7-1q-3-1-6.1-2 0 3.3-0.6 6.4-0.5 2.9-1.5 5.8-0.2 0.4-0.3 0.9-0.6 1.5-1.4 3-0.1 0.9-0.2 1.9-0.3 2-0.8 4.1zm39-23.7q10-2.4 19.8-5.1c1.9-6.6 4.1-13.2 6.5-19.2-9.5 0.4-19.6 0.1-29.6-0.7-1.9 7.4-2.2 15.2-1.8 23.1q2.6 1 5.1 1.9zm9.9 2.7c2.5 0.5 5 0.9 7.5 1.1q0.4-1.6 0.8-3.2-4.1 1.1-8.3 2.1zm79-217.8c-9.8-24.3-35.3-36.9-60.4-33.9 1.5 3.7 2.8 7.6 3.7 11.6 5.8 24.9 0.5 51.7-12.4 77.7 2.3 3.1 4.3 6.6 5.7 10.2 4.7 11.7 5.9 23.4 4.7 35.1 11.4-2.9 23.2-3.3 35.4-0.3 12.2 3 25.2 11.1 22.2 23.3-1.8 7.2-7.1 14.3-14.3 12.5-6.3-1.5-11.1-7.3-9.6-13.5 1.3-5.3 6.5-9.3 10.4-9.3-0.2-3.6-6.6-8.7-12.9-10.2-10.8-2.7-21.3-2-31.6 0.9-2.4 17.3-9.9 34.6-18.9 51.6 17.8-12.3 40.9-15.3 57.4-1 1.3 1.1 2.3 2.4 3.1 3.8 1.1 1.2 2 2.6 2.6 4.2 3.9 9.5 3.6 19.2 0.5 28q1.1-0.4 2.1-0.9c41.6-19.8 74.1-44.9 85.2-90 7.7-31-9.3-63.8-40.2-71.5-7-1.7-14.2-2.6-21.2-2.8 1.6 17.2-1.5 33.4-4.6 49.3l-2.9-1.8c2.9-10.9 5-28.9 2.5-47.6-18.8 0.3-36.3 4.9-46.7 9.3l-2.2-2.7c15.3-5.2 30.9-10.6 48.2-11.4-1.2-7-3.1-13.9-5.8-20.6zm-30.4 153.6c-12.3-8.2-37.5-1.4-50.7 13.8-5.1 5.9-8.5 11.9-10.7 18.1l4.6 0.4c5.8 0.6 16.2 0.9 26.9-0.6 6.5-14.8 14.9-26.4 25.3-30.6q2.3-0.9 4.6-1.1zm-58.5 11.5c11.7-20.2 22.7-40.3 26.3-60-19 6.4-37.3 20.1-55.7 34.6q-0.7 0.9-1.5 1.8c-5.1 5.9-10.3 10.3-15.8 13.6 2.1 8.8 4.5 17.9 6.7 26.5 8.8 0.9 18.1 2 27.2 2.9 2.4-5.9 6.1-11.7 11.2-17.6q0.8-0.9 1.6-1.8zm-55.9-141.6c-3.3-0.8-7.5-1-11.1-0.2-10.9 2.5-19.9 7.9-27.7 15.2 5.7 16.5 6.9 35.3 6.6 54.6 3.7-6.9 8.6-13.1 14.4-17.8 4-18.5 10-36.1 17.8-51.8zm-37.6 82.9c1.2-23.4 1.9-46.2-3.8-65.4-14.1 14.3-24.1 34.8-33.9 56q-0.3 1.2-0.6 2.3c-1.8 7.6-4.5 13.9-7.9 19.4 6 6.9 12.2 13.8 18 20.6 8.3-3.3 17.1-6.5 25.6-9.8-0.5-6.4 0.1-13.3 2-20.8q0.3-1.2 0.6-2.3zm-4.9-68.9c-3.6-10-9.1-19-17.5-26.3-2.8-2.5-6.6-4.3-9.9-5-0.4 17.5-3.3 35.9-8.4 54.1 2.9 6.9 4.3 14.6 4.4 22.4 8.8-17.1 18.6-33.2 31.4-45.2zm-101.6 22.3c-4.7-18.3-7.4-36.7-7.6-54.2-3.3 0.7-7.1 2.4-9.9 4.8-8.6 7.2-14.2 16.1-17.9 26.1 12.6 12.1 22.2 28.3 30.7 45.6 0.2-7.8 1.8-15.5 4.7-22.3zm-3.5 36.7c-9.5-21.4-19.3-42.1-33.1-56.6-6 19.1-5.6 42-4.8 65.4q0.3 1.1 0.6 2.2c1.8 7.6 2.3 14.5 1.7 20.9 8.5 3.4 17.2 6.8 25.4 10.2 6-6.7 12.3-13.6 18.3-20.4-3.3-5.4-5.8-11.8-7.6-19.4q-0.3-1.2-0.5-2.3zm-35.6-59.1c-7.7-7.4-16.7-12.9-27.5-15.6-3.6-0.9-7.8-0.7-11.1 0.1 7.6 15.8 13.3 33.5 17.1 52 5.6 4.8 10.4 11 14 18 0.1-19.3 1.5-38.1 7.5-54.5zm-66.9 100.2c-18.1-14.7-36.2-28.7-55.1-35.4 3.3 19.8 14 40 25.4 60.4q0.8 0.9 1.5 1.8c5.1 6 8.7 11.8 11 17.8 9.1-0.8 18.4-1.7 27.3-2.5 2.2-8.6 4.8-17.6 7.1-26.4-5.5-3.4-10.7-7.9-15.7-13.9q-0.7-0.9-1.5-1.8zm-88 12.6q2.2 0.3 4.5 1.2c10.4 4.4 18.6 16.1 24.9 31 10.7 1.6 21 1.5 26.9 0.9l4.6-0.3c-2.1-6.2-5.5-12.3-10.5-18.2-12.9-15.4-38-22.6-50.4-14.6zm-18.7 35.9q1.1 0.5 2.1 1c-3-8.9-3.1-18.6 0.9-28q1-2.4 2.7-4.2c0.8-1.4 1.9-2.6 3.2-3.7 16.7-14.1 39.7-10.7 57.3 1.9-8.7-17.2-15.9-34.6-18.1-52-10.2-3.1-20.7-3.9-31.6-1.4-6.2 1.5-12.7 6.5-13 10 3.9 0.2 9 4.2 10.3 9.5 1.4 6.3-3.5 11.9-9.8 13.4-7.3 1.7-12.4-5.5-14.1-12.7-2.9-12.3 10.3-20.2 22.5-23 12.3-2.9 24-2.2 35.4 0.8-1-11.7 0.3-23.4 5.2-35 1.5-3.5 3.5-7.1 5.9-10.1-12.5-26.1-17.4-53.1-11.2-77.9q1.5-6 3.9-11.5c-25.2-3.4-50.8 8.8-61 33-2.8 6.6-4.8 13.5-6.1 20.4 17.3 1.2 32.8 6.7 48 12.2l-2.2 2.6c-10.4-4.5-27.7-9.4-46.6-9.9-2.7 18.7-0.9 36.6 1.8 47.6l-2.9 1.7c-2.9-15.9-5.7-32.1-3.8-49.3-7.1 0.1-14.2 0.8-21.3 2.5-31 7.2-48.5 39.8-41.3 70.8 10.5 45.3 42.6 70.9 83.8 91.3zm9.4 4.3c13.4 6 27.6 10.9 42.1 15.3-1.6-5.4-3.9-11.9-7-18.4-16.1-1.7-29.7-6-37-14.6-1-1.2-1.8-2.6-2.4-4-1.8 6.4 0 14.3 4.3 21.7zm40.9-2.6c2.4 6.2 4.4 12.7 6.3 19.4q9.7 2.8 19.6 5.4 2.6-0.9 5.2-1.8c0.5-7.9 0.3-15.7-1.5-23.2-10 0.7-20.1 0.9-29.5 0.2zm7.7 25.1q0.4 1.6 0.8 3.2c2.5-0.1 5-0.5 7.4-0.9q-4.1-1.2-8.2-2.3zm366.9 48.4q-1.1 4.6-2.3 8.9c-2.6 10-5.5 18.6-10.7 25.6q7.6 1.9 15.2 3.9c4.8-9.5 9.9-18.4 17.8-25.9l-2-1.4c-6.5-4.4-12.8-8.2-18-11.1zm2.6-30.3c-2.9 0-5.6-0.2-8.4-0.5q-4.7 0.7-9.5 1.2c0.8 5.4 1.7 10.8 2.5 16.2q0.9 0.5 1.9 1.1 3.9 2.3 7.9 4.8c1.7-5.7 3.5-12.8 5.1-20.5zm27.5-15.2c6.6-2.6 12.7-7 17.6-12.3-11.8 3.9-24.2 7.6-36.7 10.9q-0.2 0.7-0.3 1.3l-1.1 4.5c6.5-0.1 13.3-1.4 20.6-4.4zm12.4-50.4c-7.8 3.1-14.2 10.5-19.2 18.7 9.5-2 18.4-5.7 24-12.1 1.9-2.3 3.2-4.9 3.7-7.6-2.7-0.5-5.7-0.1-8.5 1zm-144.1-246.4c-19.9-17.2-48.2-16.9-69.3-2.8 3.1 2.6 5.9 5.5 8.6 8.6 16.4 19.6 23.9 46 24.2 74.9 3.5 1.7 6.8 4 9.7 6.5 9.5 8.3 15.9 18.1 20.2 29.1 8.8-7.7 19.1-13.5 31.4-16.3 3.7-0.9 7.7-1.3 11.6-1.2 13.8-25.5 32.7-45.3 56.4-54.9 3.8-1.5 7.7-2.7 11.6-3.6-12-22.3-36.9-35.9-62.5-30-7 1.7-13.8 4.2-20.1 7.2 9.2 14.6 13.8 30.4 18.3 46l-3.4-0.3c-2.4-11-8.7-28-19.4-43.5-16.7 8.8-30.1 20.8-37.4 29.4l-3.1-1.3c11.2-11.7 22.7-23.5 37.7-32.1-4.3-5.7-9.1-11-14.5-15.7zm-258.5 37.6c3.9 0.9 7.7 2.2 11.5 3.8 23.6 9.9 42.2 30 55.6 55.6 3.9 0 7.9 0.5 11.6 1.4 12.2 3.1 22.4 9 31.2 16.8 4.4-10.9 10.9-20.7 20.5-28.8 3-2.4 6.4-4.7 9.8-6.3 0.8-29 8.7-55.2 25.4-74.5q4.1-4.7 8.7-8.5c-20.8-14.4-49.2-15.2-69.3 1.7-5.5 4.6-10.4 9.9-14.7 15.5 14.9 8.8 26.2 20.8 37.2 32.7l-3.1 1.3c-7.2-8.8-20.5-21-37-30-10.9 15.4-17.4 32.2-20 43.2l-3.4 0.2c4.7-15.5 9.5-31.2 19-45.7-6.3-3.1-13.1-5.7-20.1-7.4-25.4-6.4-50.5 6.9-62.9 29zm-51.2 204.3c0.4 2.7 1.7 5.4 3.6 7.7 5.4 6.4 14.3 10.3 23.7 12.5-4.8-8.4-11.1-15.8-18.9-19.1-2.7-1.1-5.7-1.5-8.4-1.1zm2.8 39.2c4.8 5.3 10.8 9.8 17.3 12.5 7.2 3.1 14 4.5 20.5 4.7l-1-4.5q-0.1-0.6-0.3-1.3c-12.5-3.5-24.8-7.3-36.5-11.4zm49.9 51.1q4-2.5 8-4.7 0.9-0.6 1.9-1.1c0.8-5.4 1.8-10.8 2.6-16.2q-4.7-0.5-9.4-1.3-4.1 0.4-8.4 0.3l0.5 2.4c1.4 7.7 3.2 14.9 4.8 20.6zm-23.3 19.6c7.8 7.7 12.7 16.7 17.3 26.2q7.7-1.8 15.4-3.7c-5.2-7-8-15.7-10.4-25.7q-1.1-4.3-2.2-9c-5.2 2.9-11.6 6.6-18.1 10.9zm21 33.9c5.5-2.1 11-4.1 16.3-6.3q-0.4-0.3-0.7-0.6-8.4 2-17 3.9 0.7 1.5 1.4 3zm0.8 5.1c7.5 15.3 16.4 30.9 36 43.6 9-7.4 18-14.5 27.1-21-18.1-7.2-33-16.8-40.8-26q-1.7-2.1-3.3-4.3c-6.1 2.7-12.5 5.2-19 7.7zm56 53.2c30 12.7 72.8 8 98.2-16.2 4.1-3.8 7.7-8.2 10.8-13.1 0.4-0.6 0.8-1.2 1.1-1.8-5.7 3.4-11.9 6-18.3 7.8q-6.2 1.8-12.5 2.7c-22.3 3.2-46.5-0.8-67.2-8.1-8.6 6.5-17.6 13.7-26.7 21.4l0.3 0.1c4.1 2.5 9 4.9 14.3 7.2zm259.7-5.3c-9-7.8-17.9-15.1-26.5-21.8-20.8 7-45 10.7-67.2 7.1q-6.4-1-12.5-2.8c-6.4-2-12.5-4.7-18.2-8.2 0.3 0.7 0.7 1.3 1.1 1.9 3 4.9 6.6 9.3 10.6 13.3 25.1 24.5 67.7 29.9 98 17.6 5.3-2.2 10.2-4.5 14.4-6.9zm42-45.2c-6.4-2.6-12.8-5.2-18.9-8q-1.5 2.2-3.3 4.3c-7.9 9.1-23 18.5-41.2 25.3 9 6.7 17.9 13.9 26.7 21.5 19.9-12.5 29-27.9 36.7-43.1zm-203.3-189.8q0.1 0 0.1 0zm71.2 70.7zm-124.5 5.7zm246.8 16zm14.8 15.8zm-411.2-30.8zm26.7 70.7z"/></svg>