<svg version="1.2" xmlns="http://www.w3.org/2000/svg" viewBox="0 0 143 149" width="143" height="149"><style>.a{fill:#a2495d}</style><path fill-rule="evenodd" class="a" d="m79.4 66.8c1.8-7.8 6.7-21.9 19.2-25.2 20.6-5.5 44.8-5.3 44.8-5.3 0 0-12.5 5.1-22.9 23.1-7.7 13.3-29.8 10.4-39.6 9.7 4.1-4.5 3.8-4.4 8.7-9.3 8.9-9 35.7-15.7 35.7-15.7 0 0-17 2.6-29.6 7.6-5.3 2.2-14.2 11.2-16.3 15.1zm-6.9 3.5c-6.8-4.2-18.6-13.4-17.7-26.3 1.5-21.3 9.7-44.1 9.7-44.1 0 0 0.7 13.4 14.3 29.2 10.1 11.6 0.2 31.5-3.7 40.6-2.9-5.4-2.9-5.1-6-11.3-5.6-11.4-3.2-38.9-3.2-38.9 0 0-3.1 16.9-2.4 30.5 0.3 5.8 5.9 17.1 9 20.3zm-3.4 3.2c-6.2 5-18.7 13.2-30.6 8.1-19.7-8.4-38.5-23.5-38.5-23.5 0 0 12.9 3.7 32.2-4.1 14.3-5.7 29.8 10.2 37.2 16.8-6 1-5.8 1.1-12.7 2-12.5 1.5-37.8-9.6-37.8-9.6 0 0 15 8.3 28.1 12.1 5.5 1.6 18.1 0 22.1-1.8zm-13.7 17.8c-8.2 8.5-16 21.3-16 21.3 0 0 14.3-19.3 24.5-23.5 5.6-2.3 5.4-2.2 10.4-4-2.7 8.2-7.7 26.9-20.9 28.7-18 2.4-26.2 10.8-26.2 10.8 0 0 7.8-19.6 19.1-34.4 6.8-8.9 19.8-8.2 26.7-7-3.9 0.4-14.1 4.5-17.6 8.1zm23.3-4.1c5.9 3.6 16.2 11.6 15.4 22.8-1.3 18.6-8.3 38.4-8.3 38.4 0 0-0.7-11.6-12.6-25.3-8.7-10.1-0.1-27.5 3.2-35.4 2.6 4.7 2.6 4.4 5.2 9.9 4.9 9.8 2.9 33.8 2.9 33.8 0 0 2.6-14.7 2-26.6-0.2-5-5.1-14.8-7.8-17.6zm15.8 0.6c11.8 0.9 26.6-1.4 26.6-1.4 0 0-24 1.5-33.8-3.6-5.3-2.8-5.1-2.8-9.7-5.4 8-3.2 25.5-11.5 35.4-2.5 13.5 12.2 25.1 13.1 25.1 13.1 0 0-19.9 6.6-38.5 7.5-11.3 0.6-19.1-9.9-22.6-15.9 2.8 2.8 12.5 7.9 17.5 8.2z"/></svg>