<svg version="1.2" xmlns="http://www.w3.org/2000/svg" viewBox="0 0 294 326" width="294" height="326"><style>.a{fill:#a2495d}</style><path fill-rule="evenodd" class="a" d="m117.8 111c16.7 1.6 37.6-1.2 37.6-1.2 0 0-33.9 1.3-47.5-6.2-7.5-4.1-7.1-4.1-13.5-8 11.3-4.2 36.3-15.3 50-2.3 18.6 17.7 35 19.3 35 19.3 0 0-28.4 8.7-54.7 9.4-15.8 0.4-26.5-14.6-31.3-23.2 3.8 3.9 17.4 11.5 24.4 12.2zm-42.4-23.9c-9.6 2-28 3.7-38-8.6-16.6-20.4-28.6-47.6-28.6-47.6 0 0 12 11.4 37.5 14 18.8 1.9 26.7 28 30.9 39.4-7.2-2.3-6.9-2-14.9-5-14.6-5.5-35.7-32.1-35.7-32.1 0 0 11.6 17.7 23.6 29.3 5.1 4.9 19.7 10.3 25.2 10.6zm-0.4 5.7c-1.2 9.7-5.6 27.6-20.5 33.1-24.7 9.1-54.3 11.5-54.3 11.5 0 0 14.7-7.6 25.4-30.9 7.9-17.1 35.3-16.1 47.4-16.4-4.5 6.1-4.2 5.9-9.6 12.5-9.9 12-41.9 23.3-41.9 23.3 0 0 20.4-5.2 35.3-12.8 6.3-3.2 16.1-15.3 18.2-20.3zm2.8 27.5c-0.2 14.5 3.7 32.5 3.7 32.5 0 0-3.5-29.3 2-41.7 3.1-6.8 3.1-6.4 6-12.3 4.5 9.6 15.8 30.5 5.5 43.3-14.1 17.4-14.4 31.7-14.4 31.7 0 0-9.5-24-11.9-46.8-1.4-13.7 10.9-24 18-28.8-3.1 3.6-8.8 15.9-8.9 22.1zm10.8-68.8c-3.4-14.1-11.6-30.6-11.6-30.6 0 0 10.7 27.6 8.4 40.9-1.3 7.3-1.4 7-2.8 13.4-6.7-8.2-22.9-25.6-16-40.6 9.3-20.3 6-34.3 6-34.3 0 0 15.2 21 23.2 42.4 4.8 13-4.6 26-10.3 32.4 2.1-4.3 4.6-17.6 3.1-23.6zm-2.5 33c2.1-8.3 7.7-23.3 21.1-26.5 22.3-5.4 48.1-4.5 48.1-4.5 0 0-13.4 5.1-25.1 24.1-8.5 14.1-32.1 10.4-42.6 9.4 4.5-4.7 4.2-4.6 9.6-9.8 9.8-9.4 38.6-15.9 38.6-15.9 0 0-18.3 2.4-31.9 7.5-5.8 2.1-15.5 11.6-17.8 15.7z"/><path fill-rule="evenodd" class="a" d="m230.4 167.8c1.8-7.8 6.7-21.9 19.2-25.2 20.6-5.5 44.8-5.3 44.8-5.3 0 0-12.5 5.1-22.9 23.1-7.7 13.3-29.8 10.4-39.6 9.7 4.1-4.5 3.8-4.4 8.7-9.3 8.9-9 35.7-15.7 35.7-15.7 0 0-17 2.6-29.6 7.6-5.3 2.2-14.2 11.2-16.3 15.1zm-6.9 3.5c-6.8-4.2-18.6-13.4-17.7-26.3 1.5-21.3 9.7-44.1 9.7-44.1 0 0 0.7 13.4 14.3 29.2 10.1 11.6 0.2 31.5-3.7 40.6-2.9-5.4-2.9-5.1-6-11.3-5.6-11.4-3.2-38.9-3.2-38.9 0 0-3.1 16.9-2.4 30.5 0.3 5.8 5.9 17.1 9 20.3zm-3.4 3.2c-6.2 5-18.7 13.2-30.6 8.1-19.7-8.4-38.5-23.5-38.5-23.5 0 0 12.9 3.7 32.2-4.1 14.3-5.7 29.8 10.2 37.2 16.8-6 1-5.8 1.1-12.7 2-12.5 1.5-37.8-9.6-37.8-9.6 0 0 15 8.3 28.1 12.1 5.5 1.6 18.1 0 22.1-1.8zm-13.7 17.8c-8.2 8.5-16 21.3-16 21.3 0 0 14.3-19.3 24.5-23.5 5.6-2.3 5.4-2.2 10.4-4-2.7 8.2-7.7 26.9-20.9 28.7-18 2.4-26.2 10.8-26.2 10.8 0 0 7.8-19.6 19.1-34.4 6.8-8.9 19.8-8.2 26.7-7-3.9 0.4-14.1 4.5-17.6 8.1zm23.3-4.1c5.9 3.6 16.2 11.6 15.4 22.8-1.3 18.6-8.3 38.4-8.3 38.4 0 0-0.7-11.6-12.6-25.3-8.7-10.1-0.1-27.5 3.2-35.4 2.6 4.7 2.6 4.4 5.2 9.9 4.9 9.8 2.9 33.8 2.9 33.8 0 0 2.6-14.7 2-26.6-0.2-5-5.1-14.8-7.8-17.6zm15.8 0.6c11.8 0.9 26.6-1.4 26.6-1.4 0 0-24 1.5-33.8-3.6-5.3-2.8-5.1-2.8-9.7-5.4 8-3.2 25.5-11.5 35.4-2.5 13.5 12.2 25.1 13.1 25.1 13.1 0 0-19.9 6.6-38.5 7.5-11.3 0.6-19.1-9.9-22.6-15.9 2.8 2.8 12.5 7.9 17.5 8.2z"/><path fill-rule="evenodd" class="a" d="m110.8 251.1c7.3-5.4 22.1-14 35.3-7.5 21.9 10.6 42.5 28.9 42.5 28.9 0 0-14.5-4.9-36.9 2.8-16.5 5.7-33.4-13.2-41.3-21.1 6.9-0.9 6.6-1 14.4-1.6 14.4-1.1 42.5 13.1 42.5 13.1 0 0-16.6-10.4-31.3-15.5-6.1-2.1-20.5-0.9-25.2 0.9zm-45 2.3c-14.6 5.2-31.1 15.7-31.1 15.7 0 0 28-14.4 42.4-13.4 7.8 0.5 7.5 0.7 14.4 1.5-7.9 7.9-24.6 27-41.2 21.4-22.4-7.6-36.9-2.6-36.9-2.6 0 0 20.5-18.4 42.3-29.2 13.2-6.5 28 2 35.4 7.3-4.7-1.8-19.1-2.9-25.3-0.7zm19.6-28.3c-9.6-12.2-24.9-24.4-24.9-24.4 0 0 22.6 21.8 26.4 35.7 2 7.7 1.8 7.4 3.3 14.2-10.1-4.9-33.5-14.4-33.6-32-0.2-23.7-9.6-35.7-9.6-35.7 0 0 24 13.4 41.4 30.5 10.4 10.3 7.2 27.1 4.6 35.8 0.1-5.1-3.5-19-7.6-24.1zm19.5 24c-4.2-6.8-10.6-20.2-4.1-31.2 10.7-18.3 28-34.9 28-34.9 0 0-5.3 12.2-0.1 32.2 3.8 14.8-13.8 28.1-21.2 34.4-0.2-6-0.4-5.8-0.3-12.6 0-12.6 14.2-36 14.2-36 0 0-10.1 13.7-15.5 26.1-2.3 5.2-2.3 17.7-1 22zm-9.9 19c2.4 7.6 5.3 22.2-3.7 31.2-15 15.1-35.8 26.9-35.8 26.9 0 0 8.1-10.5 8-31.2 0-15.2 20.3-23.8 29.1-28.1-1.2 5.9-1.1 5.7-2.8 12.4-3.1 12.1-22.7 31.3-22.7 31.3 0 0 13.2-10.8 21.5-21.4 3.5-4.5 6.6-16.7 6.4-21.1zm13.1 12.4c9.6 9.5 24.1 18.5 24.1 18.5 0 0-21.9-16.5-26.5-28.2-2.5-6.4-2.4-6.2-4.3-11.9 9.2 3.2 30.5 9.1 32.3 24.2 2.5 20.5 11.9 30 11.9 30 0 0-22.1-9.2-38.8-22.2-10.1-7.9-9.1-22.7-7.6-30.5 0.3 4.4 4.9 16.1 8.9 20.1z"/></svg>