<svg version="1.2" xmlns="http://www.w3.org/2000/svg" viewBox="0 0 176 143" width="176" height="143"><style>.a{fill:#a2495d}</style><path fill-rule="evenodd" class="a" d="m97.8 68.1c7.3-5.4 22.1-14 35.3-7.5 21.9 10.6 42.5 28.9 42.5 28.9 0 0-14.5-4.9-36.9 2.8-16.5 5.7-33.4-13.2-41.3-21.1 6.9-0.9 6.6-1 14.4-1.6 14.4-1.1 42.5 13.1 42.5 13.1 0 0-16.6-10.4-31.3-15.5-6.1-2.1-20.5-0.9-25.2 0.9zm-45 2.3c-14.6 5.2-31.1 15.7-31.1 15.7 0 0 28-14.4 42.4-13.4 7.8 0.5 7.5 0.7 14.4 1.5-7.9 7.9-24.6 27-41.2 21.4-22.4-7.6-36.9-2.6-36.9-2.6 0 0 20.5-18.4 42.3-29.2 13.2-6.5 28 2 35.4 7.3-4.7-1.8-19.1-2.9-25.3-0.7zm19.6-28.3c-9.6-12.2-24.9-24.4-24.9-24.4 0 0 22.6 21.8 26.4 35.7 2 7.7 1.8 7.4 3.3 14.2-10.1-4.9-33.5-14.4-33.6-32-0.2-23.7-9.6-35.7-9.6-35.7 0 0 24 13.4 41.4 30.5 10.4 10.3 7.2 27.1 4.6 35.8 0.1-5.1-3.5-19-7.6-24.1zm19.5 24c-4.2-6.8-10.6-20.2-4.1-31.2 10.7-18.3 28-34.9 28-34.9 0 0-5.3 12.2-0.1 32.2 3.8 14.8-13.8 28.1-21.2 34.4-0.2-6-0.4-5.8-0.3-12.6 0-12.6 14.2-36 14.2-36 0 0-10.1 13.7-15.5 26.1-2.3 5.2-2.3 17.7-1 22zm-9.9 19c2.4 7.6 5.3 22.2-3.7 31.2-15 15.1-35.8 26.9-35.8 26.9 0 0 8.1-10.5 8-31.2 0-15.2 20.3-23.8 29.1-28.1-1.2 5.9-1.1 5.7-2.8 12.4-3.1 12.1-22.7 31.3-22.7 31.3 0 0 13.2-10.8 21.5-21.4 3.5-4.5 6.6-16.7 6.4-21.1zm13.1 12.4c9.6 9.5 24.1 18.5 24.1 18.5 0 0-21.9-16.5-26.5-28.2-2.5-6.4-2.4-6.2-4.3-11.9 9.2 3.2 30.5 9.1 32.3 24.2 2.5 20.5 11.9 30 11.9 30 0 0-22.1-9.2-38.8-22.2-10.1-7.9-9.1-22.7-7.6-30.5 0.3 4.4 4.9 16.1 8.9 20.1z"/></svg>