<svg version="1.2" xmlns="http://www.w3.org/2000/svg" viewBox="0 0 360 283" width="360" height="283"><style>.a{fill:#b47377}</style><path fill-rule="evenodd" class="a" d="m74.7 94.8c-1.2-0.5-2.4-0.9-3.5-1.4-3.8-1.5-7.4-3.3-10.6-5.5-2.7-1.8-5.2-4-7.4-6.4-1.9-1.6-4.5-3.5-7.4-4.8-1.5-0.4-3-0.6-4.6-0.3-3.4 0.7-6.2 3.6-5.7 7.2 0.3 2 1.9 4.1 4.2 3.8 0.7-0.2 1.4-0.6 1.5-1.3 0.1-0.8-0.7-0.9-1.1-1.3-0.7-0.9-0.2-2 0.7-2.4 1.5-0.8 3.2 0.1 3.9 1.5 1.3 2.7-0.5 5.5-3.1 6.4-3.3 1-6.5-0.8-7.9-3.8-1.7-4.1 0.3-8.6 4.2-10.5q1.4-0.6 2.8-0.8c-2.5-0.3-4.9 0.3-6.9 2.3-5.2 5.3-4.8 3.2-10.1 5.1-4 1.5-6.8 5.5-5.8 9.9 0.8 3 3.6 5.4 6.8 4.6 1.7-0.4 3.2-2 2.7-3.9-0.3-0.8-1.4-1.7-2.2-0.8-0.2 0.4-0.6 0.4-1 0.2-1-0.6-0.6-2 0-2.8 1.6-1.5 4-0.8 5.3 0.7 2 2.5 1.1 6-1.3 7.9-3.1 2.3-7.3 1.6-10-1.1-3.4-3.8-2.9-9.4 0.6-13 0.7-0.6 1.5-1.2 2.3-1.7q-0.2 0.1-0.5 0.2c-9.9 3.6-8.4 19.6 4.3 18.3-2.8 0.9-5.5 0.7-5.4 4.4 0 2 1.7 5.2-3.8 8.7-5.4 3.5-11 6.3-12 7.2 11.6-15.7 1.6-43.8 30.4-47.6 7.9-1.1 13.9 2.6 17.3 5.5-1.6-2.1-3.1-4.4-4.2-7-2.5-5.4-3.3-11.4-4.2-17.3q-0.4-2.6-0.8-5.1-0.2-0.5-0.5-0.9c-1.1-1.4-3.8-2.4-5.1-5-1.2-2.5-2.6-3.7-2.6-3.7 0 0 1.6 1 3.3 1.7 1.6 0.7 2.9 1.7 3.6 3.5 0.4 0.9 0.7 1.8 1 2.4-1.2-6.2-1.9-11.6-7.4-15.3-3-2-6.6-3-9.4-1.6-2.9 1.4-4.7 4.8-3.2 7.9 0.9 1.5 2.8 2.8 4.5 1.8 0.8-0.5 1.4-1.8 0.4-2.3-0.4-0.2-0.6-0.6-0.4-1.1 0.4-1.1 1.8-1.1 2.7-0.6 1.9 1.3 1.8 3.8 0.6 5.5-2.1 2.6-5.8 2.5-8.3 0.5-3.1-2.6-3.3-7-1.2-10.3 4.3-6.1 12.6-4.1 17.2 1.2-1.3-2.4-3-4.5-5.2-6.3-2.4-1.1-6.8-0.4-10.2-2.8-3.5-2.4-6.3-3-6.3-3 0 0 2.9 0.2 5.6-0.2 2.7-0.3 5.1 0.1 7.4 2 2.4 1.9 4.3 3.7 4.3 3.7q0.7 0.5 1.3 1.1 0.1 0.1 0.1 0.2 0.6 0.6 1.2 1.2c-1.6-4.7 0.3-10.6 5.6-10.8 2.7 0 5.2 1.7 5.7 4.5 0.2 2.2-1.1 4.5-3.4 4.7-1.5 0.2-3-0.7-3.1-2.3 0.1-0.7 0.6-1.6 1.4-1.4 0.3 0 0.5 0.3 0.5 0.6-0.1 0.8 0.9 0.9 1.5 0.6 1.2-0.6 1.2-2.2 0.6-3.3-0.5-0.8-1.3-1.4-2.1-1.6-2.8-0.9-5 1.1-6 3.6-1.3 3.8 1.2 7.8 2.6 10.7 1.8 3.8 2.9 8.3 3.9 13.7q0.4 2.1 0.7 4.4c0-0.6 0-1.3 0-2 0-1.7 0.7-2.8 1.8-3.9 1.2-1 2.1-2.3 2.1-2.3 0 0-0.7 1.4-1 3.8-0.2 2.3-2 4-2.5 5.4q-0.1 0.5-0.1 1c0.8 5.9 1.7 11.8 4.1 17.1 2.9 6.5 7.5 11.4 13.1 15.2 3.1 2.1 6.6 3.9 10.3 5.4-5.2-2.6-10.1-5.6-14-9.6-0.8-0.6-1.6-1.4-2.1-1.9-9.2-9.6-11.8-23.4-6.4-35.6 5.2-11.8 18.4-21.3 31.8-18.8 1.1 0.2 2.3 0.5 3.4 1q0 0 0.1 0c0.3 0.1 0.5 0.4 0.4 0.7-0.2 0.3-0.5 0.5-0.8 0.4-0.9-0.3-1.5-1.3-3.4-1.7-3.6-0.6-7.4-0.4-11 0.6-14.2 4-23.9 18.2-23 32.8 0.2 5.1 1.8 9.7 4.2 13.8-4.1-7.8-4.6-17.1-0.8-25.6 4.8-10.9 16.9-19.6 29.1-17.3q1.7 0.3 3.2 0.9 0 0 0.1 0c0.3 0.1 0.4 0.4 0.3 0.7-0.1 0.3-0.4 0.4-0.7 0.3-0.8-0.2-1.4-1.2-3.1-1.5-3.3-0.6-6.8-0.4-10.1 0.5-13 3.7-21.9 16.8-21.1 30.1 0.3 5.8 2.3 11 5.6 15.4q-1.8-2.9-3-6.3c-4.3-13.6 1.5-28.5 15-33.9 9.9-3.5 20.8-0.6 26.4 8.5 3.9 7.2 3.1 16-3.5 21.2-4.9 3.5-11.9 3.7-15.7-1.4-2.1-3.1-2.2-8 1.7-9.8 1.1-0.4 2.3-0.4 3.4 0 1.2 0.6 1.9 1.6 3 2.2 2.9 1.2 5-1.7 5.5-4.2 0.9-6.2-4.4-10.8-9.9-12.4 1 0.6 1.8 1.4 2.6 2.5 1.3 2.4 1.2 5.2-0.3 7.1-2.2 3-8.2 2.7-8.8-1.2-0.3-1.5 0.6-3 1.9-3.5 0.8-0.2 1.8 0.1 2.1 0.9 0.2 0.6-0.1 1.2-0.6 1.4-1.2 0.5-1.4-0.7-1.1-1-0.1 0.6 0.2 1 0.8 0.8 0 0 0.6-0.1 0.4-0.9 0-0.6-0.6-0.8-1.2-0.6-1.1 0.4-1.3 2 0.3 2.9 2.4 0.8 4.4-2.3 3.1-4.6-1.7-3.1-5.4-4-9-3.2-6.6 1.3-11.6 8-13.6 14q-0.2 0.9-0.5 1.7h0.1c1.1-3.2 2.1-5.3 4-7.6q0.5-0.6 1.1-0.9c0.3-0.2 0.7-0.3 1.1-0.1 0.3 0.2 0.5 0.5 0.5 0.9 0 0.4-0.3 0.9-0.8 1.3-2.6 2-4.1 3-5.8 6.3q0.1-0.1 0.1-0.1c1.8-2.8 3.7-4.6 6.4-6.3q0.8-0.5 1.5-0.7 0.7-0.2 1.2 0.3c0.3 0.3 0.4 0.8 0.3 1.2-0.2 0.4-0.7 0.8-1.4 1.1-3.3 1.2-5.2 1.3-7.6 4.1 1.2-1 2.8-2.2 4.4-2.9 1.8-0.7 3.4-1 4.1-1.2q1-0.2 1.7-0.1c0.5 0.1 0.9 0.3 1.1 0.7 0.2 0.4 0.2 0.9-0.1 1.3-0.3 0.4-0.9 0.6-1.7 0.6-0.8 0-2.6-0.6-4.6-0.3-1.2 0.2-2.4 0.6-3.5 1.2q0.2-0.1 0.4-0.2c3.1-1 6.6 0.3 7.9 3.5 0.9 2.4 0.1 5.2-2.2 6.4-2.1 1-4.6 0.5-5.5-1.7-0.6-1.4-0.1-3.2 1.5-3.7 0.8-0.2 1.8 0.2 1.9 1.1q0 0.1 0 0.2c-0.1 0.3-0.4 0.6-0.7 0.4-0.6-0.2-0.9 0.5-0.9 1 0.2 1.1 1.5 1.5 2.5 1.2 2-0.6 2.6-2.9 1.9-4.7-1.1-2.5-4-3.4-6.5-2.6-6 2.2-2.5 12.8-0.7 16.9 4.2 8.2 12.2 13 20.4 16.9-0.8-0.5-1.6-1-2.4-1.6q-2.9-1.8-5.4-3.9-3.6-3.1-4.1-7.8c-0.3-2.1-0.5-4.1-0.9-6.2-0.3-2 0.6 2.2 2.5 4.9 0.9 1.3 2 2.4 2.8 3.6 1.5 2.3 2.5 4.9 4 7.2 1.2 1.8 2.9 3.2 4.7 4.3 1.3 0.6 2.5 1.1 3.8 1.7-6.4-3.4-11.7-8.1-8.7-15.2 1.5-2.9 4.4-4.6 7.3-4.4 4.5 0.4 8.1 6.5 4.6 9.8-1.3 1.2-3.4 1.3-4.7 0.3-0.9-0.7-1.2-1.9-0.5-2.7 0.5-0.7 1.2-0.7 1.7-0.4 1.4 0.9 0.3 2-0.3 1.8 0.8-0.2 1-0.9 0.4-1.3 0 0-0.5-0.5-1.2 0.1-0.6 0.5-0.4 1.3 0.1 1.7 1.2 0.9 3-0.1 2.8-2.2-0.8-2.8-5.6-2.4-5.9 1.3-0.3 3.5 2 6.6 5.4 9.4 3.8 2.7 15.9 8.7 15.9 8.7 0 0-3.2-0.6-7.2-1.5-4.8-1.1-9.5-2.7-14.1-4.4zm133.5 78.7c0 2.7-0.1 5.2 0.1 7.7 1.1 12.7 8.3 26.5 24.7 30.9 6.1 1.6 12 0.8 16.6-1.8q0.8-0.7 1.7-1.5c0.5-0.4 1.4-1 2.5-1.6 1.5-1.4 2.7-3.2 3.6-5.1 1.7-3.7 2.3-7.8 0.3-11.8-1.1-2-3.4-4-6.2-3.6-9.4 1.5-9.6 9.6-16.9 7.5 5.1 1.2 8.1-5 12.7-7.2 3.8-1.8 7.6-2.2 10.6 2.1 1.5 2.1 1.9 4.8 1.9 7 0 3.8-1.6 7.4-4.3 10.4 3.7-1.3 8.5-1.2 10.7 5.1 1.2 3.5 0.9 7.7 0.1 11.3-0.6 2.6-1.6 5.1-2.9 7.5q0.2 0.2 0.2 0.2 0 0-0.3 0c-1.2 2.2-2.6 4.3-4.3 6.2q0.6 0.6 0.6 0.6c0 0-0.5 0-1.3 0.1-5.1 5.5-12.1 9.4-19.7 10q0-0.4 0-0.8-0.5 0-1 0 0 0.5 0 0.9c-3.7 0.2-7.6-0.5-11.4-2.2-28.4-12.2-23-48.8-22.5-53.9 0.3-2.5 0.7-4.9 1-7.4-2.5 8.7-6.2 16.4-11.5 21.3-5.1 4.7-11.8 7.1-19.5 5.4-2.4-0.5-4.7-1.5-6.8-3.1-4.2 4.1-10.1 5.9-16.6 4.6-4.5-0.9-8.8-3.3-11.6-7.6-2.5-3.8-3.4-8.3-2.9-12.3 0.9-6.7 6.2-12.7 12.9-13.9 3.2-0.7 6.6 0 9.3 2.3 4.4 4.1 5.7 11 1.7 16.1-3.4 4.1-10 5.3-13.8 1-1.9-2.3-2.3-6.2 0.4-8.2 1.8-1.1 4.5-0.5 4.3 2q-0.1 0.2-0.1 0.4c-0.7-0.8-1.2-1.5-2.4-0.9-0.8 0.5-1.2 1.5-1.3 2.4 0 2.1 1.7 3.7 3.7 4.3 5.1 1.4 9.2-3.4 8.9-8.3-0.1-2.9-1.5-5.3-3.6-6.8-9.8-7.6-20 3.6-17.8 14.2 0.6 2.9 1.9 5.8 3.7 8 1.9 2.2 4.2 3.9 6.7 4.9 3 1.2 6 1.4 8.9 1 3.4-0.6 6.3-1.9 8.6-4.2-1.4-1.3-2.5-3-3.2-4.8-0.6-1.4-1-3.1-0.9-4.5 0.1-2.2 0.6-4.5 1.8-6.1 0.8-1.1 2.1-1.9 3.7-1.6 2 0.5 3.2 2.6 3.8 4.4 1.6 4.5-0.8 9.7-3.3 12.7 2.4 1.9 5.3 3 8.1 3.3 17.8 1.9 26-13.7 29.3-31.1 0.7-3.5 0.2-8.4 0-11.9-0.4-7-0.4-6.8-0.8-12.6 1.2 3.6 4 10.9 3.8 19zm30.5 61.1c0.8-4 1.8-7.9 3.3-12 1.6-4.3 3.6-7.8 6.4-11-4.4 1.9-9.6 2.5-15.3 1.1-23.5-5.9-25.4-29-25.8-32.2q-0.4-2.5-0.5-4.8c-0.7 8.8-1.8 15.4-2 17.1-0.8 5.4-1 11-0.6 16.5 1.7 7.8 6 14.9 13 19.8 7.1 4.8 14.6 6.6 21.5 5.5zm-33.8-20.2c2.2 12.8 8.6 24.3 21.4 30.1 3.7 1.7 7.5 2.4 11.3 2.2-0.1-3.8 0.2-7.2 0.6-9.8q0.1-0.5 0.2-1c-13.6 2.2-28.5-7.5-33.5-21.5zm51.6 23.5q-0.6 0.2-1.2 0.5c-2.6 1-4 1.7-6.8-0.4-2-1.3-3-2.5-3.4-3.1q0.2 0.1 0.5 0.2c1.3 0.4 3.9-0.5 6.4-0.1 1.9 0.4 2.9 0.7 3.3 0.8-0.9-0.3-4.7-1.8-7.1-1.4-1.8 0.2-2.7 0-3.1-0.2 0.7-0.6 2.6-1.8 5.8-1.7 2.6 0.1 5.6 2.2 7.2 3.6q1.7-2 3.1-4.2 0.2-0.3 0.4-0.7-0.6 0.3-1.4 0.7c-1.9 1.2-3 2-5.6 0.6-1.8-0.8-2.7-1.7-3.2-2.1q0.3 0.1 0.5 0.1c1.1 0.1 3.1-0.9 5.2-0.9 2.2 0.1 3 0.3 3 0.3 0 0-4-1.1-6.2-0.4-1.4 0.5-2.1 0.4-2.5 0.3 0.5-0.6 1.9-1.8 4.5-2.1 2.3-0.3 5 1.1 6.5 2 2.7-5 4.2-10.6 3.1-16.3-0.7-3.3-3-6.8-6.8-6.5-2.1 0.2-3.9 0.9-5.6 1.8q-0.9 0.8-1.9 1.4c-3.8 3.2-6.4 8.1-8.2 12.7-1.5 3.5-2.7 7.4-3.4 11.6 6.1-1.2 11.8-4.7 16.3-10.6-4.5 6.9-10.4 10.6-16.5 11.9-0.6 3.5-0.9 7.2-0.8 11 6.6-0.6 12.9-3.7 17.9-8.8zm-1.2-2.1q0.2 0.1 0.2 0.1 0 0-0.2-0.1zm-17.7 11.8q0.5 0 1-0.1c0.4 10.2 3.8 20.3 12 27.1 8.9 7.4 18.6 6.8 24.8 3.6 20.7-10.6 15.9-42.5-2.1-37.8-11.4 2.8-11.1 18.4-11 22-2.3-8.5 1.2-18.3 8.1-21.9 3.4-1.8 8.1-2.3 12.3 0 9.9 5.7 11.3 28.2-7 39.1-7.2 4.4-16.1 5.2-24-1-10.4-8-13.7-20.8-14.1-31zm9.9-16.5c0-0.5 0.1-1.4 1-2.9 1.4-2.4 1.3-7.4 1.3-7.4 0 0 0 1-0.5 3.6-0.6 2.5-2.3 4.5-2.5 5.9q0 0.3 0 0.5c-0.4-0.6-1.1-1.9-1.6-4.2-0.9-3.5 0.3-4.5 2.2-6.5 1.9-2 2.5-3.6 2.5-3.6 0 0 2.7 6 1.3 9.9-1.1 2.9-2.9 4.3-3.7 4.7zm54.1-115.6c0.5 0.9 0.2 1.7-0.6 2.3-0.9 0.7-2.3 1.2-4.2 1.7-1.9 0.5-6.1 1.8-11.6 2.5-2.8 0.3-6.2 0.4-9.4 0.4 5.4 0.6 17.1 2.3 27.4 8.2q0.9 0.4 1.8 0.7c12.4 4.7 28.6 4 40-9.5 7.4-8.8 7.5-20.3 1.4-27.5-2.7-3.2-6.3-5.6-11-5.4-2.4 0-5.3 1.4-6.1 4.2-2.8 9.5 4.8 13.3-0.5 19.2 3.5-4.2-1-9.8-1.1-15.1 0-4.4 1.3-8.1 6.7-9.1 2.6-0.5 5.3 0.3 7.4 1.4 9.7 4.6 13.8 20.2 3.8 32.5-13.9 17-32.7 12.6-39.3 10.6 7 4.8 13 12 15.1 22.6 0.9 4.1 0.7 8-0.2 11.7 4.9 1.2 10.3 3.3 15.2 6.5 2.7 1.6 5.7 2.5 8.9 2.7 4.4 0.2 8.8-0.9 12-4.6 1.6-1.8 2.6-5.1 1.1-7.7-5.3-8.8-13.6-5.7-14.4-13.9 0.8 5.6 8.2 6.1 12.3 9.8 3.4 3.1 5.3 6.8 2.2 11.6-1.4 2.3-3.9 3.8-6.2 4.7-3.9 1.5-8.3 1.4-12.5-0.1 3.6 2.9 6.7 6.5 8.9 11.1 4.4 9 1.8 17.5-3.9 23.7-14.5 15.7-36.2 9.7-39.7-1.2-1.5-4.6 0-9 2.5-12 4.9-6 15.2-7.4 23.1-3.4-3.6-0.8-18.7-4.4-23.8 6.2-8.3 16.7 21.9 27.9 36.5 9.9 4.5-5.5 7.1-14.9 1.7-25.1-5-9.4-14.2-14.8-24.1-17.3-2.2 7.3-7.4 13.4-13.9 17.3-0.3 0.7-0.4 1.2-0.4 1.2 0 0-0.1-0.3-0.4-0.7q-3.3 1.8-6.9 3-0.2 0.2-0.2 0.3 0 0-0.1-0.3c-2.6 0.8-5.3 1.2-7.9 1.2-3.7 0.1-7.9-0.4-11.1-2.3-5.7-3.5-4.8-8.2-2.8-11.5-3.5 2-7.4 2.7-11 2-2.2-0.4-4.7-1.4-6.5-3.3-3.5-3.8-2.4-7.4 0.2-10.8 3-4 9.7-5.7 9.5-10.9 0.6 7.5-7.4 6.1-10.7 14.9-1 2.7 0.4 5.4 2.2 6.9 3.5 2.8 7.7 3 11.6 2.1 2.1-0.5 4-1.3 5.8-2.5 0.7-0.9 1.5-1.7 2.1-2.1q0.8-0.7 1.7-1.3c3.5-4 5.5-9.6 5.2-15.9-0.9-17-13-26.8-25.2-30.5q-1.9-0.6-3.9-1c2.4 1.2 4.5 3.1 5.7 5.4 0.8 1.6 1.5 3.7 1.1 5.7-0.6 4.2-3.5 5.2-6.8 5.3-4.1 0.1-8.5-3.3-11.7-0.5 4.5-4.2 7.6 1.6 14.8-0.8 2.2-0.6 3.1-3 3.2-4.8 0-3.6-2-6.3-4.5-8.3-1.6-1.3-3.5-2.2-5.5-2.7q-0.4-0.1-0.8-0.2c-9.9-2.4-30.6-19.5-44.6-30.9 2.3 2.9 4.3 5.9 7.2 8.3 0.9 0.8 2 1.7 3.2 2.6 2.9 2 3 6.7 3.5 8.6 0 0-7.1-0.2-9.1-6.3q0.2 1.6 0.2 3.2c0.5 1.7 1.7 3.1 4.5 4.2 2.3 1 3.1 4.2 3.8 5.4 0 0-5.5 1.2-7.7-3.6q-0.5-0.9-0.7-1.8-0.1 0.8-0.3 1.7c0 1.7 0.6 3.3 3.3 4.4 1.6 0.7 2.2 2.9 2.7 3.8 0 0-3.9 0.8-5.5-2.6-0.7-1.5-0.8-2.9-0.8-3.9q-0.6 2.9-1.8 5.8 0 0.2-0.1 0.5c-1.6 5.5-0.6 11.4 3.9 15.4 4.1 3.5 10.1 4.3 14.4 0.8 2.8-2.3 4.3-6.8 1.7-9.9-0.9-0.9-3-1.9-3.9-0.5-0.4 0.5-0.2 1.2-0.2 1.8q0 1.3-1.2 2.1c-2 1.2-4.3-0.3-5-2.3-1.1-3.3 1.2-6.4 4.4-7.4 4.3-1.2 8.3 1.4 10 5.3 2.1 5.3-0.3 10.8-5 13.7-7 3.9-15.3 0.8-19.1-6-1.1-2.3-1.8-5-1.7-7.6q-0.2 0.7-0.3 1.4c-0.3 2.8 0.2 5.6 1.6 8.2 3.2 6.1 10.6 9.6 17.4 7.7 1.7-0.4 3.3-1.3 4.6-2.4 0.7-0.6 0.7-1.2 1-1.5 0.1-0.2 0.3-0.2 0.4-0.1 0.1 0.1 0.1 0.3 0 0.4q-0.5 0.7-1.2 1.3c-4.8 4.3-12.5 3.6-17.5 0.1-4.2-2.9-6.5-7.5-6.5-12.4-1 6.6-0.2 13.3 3.6 19.2 2 3.2 5.9 6.7 9.3 7.2 1.5 0.2 3 0 4.3-0.5 2-0.8 3.5-2.4 3.7-4.3 0.1-1.3-0.5-3-1.9-3.4-0.7-0.2-1.5 0-1.9 0.6-0.2 0.3-0.3 0.8 0 1.2 0.1 0 0.1 0.1 0.2 0.1-0.1-0.1 0-0.3 0.1-0.4 0.2-0.1 0.4 0 0.4 0.1q0.1 0.1 0.1 0.3c0 0.2-0.3 0.3-0.5 0.2-0.4 0-0.6-0.4-0.6-0.8-0.1-0.5 0.3-1 0.7-1.3 1.8-0.8 3.4 1.1 3.6 2.8 0.1 1.1-0.2 2.2-1 3.2-2.2 2.4-5.5 2.9-8.5 2.1q-0.3-0.1-0.6-0.2c2.6 1.4 5.4 2.1 8.3 1.7 2.7-0.3 5.1-1.3 7-3.2 1.2-1.1 2.2-2.7 1.1-4.3-0.7-0.8-1.9-1.2-2.9-0.6-0.6 0.4-1 1.4-0.4 2.1 0.2 0.3 0.8 0.5 1.1 0.1 0.1-0.1 0.2-0.5-0.1-0.5-0.1 0-0.2-0.2-0.1-0.3q0-0.1 0-0.1c0.3-0.3 0.7-0.2 0.9 0.1 0.5 0.5 0.2 1.3-0.3 1.6-0.9 0.5-1.9 0.1-2.3-0.7-0.5-1-0.1-2.1 0.7-2.8 1.2-0.7 2.7-0.4 3.6 0.7 2.3 3.2-2.5 6.5-5 7.5-7.1 2.7-14.9-1.6-19.1-7.9-3.5-5.4-4.9-11.9-4.2-18.3-0.3 0.4-0.6 2.7-0.8 6.2-0.9 14.1 11.2 28.6 26.6 22.7 6-2.5 10.6-8.3 7.7-14.8q0-0.1-0.1-0.2c1.6 2.9 1.4 6 0.2 8.8-1.3 2.8-3.7 5.2-6.4 6.7-7.6 3.7-14.8 2-20.2-2.4-5.3-4.3-8.9-11.4-9.2-18.4-0.2-3.5 0.1-7.1 1.1-10.6-2.2 6.4-2.2 13.1 0.5 19.5 5 11.4 17.8 18.5 30.1 16.1 3.1-0.6 6.1-1.8 8.6-3.7 1.3-1 1.4-2 2-2.6 0.2-0.2 0.5-0.2 0.7 0 0.2 0.2 0.2 0.5 0 0.7q0 0.1-0.1 0.1c-0.7 0.7-1.4 1.4-2.2 2-2.9 2.3-6.3 3.6-9.8 4.1h0.3c1.3 0 2.2 0.5 3 1.4 0.8 0.9 1.8 1.6 1.8 1.6 0 0-1.1-0.6-2.9-0.7-1.8-0.2-3.1-1.6-4.2-1.9q-0.3-0.1-0.7-0.2c-2.8 0.1-5.6-0.2-8.3-1q0.3 0.1 0.3 0.2c0 0 1.3 0.5 2.7 1.1 1.4 0.7 2.2 1.6 2.6 3 0.5 1.3 1.2 2.6 1.2 2.6 0 0-0.9-1.2-2.8-2.2-1.9-1.1-2.6-3.2-3.6-4.1-0.5-0.3-1-0.7-1.5-0.9-11.2-3.6-20.3-13.6-20.2-25.8 0-2.2 0.4-4.4 1.1-6.5-4.4 10.3-9.2 19.6-18 29.1-3.5 3.7-7.1 8.3-6.8 13.6-2.5-18.4 16.1-31.3 19.1-35.8 5.6-8.6 10.2-17.7 12.1-25.2q-0.2 1-0.6 1.9c-1.1 3.4-2.9 6.6-5.3 9.5-0.3 0.5-0.5 1.1-0.7 1.6-0.5 2.5-1.5 4.7-4.3 5.7-0.6-2.6 2.6-4.1 4.1-6.2-1.9 1.9-4 3.8-6.3 5.1q-0.2 0.2-0.5 0.4c-0.7 0.9-1.1 2.8-2.5 3.9-1.5 1.1-2.1 2.2-2.1 2.2 0 0 0.5-1.2 0.7-2.3 0.2-1.2 0.7-2.1 1.8-2.8l0.2-0.2c-3.2 1.5-6.7 2.2-10.4 1.9q-1.5-0.1-3-0.5 0-0.1-0.1-0.1c-0.3 0-0.4-0.3-0.3-0.6 0-0.2 0.3-0.4 0.6-0.3 0.7 0.1 1.4 1 2.9 1.1 3.2 0.2 6.4-0.3 9.3-1.5 11.8-4.6 18.7-17.5 16.7-29.8-0.7-4.8-2.8-9.1-5.8-12.7-0.3-0.2-0.6-0.3-0.9-0.5 1.2 1.5 2.4 3.2 3.4 4.9 3.4 6.1 4.2 13.9 2.1 20.4-2.2 6.7-7.4 12-15.7 12.9-3.2 0.2-6.5-0.5-9-2.2-2.8-1.8-4.7-4.6-4.7-8.4q0 0.6 0.1 1.1c1 7 8.1 9.5 14.5 8.4 16.2-3.3 18.5-22.1 10.2-33.5-2.1-2.8-3.5-4.6-4.1-4.8 4.1 5 6.5 11.3 6.3 17.7 0 7.5-4.3 15.5-11.8 16.9-2.6 0.5-8.4 0.3-8.2-3.6 0.1-1.4 1.2-2.5 2.6-2.5 1.1 0.1 2 0.8 2.1 1.9 0.1 1-0.5 1.8-1.5 1.9-0.7-0.1-1.3-0.5-1.2-1.2 0.1-0.4 0.4-0.7 0.7-0.6q0.1 0 0.1 0.1c0.1 0 0.2 0.2 0.1 0.3-0.2 0.2 0 0.4 0.2 0.5 0.4 0.1 0.8-0.3 0.8-0.8 0.1-0.8-0.7-1.4-1.5-1.5-1.1 0.1-1.9 1-2 2.1-0.1 2 1.5 2.7 3.2 3.1 2.6 0.5 5.2 0 7.6-1.1 2.6-1.2 4.7-3.4 6.1-5.9q-0.2 0.3-0.4 0.5c-2.1 2.3-5.1 3.6-8.4 2.8-1.1-0.5-2-1.2-2.5-2.2-0.7-1.6-0.4-4 1.5-4.2 0.6-0.1 1.1 0.1 1.4 0.6 0.2 0.4 0.2 0.8-0.1 1.1-0.2 0.1-0.4 0.2-0.6 0 0-0.1-0.1-0.2-0.1-0.2 0-0.2 0.2-0.3 0.4-0.3q0.2 0 0.2 0.2 0.1-0.1 0.2-0.2c0-0.5-0.3-0.8-0.7-1-0.7-0.3-1.4 0-1.9 0.5-0.9 1.1-0.6 2.9 0.3 3.9 1.1 1.4 3.2 2 5.4 1.6 1.3-0.3 2.7-0.9 3.8-1.9 2.6-2.3 4-7.3 4-11.1 0-7-2.8-13-7.2-18.1 2.6 4.1 3.1 9.2 1.2 13.9-2.4 5.7-8.5 10.4-14.9 9.4-5.8-0.9 4.3-0.3 5.3-0.6 6.7-2.1 11.1-9 10.6-15.9-0.3-2.9-1.4-5.5-3.1-7.8q-1.1-1.1-2.3-2.2-1.7-1.4-3.5-2.8c-0.6-0.4-3-2.2-5.1-3.9-3.2-2.4-6.3-4.6-9.3-6.3-12.5-7-25.8-12.5-36.2-14.1 1.4 0.3 2.7 0.6 4.1 1 4.6 1.1 9.1 3.2 13.1 6.1 0.7 0.3 1.5 0.7 2.2 0.8 3.5 0.5 6.5 1.6 8 5.2-3.4 1-5.7-3.1-8.5-4.8q0 0-0.2-0.1c2.9 2.4 5.5 5 7.5 7.9q0.3 0.4 0.6 0.6c1.2 1 3.8 1.2 5.4 3.1 1.7 1.8 3.2 2.5 3.2 2.5 0 0-1.7-0.5-3.2-0.7-1.6-0.2-2.9-0.7-3.9-2.1l-0.3-0.3c2.3 4.2 3.6 8.8 3.5 13.7q0 2.1-0.4 4.1v0.1c0 0.4-0.4 0.6-0.8 0.5-0.3 0-0.6-0.3-0.5-0.7 0.1-1.1 1.2-2 1.2-4.1 0-4.3-1-8.5-2.9-12.3-7.2-15.1-25.1-23.2-41.3-19.4-9 2.2-16.2 7.6-21.3 14.9 3-3.7 6.6-6.9 10.5-9.5 7.8-5.3 18.1-7.1 27.1-4.9 9 2.3 16.6 8.7 18.6 19.8 0.7 4.1-0.1 8.6-2.1 12.2-2.1 3.8-5.7 6.6-10.6 7q0.7-0.1 1.4-0.3c9.3-2 11.8-11.6 9.7-20-6-21.3-31.2-22.6-45.5-10.4-2.9 2.4-4.8 4.1-5.6 5.1q0.4-0.2 0.9-0.5c6-5.1 13.7-8.4 21.6-8.9 10.1-0.6 21 4.4 23.7 14.2 0.9 3.4 1.2 11.1-4 11.2-1.9 0-3.5-1.3-3.6-3.2 0-1.4 0.9-2.7 2.3-3 1.3-0.1 2.5 0.6 2.7 1.9 0 0.9-0.6 1.7-1.5 1.7-0.5-0.1-1-0.4-0.8-0.9q0-0.1 0-0.1c0.1-0.2 0.3-0.3 0.5-0.1 0.2 0.2 0.5-0.1 0.6-0.4 0.1-0.6-0.5-1-1.1-1.1-1.1 0-1.9 1.1-1.8 2.2 0.1 1.5 1.5 2.5 2.9 2.5 2.6-0.1 3.5-2.3 3.8-4.5 0.4-3.5-0.4-7-2.1-10.1-2-3.4-5-5.9-8.5-7.5q0.3 0.2 0.7 0.5c4.6 2.4 7.9 14.3-1.6 14.4 8.5-17-21.8-17.8-31.6-9.8 3.8-1.6 8.7-2.7 14.3-1.5 12.5 2.8 14.3 12.9 15.3 18 1.1 5 5.7 12.5 5.7 12.5 0 0-10.3-0.1-13.1-8.7-5.9-17.8-22.3-25.5-33.9-7-0.9 1.5-7.8 15.4-8.7 16.7 9.1-41.1 34.9-46.2 23-63-4.2-5.9-13.6-6-19-0.7-3.5 3.6-4.4 9.5-0.6 13.2 2.2 2 6.1 2.7 8 0 0.7-1.2 0.6-3.5-1.3-3.4-0.7 0-1.1-0.5-1.3-1.1-0.2-2.1 2.2-3 3.9-2.8 4 0.8 5.2 5.4 3.8 8.8-5.9 13.1-24.8 0.3-18.2-13.2 4.1-7.6 13.1-10 20.8-6.7 4.9 2.3 8.1 6.4 9.6 11 0.5-2.7 3-5.1 3.8-6.4 4.6 5.3 0.6 13.1-3.5 20.1 1.6-2 3.4-4.4 5.1-7.2 2.4-4.1 8.7-4.6 11.2-5.5 0 0 0.5 9.5-7.6 12.7q2.2-0.4 4.4-0.6c2.1-0.8 3.9-2.5 5.1-6.3 1.1-3.2 5.3-4.6 6.9-5.6 0 0 2.1 7.3-4.1 10.6q-1.3 0.7-2.4 1.2 1.2 0 2.3 0.1c2.3-0.1 4.3-1.1 5.5-4.7 0.8-2.3 3.7-3.3 4.8-4 0 0 1.5 5.1-2.8 7.5-2 1.1-3.8 1.4-5.2 1.5 2.7 0.4 5.3 1 7.9 1.8q0.3 0.1 0.6 0.2c7.5 1.6 15.3-0.4 20.3-6.8 4.2-5.7 4.7-13.8-0.4-19.3-3.4-3.4-9.5-5.1-13.3-1.2-0.5 0.6-1 1.5-1.3 2.4 2.8-0.6 5.8 0.9 6.8 3.6 0.5 1.4 0.5 2.7 0.1 4-0.4 1.5-1.7 2.9-3.2 3.6-4.3 1.8-8.6-1-10.2-5.1-2-5.6 1-11.3 6.1-13.9 6.8-3.3 14.4-0.6 18.7 5.4 5.8 9 2.5 20.4-6.2 26-3 1.8-6.4 2.8-9.9 3.1q0.9 0.1 1.9 0.2c3.7 0.1 7.4-0.8 10.7-2.9 7.9-4.9 11.8-15.1 8.6-24-0.8-2.2-2-4.3-3.7-5.9-0.8-0.8-1.6-0.8-2.1-1.1-0.2-0.2-0.2-0.4-0.1-0.6 0.2-0.1 0.4-0.2 0.6 0q1 0.6 1.8 1.4c6.2 6.1 6 16.4 1.8 23.4-3.5 5.9-9.4 9.4-15.9 9.9 9 0.7 17.7-1.1 25.3-6.7 4-3 8.2-8.5 8.6-13.2 0.2-1.9-0.3-3.8-1.1-5.5-1.2-2.7-3.5-4.5-5.9-4.6-1.8 0-4 1-4.5 2.9-0.1 0.9 0.2 1.9 1 2.4 0.5 0.3 1.1 0.3 1.6-0.1q0.1-0.1 0.2-0.3c-0.2 0.1-0.4 0.1-0.5-0.1q-0.3-0.3 0-0.6 0.2-0.1 0.4-0.1c0.2 0.1 0.4 0.4 0.4 0.6-0.1 0.6-0.6 0.9-1.1 1-0.7 0.1-1.3-0.3-1.8-0.9-1.3-2.3 1.1-4.6 3.4-5 1.4-0.3 2.9 0 4.3 1 3.5 2.7 4.4 7 3.7 11.1q-0.1 0.4-0.2 0.8c1.5-3.5 2.2-7.4 1.4-11.2-0.7-3.5-2.3-6.7-4.9-9-1.7-1.5-3.8-2.6-5.8-1-1.1 1-1.5 2.6-0.6 3.8 0.7 0.9 2 1.3 2.8 0.5 0.4-0.4 0.6-1.2 0.1-1.6-0.2-0.1-0.6-0.2-0.7 0.2 0 0.2-0.2 0.2-0.4 0.2q0 0-0.1-0.1c-0.4-0.3-0.3-0.8 0-1.2 0.7-0.6 1.7-0.3 2.2 0.4 0.8 1 0.3 2.4-0.7 3.1-1.3 0.7-2.8 0.3-3.7-0.8-1.2-1.5-0.8-3.6 0.6-4.8 4-3.3 8.8 2.7 10.3 6 4.4 9.1-0.6 20-8.6 26.1-6.8 5.3-15.5 7.7-24 7.4 0.6 0.4 3.6 0.5 8.4 0.5 18.8-0.2 37-17.6 27.7-37.6-4-7.8-12.2-13.4-20.5-8.9q0 0-0.1 0c3.7-2.2 7.8-2.3 11.5-0.9 3.9 1.4 7.3 4.3 9.5 7.9 5.8 9.7 4.2 19.5-1.2 27.1-5.3 7.5-14.3 12.9-23.6 14-4.7 0.6-9.5 0.5-14.3-0.4 8.8 2.2 17.7 1.7 25.9-2.6 14.7-7.7 23-25.4 18.7-41.7-1.1-3.9-3-7.6-5.6-10.8-1.3-0.8-3.6-2-7.1-2.1-5.9-0.3-4.7-4.9-1.9-5.3 2.3-0.3 5.9 2.9 8.5 6.1q0.3 0.2 0.5 0.5c3.3 3.7 5.3 8.1 6.3 12.7v-0.3c-0.1-1.8 0.5-3.1 1.6-4.2 1.1-1.2 2-2.6 2-2.6 0 0-0.7 1.5-0.7 4-0.1 2.4-1.9 4.3-2.2 5.8q-0.1 0.4-0.1 0.9c0.4 3.6 0.2 7.4-0.5 11.1 0.1-0.3 0.1-0.5 0.1-0.5 0 0 0.6-1.7 1.3-3.6 0.7-2 2-3.1 3.7-3.8 1.7-0.7 3.4-1.9 3.4-1.9 0 0-1.5 1.4-2.7 4-1.2 2.6-4 3.8-5 5.3-0.5 0.6-0.9 1.3-1.2 2-3.6 15.3-16.2 28.4-32.4 29.4-3 0.2-5.9-0.2-8.8-0.8 14.2 4.9 27.1 10.3 40.6 21.2 5.2 4.2 11.7 8.6 18.7 7.7 4-0.6 7-3.5 8.4-7.1-1.8-0.5-3.6-1.4-5.1-2.5-1.4-1.2-2.6-2.7-3.1-4.4-0.5-1.9-0.3-3.9 1.3-5.2 1.3-0.9 3.1-1 4.5-0.4 1.9 0.7 3.3 2.2 4.2 3.9 1 2.2 1.4 4.6 1 6.9q0.7 0.1 1.5 0.1c13.8 0.3 19.9-13.8 10-22.5-8.2-7.2 3-22.9-10.2-30.4q0-0.1 0.4 0-0.2 0-0.4 0c10.9 1.5 21 13.6 20.1 24.9-1.1 11.6-1.6 16.3-1.6 16.3 0 2-0.6 4-1.6 5.8-1.8 3.4-4.9 5.7-8.5 7-2.7 0.9-5.5 1.2-8.3 1.1q-0.9 0-1.6-0.1c4 5.4 9.8 4.4 10 1.5 0-0.2-0.1-0.4-0.1-0.6 0-0.5 0.2-0.9 0.7-1.2 0.7-0.3 1.4-0.1 2 0.3 1.3 1 1.3 2.7 0.6 4.1-3 5.2-11.1 1.6-13.3-4.1h-0.1c3 6.4-0.6 16.1-7.4 14.4-1.7-0.6-3.1-2-2.9-3.8 0.1-0.9 0.5-1.7 1.4-2 0.6-0.1 1.1 0 1.5 0.4 0.2 0.2 0.3 0.4 0.5 0.6 2.6 2.2 8.1-1.8 6.8-9.6l-0.1-0.1c-1.9 5.1-6.3 8.2-11.5 9.3-3.2 0.7-6.3 0.6-9.4-0.1 7.6 8 16.1 17.2 29.2 22.6 3.1 1.3 8 2.4 11.5 2.4 17.8 0.3 34.7-4.5 36.5-22.3 0.2-2.8-0.2-5.9-1.6-8.6-3.4 1.9-9 3.1-13.1 0.7-1.7-1-3.5-2.7-3.5-4.7 0-1.6 1.1-2.7 2.3-3.3 1.8-0.9 4.2-0.9 6.4-0.5 1.4 0.2 2.9 0.9 4.2 1.8 1.6 1 3 2.4 4 4.1 2.8-1.8 4.6-4.4 5.9-7.6 1-2.7 1.4-5.7 0.9-8.9-0.5-2.7-1.7-5.3-3.5-7.5-1.8-2.3-4.3-4.1-7.1-5.3-9.9-4.3-22.9 3.4-17.5 14.5 1.1 2.3 3.1 4.2 5.9 5 4.7 1.2 10.3-1.8 10-7.1-0.2-2-1.4-4-3.5-4.4-0.9-0.2-1.9 0-2.5 0.7-0.9 1-0.3 1.7 0.3 2.6q-0.2-0.1-0.4-0.1c-2.5-0.3-2.5-3-1-4.6 2.4-2.3 6.1-1 8 1.3 3.5 4.6 1 10.8-3.7 13.3-5.9 2.9-12.4 0.2-15.4-5-1.8-3.1-1.7-6.5-0.5-9.5 2.6-6.3 9.6-10.3 16.3-9.7 4.1 0.3 8.3 2 11.5 5.3 3.6 3.6 5.1 8.3 5.1 12.9q0 0.7-0.1 1.4c1.3-2.7 3.2-5.1 6-7 4.4-3 9-2.3 12.7 0.2 9.2 6.4 7.7 18.2 2.3 20.8-2.3 1.1-4.7 0.7-6.4-0.4-3.5-2.1-5-7.4-3.6-11.7-0.1 1.9-0.8 10 5.1 11.9 9.3 3.1 12.9-13.5 2.4-19.8-3.2-1.9-8.3-2.5-13.2 1-2.6 1.9-4.4 4.5-5.6 7.3-1 4.9-3.7 9-7.6 11.6 1.2 2.4 1.7 4.8 1.7 7.3 0 7.8-3.7 13.9-9.3 18-5.8 4.2-14.2 6.2-23.2 6.9q2.4 0.1 4.7 0.3c4.4-0.2 9.6-0.8 13.4-2.1 5-1.7 7.5-4.5 9.2-5.3 1.7-0.8 3.5-1.1 5.1-0.9 1.6 0.3 2.9 1 3.4 1.9zm-59.5 29.8q-0.2-0.3-0.4-0.7 0.2 0.3 0.4 0.7zm-29.5-31.4q0.2-0.5 0.3-1.1-0.1 0.5-0.3 1.1zm-6.8 12.5q0.1-0.1 0.2-0.2c-0.2 0.1-0.2 0.2-0.2 0.2q0 0 0 0zm-42.6-60.7q-0.1-0.1-0.2-0.2 0.1 0.1 0.2 0.2zm22-50.3q-0.5 0.4-1.1 0.8 0.5-0.5 1.1-0.8zm77.1 250.4c-0.4 2.5 1.5 6.5 1.8 7.3-0.1-0.4-0.5-1.3-0.9-3.4-0.6-2.6 0.2-5.3-0.3-6.6q-0.1-0.3-0.2-0.5c0.6 0.4 1.9 1.4 3.4 3.3 2.2 2.8 1.5 4.3 0.6 6.9-0.9 2.7-0.8 4.5-0.8 4.5 0 0-5.1-4.5-5.4-8.7-0.2-3.2 0.9-5.2 1.4-6 0.3 0.5 0.6 1.4 0.4 3.2zm1.8 7.3q0.1 0.1 0.1 0.1 0 0-0.1-0.1zm-28.6-78.3c-0.6 0.6-2.2 2-5.3 2.4-3.9 0.4-8.9-3.4-8.9-3.4 0 0 1.6-0.3 3.9-1.6 2.3-1.3 3.5-2.2 6.5-0.7 2.1 1.1 3.2 2.1 3.7 2.6q-0.3-0.1-0.6-0.2c-1.2-0.1-3.6 1.1-6 1-2.5-0.1-3.5-0.3-3.5-0.3 0 0 4.6 1.2 7.2 0.4 1.6-0.5 2.5-0.4 3-0.2zm-68.9 10.9c1.2-1.3 1.9-2.8 2.7-4.4 1.2-2.5 1.6-5.6 0-8.5-0.4-0.8-1.1-1.6-2-1.8-1-0.2-1.8 0.3-2.4 0.9-0.9 1-1.4 2.5-1.6 3.9-0.6 3.5 0.5 7.1 3.3 9.9zm71.8-126.8c-0.5-1-1.3-1.9-2.2-2.5-0.7-0.4-1.6-0.7-2.4-0.5q-0.3 0.1-0.6 0.3c-1.1 0.9-0.7 2.6-0.2 3.6 1.1 2.2 3.5 3.7 5.8 4.4q0.2 0 0.4 0.1c0.2-1.8-0.1-3.8-0.8-5.4zm17.9 141c1.1-2.2 4.8-3.5 4.8-3.5 0 0-0.4 0.9-0.5 2.5-0.1 1.7 0 2.6-1.9 3.7-1.2 0.7-2.1 0.9-2.5 1q0.1-0.1 0.3-0.2c0.5-0.6 0.6-2.2 1.5-3.5 0.9-1.3 1.3-1.7 1.3-1.7 0 0-2.2 2-2.6 3.6-0.3 1-0.7 1.4-0.9 1.6-0.1-0.5-0.3-1.8 0.5-3.5zm-17.8-110.1q0 0 0-0.1 0 0 0 0zm-0.2 0.2q-0.2 0.1-0.5 0.2c-0.2 0-0.6 0.1-1.1 0.1-0.5 0-1-0.1-1.4-0.3 0.3 0.1 0.9 0.1 1.4 0 0.6-0.1 1-0.5 1.2-0.5q0.3-0.1 0.5-0.1c0.1 0.1 0.1 0.2 0.1 0.3q0 0.2-0.2 0.3zm-3 0q-0.1-0.1-0.2-0.1 0.1 0 0.2 0.1zm6 0.1q0 0.3-0.2 0.4-0.3 0.2-0.6 0.3c-0.3 0.1-0.9 0.3-1.6 0.3-0.7 0.1-1.7-0.1-2.2-0.2 0.5 0.1 1.5 0.1 2.2-0.2 0.7-0.2 1.2-0.7 1.5-0.9q0.4-0.2 0.6-0.1c0.2 0.1 0.3 0.2 0.3 0.4zm1.6 0.8q0 0.3-0.3 0.5-0.2 0.1-0.6 0.3c-0.2 0-0.8 0.3-1.5 0.4-0.7 0.1-1.7-0.1-2.2-0.2 0.5 0.1 1.5 0 2.2-0.3 0.7-0.2 1.1-0.8 1.4-0.9 0.2-0.1 0.5-0.2 0.6-0.1 0.2 0 0.3 0.2 0.3 0.3zm2.7 0q0.1 0.3-0.2 0.6-0.2 0.2-0.7 0.4c-0.3 0.2-1 0.6-1.8 0.8-1 0.3-2.2 0.3-2.9 0.2 0.7 0 1.9-0.2 2.8-0.7 0.8-0.5 1.3-1.3 1.6-1.5 0.3-0.2 0.6-0.3 0.8-0.3 0.2 0.1 0.4 0.2 0.4 0.5zm2.6-0.1q0.1 0.3-0.1 0.7c-0.2 0.2-0.4 0.4-0.8 0.6-0.4 0.2-1.1 0.8-2.1 1.1-1.1 0.5-2.5 0.6-3.4 0.7 0.8-0.1 2.2-0.6 3.2-1.3 0.9-0.6 1.4-1.6 1.7-1.9q0.5-0.4 1-0.4c0.2 0 0.5 0.2 0.5 0.5zm3.5-0.4q0.2 0.5-0.1 1-0.2 0.4-0.9 0.9c-0.4 0.3-1.3 1.1-2.5 1.7-1.3 0.7-3.1 1.1-4.2 1.2 1-0.2 2.8-0.9 3.9-1.9 1.1-1 1.6-2.3 1.9-2.7q0.6-0.6 1.2-0.7c0.3 0 0.6 0.2 0.7 0.5zm3.9-0.1c0.2 0.4 0.1 0.9-0.1 1.3q-0.4 0.6-1.2 1.2c-0.5 0.4-1.7 1.4-3.3 2.2-1.7 0.8-4 1.4-5.4 1.6 1.3-0.4 3.6-1.3 5-2.6 1.4-1.3 2.1-2.9 2.6-3.5 0.4-0.5 0.9-0.8 1.4-0.8 0.5 0 0.9 0.2 1 0.6zm11.6 6.5c-0.1 0.7-0.6 1.3-1.3 1.6q-1 0.6-2.8 0.8c-1.1 0.2-3.7 0.7-6.7 0.5-3.3-0.1-7.2-1.3-9.5-2.2 2.2 0.6 6.4 1.2 9.7 0.5 3.1-0.7 5.5-2.6 6.7-3 1.2-0.4 2.2-0.5 2.9-0.1 0.7 0.4 1 1.1 1 1.9zm-6.5-4.7c0.1 0.5 0 1-0.4 1.5q-0.6 0.6-1.8 1.2c-0.7 0.3-2.4 1.3-4.5 1.9-2.4 0.7-5.3 0.8-7.1 0.7 1.6-0.1 4.7-0.7 6.8-2 2-1.2 3.2-3.1 3.9-3.6 0.7-0.6 1.5-0.9 2-0.8 0.6 0.1 1 0.5 1.1 1.1zm31.8 20.9c-0.7 0.8-2 1.4-3.6 1.4-1.6 0.1-3.3-0.5-4.8-1.5-1.5-1-3.4-4.2-7.8-6.5-3.5-1.8-8.5-3.1-12.7-3.8q-2.9-0.3-6.4-0.7 2.2 0.6 4.6 1.4c3 1.1 25.3 7.7 26.2 31.9 0.2 5.8-1.4 10.9-4.2 14.7 3.7-2.1 7.5-3.2 12.1-3.9 4.3-0.6 8.3-0.9 12.4-0.9 2.5-6.5 2.2-14.1-1-22.1-3.3-7.8-9.4-13.5-16.7-16.8-5.3-1.5-10.8-2.5-16.3-2.8q-0.7-0.1-2.4-0.2c2.1 0.4 4.2 0.8 6 1.3 5.1 1.3 9 3.1 10.7 3.8q2.6 1.1 3.7 2.3c0.7 0.7 0.9 1.6 0.2 2.4zm-45.4 5.6c-0.3 0.2-0.9 0.7-2.2 0.9-1.8 0.3-4.1 2.1-4.8 2.7 0.3-0.2 1-0.7 2.1-1.3 1.8-1 3.9-0.9 4.7-1.5q0.2-0.2 0.4-0.3c-0.2 0.5-0.6 1.6-1.7 3.1-1.6 2.2-2.8 2-4.9 1.9-2.1-0.2-3.4 0.3-3.4 0.3 0 0 2.2-4.6 5.2-5.6 2.3-0.9 4-0.5 4.6-0.2zm-7 3.6q-0.2 0.2-0.2 0.2 0 0 0.2-0.2zm89.8-30.6c0.3 0.9 0.9 3-0.1 6.1-1.3 3.8-7.2 6.9-7.2 6.9 0 0 0.6-1.7 0.4-4.4-0.3-2.8-0.6-4.3 2.2-6.5 1.9-1.5 3.3-2 4-2.3q-0.2 0.2-0.4 0.5c-0.7 1.1-0.6 3.8-1.8 6.1-1.1 2.2-1.8 3.1-1.8 3.1 0.1-0.1 3.3-3.8 3.6-6.6 0.2-1.7 0.7-2.5 1.1-2.9zm-4.7 9.5q0 0 0 0 0 0 0 0zm-9.8-44c-0.3-0.4-0.8-1.5-0.5-3.2 0.3-2.1 3.1-4.3 3.1-4.3 0 0-0.1 0.9 0.2 2.3 0.4 1.4 0.8 2.2-0.5 3.7-0.9 0.9-1.6 1.4-1.9 1.6q0.1-0.1 0.1-0.3c0.3-0.7 0-2.1 0.4-3.4 0.4-1.4 0.6-1.9 0.6-1.9 0 0-1.3 2.4-1.2 3.9 0 0.9-0.2 1.4-0.3 1.6zm28.3 73.8c-0.8-0.3-2.9-1.4-4.5-4.3-2-3.7-0.2-10.4-0.2-10.4 0 0 0.9 1.6 3.1 3.4 2.3 1.7 3.7 2.5 3.4 6.2-0.3 2.5-0.8 4-1.1 4.7q0-0.3-0.1-0.6c-0.3-1.4-2.5-3.2-3.4-5.7-0.9-2.4-1.1-3.5-1.1-3.6 0 0.2 0.7 5.2 2.5 7.4 1.2 1.4 1.4 2.4 1.5 2.9zm-23.6 16.6c-3.6-0.9-7.3-1.4-10.9-1.5-2.5 5.8-7.3 10.8-15.1 13.8 6.7-3.3 11.4-8.1 13.8-13.8-4.3-0.2-8.4 0.2-12.1 0.9-4.8 0.9-10.2 2.4-14.1 5.4q-0.8 0.9-1.7 1.7c-1.3 1.3-2.3 3-2.9 5-1.1 3.6 1.8 6.7 5 8 5.3 2.3 11.1 2 16.5 0.4-0.6-1.7-1.4-4.7-0.6-6.9 0.8-2.5 2.3-3.6 2.9-4 0.1 0.4 0 1.2-0.7 2.5-1.2 2-1 6.1-1 6.1 0 0 0-0.9 0.4-3 0.4-2 1.8-3.8 1.9-4.9q0-0.2 0-0.5c0.3 0.5 1 1.6 1.5 3.5 0.7 2.9-0.3 3.8-1.8 5.4q-0.6 0.7-1 1.2 0.4-0.1 0.8-0.2 2.5-0.9 4.7-2.2c-1-1.9-2.5-5.2-2-7.8 0.6-3.1 2.1-4.8 2.8-5.3 0.1 0.5 0.2 1.4-0.4 3-1.1 2.7 0 7.6 0 7.6 0 0-0.2-1.1-0.1-3.7 0-2.5 1.4-4.8 1.3-6.2q0-0.3-0.1-0.6c0.5 0.6 1.5 1.8 2.4 4 1.4 3.2 0.4 4.4-1.1 6.7q-0.3 0.6-0.6 1.1c5.9-3.9 10.3-9.4 12.2-15.7zm0.4-12.5c-3.1-13.7-13-22.4-25.2-27.1 12.7 7.8 19.2 24.3 14.2 37.2q0.6 0 1.1 0.1c2.6 0.1 6 0.5 9.7 1.3 1-3.6 1.1-7.5 0.2-11.5zm10.5 38.6c0.8-0.4 3-1 6.1-0.1 4 1.1 7.4 7 7.4 7 0 0-1.7-0.5-4.5-0.2-2.8 0.4-4.4 0.8-6.7-2-1.6-1.8-2.3-3.3-2.5-4q0.2 0.2 0.4 0.4c1.2 0.7 4 0.5 6.4 1.6 2.4 1 3.3 1.7 3.3 1.7 0 0-4.1-3.2-6.9-3.4-1.8-0.2-2.7-0.7-3-1zm-28-20.6c-0.6 0.7-2.2 2.2-5.4 2.7-4 0.5-9.4-3.3-9.4-3.3 0 0 1.8-0.3 4.1-1.7 2.3-1.5 3.5-2.4 6.8-0.9 2.1 1 3.3 2 3.8 2.5q-0.3-0.1-0.6-0.1c-1.3-0.2-3.7 1.2-6.2 1.2-2.1 0-3.3-0.2-3.6-0.3 0.7 0.2 5 1.1 7.5 0.3 1.6-0.6 2.6-0.5 3-0.4zm-10.5 0.1q-0.1 0-0.1 0 0 0 0.1 0zm1.4 6.5c-0.3 0.2-0.8 0.5-1.8 0.5-1.5 0.1-3.6 1.6-4 1.9 0.1-0.2 0.7-0.5 1.8-1 1.5-0.6 3-0.4 3.8-0.8q0.1 0 0.2-0.2c-0.1 0.4-0.5 1.3-1.5 2.3-1.4 1.6-2.3 1.3-3.9 1.1-1.6-0.3-2.7 0-2.7 0 0 0 2.1-3.4 4.5-4 1.8-0.5 3.1 0 3.5 0.2zm-5.9 2.4q0 0 0.1 0-0.1 0-0.1 0zm-17.1-31c1.1-2 1-6.1 1-7 0 0.4 0 1.4-0.3 3.3-0.5 2.4-2.2 4.4-2.2 5.7q-0.1 0.3 0 0.6c-0.4-0.6-1.1-1.9-1.7-4.1-0.9-3.3 0.2-4.3 2-6.2 1.7-2 2.3-3.6 2.3-3.6 0 0 2.7 5.8 1.4 9.5-0.9 2.8-2.6 4.2-3.4 4.6 0-0.4 0.1-1.3 0.9-2.8zm1-7q0-0.2 0-0.2 0 0 0 0.2zm23-55.3c-2.2-3.3-5.5-5.1-9.1-5.3-1.4-0.1-3 0.1-4.1 0.8-0.7 0.4-1.4 1.2-1.4 2.1 0 1 0.7 1.8 1.4 2.4 2.5 2.1 5.6 2.4 8.3 1.7 1.7-0.4 3.3-0.9 4.9-1.7zm-90.3 50.4c-0.1 4.6 2.4 14.6 7.3 18.6 5 3.9 7.7 9.6 7.7 9.6 0 0-7.8 2.2-12.5-8-4.4-9.7-2.7-19.4-2.5-20.2zm-1.1 19.2c0.4 5.7-5 10.5-6.7 13.2 0 0-7.6-10.3-0.5-19.5 7-9.2 8.2-15.6 8.2-15.6-0.4 4.7-1.7 12.1-1 21.9zm-26.6-91.8c6.3 0 16.3 1.1 29.2-0.8 7.7-1.1 14.6 5.6 18.3 7.6 0 0-12.9 11.2-25.9 2.6-13-8.5-21.6-9.4-21.6-9.4zm3.5-0.4c6.1-0.4 19.4-4.6 24.1-11.6 4.8-7 12.1-11.2 12.1-11.2 0 0 3.8 10.2-9.4 17.4-13.1 7.2-26.8 5.4-26.8 5.4zm71.9 27.7c0.1-0.4 0.5-0.7 1-0.8 0.7 0 1.3 0.4 1.7 1 0.7 1.4 0.1 2.9-1 3.8-4.5 3.5-8.7-2.9-10.4-6.2 0.9 1.1 7.3 5.3 8.5 2.9 0.1-0.2 0.1-0.4 0.2-0.7zm-9.8-3.8c2.3 3.8 4.7 10.6 3 13-1.6 2.3-6.2 1.4-3.8-4.1 2.3-5.4 0.8-8.9 0.8-8.9zm2.8 5.3c0 0 0.8 2.4 4.5 3.9 3.6 1.5 1.9 4.1 0 3.7-1.9-0.3-3.9-4.7-4.5-7.6zm-42.9-17.2c0 0 5.7 3.2 15.2 0 9.4-3.2 10.4 4.7 6.2 7.1-4.3 2.4-15.4-2.5-21.4-7.1zm7.9 6.1c0 0 4.7 3.4 13.3 1.6 8.7-1.8 8.7 5.2 4.7 6.8-4 1.7-13.2-3.8-18-8.4zm-87.7-50.2c-0.5 0.5-1.1 0.6-1.8 0.4-1-0.5-1.5-1.4-1.6-2.5-0.1-2.2 1.7-3.8 3.8-4.3 8.3-1.7 12 10.3 7.9 17.8 2-9.3-4.4-14.6-7.6-12.1-0.3 0.2-0.4 0.4-0.7 0.7zm-38.3 68.4c-9.6 0.7-17.1-5.1-26.1-4.4-6.6 0.6-12.4 5.5-12.6 12.4 0 4.8 3.2 9.5 8.3 9.6 2.6 0 5.6-1.7 5.5-4.7-0.1-1.3-1.4-3-2.8-2.1-0.6 0.5-1.2 0.4-1.7-0.1-1.2-1.3-0.1-3.2 1.2-4.1 2.9-1.7 6.2 0.3 7.6 3.1 2 4.5-0.7 9.4-5.1 11.3-5.6 2.2-11.5-0.5-14.4-5.7-3.6-7-0.6-15.1 6-19 4-2.2 9.3-2.9 13.6-1-2.1-1.3-4-2.9-5.8-4.9-7.6-8.8-11.4-11.3-11.4-11.3 0 0 3.1 0.1 8.5 4 5.5 3.9 8.8 6.5 19.8 10.5 11.1 4 18.4 4.8 18.4 4.8 0 0-2.7 1.2-9 1.6zm-8.4 5.4c-1.9 0.6-4.3-0.5-7.7 0.1 0 0 1.2-0.6 3.8-3.1 2.6-2.4 6.3-2.4 8.2-2.2 1.9 0.4 2.7 0.8 2.7 0.8-3.5 1.3-5 3.7-7 4.4zm12.8-5.3c-4.3 5.4-4.6 10.8-7.2 13.7-2.6 2.8-7.5 3.3-12.3 7.5 0 0 1.3-2.2 3.2-8.6 1.8-6.4 7.9-10 11.3-11.3 3.4-1.3 5-1.3 5-1.3zm-39-5c-2.8-0.3-5-3-9.5-4.2 0 0 1.9-0.1 6.4-1.6 4.5-1.5 9 0.7 11.2 2.1 2.1 1.5 2.8 2.4 2.8 2.4-4.9-0.4-8.2 1.7-10.9 1.3zm-5.5 5.5c-1.8 0.8-4.2 0-7.4 0.9 0 0 1.1-0.8 3.4-3.4 2.2-2.6 5.8-3 7.7-2.8 1.9 0.1 2.7 0.4 2.7 0.4-3.2 1.6-4.5 4.1-6.4 4.9zm4.3-26.5q0 0 0-0.1 0.1 0.1 0.1 0.1zm-12.9-6c-4.4-1.3-9.7 0.4-9.7 0.4 4.8-2 7.6-2.8 12.7-0.7 0 0-1.8-0.8-4.3-3.2-2.5-2.5-5.4 0.8-5.4 0.8 5.1-7.3 11.5 1.9 13.5 2.5-7.4-5.9-1.9-9.9-9-11.9 7.3 0.1 6.9 5.8 9.5 8.2 0 0-1.5-3-1.4-8 0.1-4.9 0.1-7.9 0.1-7.9 0 0 0.6 3.7 1.9 11.7 1.3 7.5 4.5 13.3 5 14-1.2-0.6-8.8-4.7-12.9-5.9zm-19.4 12c-4.6 6.9-5.5 19.2-8.6 28.8-3.1 9.6-7.3 13.3-7.3 13.3 0 0 1.3-1.6 3.2-8.2 1.9-6.6-1.2-16-1.3-19.8-0.1-3.8-1.8-7.8-1.8-7.8 0 0 1.1 0.5 2.5 4.1 1.5 3.6 3.7 5.6 7 1.5 1.9-2.2 3.2-7.4 5.7-13 3.7-8.7 15.5-14.8 25.8-7.8-8.3-3.1-20.6 1.7-25.2 8.9zm245.7 180.1zm-22.7-178.3zm100.5 56.3zm-19.6 26.9zm-50.1-13.6q0-0.1 0-0.1 0 0 0 0.1zm24.9-65.2zm-90.3 50.3zm-200.8-17.7l0.1-0.1c-0.3 0.3-0.3 0.3-0.1 0.1z"/></svg>