<svg version="1.2" xmlns="http://www.w3.org/2000/svg" viewBox="0 0 314 420" width="314" height="420"><style>.a{fill:#b47377}</style><path class="a" d="m66.6 419.7q5.5-1.6 11.2-3.6c73.2-24.9 131.7-87.9 156.8-161.1 0.6-1.4 1.4-3.5 1.6-3.8 7.8-17 25.1-27.8 44.1-24 18.8 4.1 31.7 22.7 25.6 41.7-5.1 14.3-20.4 23-34.9 16.8-10.7-5-16.5-17.5-10.2-28.2 4.5-6.9 14.4-10.2 20.9-3.9 2.9 3.2 4.1 9.1-0.3 11.7-1.7 0.8-4.9 0.5-4.5-2.1 0.1-0.4 0-0.8-0.2-1.1-1.5-2.7-4.8-0.5-5.8 1.4-2.5 5.8 3.1 10.6 8.4 11.1 8.9 0.4 14.5-7.6 14.1-15.8-1.2-12-12.7-18.8-24-16.8-14.5 3.3-21.8 17.9-18.1 31.9 5.5 17.4 24.4 24.9 40.9 18.5 19.7-8.5 26.4-31.6 16.6-50-11.9-21.3-39.8-26.3-59.2-12.1-3.3 2.5-6.5 5.7-9.2 9.4l3-10-0.3-5.7q1.7-8.4 2.9-16.8c7.6-78.6-23.7-157.6-96.8-194.3-45.3-20.1-102.1-19.2-135.4 22-12.1 16.7-19.9 51.7-7.5 70.9 2.5 3.9 8.1 6.6 11.7 3.8 4.3-3.2 2.2-8.1-1.2-14.6-5.2-10.2-13.3-24.3-5.7-42.7q-0.2 2.7-0.1 5.6c1.3 18 14.1 33.2 32.6 34.6 13.7 0.5 26.3-7.3 29.3-21.1 1.8-10.3-3.3-21.6-14.5-23.4-6-0.7-13.1 2.5-13.3 9.4 0.1 4.2 4.5 7.7 8 4.4q0.3-0.2 0.4-0.5c0.6-1.7-2.1-3.1-1.6-5.2 1.2-4.5 7.7-3.7 10.8-2.1 8 4.6 8.9 14.8 5.4 22.6-6.1 12-19.9 16-32.3 12.3-12.9-4.4-20.9-15.4-22.9-27.9 0.9 2.4 2.3 4.7 4.1 6.7 4.6 4.9 11.2 7.4 17.7 5.1 2.5-1 4.8-2.8 6-5.2 4.9-8-2-18.1-11.3-16.5-4.1 0.7-7.2 6.8-3.6 9.8 0 0-0.9-4.2 2.2-6.3 1.8-1.2 4.6-0.6 5.6 1.4 2.3 4.5-3 7.8-7.1 7-6.5-1.6-9.3-8.4-9.2-14.5 0.2-6.4 3.1-11.5 7.1-16.3 0.2-0.2 1.2-1.2 1.5-1.8 35.2-33.9 88.1-30.7 129.6-9.6 69.2 39.4 96.7 117.3 87.1 193.7-8.1 51.1-30.9 95.8-64.4 132.4q1.6-2.2 3.1-4.4 5.2-5.9 9.9-12c8.7-11.3 16.3-23.1 22.7-35.3 6.3-11.9 11.3-24.1 15.2-36.4 3.8-12 6.4-24.1 7.9-36.1 1.4-11.8 1.9-23.4 0.9-34.7-4.4-48.8-25.5-93.6-71.7-114.4-22.2-10.1-44.6-10.6-65.7-1.7-9.4 3.9-27.7 13.2-34.5 20.6-2 2.2-3.6 5.6-2 8.2 4.1 7.2 12 0.8 15.3-3.8 4.1-5.8 7.4-13.6 14.4-17.6q0.6-0.4 1.2-0.7 2.3-1.1 4.2-2.1c21.7-10 44.5-9.8 67.5 0.7 34.7 15.9 54.5 45.9 64.3 82.2 5.9 22.1 6.4 43.3 3.6 66-1.5 11.9-4.4 23.9-8.3 35.8-3.9 12.1-9.1 24.2-15.5 35.9-6.2 11.6-13.5 22.8-21.8 33.5 33-59.6 28.7-129.4-2.5-171.8-9.6-13.2-27.1-29.1-41.7-36.1-11.3-5.4-22.7-7.7-23.6 1.5-0.9 9.1 12.4 8.7 20.1 8.4 14.6-0.6 26.6 9.4 36.1 19.4 23.8 25.5 35.2 67 29.6 118.8 5.1-60.4-31.5-123-94.7-134.7-26.8-4.8-69.1 0.4-76.4 32.8-1.6 7.6-0.5 15.5 4.7 21.5 1 1.2 3.6 4 5.3 3.2 1.2-0.6 0.8-2.8 0.7-3.8-3.1-41.3 44.3-48.8 74.8-40.2 47.3 15.5 74.9 59.8 77.1 108.3 0 35-10.8 64.4-28.6 88.3q1.1-1.6 2.2-3.2c27.2-45 31.2-101.4-2.1-144.5-18.9-22.2-47.8-37.1-76.2-30q-4.9 1.2-9.4 3.2-1.1 0.5-2.1 1-1.1 0.6-2.2 1.2c-8.8 5.1-16.1 12.8-20.5 22-9.3 20.8-3.1 45.4 17.3 56.9 16.4 8.5 36.7 4.9 46.9-11.3 7-12.2 5.4-28-6.9-36.3-8.5-5.2-20.4-4.6-25.9 4.7-2.7 5.1-2.3 13.6 4.5 15.2 2.8 0.6 6.5-1.2 4.8-4.4-0.3-0.6-0.5-1.2-0.6-1.9-0.7-6.5 6.2-8.9 11.5-7.2 9.7 3.5 12 15.2 8.9 24.1-5.7 14.3-21.6 19.6-35.8 15.6-20-6.4-29.4-27.3-24.9-47.1q0.1-0.6 0.3-1.1c-0.5 5.1 0.5 10.5 3.6 15.7 1 1.6 2.1 3 3.5 4.3 0.2 0.2 2.1 1.9 2.4 1.5 0.3-0.2-0.5-1.4-0.6-1.5-12-19.8-0.5-39.8 19.4-48.7 31.8-12.2 64 5.2 83.4 30.6 35.7 51.5 20.5 119.6-20.4 162.3-17.1 15.9-37.8 28.4-60.2 37.6q0.4-0.2 0.9-0.5c42.8-21.9 78.3-59 87.5-99.6 6.9-30.1 0.3-53-7.5-67.9-5.9-14.3-13.3-24.4-25.6-33.9-12.3-9.6-26.6 11.3-4.8 19.5 20.6 7.7 28.3 25.9 29 27.8 3.1 8.5 5.3 19 5.1 31.2-3.2-13.4-14.1-24.8-28.7-26.1-9.1-0.4-18 3.4-22.3 11.8-1.4 3.4-2 7.4-1 10.9 2.8 12.4 19 15.9 26.8 5.5 3.4-4.5 0.7-13.5-5.7-13.1 0 0 4.9 3.3 3.7 8.3-0.6 2.8-3.9 4.9-6.8 3.9-6.5-2.2-4.4-10.5 0.4-13.6 7.9-4.5 17.1-0.5 22.8 5.6 9.6 10.8 10 23.6 6 36.1-0.6-4.6-3-8.8-7.3-11.5-4-2.2-8.8-2.5-12.6 0.4-1.4 1.1-2.6 2.8-2.9 4.6-1.5 6.2 5 11.4 10.8 8.5 2.5-1.3 3.3-6 0.3-7.2 0 0 1.5 2.6-0.1 4.6-1 1.1-2.9 1.3-4 0.2-2.4-2.5 0.4-5.7 3.3-6 4.5-0.3 7.7 3.6 8.9 7.6 2.9 10.7-7.7 24.1-13.4 32.2-15.8 21.9-39 40.9-65 54.2-7.2 3.7-14.8 7-22.5 9.8 1 3.2 1.4 6.5 0.9 9.8q-0.1 0.9-0.3 1.7z"/></svg>