<?xml version="1.0" encoding="UTF-8" standalone="no"?>
<svg
   version="1.2"
   viewBox="0 0 109 25"
   width="109"
   height="25"
   id="svg5"
   sodipodi:docname="heroPageBorder1.svg"
   inkscape:version="1.3.2 (091e20e, 2023-11-25, custom)"
   xmlns:inkscape="http://www.inkscape.org/namespaces/inkscape"
   xmlns:sodipodi="http://sodipodi.sourceforge.net/DTD/sodipodi-0.dtd"
   xmlns="http://www.w3.org/2000/svg"
   xmlns:svg="http://www.w3.org/2000/svg">
  <defs
     id="defs5" />
  <sodipodi:namedview
     id="namedview5"
     pagecolor="#ffffff"
     bordercolor="#000000"
     borderopacity="0.25"
     inkscape:showpageshadow="2"
     inkscape:pageopacity="0.0"
     inkscape:pagecheckerboard="0"
     inkscape:deskcolor="#d1d1d1"
     showgrid="false"
     inkscape:zoom="8"
     inkscape:cx="34.8125"
     inkscape:cy="18.9375"
     inkscape:window-width="1920"
     inkscape:window-height="991"
     inkscape:window-x="-9"
     inkscape:window-y="-9"
     inkscape:window-maximized="1"
     inkscape:current-layer="svg5" />
  <style
     id="style1" />
  <filter
     id="f0"
     x="0"
     y="0"
     width="1"
     height="1">
    <feFlood
       flood-color="#ede8e2"
       flood-opacity="1"
       id="feFlood1" />
    <feBlend
       mode="normal"
       in2="SourceGraphic"
       id="feBlend1" />
    <feComposite
       in2="SourceAlpha"
       operator="in"
       id="feComposite1" />
  </filter>
  <path
     style="fill:#ede8e2;fill-opacity:1;stroke:#ede8e2;stroke-opacity:1"
     d="m 13.578379,24.977224 3.764649,-0.775075 4.283309,-1.678357 2.843883,-1.526839 3.130611,-2.115644 4.689421,-3.115293 2.694975,-1.293917 4.112516,-1.565888 2.414763,-0.519215 3.090568,-0.156589 1.771925,0.197796 1.714235,0.362627 2.159277,0.931291 1.236227,0.692287 0.898325,0.684046 0.717012,0.626355 0.717012,0.906566 0.502732,0.807669 0.312993,0.603925 0.05859,0.144531 0.164063,0.0078 0.320312,-0.722656 0.5625,-0.910156 1.027344,-1.109375 1.128743,-0.841426 0.994369,-0.624243 1.171145,-0.602146 2.060554,-0.729203 1.392116,-0.254117 2.066078,-0.160204 2.436203,0.127058 2.005311,0.34803 2.811854,0.917029 2.646127,1.242961 2.850524,1.568893 2.287048,1.458408 1.86168,1.292679 1.414213,1.044088 1.005418,0.673961 1.955592,0.98332 1.673854,0.845214 1.469457,0.624242 1.39764,0.392224 1.800913,0.585572 1.397641,0.303835 1.47498,0.259641 0.348029,0.05524 v 0.381175 H 13.566402 Z"
     id="path6" />
  <g
     filter="url(#f0)"
     id="g5">
    <path
       d="m9.6 17.8c0.7-0.5 1.1-1.3 1.1-2.1 0-0.8-0.3-1.5-0.7-2.2-0.4-0.6-1-1.1-1.7-1.5-0.7-0.3-1.4-0.4-2.2-0.3-1.4 0.2-2.6 1.3-3.3 2.7-0.6 1.3-0.7 3-0.3 4.4q0.2 0.5 0.5 1 0.3 0.5 0.7 1 0.7 0.9 1.7 1.7c1.2 1 2.8 1.6 4.4 1.9 0.8 0.2 1.7 0.2 2.5 0.2q1.3 0 2.5-0.3c1.6-0.3 3.2-0.9 4.7-1.6 1.5-0.7 3-1.6 4.4-2.5 1.3-0.9 2.7-1.9 4-3 2.7-2.1 5.7-3.9 9-5.1q1.3-0.4 2.6-0.7 1.3-0.3 2.6-0.4 1.3 0 2.6 0.1 1.4 0.1 2.6 0.5c1.7 0.5 3.3 1.3 4.7 2.4q1 0.9 1.7 2c0.5 0.7 0.9 1.5 1.2 2.3q0 0.1-0.1 0.1 0 0-0.1 0c-0.3-0.8-0.8-1.5-1.3-2.1q-0.9-1-1.9-1.6c-1.4-0.9-2.9-1.5-4.5-1.9-1.6-0.3-3.2-0.4-4.8-0.2q-1.2 0.1-2.4 0.4-1.2 0.3-2.3 0.7c-3.1 1.1-6 2.8-8.7 4.7-1.4 1-2.8 2-4.3 2.9q-2.2 1.2-4.7 2.2c-1.6 0.6-3.2 1.1-4.9 1.3-1.7 0.3-3.4 0.4-5.2 0.2-1.7-0.3-3.4-0.8-4.9-1.7q-1.1-0.7-2.1-1.7c-0.6-0.7-1.1-1.4-1.4-2.4-0.2-0.4-0.3-0.9-0.4-1.3q0-0.7 0-1.4c0-0.9 0.3-1.9 0.7-2.7 0.4-0.9 1-1.6 1.8-2.2 0.7-0.6 1.7-1 2.6-1.1 1-0.1 2 0.2 2.8 0.7 0.8 0.4 1.5 1.1 1.9 1.9 0.4 0.8 0.7 1.8 0.5 2.7q-0.1 0.7-0.5 1.3-0.4 0.5-1 0.9 0 0-0.1-0.1 0 0 0-0.1z"
       id="path1" />
    <path
       d="m99.9 17.9q-0.6-0.3-1-0.9c-0.3-0.3-0.4-0.8-0.5-1.2-0.2-0.9 0.1-1.9 0.5-2.7 0.4-0.8 1.1-1.5 1.9-2 0.8-0.4 1.8-0.7 2.8-0.6 0.9 0.1 1.9 0.5 2.6 1.1 0.8 0.5 1.4 1.3 1.8 2.2 0.4 0.8 0.7 1.7 0.7 2.7q0 0.7 0 1.4c-0.1 0.4-0.2 0.9-0.4 1.3-0.3 0.9-0.8 1.7-1.4 2.4-0.7 0.6-1.4 1.2-2.1 1.7-1.5 0.9-3.2 1.4-4.9 1.7-1.8 0.2-3.5 0.1-5.2-0.2-1.7-0.3-3.3-0.7-4.9-1.3q-2.5-1-4.7-2.3c-1.5-0.8-2.9-1.8-4.3-2.8-2.7-1.9-5.6-3.6-8.7-4.7q-1.1-0.4-2.3-0.7-1.2-0.3-2.4-0.4c-1.6-0.2-3.3-0.1-4.8 0.2q-1.2 0.3-2.4 0.7-1.1 0.5-2.1 1.2c-1.4 0.9-2.6 2.1-3.2 3.6q-0.1 0.1-0.1 0.1-0.1 0-0.1-0.1c0.4-1.7 1.5-3.2 2.9-4.3 1.3-1.1 2.9-1.9 4.6-2.4 1.7-0.5 3.5-0.7 5.3-0.6q1.3 0.1 2.6 0.4 1.3 0.3 2.6 0.7c3.3 1.1 6.3 3 9 5.1 0.7 0.5 1.3 1 2 1.5q1 0.8 2 1.5c1.4 0.9 2.9 1.8 4.4 2.5 1.5 0.7 3.1 1.3 4.7 1.6q1.2 0.3 2.5 0.3c0.8 0 1.7 0 2.5-0.2 1.6-0.3 3.2-0.9 4.4-1.9q1-0.8 1.7-1.7 0.4-0.5 0.7-1 0.3-0.5 0.5-1c0.4-1.4 0.3-3.1-0.3-4.5-0.7-1.3-1.9-2.4-3.3-2.6-0.8-0.1-1.5 0-2.2 0.3-0.7 0.4-1.3 0.9-1.7 1.5-0.4 0.7-0.7 1.4-0.7 2.2 0 0.8 0.4 1.6 1 2.1q0.1 0.1 0 0.1 0 0.1-0.1 0z"
       id="path2" />
    <path
       d="m54.8 18.2c0 0 3.2-9.8 6.6-8 0 0-2-4.6-4.1-1.1-1.8 3 2.1-2.4-2.5-8.5-4.6 6.1-0.6 10.9-2.6 8.5-2.5-3.1-4 1.1-4 1.1 4-0.5 6.6 8 6.6 8z"
       id="path3" />
    <path
       d="m102.9 16.3c0 1.1-0.9 2-2 2-1.1 0-2-0.9-2-2 0-1.1 0.9-2 2-2 1.1 0 2 0.9 2 2z"
       id="path4" />
    <path
       d="m10.9 16.2c0 1.1-0.9 1.9-2 1.9-1.1 0-2-0.8-2-1.9 0-1.1 0.9-2 2-2 1.1 0 2 0.9 2 2z"
       id="path5" />
  </g>
</svg>
