<svg version="1.2" xmlns="http://www.w3.org/2000/svg" viewBox="0 0 142 354" width="142" height="354"><style>.a{fill:#a2495d}</style><path fill-rule="evenodd" class="a" d="m62.5 215c-1.4-49.6-10.3-98.8-23.2-146.3q1.2 3.7 2.4 7.3c6.8 18.9 12.2 38.9 16.5 58.6 4.8 23.2 8.9 46.7 11.9 70.2 0.5 4.3 0.7 8.6 1.3 12.9 1.4 11.1 2.4 22.4 3.2 33.5l-15.1-19.5c-0.8-4.5 0-9.7 2.2-13.7h1.1l-0.3-1.4zm3.8 7.6c-1.4-0.3-3 0.8-3.3 2.2-0.2 1.6 0.8 2.9 2.2 2.9 1.3 0.3 2.9-0.5 3.2-2.1 0.3-1.4-0.5-2.8-2.1-3zm-42.7-195.9c22.2 67.4 34.3 130.3 36.2 188.9-0.8-0.6-1.4-0.8-1.9-1.1-4.6-2.7-9.7-4.3-15.1-4.9 3-1.3 6.2-1.9 9.2-1.3-11.1-6.5-18.4-14.3-21.6-23.2 3.5 3.5 7.5 5.4 11.6 5.4q-11.4-6.9-13.8-15.4c3.5 3.2 7.6 5.7 11.6 7.8-7-6.7-12.4-13.7-15.9-21.6l20.2 9.2c-10.5-7.6-17.8-14.3-21.5-20.5 2.7-9.2-0.3-14.9-7.1-31.1l28.1 16.2-33.5-24c-1.9-13.2-2.7-28.3-2.1-45l12.9 8.9c-9.2-11.1-14-16.8-14.5-16.5-9.8-14.8-0.3-44.5 10.2-58.6 24 16 49.4 35.1 58.3 57.8l-16.5 28.1 18.4-23.2c3.2 9.1 5.1 18.9 5.9 29.1-7.5 9.7-16.2 19.7-16.2 19.7 18.4-15.1 32.2-28.1 32.2-28.1-8.1 12.4-9.8 22.4-5.2 30l-0.5 16.7c-8.7 12.7-20.8 28.9-20.8 28.9 11.6-13.2 25.1-29.4 25.1-29.4-3.8 22.7-4.3 37-1.3 43.2-4.4 4-7.9 8.3-9.8 12.7 3-2.5 6.8-4.6 10.8-5.7-8.9 7.5-13.5 14.8-14 21.3 5.9-0.3 9.7 1.1 11.6 4.6-7.8-1.9-14.6 1.3-20.5 10-9.4-81.3-26.2-144.1-50.5-188.9zm90.9 312c16.7 0.8 27.2 2.2 26.7 3.5-0.8 1.7-15.1 3-36.2 3.8 11.6 0.8 18.4 1.9 17.8 3.3-0.8 2.4-26.9 4.3-58.2 4.3-31.1 0-55.9-1.9-54.8-4.3 0.5-1.4 8.9-2.5 21.8-3.3-19.1-0.8-31.3-2.1-30.7-3.8 0.5-1.3 12.6-2.7 31-3.5-8.9-0.5-14.3-1.1-14-1.6 0.2-0.7 5.4-1.3 13.9-1.8 5.5 5.8 19.6 8.9 42.5 9.1 22.8-0.2 36.9-3.3 42.3-9.2 9.3 0.5 14.9 1.1 14.6 1.9-0.3 0.5-6.7 1.4-16.7 1.6zm-82.7-3.4q-2.7-2.8-2.6-6.5l7.3-34.3c1.3-5.7 6.7-8.9 16.2-10-2.7-7.3 4.3-10.5 21.6-10.5 16.7 0 24 3.2 21 10.5 9.7 1.1 15.1 4.3 16.5 10l7.3 34.3q0.1 3.6-2.5 6.4c-10.1-0.5-24.7-0.8-41-0.8-17.4 0-33.2 0.4-43.8 0.9zm35.2 13.7c0 0.5 3 1.1 6.7 1.1 3.5 0 6.5-0.6 6.5-1.1 0-0.6-3-1.1-6.5-1.1-3.7 0-6.7 0.5-6.7 1.1zm-43.5-6.8c0 0.6 1.9 0.8 4.4 0.8 2.4 0 4.3-0.2 4.3-0.8 0-0.2-1.9-0.5-4.3-0.5-2.5 0-4.4 0.3-4.4 0.5zm56.5-55.8c-10.9 0.5-19.5-0.6-26-2.7 5.4 3.8 14.1 4.6 26 2.7zm-4.7-9.7c9.8 0.8 15.4 3.2 16.8 7 1.1-5.4-4.6-7.6-16.8-7zm-25.6 49.9c-0.8-17 1.1-28.4 5.7-33.8 0 0 6.7-0.5 20.5-1.8-8.4-0.6-15.9-1.1-22.7-1.9-8.9-1.1-14.3 5.1-16.2 18.9 3.8-8.7 7.6-13.3 10.8-13.8-2.1 10-1.6 20.8 1.9 32.4z"/></svg>