<svg version="1.2" xmlns="http://www.w3.org/2000/svg" viewBox="0 0 212 275" width="212" height="275"><style>.a{fill:#d1aa65}</style><path fill-rule="evenodd" class="a" d="m49 44.2c-31 5.4-33.6 0.1-47.2-17 22.8-3.8 27.8 17.4 47.2 17zm-17.7-1.8c-3.3-1-8.3-2.9-13.8-7.2-5.5-4.3-12.5-6.5-12.5-6.5 0 0 3.6 1.4 12.4 8.6 8.8 7.2 24.4 7 24.4 7 0 0-7.3-1-10.5-1.9z"/><path class="a" d="m176.9 88.3c-2.4 19.8-2.6 29-16.8 38.2-1.3-0.9-2.7-1.4-4.2-1.6 4.4-4.1 9-9.5 11.1-15.7 4.6-13.4 7.5-17.2 7.5-17.2 0 0-6 7-8.9 15.1-3 8.1-7.1 13.4-9.9 16.5q-0.5 0.6-1.2 1.3-0.6 0-1.2 0.1-1.2 0.2-2.3 0.7 0.8-0.9 1.3-2.1c0.6-1.6 0.8-3.3 0.5-5 4.8-11.3 7.8-23.5 24.1-30.3z"/><path fill-rule="evenodd" class="a" d="m15.9 73c6.1-18.2 6.7-23.4 34-28.2-16.3 5.5-14.1 24.5-34 28.2zm27.9-26.2c0 0-12.9 4.5-18.1 13.2-5.1 8.6-7.6 10.8-7.6 10.8 0 0 5.1-4 8.4-9.2 3.2-5.2 6.8-8.2 9.2-10 2.4-1.7 8.1-4.8 8.1-4.8z"/><path class="a" d="m82.1 22.3c0.9 0.6 2 0.9 3.2 0.9 1.7-0.1 3.1-0.8 4.1-1.9 1-1.1 1.6-2.6 1.4-4.3 0.1-0.5-0.2-1.2-0.3-1.6q-0.3-0.8-0.7-1.5c-1.5-2.4-4.2-4-7.4-3.8-2.3 0.1-4.6 1.2-6.2 2.9-1.5 1.7-2.3 4-2 6.5v0.1c0.2 0.8 0.2 1.5 0.5 2.3q0.4 1.2 1 2.2c2.2 3.5 6.3 5.8 10.9 5.5h0.1c3.6-0.2 6.8-1.9 8.9-4.3 2.1-2.5 3.3-5.8 2.9-9.4q-0.2-1.8-0.8-3.5-0.6-1.6-1.5-3.1c-3.3-5.3-9.5-8.2-15.7-7.8-5.1 0.3-9.6 2.7-12.5 6.2-23.1 27.2 35.2 45.7 48.3 56.9-5.6-2.1-21.3-11.2-30.4-16.6-10.6-4.8-39.3-11.3-39.7 7 0 3 1.1 6.1 3.5 8.5v0.1c3 3 7.4 4 11.1 2.9q1.1-0.3 2.1-0.8 1-0.6 1.8-1.4h0.1c1.7-1.6 2.6-3.7 2.6-5.9 0.1-2.1-0.7-4.3-2.4-6h-0.1c-2.1-2.2-5.1-2.8-7.7-2q-0.8 0.2-1.5 0.6-0.7 0.4-1.3 0.9c-1.2 1.1-1.8 2.6-1.8 4.1 0 1.5 0.6 2.9 1.7 4.1h0.1c1.4 1.5 3.5 1.9 5.2 1.4q0.6-0.2 1-0.5 0.5-0.2 0.9-0.6c0.8-0.7 1.2-1.7 1.2-2.7 0-1-0.5-2-1.2-2.7-0.6-0.6-1.3-0.9-2-1 0.9 0.7 1 2 0.2 3-0.8 0.9-2.2 1.1-3.2 0.4-1-0.7-1.1-2.1-0.3-3.1q0.4-0.5 1-0.7 0.3-0.1 0.6-0.2c1.4-0.5 3.1-0.2 4.3 1 0.9 0.9 1.4 2.1 1.4 3.3 0 1.2-0.4 2.4-1.4 3.3q-0.5 0.4-1.1 0.7-0.5 0.4-1.1 0.5c-2.1 0.7-4.5 0.2-6.2-1.5-1.3-1.3-2-3-2-4.7 0-1.7 0.7-3.4 2.1-4.7h0.1q0.6-0.6 1.4-1 0.8-0.5 1.7-0.7c2.8-0.9 6.2-0.2 8.6 2.2v0.1c1.8 1.8 2.7 4.2 2.7 6.5 0 2.4-1 4.7-2.9 6.5h-0.1q-0.9 0.9-2 1.5-1.1 0.6-2.3 0.9c-4 1.2-8.7 0.1-11.9-3.1l-0.1-0.1c-2.5-2.6-3.7-5.9-3.6-9.1 0.1-6.4 3.5-9.9 8.3-11.6q-1.4 0.1-3.2 0.4c-4.9 0.5-9.6-1.7-12.2-5.3q-0.8-1.1-1.3-2.4-0.6-1.2-0.8-2.6c-0.5-2.8 0.3-5.5 1.8-7.5 1.6-2 3.9-3.4 6.7-3.8h0.1c3.6-0.4 6.9 1.2 8.8 3.9q0.5 0.8 0.9 1.7 0.4 0.9 0.6 1.8v0.1c0.3 2-0.3 3.9-1.4 5.4-1.1 1.4-2.8 2.4-4.8 2.6-2.6 0.3-5-0.9-6.3-2.8q-0.4-0.5-0.6-1.2-0.3-0.6-0.4-1.3c-0.3-1.5 0.2-2.8 1-3.8 0.8-1 2-1.7 3.4-1.9 1.8-0.2 3.4 0.7 4.3 2.1q0.2 0.2 0.4 0.5 0.3 0.6 0.4 1.4c0 1.3-1 2.4-2.3 2.4-1.4-0.1-2.5-1.2-2.5-2.5 0-1.4 0.9-2.4 2.2-2.4-0.7-0.4-1.5-0.7-2.3-0.5h-0.1c-1.1 0.1-2.1 0.7-2.8 1.5-0.7 0.8-1 1.9-0.8 3.1q0.1 0.6 0.3 1.1 0.2 0.5 0.5 1c1.2 1.6 3.2 2.7 5.4 2.4h0.1c1.7-0.2 3.2-1.1 4.2-2.3 1-1.3 1.5-2.9 1.2-4.7q-0.2-0.9-0.5-1.7-0.3-0.8-0.8-1.5c-1.7-2.4-4.7-3.9-8-3.5h-0.1c-2.5 0.4-4.7 1.7-6.1 3.5-1.4 1.8-2 4.2-1.6 6.7v0.1q0.2 1.3 0.7 2.4 0.5 1.1 1.2 2.1c2.4 3.4 6.8 5.5 11.3 5l0.2-0.1c1.4-0.2 6.2-0.5 8.5-0.6 7.5-0.8 16.6 1.1 23 3.3-17.1-10.3-28.1-24.5-15-38.7 7.8-9.2 23.7-8.5 30.3 1.9q1 1.5 1.6 3.3 0.6 1.8 0.9 3.7c0.3 3.2-1.1 8-3.2 10.5-2.4 2.7-5.8 4.4-9.7 4.7h-0.1-0.1c-5 0.3-9.6-2.3-12-6.2q-0.7-1.1-1.2-2.4-0.4-1.3-0.6-2.6v-0.1c-0.3-2.9 0.7-5.5 2.4-7.5 1.7-1.9 4.1-3.1 6.9-3.3 3.5-0.2 6.8 1.5 8.6 4.5q0.5 0.8 0.9 1.7 0.3 0.9 0.4 1.9c0.2 1.9-0.4 3.8-1.7 5.3-1.3 1.3-3 2.1-4.9 2.3h-0.1c-2.6 0.1-4.8-1.3-5.9-3.2q-0.2-0.4-0.4-0.9c-0.3-0.5-0.5-1.2-0.5-1.8 0.1-2 1.6-3.4 3.5-3.2 1.8 0.1 3.3 1.8 3.2 3.7 0 1.8-1.5 3.2-3.2 3.2z"/><path class="a" d="m90.6 75.8c1.1 0.6 2.1 1.6 2.6 2.9v0.1c0.8 1.7 0.8 3.6 0.1 5.3-0.6 1.6-1.8 2.9-3.7 3.6l-0.1 0.1q-0.9 0.3-1.8 0.4-0.9 0.1-1.9 0c-3.3-0.3-6.4-2.3-7.8-5.7l-0.1-0.1c-1.1-2.7-1-5.5 0-8 1-2.4 2.9-4.4 5.7-5.5h0.1q1.3-0.5 2.7-0.6 1.4-0.2 2.8-0.1c4.8 0.5 9.4 3.6 11.5 8.6v0.1c1.6 3.9 1.5 8.1 0 11.6-1.4 3.5-4.3 6.4-8.3 7.9h-0.1q-2 0.7-4 0.9-2 0.3-4 0.1c-6.9-0.8-13.4-5.4-16.3-12.3l-0.1-0.2c-2.3-5.6-2.1-11.4 0.1-16.4 11.1-25.4 43.7-7.6 62 7.5 11.6 9.6 15.3 22.4 15.2 34.2q0.9-0.3 1.7-0.8c0-12-4.1-23.9-11.9-31.1-4.2-3.8-9.6-8-15.4-11.8-10.5-8.6-32.1-35.4-13.1-45.3 3.2-1.6 7-2 10.7-0.8l0.2 0.1c4.7 1.6 7.9 5.6 8.7 10.1q0.3 1.3 0.2 2.6 0 1.4-0.4 2.7v0.1c-0.8 2.6-2.6 4.6-4.8 5.8-2.3 1.1-5 1.3-7.6 0.5l-0.1-0.1c-3.3-1.1-5.6-3.9-6.1-7.1q-0.2-0.9-0.1-1.8 0-0.9 0.3-1.8v-0.1c0.5-1.8 1.8-3.2 3.3-4 1.6-0.7 3.5-0.9 5.3-0.3 2.3 0.8 3.8 2.8 4.1 4.9q0.1 0.6 0.1 1.2 0 0.6-0.2 1.3c-0.4 1.2-1.2 2.1-2.2 2.6-1.1 0.5-2.3 0.6-3.5 0.2h-0.1c-0.9-0.3-1.5-0.9-2-1.6 1.3 0.5 2.7 0 3.2-1.3 0.6-1.4 0.1-3-1.2-3.6-1.2-0.7-2.8-0.1-3.4 1.2q-0.3 0.8-0.2 1.5 0 0.4 0.1 0.7c0.2 1.8 1.3 3.4 3.3 4 1.4 0.5 2.9 0.4 4.1-0.2 1.3-0.6 2.3-1.7 2.8-3.2q0.2-0.8 0.3-1.5 0-0.7-0.1-1.5c-0.4-2.4-2.1-4.7-4.8-5.6l-0.1-0.1c-2-0.6-4.1-0.5-5.9 0.4-1.8 0.9-3.2 2.5-3.8 4.6v0.1q-0.3 1-0.4 2 0 1.1 0.2 2.1c0.5 3.5 3 6.7 6.7 7.9h0.1c2.9 1 5.8 0.7 8.3-0.5 2.5-1.3 4.4-3.5 5.3-6.4v-0.1q0.4-1.5 0.5-2.9 0-1.5-0.2-2.9c-0.9-4.8-4.4-9.2-9.5-10.9h-0.1c-4-1.3-8.1-0.9-11.4 0.8-6.7 3.5-8.7 8.9-7.9 14.8h-0.1c0.2 2.3 0.6 4.1 1.6 6.2 3 8.3 9.7 16.8 15.4 22.5-18.2-10.6-39.8-16-48.5 4.1-2.3 5.3-2.5 11.6-0.1 17.5l0.1 0.2c3.1 7.5 10.1 12.4 17.5 13.2q2.2 0.2 4.4 0 2.2-0.3 4.3-1h0.1l0.1-0.1c4.4-1.6 7.5-4.8 9.2-8.7 1.6-3.8 1.7-8.3 0-12.6l-0.1-0.1v-0.1c-2.3-5.4-7.4-8.9-12.7-9.4q-1.6-0.2-3.2 0-1.5 0.2-3.1 0.7l-0.1 0.1c-3.2 1.2-5.4 3.5-6.6 6.3-1.1 2.8-1.1 6 0.1 9v0.1c1.7 4 5.4 6.3 9.2 6.7q1.1 0.1 2.2-0.1 1.1-0.1 2.2-0.5h0.1c2.3-0.9 3.8-2.5 4.6-4.5 0.7-2 0.7-4.3-0.1-6.3v-0.1h-0.1c-1.1-2.8-3.7-4.4-6.4-4.6q-0.5 0-1.1 0c-0.7 0-1.5 0.1-2.2 0.5-2 1.1-2.7 3.4-1.6 5.3 1.2 1.8 3.7 2.5 5.6 1.4 1.9-1 2.7-3.2 1.7-5z"/><path fill-rule="evenodd" class="a" d="m141.6 87c-15.5-35.8-9.9-40.5 6.8-61.9 11.1 26.4-13 38.6-6.8 61.9zm-3-21.9c0.2-4.2 1-10.9 4.7-18.7 3.6-7.9 4.2-17 4.2-17 0 0-0.6 4.7-6.8 17.4-6.2 12.8-1.4 31.6-1.4 31.6 0 0-0.9-9.1-0.7-13.3z"/><path class="a" d="m112.1 66.1c19.8 16 29.2 22 28.7 45.1q-0.5 0.2-1 0.4-1.7 0.7-3 2c-1.3-7.6-3.9-17-9.5-23.8-10.9-13.4-12.9-18.8-12.9-18.8 0 0 3.3 10.7 9.8 19 6.5 8.3 9.4 15.9 10.8 20.9 0.3 1 0.6 2.3 0.9 3.8q-0.7 0.9-1.1 2-0.5 1.2-0.5 2.5c-0.3-0.8-0.7-1.5-1.2-2.2q-1-1.2-2.3-2.1c-8.8-14.1-22.7-25.1-18.7-48.8z"/><path class="a" d="m85.2 102.5c18.1 0.8 27.3 0.5 36.5 10.4-1.7-0.3-3.5-0.8-5.2-1.2l-0.8-0.3 0.2 0.9q0.2 1.4 0.4 2.8c-2.9-1.9-6.1-3.5-9.5-4.4-13.7-3.5-17.7-6.1-17.7-6.1 0 0 7.4 5.4 15.7 7.8 4.8 1.3 8.6 3 11.7 4.8q0.1 2.3-0.1 4.6-0.1 1 0 2.1c-11.4-3.7-23.4-6.1-31.2-21.4z"/><path fill-rule="evenodd" class="a" d="m144.9 93.6c-4.7-27.2 0-29.5 15-41.5 3.3 20.1-15.3 24.4-15 41.5zm1.6-15.6c0.9-2.8 2.5-7.3 6.3-12.1 3.8-4.8 5.8-10.9 5.8-10.9 0 0-1.2 3.1-7.6 10.8-6.4 7.8-6.2 21.5-6.2 21.5 0 0 0.9-6.4 1.7-9.3z"/><path fill-rule="evenodd" class="a" d="m39.8 81.3c-5.1-14.8-7.3-18.4 7.9-35-7.8 11.6 3.1 22.7-7.9 35zm5-30.7c0 0-6.1 9.4-5.1 17.4 1 8.1 0.4 10.8 0.4 10.8 0 0 1.4-5.1 0.9-10-0.5-5 0.3-8.8 1-11.1 0.6-2.3 2.8-7.1 2.8-7.1z"/><path fill-rule="evenodd" class="a" d="m58.6 102.7c-5.1-14.8-7.3-18.4 7.8-35-7.7 11.6 3.2 22.7-7.8 35zm4.9-30.7c0 0-6 9.3-5.1 17.4 1 8.1 0.5 10.8 0.5 10.8 0 0 1.3-5.1 0.8-10.1-0.5-4.9 0.3-8.7 1-11 0.7-2.3 2.8-7.1 2.8-7.1z"/><path fill-rule="evenodd" class="a" d="m65.1 30.8c-17.6-12.1-16.3-15.9-14.8-30.7 12.8 9.1 5.2 21.7 14.8 30.7zm-7.8-9.3c-1.1-2-2.6-5.3-3.2-10-0.6-4.7-3-9.1-3-9.1 0 0 1.1 2.4 1.9 10.1 0.9 7.7 8.5 15 8.5 15 0 0-3-4-4.2-6z"/><path class="a" d="m211.6 99c-14.9 25.1-19.8 36.1-48.3 38.5q0.2-0.7 0.4-1.3c0.4-1.5 1-2.6 2.1-3.7 7.7-2.6 16.5-6.8 22.5-13.3 12.8-13.9 18.4-17 18.4-17 0 0-11.1 5.3-19.1 13.6-8 8.4-15.9 12.6-21 14.9q-0.6 0.3-1.2 0.5-1.2-0.7-2.2-1.6c-0.6-0.6-1-1.1-1.6-1.7q-0.3-0.3-0.6-0.7c14.2-11.8 24-28.9 50.6-28.2z"/><path fill-rule="evenodd" class="a" d="m0.7 246.6c13.9-16.9 16.5-22.2 47.5-16.4-19.5-0.7-24.7 20.5-47.5 16.4zm40.2-16.7c0 0-15.6-0.3-24.5 6.8-8.9 7.1-12.4 8.5-12.4 8.5 0 0 7-2.2 12.5-6.4 5.6-4.3 10.6-6.1 13.9-7 3.2-0.9 10.5-1.9 10.5-1.9z"/><path class="a" d="m176.5 187.4c-2.3-21.2-2.3-30.3-19.9-40.5 0.8 1.6 1.1 3.4 0.9 5.2q0 0 0 0.1c3.8 3.9 7.6 8.8 9.4 14.3 4.4 13.4 7.2 17.2 7.2 17.2 0 0-5.9-7-8.7-15.2-2.3-6.5-5.4-11.3-8-14.5q0 1 0 1.9c-0.2 1.7-0.6 3.1-1.7 4.4l-0.2 0.3-0.4-0.2q-0.5-0.2-1.1-0.4c4 10.4 7.8 21.2 22.5 27.4z"/><path fill-rule="evenodd" class="a" d="m49 229.6c-27.2-5.1-27.7-10.3-33.7-28.6 19.9 3.9 17.5 22.9 33.7 28.6zm-14.1-7c-2.4-1.8-5.9-4.9-9.1-10.1-3.2-5.3-8.3-9.3-8.3-9.3 0 0 2.5 2.3 7.5 10.9 5.1 8.7 18 13.4 18 13.4 0 0-5.7-3.1-8.1-4.9z"/><path class="a" d="m81 252.4c0.8-0.6 1.9-0.9 3.2-0.8 1.6 0.1 3.1 0.8 4.1 1.9 1 1.1 1.5 2.6 1.4 4.3v0.1c0 0.4-0.3 1.1-0.4 1.5q-0.3 0.8-0.7 1.5c-1.5 2.4-4.3 4-7.4 3.7-2.4-0.1-4.6-1.2-6.2-3-1.5-1.7-2.3-4-2-6.4v-0.1c0.2-0.8 0.3-1.6 0.6-2.4q0.4-1.1 1-2.1c2.3-3.5 6.4-5.8 11-5.5l0.1 0.1c3.6 0.2 6.7 1.9 8.8 4.4 2.1 2.5 3.2 5.8 2.8 9.4q-0.2 1.8-0.8 3.5-0.6 1.6-1.5 3.1c-3.5 5.2-9.7 8.1-15.9 7.6-5.1-0.4-9.5-2.8-12.4-6.4-22.8-27.4 35.7-45.3 49-56.3-5.6 2.1-21.5 11-30.7 16.3-10.6 4.7-39.3 10.8-39.5-7.5-0.1-3 1.1-6.1 3.5-8.4l0.1-0.1c3-3 7.3-3.9 11.1-2.8q1 0.3 2 0.9 1 0.5 1.9 1.3c1.8 1.7 2.6 3.8 2.6 5.9 0 2.2-0.8 4.3-2.5 6l-0.1 0.1c-2.1 2.1-5.1 2.7-7.7 1.9q-0.8-0.2-1.5-0.6-0.7-0.4-1.3-1c-1.2-1.1-1.8-2.6-1.7-4.1 0-1.5 0.6-2.9 1.7-4.1h0.1c1.4-1.5 3.5-1.8 5.3-1.3q0.5 0.2 0.9 0.4 0.5 0.3 0.9 0.7c0.8 0.7 1.2 1.7 1.1 2.7 0 1-0.4 2-1.2 2.7-0.6 0.6-1.3 0.9-2 1 0.9-0.8 1-2.1 0.3-3-0.8-1-2.3-1.2-3.2-0.4-1 0.7-1.2 2-0.4 3q0.5 0.5 1.1 0.7 0.2 0.2 0.5 0.3c1.4 0.5 3.1 0.2 4.3-1h0.1c0.9-0.9 1.4-2.1 1.4-3.2 0-1.2-0.4-2.4-1.4-3.4q-0.5-0.4-1.1-0.8-0.5-0.3-1.1-0.5c-2-0.6-4.4-0.2-6.2 1.5-1.3 1.3-2 3-2 4.7 0 1.7 0.6 3.4 2 4.7h0.1q0.6 0.6 1.4 1.1 0.8 0.4 1.6 0.7c2.9 0.8 6.3 0.2 8.7-2.2 1.9-1.8 2.8-4.2 2.8-6.5 0-2.4-1-4.7-2.9-6.5v-0.1q-1-0.8-2.1-1.4-1-0.7-2.2-1c-4-1.2-8.7-0.2-11.9 3l-0.1 0.1c-2.6 2.5-3.8 5.8-3.8 9 0.1 6.4 3.4 10 8.3 11.7q-1.5-0.2-3.3-0.4c-4.9-0.6-9.6 1.5-12.3 5.2q-0.8 1.1-1.3 2.3-0.6 1.2-0.8 2.6v0.1c-0.5 2.7 0.2 5.4 1.7 7.4 1.6 2.1 3.9 3.5 6.7 3.9h0.1c3.5 0.5 6.9-1.2 8.8-3.8q0.6-0.8 1-1.7 0.3-0.8 0.5-1.8v-0.1c0.4-2-0.1-3.9-1.3-5.4-1.1-1.4-2.8-2.4-4.7-2.7h-0.1c-2.6-0.3-4.9 0.9-6.3 2.8q-0.4 0.5-0.6 1.2-0.3 0.6-0.4 1.3c-0.3 1.5 0.1 2.8 0.9 3.8 0.8 1 2 1.7 3.4 1.9 1.9 0.2 3.5-0.7 4.4-2q0.2-0.3 0.3-0.6 0.4-0.5 0.4-1.3c0.1-1.3-0.9-2.4-2.3-2.4-1.3 0-2.4 1.1-2.4 2.5-0.1 1.3 0.9 2.3 2.1 2.4-0.7 0.4-1.4 0.6-2.3 0.5h-0.1c-1.1-0.2-2.1-0.8-2.8-1.6-0.6-0.8-1-1.9-0.7-3.1q0.1-0.6 0.3-1.1 0.2-0.5 0.5-1c1.2-1.6 3.2-2.7 5.4-2.4h0.1c1.7 0.3 3.2 1.2 4.2 2.4 1 1.3 1.5 2.9 1.2 4.7l-0.1 0.1q-0.1 0.8-0.5 1.6-0.3 0.8-0.8 1.5c-1.7 2.4-4.7 3.8-8 3.4h-0.1c-2.5-0.4-4.6-1.7-6-3.6-1.4-1.8-2.1-4.2-1.6-6.7v-0.1q0.2-1.3 0.7-2.4 0.5-1.1 1.2-2.1c2.5-3.4 6.9-5.4 11.4-4.8h0.2c1.4 0.2 6.2 0.6 8.5 0.7 7.5 0.9 16.6-0.9 23.1-3-17.3 10.1-28.4 24.3-15.5 38.5 7.7 9.3 23.6 8.8 30.3-1.5q1-1.5 1.7-3.3 0.6-1.8 0.9-3.7c0.3-3.2-1-8-3.1-10.5-2.3-2.7-5.7-4.5-9.6-4.8l-0.2-0.1c-5-0.3-9.6 2.2-12.1 6.1q-0.7 1.1-1.2 2.4-0.5 1.3-0.6 2.7v0.1c-0.4 2.8 0.5 5.5 2.2 7.4 1.7 1.9 4.2 3.2 6.9 3.4 3.5 0.3 6.9-1.4 8.7-4.3q0.5-0.9 0.8-1.8 0.4-0.9 0.5-1.8c0.2-2-0.3-3.9-1.7-5.4-1.2-1.3-2.9-2.2-4.8-2.3h-0.1c-2.6-0.2-4.8 1.2-5.9 3.1q-0.3 0.4-0.4 0.8c-0.4 0.6-0.5 1.2-0.5 1.9 0 1.9 1.5 3.4 3.4 3.2 1.8-0.1 3.3-1.7 3.3-3.6-0.1-1.9-1.5-3.3-3.2-3.3z"/><path class="a" d="m90.1 199c1.1-0.6 2-1.6 2.6-2.9 0.8-1.8 0.8-3.7 0.2-5.3-0.6-1.6-1.9-3-3.7-3.7l-0.1-0.1q-0.9-0.3-1.8-0.4-0.9-0.1-1.9-0.1c-3.3 0.3-6.4 2.3-7.9 5.7v0.1c-1.1 2.6-1.1 5.5-0.2 8 1 2.4 2.9 4.5 5.7 5.5h0.1q1.3 0.5 2.7 0.7 1.4 0.2 2.8 0.1c4.8-0.5 9.4-3.5 11.6-8.5v-0.1c1.7-3.9 1.6-8 0.2-11.6-1.5-3.5-4.3-6.4-8.3-7.9l-0.1-0.1q-2-0.7-4-1-2-0.2-4 0c-6.9 0.7-13.4 5.2-16.4 12.1l-0.1 0.2c-2.3 5.5-2.2 11.4-0.1 16.4 10.8 25.5 43.6 8.1 62.1-6.9 13.5-10.9 16.5-26.2 15.3-39.4q0.8 0.3 1.7 0.5c1.3 13.9-2.8 28.5-12 36.7-4.3 3.7-9.7 7.9-15.6 11.6-10.5 8.5-32.5 35.1-13.5 45.2 3.1 1.6 6.9 2.1 10.7 0.9l0.1-0.1c4.7-1.5 8.1-5.5 8.9-10q0.3-1.3 0.2-2.6 0-1.3-0.4-2.7v-0.1c-0.8-2.6-2.5-4.7-4.7-5.8-2.3-1.2-5-1.5-7.6-0.6h-0.1c-3.3 1.1-5.6 3.9-6.2 7.1q-0.2 0.9-0.1 1.8 0 0.9 0.3 1.8v0.1c0.5 1.8 1.7 3.2 3.3 4 1.5 0.8 3.4 1 5.2 0.4h0.1c2.3-0.8 3.8-2.7 4.1-4.9q0.1-0.6 0.1-1.2 0-0.6-0.2-1.2v-0.1c-0.4-1.2-1.2-2.1-2.2-2.6-1.1-0.5-2.3-0.6-3.5-0.2-0.9 0.3-1.6 0.9-2.1 1.5 1.3-0.5 2.7 0.1 3.3 1.4 0.5 1.4 0 3-1.3 3.6-1.3 0.6-2.8 0-3.4-1.3q-0.3-0.7-0.2-1.5 0-0.3 0.1-0.7c0.2-1.7 1.4-3.3 3.3-4 1.5-0.4 2.9-0.3 4.2 0.3 1.3 0.6 2.3 1.7 2.7 3.2v0.1q0.2 0.7 0.2 1.4 0.1 0.8 0 1.5c-0.5 2.5-2.2 4.8-4.9 5.6l-0.1 0.1c-2 0.6-4.1 0.4-5.9-0.5-1.7-0.9-3.1-2.5-3.7-4.6l-0.1-0.1q-0.2-1-0.3-2.1 0-1 0.2-2c0.6-3.5 3.1-6.6 6.8-7.8l0.1-0.1c2.9-0.9 5.9-0.6 8.3 0.7 2.4 1.3 4.4 3.5 5.2 6.4v0.1q0.4 1.5 0.5 2.9 0 1.5-0.3 2.9c-0.9 4.8-4.4 9.1-9.5 10.8h-0.2c-4 1.3-8 0.8-11.4-0.9-6.6-3.6-8.5-9-7.7-15v0.1c0.2-2.3 0.6-4.1 1.6-6.1 3.1-8.3 9.9-16.8 15.6-22.4-18.3 10.4-39.9 15.5-48.4-4.7-2.3-5.3-2.4-11.5 0.1-17.4v-0.2c3.3-7.5 10.3-12.3 17.7-13q2.2-0.3 4.4 0 2.2 0.3 4.4 1.1h0.1c4.3 1.7 7.5 4.9 9.1 8.8 1.6 3.9 1.6 8.4-0.1 12.6h-0.1v0.2c-2.4 5.4-7.5 8.8-12.8 9.3q-1.6 0.2-3.2 0-1.6-0.2-3.1-0.8l-0.1-0.1c-3.2-1.2-5.4-3.5-6.5-6.3-1.1-2.8-1.1-6 0.1-9.1l0.1-0.1c1.7-3.9 5.4-6.2 9.2-6.5q1.1-0.1 2.2 0.1 1.1 0.1 2.2 0.5h0.1c2.3 0.9 3.8 2.6 4.5 4.6 0.8 2 0.7 4.2-0.1 6.3l-0.1 0.1c-1.2 2.8-3.8 4.3-6.4 4.5q-0.6 0-1.1 0c-0.8 0-1.5-0.2-2.2-0.6-2-1-2.7-3.4-1.5-5.2 1.1-1.9 3.6-2.5 5.6-1.5 1.8 1.1 2.5 3.3 1.6 5.1z"/><path fill-rule="evenodd" class="a" d="m147.3 250.4c-16.4-21.6-22-26.4-6.1-62.1-6.5 23.4 17.5 35.8 6.1 62.1zm-8.5-53.4c0 0-5 18.7 1.1 31.5 6 12.8 6.6 17.5 6.6 17.5 0 0-0.6-9.1-4.1-17-3.5-7.9-4.3-14.5-4.4-18.7-0.2-4.2 0.8-13.3 0.8-13.3z"/><path class="a" d="m111.4 208.9c22.2-17.4 31.4-22.8 28.8-52.9q-0.3-0.6-0.6-1.3 0 1.2-0.5 2.4c-0.5 1.3-1.2 2.4-2.2 3.3-1.3 7.9-4 17.9-9.9 25-11.1 13.3-13.2 18.7-13.2 18.7 0 0 3.4-10.6 10-18.9 6.6-8.2 9.6-15.8 11-20.8 0.3-0.8 0.5-1.8 0.8-2.9q-0.7 0.5-1.5 0.8-0.3 0.1-0.6 0.3c-0.9 0.4-1.9 1-2.9 1.4q-1.6 0.8-3.3 1.3c-8.7 11.8-19.1 22.8-15.9 43.6z"/><path class="a" d="m85 172.3c19.3-0.6 28.5-0.1 38.6-12.3-0.7-0.8-1.5-1.7-1.9-2.6q-0.2-0.6-0.4-1.2c-4.1 3.5-9.2 6.7-14.6 8.1-13.8 3.4-17.8 5.9-17.8 5.9 0 0 7.4-5.3 15.8-7.6 7.6-2 12.9-5.2 16.3-7.6-0.2-1.6 0-3.2 0.6-4.8q0.2-0.5 0.5-1c-12.9 5.2-27.8 5.3-37.1 23.1z"/><path fill-rule="evenodd" class="a" d="m159.1 223.4c-14.9-12.1-19.5-14.4-14.5-41.6-0.6 17.1 18 21.6 14.5 41.6zm-14.7-35.2c0 0-0.3 13.7 6 21.4 6.2 7.8 7.4 11 7.4 11 0 0-1.9-6.2-5.6-11-3.8-4.9-5.4-9.3-6.2-12.2-0.8-2.8-1.6-9.2-1.6-9.2z"/><path fill-rule="evenodd" class="a" d="m46.8 228c-14.9-16.8-12.7-20.3-7.5-35.1 10.9 12.5-0.1 23.5 7.5 35.1zm-5.6-11.4c-0.6-2.4-1.4-6.1-0.8-11.1 0.5-4.9-0.8-10-0.8-10 0 0 0.6 2.7-0.5 10.7-1.1 8.1 4.9 17.5 4.9 17.5 0 0-2.1-4.8-2.8-7.1z"/><path fill-rule="evenodd" class="a" d="m65.8 206.9c-15-16.8-12.7-20.4-7.5-35.1 10.9 12.4-0.1 23.4 7.5 35.1zm-5.6-11.5c-0.7-2.3-1.4-6.1-0.8-11.1 0.5-4.9-0.8-10-0.8-10 0 0 0.5 2.7-0.5 10.7-1.1 8.1 4.9 17.5 4.9 17.5 0 0-2.1-4.8-2.8-7.1z"/><path fill-rule="evenodd" class="a" d="m48.9 274.2c-1.3-14.8-2.6-18.6 15.2-30.5-9.8 8.9-2.3 21.6-15.2 30.5zm11.5-27.2c0 0-7.7 7.3-8.6 14.9-0.9 7.7-2 10.1-2 10.1 0 0 2.4-4.4 3-9.1 0.7-4.7 2.3-8 3.4-10 1.2-2 4.2-5.9 4.2-5.9z"/><path fill-rule="evenodd" class="a" d="m126.7 114c2.3 0.3 4.4 1.4 6 3.3 1.5 1.9 1.7 4.5 2 7.7 0.2 1.9 0.3 4.1 0.8 6.6-0.7 0.1-1.5 0.3-2.1 0.9-0.7 0.5-1.1 1.2-1.3 1.9-2.4-1.1-4.5-1.7-6.3-2.3-3.1-1-5.5-1.8-7-3.7-1.6-1.9-2.2-4.3-1.9-6.5 0.3-2.3 0.3-5.4-0.5-9.7 8.1 2.1 8.1 1.6 10.3 1.8zm22.9-6c0.8 4.3 1.2 6.6 2.1 8.6 0.9 2.1 1 4.6 0.1 6.8-0.9 2.3-3 3.8-5.7 5.6-1.6 1.1-3.4 2.4-5.3 4.1-0.4-0.7-1-1.2-1.8-1.5-0.7-0.3-1.6-0.3-2.3-0.2-0.3-2.5-0.7-4.7-1.1-6.6-0.7-3.2-1.2-5.6-0.4-7.9 0.9-2.2 2.7-3.9 4.8-4.9 2.1-0.9 5.8-0.3 9.6-4zm12.3 31.5c-1.4 1.9-3.4 3.2-5.8 3.5-2.5 0.4-4.8-0.7-7.7-2.1-1.8-0.8-3.8-1.7-6.2-2.5 0.4-0.7 0.5-1.5 0.4-2.3-0.1-0.8-0.5-1.6-1-2.1 2.1-1.5 3.7-3 5.1-4.3 2.5-2.2 4.3-3.9 6.7-4.2 2.4-0.4 4.8 0.3 6.6 1.6 1.8 1.4 2 2.8 5.6 4.9-2.9 2.7-2.4 5.7-3.7 7.5zm-6.6 20.5c-4.8-2.2-5.9 0.1-8.1-0.2-2.3-0.2-4.5-1.4-6-3.3-1.5-1.9-1.7-4.4-2-7.7-0.2-1.9-0.4-4.1-0.9-6.6 0.8 0 1.6-0.3 2.2-0.8 0.7-0.5 1.1-1.2 1.3-1.9 2.4 1 4.5 1.7 6.3 2.3 3.1 1 5.5 1.7 7 3.7 1.5 1.9 2.1 4.2 1.9 6.5-0.3 2.3 0.4 5.5-1.7 8zm-33.1-2.8c-0.9-2.1-1-4.5-0.1-6.8 0.9-2.3 3-3.7 5.6-5.6 1.6-1.1 3.4-2.3 5.3-4 0.5 0.6 1.1 1.2 1.8 1.4 0.8 0.4 1.6 0.4 2.4 0.2 0.2 2.6 0.7 4.7 1.1 6.6 0.7 3.2 1.2 5.6 0.3 7.9-0.9 2.3-2.6 4-4.7 4.9-2.1 0.9-3.7 2.2-7.8 3.3 0.4-3.8-3-5.8-3.9-7.9zm-15-14.4c2.7-2.3 3.4-6.6 4.8-8.5 1.3-1.8 3.4-3.1 5.8-3.5 2.5-0.4 4.7 0.7 7.7 2.1 1.7 0.8 3.7 1.8 6.1 2.6-0.3 0.7-0.4 1.5-0.3 2.3 0.1 0.8 0.5 1.5 1 2.1-2.1 1.5-3.7 3-5.2 4.3-2.4 2.2-4.2 3.8-6.6 4.2-2.5 0.3-4.8-0.3-6.6-1.7-1.9-1.3-4.5-2.9-6.7-3.9zm26.8-9.6c2-1.7 5-1.3 6.7 0.8 1.6 2 1.3 5-0.8 6.7-2 1.6-5.1 1.3-6.7-0.8-1.6-2.1-1.3-5.1 0.8-6.7z"/></svg>