<svg version="1.2" xmlns="http://www.w3.org/2000/svg" viewBox="0 0 531 1209" width="531" height="1209"><style>.a{fill:#ede8e2}</style><path fill-rule="evenodd" class="a" d="m240.8 813.5c-5.1-187.7-38.8-373.4-87.7-552.9q4.6 13.8 9.2 27.6c25.5 71.4 45.9 146.8 62.2 221.3 18.4 87.7 33.6 176.5 44.9 265.2 2 16.3 3 32.6 5.1 49 3.4 27.6 6.3 55.7 8.7 83.6q0 0 0 0-2.8 0-5.7 0-12.8 0-23.6 0.6l-24.3-31.2c-3.1-17.3 0-36.7 8.2-52h4l-1-5.1zm14.3 28.5c-5.1-1-11.2 3.1-12.2 8.2-1.1 6.1 3 11.2 8.1 11.2 5.1 1 11.2-2 12.2-8.1 1.1-5.1-2-10.3-8.1-11.3zm-161.2-740.5c83.7 255 129.6 492.7 136.7 714-3.1-2-5.1-3.1-7.1-4.1-17.4-10.2-36.7-16.3-57.2-18.3 11.3-5.1 23.5-7.2 34.7-5.1-41.8-24.5-69.3-54.1-81.6-87.8 13.3 13.3 28.6 20.4 43.9 20.4q-42.9-26-52-58.1c13.2 12.2 28.5 21.4 43.8 29.6-26.5-25.5-46.9-52-60.1-81.6l76.4 34.7c-39.7-28.6-67.3-54.1-81.5-77.6 10.2-34.6-1.1-56.1-26.6-117.3l106.1 61.2-126.5-90.7c-7.1-50-10.2-107.1-8.1-170.4l48.9 33.7c-34.7-41.8-53-63.2-55-62.2-36.8-56.1-1.1-168.3 38.7-221.4 90.8 60.2 186.7 132.6 220.3 218.3l-62.2 106.1 69.4-87.7c12.2 34.6 19.3 71.4 22.4 110.1-28.6 36.7-61.2 74.5-61.2 74.5 69.4-57.1 121.4-106.1 121.4-106.1-30.6 46.9-36.7 84.7-19.4 113.2l-2 63.3c-32.7 47.9-78.6 109.1-78.6 109.1 43.9-50 94.9-111.2 94.9-111.2-14.3 85.7-16.3 139.8-5.1 163.2-16.3 15.3-29.6 31.6-36.7 48 11.2-9.2 25.5-17.4 40.8-21.5-33.7 28.6-51 56.1-53.1 80.6 22.5-1 36.8 4.1 43.9 17.4-29.6-7.2-55.1 5.1-77.5 37.7-35.7-307-99-544.7-190.8-714zm335.6 1050.6c63.2 3.1 103 8.2 101 13.3-3.1 6.1-57.1 11.2-136.7 14.2 43.9 3.1 69.4 7.2 67.3 12.3-3 9.2-102 16.3-220.3 16.3-117.3 0-211.1-7.1-207-16.3 2-5.1 33.6-9.2 82.6-12.3-72.4-3-118.3-8.1-116.3-14.2 2-5.1 47.9-10.2 117.3-13.3-33.7-2-54.1-4.1-53-6.1 0.9-2.7 20.6-5 52.6-6.8 20.7 21.8 73.9 33.5 160.5 34.3 86.5-0.8 139.6-12.6 160-34.7 35.2 1.8 56.2 4.3 55.2 7.2-1 2-25.5 5.1-63.2 6.1zm-312.5-12.9q-10.2-10.8-9.8-24.8l27.5-129.6c5.1-21.4 25.5-33.6 61.2-37.7-8.9-24 10.1-36.3 58-39.2l32.8 42.2q-1.2-16.1-2.6-32.4c35.2 3.3 55.8 12.3 60.7 26.3 4-20-16.5-28.2-60.7-26.6q-0.4-5-0.9-10.1c59.3 0.8 84.8 13 73.9 39.8 36.7 4.1 57.1 16.3 62.2 37.7l27.6 129.6q0.4 13.8-9.4 24.4c-38.3-1.9-93.3-3-154.9-3-65.8 0-125.4 1.3-165.6 3.4zm133 51.7c0 2 11.2 4 25.5 4 13.2 0 24.5-2 24.5-4 0-2.1-11.3-4.1-24.5-4.1-14.3 0-25.5 2-25.5 4.1zm-164.2-25.5c0 2 7.1 3 16.3 3 9.2 0 16.3-1 16.3-3 0-1.1-7.1-2.1-16.3-2.1-9.2 0-16.3 1-16.3 2.1zm213.2-211.2c-40.9 2.1-73.5-2-98-10.2 20.4 14.3 53.1 17.4 98 10.2zm-14.9-36.8q0 0.2 0 0.3-1.2-0.1-2.5-0.2 1.3-0.1 2.5-0.1zm-99.4 188.8c-3-64.3 4.1-107.1 21.4-127.5 0 0 25.5-2 77.5-7.1-31.6-2.1-60.1-4.1-85.6-7.2-33.7-4.1-54.1 19.4-61.2 71.4 14.3-32.6 28.5-50 40.8-52-8.2 37.7-6.2 78.5 7.1 122.4z"/></svg>